<svg width="160" height="160" viewBox="0 0 160 160" fill="none" xmlns="http://www.w3.org/2000/svg">
<path d="M153.309 73.4028L86.4065 6.50026C82.8165 2.91026 76.996 2.91026 73.406 6.50026L6.50344 73.4028C2.91345 76.9928 2.91345 82.8133 6.50344 86.4033L73.406 153.306C76.996 156.896 82.8165 156.896 86.4065 153.306L153.309 86.4033C156.899 82.8133 156.899 76.9928 153.309 73.4028Z" fill="#F6EFEF" stroke="#55504D" stroke-miterlimit="10"/>
<path d="M148.938 73.3718L86.3674 10.801C82.7775 7.21104 76.9569 7.21104 73.3669 10.801L10.7962 73.3718C7.20617 76.9618 7.20616 82.7823 10.7962 86.3723L73.3669 148.943C76.9569 152.533 82.7775 152.533 86.3675 148.943L148.938 86.3723C152.528 82.7823 152.528 76.9618 148.938 73.3718Z" fill="#256CB0" stroke="#55504D" stroke-miterlimit="10"/>
<circle cx="79.8984" cy="17.5552" r="2.48352" transform="rotate(45 79.8984 17.5552)" fill="#F6EFEF"/>
<circle cx="16.6797" cy="80.7739" r="2.48352" transform="rotate(45 16.6797 80.7739)" fill="#F6EFEF"/>
<circle cx="142.242" cy="79.8989" r="2.48352" transform="rotate(45 142.242 79.8989)" fill="#F6EFEF"/>
<circle cx="79.0234" cy="143.118" r="2.48352" transform="rotate(45 79.0234 143.118)" fill="#F6EFEF"/>
<path d="M80.4062 48.4023C62.7325 48.4023 48.4062 62.7286 48.4062 80.4023C48.4062 98.0761 62.7325 112.402 80.4062 112.402C98.08 112.402 112.406 98.0761 112.406 80.4023C112.406 62.7286 98.08 48.4023 80.4062 48.4023ZM80.4062 106.164C66.1777 106.164 54.645 94.6309 54.645 80.4023C54.645 66.1738 66.1777 54.6411 80.4062 54.6411C94.6348 54.6411 106.168 66.1738 106.168 80.4023C106.168 94.6309 94.6348 106.164 80.4062 106.164Z" fill="#F6EFF0"/>
<path d="M80.4062 103.012C92.893 103.012 103.016 92.8891 103.016 80.4023C103.016 67.9155 92.893 57.793 80.4062 57.793C67.9194 57.793 57.7969 67.9155 57.7969 80.4023C57.7969 92.8891 67.9194 103.012 80.4062 103.012Z" fill="#F6EFF0"/>
<path d="M88.7151 90.0462C87.8681 90.4208 85.4736 91.3412 82.4601 90.7385C81.6782 90.5837 78.9498 89.9973 76.8322 87.5377C76.2539 86.8698 75.8304 86.1775 75.4965 85.4852H82.8103V81.6654H74.5273C74.4703 80.8021 74.5273 80.118 74.5436 79.7596C74.5517 79.613 74.5761 79.4094 74.6006 79.165H82.8103V75.3452H75.7408C76.2132 74.4168 76.8729 73.4638 77.8095 72.6005C78.4285 72.0223 80.09 70.5318 82.7451 70.1653C85.0012 69.8558 86.7767 70.5155 87.5423 70.8576C88.1206 69.4893 88.6988 68.121 89.2771 66.7527C87.9658 66.207 84.4636 64.9854 80.5217 66.1989C78.2086 66.9156 76.653 68.1862 75.863 68.8377C75.1218 69.4567 73.2241 71.1589 71.864 73.9932C71.7337 74.262 71.5219 74.7263 71.2857 75.3371H67.7266V79.1569H70.3491C70.2595 79.9388 70.2188 80.7777 70.2677 81.6573H67.7266V85.4771H71.0088C71.4812 86.8454 72.7192 89.7774 75.7245 92.1149C76.482 92.7095 79.8375 95.1935 84.6917 95.104C86.8093 95.0632 88.4952 94.542 89.554 94.1348C89.2771 92.7665 89.0002 91.3982 88.7233 90.0299L88.7151 90.0462Z" fill="#256CB0"/>
</svg>
