<svg width="60" height="41" viewBox="0 0 60 41" fill="none" xmlns="http://www.w3.org/2000/svg">
<rect x="0.654687" y="1.05117" width="58.3" height="39.3" rx="3.85" fill="#F1EAE6" stroke="#55504D" stroke-width="0.7"/>
<rect x="1.89781" y="2.94566" width="55.8184" height="35.5095" rx="1.96" fill="#56A2E9" stroke="#55504D" stroke-width="0.28"/>
<path d="M57.8437 4.90566C57.8437 3.74587 56.9035 2.80566 55.7438 2.80566L39.0977 2.80566L39.0977 38.5951L55.7437 38.5951C56.9035 38.5951 57.8437 37.6549 57.8437 36.4951L57.8437 4.90566Z" fill="#256CB0"/>
<rect width="18.6072" height="35.7895" transform="matrix(-1 -1.26858e-07 -6.02465e-08 1 39.1016 2.80566)" fill="#F9F9FA"/>
<path d="M20.4922 2.80566L3.84615 2.80566C2.68635 2.80566 1.74615 3.74586 1.74615 4.90566L1.74615 36.4951C1.74615 37.6549 2.68635 38.5951 3.84614 38.5951L20.4922 38.5951L20.4922 2.80566Z" fill="#D65050"/>
<ellipse cx="4.0462" cy="5.75226" rx="0.843073" ry="0.842105" fill="#F1EAE6"/>
<ellipse cx="4.0462" cy="34.5228" rx="0.843073" ry="0.842105" fill="#F1EAE6"/>
<ellipse cx="55.304" cy="5.75226" rx="0.843073" ry="0.842105" fill="#F1EAE6"/>
<ellipse cx="55.304" cy="34.5228" rx="0.843073" ry="0.842105" fill="#F1EAE6"/>
</svg>
