<svg width="59" height="40" viewBox="0 0 59 40" fill="none" xmlns="http://www.w3.org/2000/svg">
<rect x="0.35119" y="0.35119" width="58.2976" height="39.2976" rx="3.8631" fill="white" stroke="#55504D" stroke-width="0.702381"/>
<rect x="1.5936" y="2.24594" width="55.8174" height="35.5085" rx="1.96667" fill="#56A2E9" stroke="#55504D" stroke-width="0.280952"/>
<path d="M55.4788 37.8945C56.6425 37.8945 57.5859 36.9511 57.5859 35.7874L57.5859 25.9647L1.39547 25.9647L1.39547 35.7874C1.39547 36.9511 2.33887 37.8945 3.50262 37.8945L55.4788 37.8945Z" fill="#204486"/>
<rect width="12.6316" height="56.1905" transform="matrix(4.2014e-08 -1 -1 7.4124e-08 57.5859 25.9648)" fill="#F9F9FA"/>
<path d="M57.5859 13.333L57.5859 4.21208C57.5859 3.04834 56.6425 2.10494 55.4788 2.10494L3.50262 2.10494C2.33887 2.10494 1.39547 3.04834 1.39547 4.21209L1.39547 13.333L57.5859 13.333Z" fill="#A91C27"/>
<ellipse cx="3.64776" cy="5.75324" rx="0.843073" ry="0.842105" fill="white"/>
<ellipse cx="3.64776" cy="34.5247" rx="0.843073" ry="0.842105" fill="white"/>
<ellipse cx="54.9134" cy="5.75324" rx="0.843073" ry="0.842105" fill="white"/>
<ellipse cx="54.9134" cy="34.5247" rx="0.843073" ry="0.842105" fill="white"/>
</svg>
