<svg width="59" height="40" viewBox="0 0 59 40" fill="none" xmlns="http://www.w3.org/2000/svg">
<rect x="0.350877" y="0.350877" width="58.2982" height="39.2982" rx="3.85965" fill="#F1EAE6" stroke="#55504D" stroke-width="0.701754"/>
<rect x="1.58566" y="2.24582" width="55.8177" height="35.5088" rx="1.96491" fill="#56A2E9" stroke="#55504D" stroke-width="0.280702"/>
<path d="M57.5469 4.21073C57.5469 3.04803 56.6043 2.10547 55.4416 2.10547L38.8008 2.10547L38.8008 37.8949L55.4416 37.8949C56.6043 37.8949 57.5469 36.9524 57.5469 35.7897L57.5469 4.21073Z" fill="#D84314"/>
<rect width="18.6072" height="35.7895" transform="matrix(-1 -1.26858e-07 -6.02465e-08 1 38.8047 2.10547)" fill="#FFD43B"/>
<path d="M20.1953 2.10547L3.55454 2.10547C2.39183 2.10547 1.44927 3.04802 1.44927 4.21073L1.44927 35.7897C1.44927 36.9524 2.39183 37.8949 3.55453 37.8949L20.1953 37.8949L20.1953 2.10547Z" fill="#211D1D"/>
<ellipse cx="3.74151" cy="5.05207" rx="0.843073" ry="0.842105" fill="#F1EAE6"/>
<ellipse cx="3.74151" cy="33.8236" rx="0.843073" ry="0.842105" fill="#F1EAE6"/>
<ellipse cx="55.0149" cy="5.05207" rx="0.843073" ry="0.842105" fill="#F1EAE6"/>
<ellipse cx="55.0149" cy="33.8236" rx="0.843073" ry="0.842105" fill="#F1EAE6"/>
</svg>
