<svg width="131" height="131" viewBox="0 0 131 131" fill="none" xmlns="http://www.w3.org/2000/svg">
<g clip-path="url(#clip0_520_712)">
<path d="M130.5 65.5C130.5 101.399 101.399 130.5 65.5 130.5C29.6015 130.5 0.5 101.399 0.5 65.5C0.5 29.6015 29.6015 0.5 65.5 0.5C101.399 0.5 130.5 29.6015 130.5 65.5Z" fill="#F6EFEF" stroke="#55504D"/>
<path d="M125.127 65.4993C125.127 98.4321 98.4301 125.129 65.4973 125.129C32.5645 125.129 5.86719 98.4321 5.86719 65.4993C5.86719 32.5665 32.5645 5.86914 65.4973 5.86914C98.4301 5.86914 125.127 32.5665 125.127 65.4993Z" fill="#EB6D26" stroke="#55504D" stroke-width="0.5"/>
<path d="M59.1286 85.4588H41.0611L23 84.8119C23.1438 72.9259 27.3715 62.6538 33.3701 57.8184C35.4807 59.5042 38.1533 60.5105 41.0611 60.5105C43.9689 60.5105 46.6414 59.5042 48.7455 57.8249C54.8617 62.7388 59.1286 73.3179 59.1286 85.4523V85.4588Z" fill="#F6EFEF"/>
<path d="M41.0551 57.9226C47.385 57.9226 52.5164 52.7912 52.5164 46.4613C52.5164 40.1314 47.385 35 41.0551 35C34.7252 35 29.5938 40.1314 29.5938 46.4613C29.5938 52.7912 34.7252 57.9226 41.0551 57.9226Z" fill="#F6EFEF"/>
<path d="M111.129 85.4588H93.0611L75 84.8119C75.1438 72.9259 79.3715 62.6538 85.3701 57.8184C87.4807 59.5042 90.1533 60.5105 93.0611 60.5105C95.9689 60.5105 98.6414 59.5042 100.745 57.8249C106.862 62.7388 111.129 73.3179 111.129 85.4523V85.4588Z" fill="#F6EFEF"/>
<path d="M93.0707 57.9226C99.4006 57.9226 104.532 52.7912 104.532 46.4613C104.532 40.1314 99.4006 35 93.0707 35C86.7408 35 81.6094 40.1314 81.6094 46.4613C81.6094 52.7912 86.7408 57.9226 93.0707 57.9226Z" fill="#F6EFEF"/>
<path d="M84.9411 94.9998H66.8736L48.8125 94.3529C48.9563 82.4669 53.184 72.1948 59.1826 67.3594C61.2932 69.0452 63.9658 70.0515 66.8736 70.0515C69.7814 70.0515 72.4539 69.0452 74.558 67.3659C80.6742 72.2798 84.9411 82.859 84.9411 94.9933V94.9998Z" fill="#F6EFEF"/>
<path d="M66.8676 67.4637C73.1975 67.4637 78.3289 62.3323 78.3289 56.0023C78.3289 49.6724 73.1975 44.541 66.8676 44.541C60.5377 44.541 55.4062 49.6724 55.4062 56.0023C55.4062 62.3323 60.5377 67.4637 66.8676 67.4637Z" fill="#F6EFEF"/>
<circle cx="65.5" cy="11.5" r="2.5" fill="white"/>
<circle cx="64.5" cy="118.5" r="2.5" fill="white"/>
</g>
<defs>
<clipPath id="clip0_520_712">
<rect width="131" height="131" fill="white"/>
</clipPath>
</defs>
</svg>
