<svg width="668" height="1108" viewBox="0 0 668 1108" fill="none" xmlns="http://www.w3.org/2000/svg">
<g clip-path="url(#clip0_351_894)">
<mask id="mask0_351_894" style="mask-type:luminance" maskUnits="userSpaceOnUse" x="152" y="843" width="510" height="254">
<path d="M634.481 843.064L661.369 993.108C663.458 1004.75 655.709 1015.87 644.061 1017.96L204.72 1096.63C193.072 1098.72 181.94 1090.97 179.861 1079.33L152.974 929.299L634.481 843.064Z" fill="white"/>
</mask>
<g mask="url(#mask0_351_894)">
<path d="M634.481 843.064L661.369 993.108C663.458 1004.75 655.709 1015.87 644.061 1017.96L204.72 1096.63C193.072 1098.72 181.94 1090.97 179.861 1079.33L152.974 929.299L634.481 843.064Z" fill="#81BEF6" stroke="#4B7C9B" stroke-miterlimit="10"/>
<g opacity="0.8">
<path d="M499.802 1002.56L501.638 1002.23L484.12 904.455L482.283 904.783L499.802 1002.56Z" fill="#F7F5F4"/>
<path d="M491.908 1003.99L497.124 1003.05L479.605 905.269L474.389 906.208L491.908 1003.99Z" fill="#F7F5F4"/>
<path d="M464.961 1008.79L470.178 1007.85L452.66 910.084L447.443 911.022L464.961 1008.79Z" fill="#F7F5F4"/>
<path d="M455.927 1010.41L457.763 1010.07L440.246 912.302L438.408 912.631L455.927 1010.41Z" fill="#F7F5F4"/>
<path d="M332.868 1032.45L338.084 1031.51L320.566 933.743L315.35 934.682L332.869 1032.46L332.868 1032.45Z" fill="#F7F5F4"/>
<path d="M303.501 1037.71L305.991 1037.27L288.472 939.49L285.983 939.938L303.501 1037.71Z" fill="#F7F5F4"/>
<path d="M283.93 1041.23L286.42 1040.78L268.902 943.006L266.412 943.455L283.931 1041.24L283.93 1041.23Z" fill="#F7F5F4"/>
<path d="M567.486 990.448L569.897 990.017L552.378 892.236L549.968 892.667L567.486 990.448Z" fill="#F7F5F4"/>
<path d="M558.869 991.98L561.952 991.427L544.433 893.646L541.351 894.199L558.869 991.98Z" fill="#F7F5F4"/>
<path d="M551.886 993.251L553.358 992.985L535.839 895.205L534.367 895.47L551.886 993.251Z" fill="#F7F5F4"/>
<path d="M545.272 994.418L546.358 994.218L528.839 896.437L527.752 896.627L545.271 994.408L545.272 994.418Z" fill="#F7F5F4"/>
<path d="M536.659 995.959L539.741 995.406L522.222 897.625L519.14 898.179L536.659 995.959Z" fill="#F7F5F4"/>
<path d="M528.176 997.478L531.139 996.946L513.62 899.166L510.657 899.698L528.176 997.478Z" fill="#F7F5F4"/>
<path d="M521.175 998.741L522.647 998.476L505.128 900.695L503.656 900.96L521.175 998.741Z" fill="#F7F5F4"/>
<path d="M513.252 1000.16L515.663 999.727L498.144 901.946L495.733 902.377L513.252 1000.16Z" fill="#F7F5F4"/>
<path d="M504.636 1001.7L507.718 1001.14L490.199 903.356L487.116 903.909L504.635 1001.69L504.636 1001.7Z" fill="#F7F5F4"/>
<path d="M482.722 1005.62L484.194 1005.36L466.675 907.576L465.203 907.841L482.722 1005.62Z" fill="#F7F5F4"/>
<path d="M474.119 1007.16L477.202 1006.61L459.683 908.828L456.601 909.381L474.119 1007.16Z" fill="#F7F5F4"/>
<path d="M458.636 1009.93L460.108 1009.67L442.589 911.887L441.117 912.152L458.636 1009.93Z" fill="#F7F5F4"/>
<path d="M450.705 1011.36L453.116 1010.93L435.597 913.15L433.186 913.581L450.705 1011.36Z" fill="#F7F5F4"/>
<path d="M442.097 1012.9L445.178 1012.34L427.66 914.558L424.577 915.111L442.096 1012.89L442.097 1012.9Z" fill="#F7F5F4"/>
<path d="M435.105 1014.15L436.577 1013.89L419.058 916.109L417.586 916.374L435.105 1014.15Z" fill="#F7F5F4"/>
<path d="M428.506 1015.33L429.593 1015.13L412.074 917.35L410.987 917.55L428.507 1015.34L428.506 1015.33Z" fill="#F7F5F4"/>
<path d="M419.886 1016.88L422.968 1016.32L405.449 918.538L402.366 919.091L419.885 1016.87L419.886 1016.88Z" fill="#F7F5F4"/>
<path d="M411.402 1018.39L414.366 1017.86L396.847 920.078L393.883 920.61L411.402 1018.39Z" fill="#F7F5F4"/>
<path d="M404.41 1019.64L405.882 1019.38L388.363 921.597L386.891 921.862L404.41 1019.64Z" fill="#F7F5F4"/>
<path d="M396.486 1021.06L398.897 1020.63L381.378 922.849L378.968 923.281L396.486 1021.06Z" fill="#F7F5F4"/>
<path d="M387.869 1022.61L390.952 1022.06L373.433 924.278L370.351 924.831L387.869 1022.61Z" fill="#F7F5F4"/>
<path d="M380.886 1023.85L382.358 1023.59L364.839 925.807L363.367 926.072L380.886 1023.85Z" fill="#F7F5F4"/>
<path d="M374.272 1025.04L375.359 1024.85L357.839 927.06L356.753 927.26L374.272 1025.04Z" fill="#F7F5F4"/>
<path d="M365.785 1026.56L368.749 1026.03L351.23 928.247L348.266 928.779L365.785 1026.56Z" fill="#F7F5F4"/>
<path d="M358.793 1027.81L360.265 1027.55L342.746 929.756L341.274 930.021L358.793 1027.81Z" fill="#F7F5F4"/>
<path d="M351.8 1029.06L353.272 1028.8L335.753 931.018L334.281 931.283L351.8 1029.06Z" fill="#F7F5F4"/>
<path d="M345.185 1030.25L346.272 1030.06L328.753 932.281L327.666 932.471L345.185 1030.25Z" fill="#F7F5F4"/>
<path d="M328.651 1033.22L331.061 1032.79L313.542 935.007L311.132 935.439L328.651 1033.22Z" fill="#F7F5F4"/>
<path d="M320.042 1034.76L323.124 1034.2L305.605 936.417L302.522 936.97L320.041 1034.75L320.042 1034.76Z" fill="#F7F5F4"/>
<path d="M313.436 1035.95L314.522 1035.75L297.003 937.966L295.917 938.166L313.436 1035.95Z" fill="#F7F5F4"/>
<path d="M296.332 1039L299.296 1038.47L281.777 940.685L278.813 941.217L296.332 1039Z" fill="#F7F5F4"/>
<path d="M289.347 1040.25L290.819 1039.98L273.3 942.203L271.828 942.468L289.347 1040.25Z" fill="#F7F5F4"/>
<path d="M272.808 1043.22L275.889 1042.65L258.37 944.874L255.288 945.427L272.807 1043.21L272.808 1043.22Z" fill="#F7F5F4"/>
<path d="M265.816 1044.47L267.288 1044.21L249.769 946.424L248.297 946.69L265.816 1044.47Z" fill="#F7F5F4"/>
<path d="M259.201 1045.66L260.288 1045.47L242.769 947.686L241.683 947.886L259.202 1045.67L259.201 1045.66Z" fill="#F7F5F4"/>
<path d="M250.597 1047.19L253.678 1046.62L236.16 948.843L233.077 949.396L250.596 1047.18L250.597 1047.19Z" fill="#F7F5F4"/>
<path d="M573.512 989.365L576.882 988.766L559.363 890.985L555.993 891.584L573.512 989.365Z" fill="#F7F5F4"/>
</g>
<path d="M642.369 979.29L474.097 47.4208C472.123 36.4911 461.663 29.2308 450.733 31.2044L43.6177 104.719C32.688 106.693 25.4277 117.153 27.4013 128.083L195.673 1059.95C197.647 1070.88 208.107 1078.14 219.037 1076.17L626.152 1002.65C637.082 1000.68 644.343 990.22 642.369 979.29Z" stroke="#3F79AC"/>
<path d="M634.481 843.064L661.369 993.108C663.458 1004.75 655.709 1015.87 644.061 1017.96L204.72 1096.63C193.072 1098.72 181.94 1090.97 179.861 1079.33L152.974 929.299L634.481 843.064Z" stroke="#81BEF6" stroke-miterlimit="10"/>
</g>
<mask id="mask1_351_894" style="mask-type:luminance" maskUnits="userSpaceOnUse" x="5" y="9" width="630" height="922">
<path d="M487.034 26.1327L634.579 843.218L153.185 930.146L5.63997 113.06C3.66749 102.137 10.933 91.6693 21.8563 89.6968L463.671 9.91633C474.594 7.94386 485.062 15.2094 487.034 26.1327Z" fill="white"/>
</mask>
<g mask="url(#mask1_351_894)">
<mask id="mask2_351_894" style="mask-type:luminance" maskUnits="userSpaceOnUse" x="5" y="9" width="630" height="922">
<path d="M487.034 26.1327L634.579 843.218L153.185 930.146L5.63997 113.06C3.66749 102.137 10.933 91.6693 21.8563 89.6968L463.671 9.91633C474.594 7.94386 485.062 15.2094 487.034 26.1327Z" fill="white"/>
</mask>
<g mask="url(#mask2_351_894)">
<path d="M487.034 26.1327L634.579 843.218L153.185 930.146L5.63997 113.06C3.66749 102.137 10.933 91.6693 21.8563 89.6968L463.671 9.91633C474.594 7.94386 485.062 15.2094 487.034 26.1327Z" fill="#95C8F6"/>
<path d="M619.233 851.205L474.089 47.4149C472.116 36.4853 461.655 29.2249 450.726 31.1986L43.6099 104.713C32.6802 106.687 25.4199 117.147 27.3935 128.077L172.538 931.867C174.511 942.797 184.971 950.057 195.901 948.084L603.017 874.569C613.947 872.595 621.207 862.135 619.233 851.205Z" stroke="#3F79AC"/>
</g>
</g>
</g>
<defs>
<clipPath id="clip0_351_894">
<rect width="1059.28" height="573.5" fill="white" transform="translate(571.117) rotate(84.7741)"/>
</clipPath>
</defs>
</svg>
