<svg width="639" height="1108" viewBox="0 0 639 1108" fill="none" xmlns="http://www.w3.org/2000/svg">
<style>
 .path1 {
        fill: #F1EAE5;
        animation: pulsate 2s infinite ease-in-out;
        transform-origin: center;
        transform-box: fill-box;

    }

    .dot--first {
        transform-origin: center;
        animation: moveFirstDot 5s infinite ease-in-out alternate;
    }

    .dot--second {
        fill: #F1EAE5;
        animation: moveSecondtDot 12s infinite ease-in-out alternate-reverse;

    }

    .dot-third {
        fill: #F1EAE5;
        animation: moveThirdtDot 20s infinite ease-in-out alternate-reverse;
    }

    .dot-fourth {
        fill: #F1EAE5;
        animation: moveFourthtDot 20s infinite ease-in-out alternate;
    }

    @keyframes moveFirstDot {
        0% {
            transform: translate(0, 0);
        }

        100% {
            transform: translate(0, 20vh);
        }
    }

    @keyframes moveSecondtDot {
        0% {
            transform: translate(-55vw, 0);
        }
         30% {
            transform: translate(-55vw, 0);
        }
        100% {
            transform: translate(3vw, 0);
        }
    }

    @keyframes moveThirdtDot {
        0% {
            transform: translate(0, -45vh);
        }

        30% {
            transform: translate(0, -45vh);
        }

        100% {
            transform: translate(0, 18vh);
        }
    }

    @keyframes moveFourthtDot {
        0% {
            transform: translate(-12vw,0 );
        }

        10% {
            transform: translate(-12vw, 0);
        }

        80% {
            transform: translate(40vw, 0);
        }

        100% {
            transform: translate(40vw, 0);
        }
    }


    @keyframes pulsate {
        0% {
            transform: scale(1);
            opacity: 1;
        }

        50% {
            transform: scale(1.1);
            /* Increase the scale */
            opacity: 0.3;
            /* Adjust opacity */
        }

        100% {
            transform: scale(1);
            opacity: 1;
        }
    }
</style>
<mask id="mask0_837_127" style="mask-type:luminance" maskUnits="userSpaceOnUse" x="73" y="892" width="491" height="176">
<path d="M563.087 893.318L562.72 1045.76C562.694 1057.59 553.082 1067.14 541.248 1067.12L94.9204 1065.99C83.0864 1065.96 73.5188 1056.35 73.5541 1044.53L73.9197 892.102L563.087 893.318Z" fill="white"/>
</mask>
<g mask="url(#mask0_837_127)">
<path d="M563.087 893.318L562.72 1045.76C562.694 1057.59 553.082 1067.14 541.248 1067.12L94.9204 1065.99C83.0864 1065.96 73.5188 1056.35 73.5541 1044.53L73.9197 892.102L563.087 893.318Z" fill="#6CAEEC" stroke="#4B7C9B" stroke-miterlimit="10"/>
<g opacity="0.8">
<path d="M402.056 1026.18L403.924 1026.18L404.165 926.852L402.298 926.846L402.056 1026.18Z" fill="#F7F5F4"/>
<path d="M394.037 1026.17L399.337 1026.18L399.579 926.846L394.279 926.837L394.037 1026.17Z" fill="#F7F5F4"/>
<path d="M366.671 1026.09L371.971 1026.09L372.212 926.767L366.912 926.758L366.671 1026.09Z" fill="#F7F5F4"/>
<path d="M357.494 1026.06L359.361 1026.06L359.603 926.731L357.736 926.726L357.494 1026.06Z" fill="#F7F5F4"/>
<path d="M232.475 1025.75L237.775 1025.76L238.017 926.433L232.717 926.424L232.475 1025.76L232.475 1025.75Z" fill="#F7F5F4"/>
<path d="M202.644 1025.67L205.173 1025.69L205.415 926.35L202.886 926.346L202.644 1025.67Z" fill="#F7F5F4"/>
<path d="M182.761 1025.64L185.291 1025.64L185.532 926.312L183.003 926.309L182.761 1025.65L182.761 1025.64Z" fill="#F7F5F4"/>
<path d="M470.826 1026.36L473.275 1026.37L473.517 927.032L471.068 927.026L470.826 1026.36Z" fill="#F7F5F4"/>
<path d="M462.073 1026.33L465.204 1026.34L465.447 926.999L462.315 926.992L462.073 1026.33Z" fill="#F7F5F4"/>
<path d="M454.974 1026.32L456.47 1026.32L456.712 926.987L455.217 926.985L454.974 1026.32Z" fill="#F7F5F4"/>
<path d="M448.264 1026.3L449.368 1026.3L449.611 926.959L448.507 926.951L448.265 1026.29L448.264 1026.3Z" fill="#F7F5F4"/>
<path d="M439.51 1026.27L442.642 1026.27L442.884 926.935L439.752 926.928L439.51 1026.27Z" fill="#F7F5F4"/>
<path d="M430.888 1026.25L433.9 1026.26L434.142 926.921L431.131 926.915L430.888 1026.25Z" fill="#F7F5F4"/>
<path d="M423.779 1026.24L425.275 1026.25L425.517 926.909L424.021 926.907L423.779 1026.24Z" fill="#F7F5F4"/>
<path d="M415.732 1026.22L418.181 1026.23L418.423 926.892L415.974 926.885L415.732 1026.22Z" fill="#F7F5F4"/>
<path d="M406.978 1026.2L410.111 1026.2L410.353 926.858L407.221 926.851L406.979 1026.19L406.978 1026.2Z" fill="#F7F5F4"/>
<path d="M384.716 1026.13L386.212 1026.13L386.454 926.796L384.959 926.794L384.716 1026.13Z" fill="#F7F5F4"/>
<path d="M375.971 1026.11L379.103 1026.11L379.345 926.777L376.213 926.77L375.971 1026.11Z" fill="#F7F5F4"/>
<path d="M360.248 1026.08L361.743 1026.08L361.986 926.742L360.49 926.74L360.248 1026.08Z" fill="#F7F5F4"/>
<path d="M352.185 1026.06L354.634 1026.07L354.876 926.733L352.427 926.727L352.185 1026.06Z" fill="#F7F5F4"/>
<path d="M343.447 1026.04L346.579 1026.04L346.822 926.701L343.69 926.694L343.448 1026.03L343.447 1026.04Z" fill="#F7F5F4"/>
<path d="M336.334 1026.01L337.829 1026.02L338.072 926.679L336.576 926.676L336.334 1026.01Z" fill="#F7F5F4"/>
<path d="M329.631 1026L330.736 1026L330.978 926.661L329.873 926.663L329.63 1026.01L329.631 1026Z" fill="#F7F5F4"/>
<path d="M320.876 1025.98L324.009 1025.97L324.251 926.637L321.12 926.63L320.877 1025.97L320.876 1025.98Z" fill="#F7F5F4"/>
<path d="M312.256 1025.95L315.267 1025.96L315.509 926.623L312.498 926.617L312.256 1025.95Z" fill="#F7F5F4"/>
<path d="M305.154 1025.94L306.65 1025.94L306.892 926.602L305.396 926.599L305.154 1025.94Z" fill="#F7F5F4"/>
<path d="M297.099 1025.91L299.548 1025.92L299.79 926.584L297.341 926.577L297.099 1025.91Z" fill="#F7F5F4"/>
<path d="M288.346 1025.9L291.478 1025.91L291.72 926.57L288.588 926.563L288.346 1025.9Z" fill="#F7F5F4"/>
<path d="M281.255 1025.87L282.751 1025.88L282.993 926.538L281.498 926.536L281.255 1025.87Z" fill="#F7F5F4"/>
<path d="M274.537 1025.86L275.641 1025.87L275.884 926.52L274.78 926.523L274.537 1025.86Z" fill="#F7F5F4"/>
<path d="M265.92 1025.84L268.931 1025.84L269.173 926.507L266.162 926.501L265.92 1025.84Z" fill="#F7F5F4"/>
<path d="M258.809 1025.82L260.305 1025.82L260.548 926.475L259.052 926.472L258.809 1025.82Z" fill="#F7F5F4"/>
<path d="M251.709 1025.8L253.204 1025.8L253.447 926.466L251.951 926.464L251.709 1025.8Z" fill="#F7F5F4"/>
<path d="M244.991 1025.79L246.095 1025.8L246.337 926.458L245.234 926.45L244.991 1025.79Z" fill="#F7F5F4"/>
<path d="M228.185 1025.75L230.634 1025.76L230.876 926.421L228.427 926.414L228.185 1025.75Z" fill="#F7F5F4"/>
<path d="M219.447 1025.73L222.579 1025.73L222.822 926.389L219.69 926.382L219.448 1025.72L219.447 1025.73Z" fill="#F7F5F4"/>
<path d="M212.733 1025.72L213.837 1025.71L214.079 926.376L212.975 926.378L212.733 1025.72Z" fill="#F7F5F4"/>
<path d="M195.357 1025.66L198.368 1025.67L198.611 926.328L195.599 926.322L195.357 1025.66Z" fill="#F7F5F4"/>
<path d="M188.263 1025.63L189.759 1025.63L190.001 926.297L188.506 926.295L188.263 1025.63Z" fill="#F7F5F4"/>
<path d="M171.455 1025.61L174.587 1025.6L174.829 926.267L171.698 926.26L171.455 1025.6L171.455 1025.61Z" fill="#F7F5F4"/>
<path d="M164.349 1025.59L165.845 1025.59L166.087 926.253L164.592 926.251L164.349 1025.59Z" fill="#F7F5F4"/>
<path d="M157.64 1025.57L158.743 1025.57L158.986 926.235L157.881 926.238L157.639 1025.58L157.64 1025.57Z" fill="#F7F5F4"/>
<path d="M148.892 1025.54L152.025 1025.54L152.267 926.201L149.135 926.194L148.893 1025.53L148.892 1025.54Z" fill="#F7F5F4"/>
<path d="M476.946 1026.37L480.368 1026.39L480.611 927.05L477.188 927.037L476.946 1026.37Z" fill="#F7F5F4"/>
</g>
<path d="M546.493 1028.77L547.51 81.8287C547.522 70.7223 538.528 61.7091 527.421 61.6972L113.722 61.2529C102.615 61.241 93.6019 70.2349 93.5899 81.3413L92.5731 1028.28C92.5612 1039.39 101.555 1048.4 112.661 1048.41L526.361 1048.86C537.468 1048.87 546.481 1039.87 546.493 1028.77Z" stroke="#3F79AC"/>
<path d="M563.087 893.318L562.72 1045.76C562.694 1057.59 553.082 1067.14 541.248 1067.12L94.9204 1065.99C83.0864 1065.96 73.5188 1056.35 73.5541 1044.53L73.9197 892.102L563.087 893.318Z" stroke="#72ACDD" stroke-miterlimit="10"/>
</g>
<mask id="mask1_837_127" style="mask-type:luminance" maskUnits="userSpaceOnUse" x="73" y="42" width="492" height="852">
<path d="M564.049 63.1871L563.157 893.487L73.9774 892.961L74.869 62.6618C74.8809 51.5618 83.9006 42.5615 95.0006 42.5734L543.96 43.0556C555.06 43.0675 564.061 52.0871 564.049 63.1871Z" fill="white"/>
</mask>
<g mask="url(#mask1_837_127)">
</g>
<mask id="mask2_837_127" style="mask-type:luminance" maskUnits="userSpaceOnUse" x="73" y="42" width="492" height="852">
<path d="M564.049 63.1871L563.157 893.487L73.9774 892.961L74.869 62.6618C74.8809 51.5618 83.9006 42.5615 95.0006 42.5734L543.96 43.0556C555.06 43.0675 564.061 52.0871 564.049 63.1871Z" fill="white"/>
</mask>
<g mask="url(#mask2_837_127)">
<path d="M564.049 63.1871L563.157 893.487L73.9774 892.961L74.869 62.6618C74.8809 51.5618 83.9006 42.5615 95.0006 42.5734L543.96 43.0556C555.06 43.0675 564.061 52.0871 564.049 63.1871Z" fill="#56A2E9"/>
<path d="M164.162 951.237L178.594 951.301L180.72 468.793L166.289 468.729L164.162 951.237Z" fill="#6BACEA"/>
<path d="M65.5644 502.047L134.758 502.352L134.816 489.034L65.6231 488.729L65.5644 502.047Z" fill="#5697D1"/>
<g class="dot-third">
<path class="path1" d="M172.63 744.772C166.561 744.196 161.175 748.648 160.599 754.716C160.023 760.785 164.475 766.171 170.544 766.747C176.612 767.323 181.998 762.871 182.574 756.802C183.15 750.734 178.698 745.348 172.63 744.772Z" fill="#F1EAE5"/>
<path d="M172.178 749.039C168.64 748.703 165.5 751.299 165.164 754.836C164.828 758.374 167.424 761.514 170.962 761.85C174.499 762.186 177.639 759.59 177.975 756.053C178.311 752.515 175.715 749.375 172.178 749.039Z" fill="#FFC83E"/>
</g>
<path d="M409.025 703.919L409.084 689.707L367.384 689.525C363.417 689.505 360.208 686.686 360.219 683.219L360.808 549.87L360.5 549.869C360.702 549.06 360.81 548.223 360.814 547.366C360.84 540.905 354.858 535.637 347.445 535.598C346.453 535.59 345.5 535.683 344.569 535.854L344.566 535.584L266.925 535.236C260.166 535.211 254.553 539.543 253.591 545.211C253.501 545.752 253.448 546.315 253.452 546.884L253.292 583.673C253.278 586.966 250.836 589.759 247.447 590.757L67.5013 590.713L67.4161 604.617L256.074 605.003C257.296 605.013 258.475 604.874 259.589 604.605C265.215 603.28 269.379 598.782 269.532 593.412C269.54 593.326 269.549 593.24 269.547 593.153L269.707 556.161C269.72 552.464 273.172 549.488 277.409 549.505L335.88 549.767C340.646 549.786 344.495 553.176 344.477 557.325L343.885 691.927C343.859 698.388 349.841 703.656 357.254 703.695L409.015 703.927L409.025 703.919Z" fill="#8EC1F1"/>
<path d="M400.043 703.834L464.109 704.116L464.172 689.984L400.105 689.702L400.043 703.834Z" fill="#8EC1F1"/>
<path d="M67.5565 713.399L129.812 713.673L129.895 695.003L67.6388 694.729L67.5565 713.399Z" fill="#5596D0"/>
<g class="dot--second">
<path class="path1" d="M240.778 586.94C234.71 586.364 229.323 590.816 228.747 596.884C228.171 602.953 232.624 608.339 238.692 608.915C244.76 609.491 250.147 605.039 250.723 598.97C251.299 592.902 246.846 587.516 240.778 586.94Z" fill="#F1EAE5"/>
<path d="M240.646 591.825C237.109 591.489 233.969 594.085 233.633 597.623C233.297 601.16 235.893 604.3 239.43 604.636C242.968 604.972 246.108 602.376 246.444 598.839C246.78 595.301 244.184 592.161 240.646 591.825Z" fill="#FFC83E"/>
</g>
<path d="M391.002 755.714L390.649 844.768C390.649 844.768 390.652 844.836 390.648 844.874L406.613 844.935L406.901 771.479C406.926 765.124 412.094 759.999 418.449 760.024L426.605 760.047C432.96 760.072 438.084 765.25 438.059 771.604L437.78 845.062L452.262 845.117C452.262 845.117 452.259 845.049 452.262 845.011L452.616 755.947C452.641 749.592 447.507 744.423 441.152 744.398L402.55 744.25C396.195 744.224 391.027 749.359 391.002 755.714Z" fill="#6BACEA"/>
<path d="M512.525 556.464L601.571 557.741C601.571 557.741 601.639 557.738 601.677 557.742L601.904 541.779L528.454 540.729C522.1 540.638 517.029 535.417 517.12 529.063L517.228 520.907C517.319 514.553 522.549 509.483 528.903 509.574L602.354 510.615L602.559 496.135C602.559 496.135 602.492 496.137 602.453 496.133L513.398 494.855C507.043 494.764 501.822 499.845 501.731 506.199L501.182 544.797C501.09 551.151 506.171 556.373 512.525 556.464Z" fill="#6BACEA"/>
<path d="M122.918 694.842L168.988 695.054C169.046 695.049 169.095 695.044 169.152 695.05C169.287 695.043 169.413 695.036 169.548 695.039L200.918 695.156C207.273 695.182 212.398 700.349 212.373 706.704L212.294 727.531C212.288 728.398 212.189 729.236 212.007 730.047L212.005 730.066L211.931 746.568L211.686 800.601C211.667 804.153 213.094 807.381 215.397 809.709C217.708 812.047 220.913 813.498 224.446 813.515C231.533 813.543 237.297 807.81 237.325 800.723L237.572 746.671L237.801 694.843C237.805 693.89 237.854 692.96 237.961 692.036L238.015 678.893C238.04 672.538 243.208 667.404 249.563 667.429L280.933 667.556C287.278 667.58 292.413 672.749 292.388 679.103L292.25 715.664C292.243 716.347 292.189 717.016 292.06 717.669L292.056 717.707C292.056 717.707 292.055 717.716 292.054 717.726L291.742 786.566C291.742 786.971 291.744 787.356 291.707 787.748C291.716 787.749 291.728 787.73 291.745 787.751L291.503 842.256L291.262 895.018C291.244 899.273 292.948 903.134 295.727 905.931C298.494 908.737 302.335 910.488 306.581 910.506C315.073 910.541 321.997 903.666 322.034 895.155L322.267 842.373L322.512 788.245L338.918 788.318L338.634 853.916L338.631 853.944L338.399 914.538C338.374 920.892 333.195 926.026 326.841 926.001L307.757 925.923L307.313 925.929L288.239 925.852C281.884 925.827 276.759 920.659 276.785 914.304L277.018 853.702C277.021 853.268 277.041 852.847 277.091 852.427L277.266 813.742C277.267 812.625 277.333 811.523 277.455 810.437C277.404 810.47 277.344 810.494 277.283 810.526L277.649 727.118L277.784 697.078C277.816 690.55 272.552 685.225 266.043 685.195C259.524 685.173 254.218 690.439 254.195 696.968L254.059 727.017L253.918 757.123C253.918 757.123 253.922 757.181 253.919 757.21C253.954 757.55 253.97 757.889 253.966 758.235L253.734 818.829C253.709 825.184 248.53 830.317 242.176 830.292L205.615 830.154C199.26 830.129 194.135 824.961 194.161 818.606L194.394 758.004C194.399 757.744 194.404 757.494 194.427 757.246C194.422 757.197 194.427 757.149 194.432 757.102L194.515 738.972L194.598 719.629C194.612 716.336 191.957 713.657 188.674 713.644L157.961 713.502L122.828 713.346L122.908 694.841L122.918 694.842Z" fill="#5596D0"/>
<g class="dot--first">
<path class="path1" d="M331.646 785.627C324.177 784.918 317.548 790.398 316.839 797.867C316.13 805.335 321.61 811.964 329.078 812.673C336.547 813.382 343.176 807.903 343.885 800.434C344.594 792.965 339.114 786.336 331.646 785.627Z" fill="#F1EAE5"/>
<path d="M330.765 791.625C326.39 791.606 322.828 795.137 322.809 799.512C322.789 803.887 326.32 807.45 330.695 807.469C335.071 807.488 338.633 803.957 338.652 799.582C338.671 795.207 335.14 791.645 330.765 791.625Z" fill="#FFC83E"/>
</g>
<path d="M86.1419 42.3428H564.555V138.343H74.5547V58.2886C74.5547 49.4871 79.7462 42.3428 86.1419 42.3428Z" fill="#256DB0" stroke="#4B7C9B" stroke-miterlimit="10"/>
<path d="M546.64 898.623L547.517 81.8336C547.529 70.7272 538.536 61.714 527.429 61.702L113.729 61.2578C102.623 61.2459 93.6097 70.2398 93.5978 81.3462L92.7207 898.136C92.7087 909.242 101.703 918.255 112.809 918.267L526.509 918.712C537.615 918.723 546.628 909.73 546.64 898.623Z" stroke="#3F79AC"/>
<path d="M90.3392 41.6649L125.941 41.7669C125.941 41.7669 125.965 41.775 125.965 41.7909L125.873 74.0776C125.873 74.0776 125.865 74.1015 125.849 74.1015L74.2984 73.9537C74.2984 73.9537 74.2746 73.9457 74.2746 73.9298L74.3214 57.5911C74.3467 48.7763 81.5243 41.6396 90.3392 41.6649Z" fill="#101010"/>
<path d="M125.879 74.0873L74.2812 73.9395L74.1886 106.274L125.787 106.422L125.879 74.0873Z" fill="#EED75F"/>
<path d="M125.778 106.075L74.1797 105.927L74.087 138.261L125.685 138.409L125.778 106.075Z" fill="#D15127"/>
<path d="M212.89 105.035L216.867 105.052C216.858 107.183 215.14 108.943 213.009 109.01C210.878 109.077 208.978 107.335 208.915 105.154C208.915 105.116 208.914 105.082 208.914 105.044L212.89 105.031L212.89 105.035Z" fill="#CEE7FF" stroke="#256CB0" stroke-width="0.239715" stroke-miterlimit="10"/>
<path d="M250.442 101.848C250.341 100.793 249.746 100.054 249.429 99.6696C245.324 94.696 243.353 93.2391 243.353 93.2391C238.517 89.6666 235.36 87.3315 230.237 84.8395C228.511 83.999 225.62 82.6094 221.657 81.384C218.998 80.5643 216.524 80.0317 214.768 79.6428C209.328 78.434 205.048 78.0105 202.009 77.7521C184.733 76.2989 158.339 75.8222 154.211 75.7491C154.119 86.6983 154.027 97.6475 153.935 108.597C165.116 108.655 176.302 108.713 187.483 108.772C187.518 107.455 187.455 106.33 187.485 105.013C199.122 105.181 211.045 104.852 222.678 105.024C223.462 106.274 224.058 107.833 224.843 109.083C230.542 109.076 236.236 109.066 241.934 109.059C242.306 108.637 242.673 108.215 243.044 107.793C243.83 107.776 247.118 107.625 249.136 105.182C249.554 104.676 250.593 103.418 250.442 101.848Z" fill="#CEE7FF" stroke="#256CB0" stroke-width="0.239715" stroke-miterlimit="10"/>
<path d="M204.929 105.012L208.906 104.998C208.913 107.13 207.209 108.903 205.078 108.986C202.948 109.069 201.035 107.342 200.955 105.161C200.954 105.123 200.954 105.089 200.953 105.051L204.929 105.007L204.929 105.012Z" fill="#CEE7FF" stroke="#256CB0" stroke-width="0.239715" stroke-miterlimit="10"/>
<path d="M196.961 105.078L200.937 105.097C200.927 107.229 199.207 108.988 197.076 109.053C194.945 109.119 193.047 107.376 192.985 105.194C192.985 105.156 192.985 105.122 192.984 105.084L196.961 105.074L196.961 105.078Z" fill="#CEE7FF" stroke="#256CB0" stroke-width="0.239715" stroke-miterlimit="10"/>
<mask id="mask3_837_127" style="mask-type:luminance" maskUnits="userSpaceOnUse" x="153" y="75" width="98" height="35">
<path d="M250.418 101.827C250.317 100.772 249.722 100.033 249.406 99.649C245.3 94.6754 243.329 93.2186 243.329 93.2186C238.493 89.6461 235.337 87.3109 230.213 84.819C228.487 83.9785 225.596 82.5889 221.633 81.3635C218.974 80.5438 216.501 80.0112 214.745 79.6223C209.305 78.4134 205.025 77.99 201.986 77.7316C184.71 76.2784 158.316 75.8016 154.188 75.7286C154.096 86.6778 154.004 97.627 153.912 108.576C165.093 108.635 176.279 108.693 187.46 108.751C187.494 107.434 187.524 106.117 187.554 104.8C199.191 104.969 210.828 105.137 222.461 105.309C223.246 106.559 224.035 107.813 224.82 109.063C230.518 109.056 236.212 109.045 241.911 109.038C242.282 108.616 242.649 108.194 243.021 107.772C243.806 107.756 247.094 107.605 249.113 105.162C249.531 104.655 250.57 103.398 250.418 101.827Z" fill="white"/>
</mask>
<g mask="url(#mask3_837_127)">
<path d="M189.911 84.5827L153.211 84.5713L153.21 88.2568L189.91 88.2682L189.911 84.5827Z" stroke="#256CB0" stroke-width="0.239715" stroke-miterlimit="10"/>
<path d="M210.629 81.9064L210.626 92.8598C210.626 93.3368 210.237 93.725 209.756 93.7249L202.897 93.7227C202.416 93.7226 202.027 93.3341 202.028 92.8572L202.031 81.9037C202.031 81.4225 202.42 81.0343 202.901 81.0345L209.76 81.0366C210.241 81.0367 210.629 81.4252 210.629 81.9064Z" stroke="#256CB0" stroke-width="0.239715" stroke-miterlimit="10"/>
<path d="M232.848 88.3816L211.819 88.3751L211.82 84.8379L225.745 84.8422C225.758 84.8718 225.766 84.8971 225.775 84.9182C226.18 85.0872 226.581 85.2561 226.99 85.4378C228.839 86.2488 230.607 87.1273 232.295 88.0649C232.401 88.1282 232.511 88.1831 232.62 88.2507C232.696 88.2929 232.772 88.3352 232.848 88.3816Z" stroke="#256CB0" stroke-width="0.239715" stroke-miterlimit="10"/>
<path d="M175.154 95.9995L185.103 96.0026C185.698 96.0028 186.18 95.521 186.18 94.9266L186.181 90.828C186.181 90.2336 185.7 89.7515 185.105 89.7513L175.156 89.7482C174.562 89.748 174.08 90.2298 174.08 90.8242L174.078 94.9228C174.078 95.5173 174.56 95.9993 175.154 95.9995Z" stroke="#256CB0" stroke-width="0.239715" stroke-miterlimit="10"/>
<path d="M175.692 95.4051L184.556 95.4079C185.151 95.4081 185.633 94.9263 185.633 94.3319L185.634 91.4447C185.634 90.8502 185.152 90.3682 184.558 90.368L175.694 90.3653C175.1 90.3651 174.617 90.8468 174.617 91.4413L174.616 94.3284C174.616 94.9229 175.098 95.4049 175.692 95.4051Z" stroke="#256CB0" stroke-width="0.239715" stroke-miterlimit="10"/>
<path d="M189.89 98.4601L142.383 98.4453L142.382 99.4541L189.89 99.4689L189.89 98.4601Z" stroke="#256CB0" stroke-width="0.239715" stroke-miterlimit="10"/>
<path d="M276.483 98.4879L211.805 98.4678L211.804 99.4766L276.482 99.4968L276.483 98.4879Z" stroke="#256CB0" stroke-width="0.239715" stroke-miterlimit="10"/>
<path d="M189.893 99.4793L143.492 99.4648L143.492 101.478L189.893 101.493L189.893 99.4793Z" stroke="#256CB0" stroke-width="0.239715" stroke-miterlimit="10"/>
<path d="M280.814 99.4932L211.805 99.4717L211.804 101.485L280.813 101.507L280.814 99.4932Z" stroke="#256CB0" stroke-width="0.239715" stroke-miterlimit="10"/>
<path d="M189.878 101.495L143.945 101.48L143.945 102.489L189.878 102.504L189.878 101.495Z" stroke="#256CB0" stroke-width="0.239715" stroke-miterlimit="10"/>
<path d="M278.061 101.517L211.805 101.496L211.804 102.505L278.061 102.526L278.061 101.517Z" stroke="#256CB0" stroke-width="0.239715" stroke-miterlimit="10"/>
<path d="M210.572 79.7374L202.109 79.7348C201.421 79.7346 200.859 80.2915 200.859 80.9838L200.852 102.637C200.852 103.33 201.413 103.887 202.101 103.887L210.564 103.89C211.252 103.89 211.814 103.333 211.814 102.641L211.821 80.9872C211.821 80.295 211.26 79.7376 210.572 79.7374ZM202.041 81.9043C202.041 81.4231 202.429 81.0349 202.91 81.0351L209.769 81.0372C210.251 81.0374 210.639 81.4258 210.639 81.907L210.635 92.8605C210.635 93.3374 210.247 93.7256 209.766 93.7255L202.906 93.7233C202.425 93.7232 202.037 93.3347 202.037 92.8578L202.041 81.9043Z" stroke="#256CB0" stroke-width="0.239715" stroke-miterlimit="10"/>
<path d="M220.278 95.5358L226.478 95.5378C227.073 95.5379 227.555 95.0562 227.555 94.4617L227.556 90.3632C227.556 89.7687 227.075 89.2867 226.48 89.2865L220.28 89.2845C219.685 89.2844 219.203 89.7661 219.203 90.3606L219.202 94.4591C219.202 95.0536 219.683 95.5356 220.278 95.5358Z" stroke="#256CB0" stroke-width="0.239715" stroke-miterlimit="10"/>
<path d="M220.654 94.9443L226.103 94.946C226.698 94.9461 227.18 94.4644 227.18 93.8699L227.181 90.9828C227.181 90.3883 226.699 89.9063 226.105 89.9061L220.656 89.9044C220.061 89.9042 219.579 90.386 219.579 90.9804L219.578 93.8676C219.578 94.462 220.06 94.9441 220.654 94.9443Z" stroke="#256CB0" stroke-width="0.239715" stroke-miterlimit="10"/>
<path d="M199.607 79.7247L191.148 79.7221C190.456 79.7219 189.898 80.2788 189.898 80.9711L189.891 102.625C189.891 103.317 190.448 103.874 191.14 103.875L199.599 103.877C200.291 103.877 200.849 103.32 200.849 102.628L200.856 80.9745C200.856 80.2823 200.299 79.7249 199.607 79.7247ZM199.67 92.8478C199.67 93.3247 199.282 93.7129 198.805 93.7128L191.945 93.7107C191.464 93.7105 191.076 93.3221 191.076 92.8451L191.08 81.8916C191.08 81.4104 191.468 81.0222 191.949 81.0224L198.809 81.0245C199.285 81.0247 199.674 81.4131 199.674 81.8943L199.67 92.8478Z" stroke="#256CB0" stroke-width="0.239715" stroke-miterlimit="10"/>
<path d="M199.664 81.8927L199.661 92.8462C199.66 93.3231 199.272 93.7113 198.795 93.7112L191.936 93.7091C191.455 93.7089 191.066 93.3204 191.067 92.8435L191.07 81.89C191.07 81.4088 191.459 81.0206 191.94 81.0208L198.799 81.0229C199.276 81.0231 199.664 81.4115 199.664 81.8927Z" stroke="#256CB0" stroke-width="0.239715" stroke-miterlimit="10"/>
<path d="M175.506 83.9087L185.455 83.9118C186.049 83.912 186.531 83.4302 186.532 82.8358L186.533 78.7372C186.533 78.1427 186.051 77.6607 185.457 77.6605L175.508 77.6574C174.914 77.6572 174.431 78.139 174.431 78.7334L174.43 82.832C174.43 83.4264 174.912 83.9085 175.506 83.9087Z" stroke="#256CB0" stroke-width="0.239715" stroke-miterlimit="10"/>
<path d="M176.052 83.3143L184.916 83.317C185.51 83.3172 185.992 82.8355 185.993 82.241L185.993 79.3539C185.994 78.7594 185.512 78.2774 184.917 78.2772L176.053 78.2744C175.459 78.2742 174.977 78.756 174.977 79.3504L174.976 82.2376C174.976 82.832 175.457 83.3141 176.052 83.3143Z" stroke="#256CB0" stroke-width="0.239715" stroke-miterlimit="10"/>
<path d="M160.498 95.9897L170.447 95.9928C171.042 95.993 171.524 95.5113 171.524 94.9168L171.525 90.8182C171.525 90.2238 171.043 89.7417 170.449 89.7416L160.5 89.7385C159.906 89.7383 159.424 90.22 159.423 90.8145L159.422 94.913C159.422 95.5075 159.904 95.9895 160.498 95.9897Z" stroke="#256CB0" stroke-width="0.239715" stroke-miterlimit="10"/>
<path d="M161.044 95.3953L169.908 95.3981C170.502 95.3983 170.985 94.9165 170.985 94.3221L170.986 91.4349C170.986 90.8405 170.504 90.3584 169.91 90.3582L161.046 90.3555C160.451 90.3553 159.969 90.837 159.969 91.4315L159.968 94.3187C159.968 94.9131 160.45 95.3952 161.044 95.3953Z" stroke="#256CB0" stroke-width="0.239715" stroke-miterlimit="10"/>
<path d="M160.592 83.6782L170.541 83.6813C171.135 83.6815 171.617 83.1997 171.618 82.6053L171.619 78.5067C171.619 77.9123 171.137 77.4302 170.543 77.43L160.594 77.4269C159.999 77.4267 159.517 77.9085 159.517 78.5029L159.516 82.6015C159.516 83.196 159.998 83.678 160.592 83.6782Z" stroke="#256CB0" stroke-width="0.239715" stroke-miterlimit="10"/>
<path d="M161.138 83.0838L170.002 83.0866C170.596 83.0868 171.078 82.605 171.078 82.0106L171.079 79.1234C171.08 78.529 170.598 78.0469 170.003 78.0467L161.139 78.044C160.545 78.0438 160.063 78.5255 160.063 79.12L160.062 82.0071C160.062 82.6016 160.543 83.0836 161.138 83.0838Z" stroke="#256CB0" stroke-width="0.239715" stroke-miterlimit="10"/>
<path d="M241.495 92.2012C241.131 92.9904 240.211 93.1548 240.11 93.1759C237.869 91.4825 235.451 89.8609 232.839 88.387C232.763 88.3405 232.687 88.2983 232.611 88.2561C232.501 88.1885 232.391 88.1336 232.286 88.0702C230.598 87.1327 228.829 86.2541 226.981 85.4431C226.571 85.2615 226.17 85.0925 225.765 84.9236C225.757 84.9025 225.748 84.8771 225.736 84.8476C225.736 84.8434 225.732 84.8392 225.732 84.8349C225.715 84.7801 225.698 84.7167 225.685 84.645C225.635 84.4339 225.605 84.1595 225.639 83.843C225.728 83.1339 226.125 82.6781 226.273 82.5178C227.657 83.1134 229.109 83.7892 230.624 84.5621C231.569 85.0436 232.531 85.5588 233.515 86.1163C233.544 86.1332 233.574 86.1501 233.599 86.167C234.667 86.7709 235.675 87.3833 236.642 87.9956C236.739 88.059 236.832 88.1223 236.929 88.1814C238.651 89.2879 240.216 90.3943 241.63 91.4626C241.643 91.6483 241.626 91.9143 241.495 92.2012Z" stroke="#256CB0" stroke-width="0.239715" stroke-miterlimit="10"/>
</g>
<rect x="390.555" y="816.729" width="16" height="77" fill="#6BACEA"/>
<rect x="437.555" y="816.729" width="15" height="77" fill="#6BACEA"/>
<rect x="446.547" y="683.729" width="25" height="26" fill="#56A2E9"/>
<path d="M113.024 488.93L271.05 489.636L276.336 489.657L355.73 490.007C356.081 489.964 356.43 489.939 356.787 489.934L388.428 490.048L388.437 490.049C394.792 490.074 399.916 495.252 399.891 501.606L399.761 533.111C399.801 534.511 399.832 535.911 399.863 537.31C399.842 540.785 401.323 543.951 403.745 546.242C406.156 548.542 409.498 549.966 413.196 549.98C420.484 550.017 426.445 544.544 426.64 537.723C426.649 537.628 426.649 537.531 426.649 537.426L426.857 490.18L441.367 490.238L441.724 490.233C441.724 490.233 441.718 490.3 441.733 490.34C441.744 490.534 441.734 490.735 441.735 490.928L441.186 531.418L440.92 551.466C440.827 557.824 436.156 562.996 430.478 563.045L395.992 563.277C390.315 563.316 385.791 558.206 385.883 551.857L385.912 549.625L386.345 517.87L386.422 511.983C386.186 510.92 385.846 509.934 385.392 509.034C384.843 507.922 384.118 506.938 383.165 506.116C382.542 505.575 381.88 505.146 381.151 504.807C379.491 504.033 377.478 503.727 374.788 503.548C370.23 503.26 359.759 503.066 345.504 502.965C344.05 502.952 342.558 502.945 341.028 502.935C272.596 502.575 129.897 502.172 113.024 502.343L113.024 488.93Z" fill="#5697D1"/>
<rect x="445.477" y="428.794" width="118.078" height="16.8683" fill="#5697D1"/>
<g clip-path="url(#clip0_837_127)">
<path d="M494.469 441.427L494.469 445.332L454.395 445.332C447.379 445.332 441.696 451.025 441.696 458.041L441.696 521.004L439.167 521.004C432.151 521.004 426.469 515.311 426.469 508.305L426.469 441.438C426.469 434.422 432.151 428.729 439.167 428.729L481.77 428.729C488.776 428.729 494.469 434.422 494.469 441.427Z" fill="#5697D1"/>
</g>
<g class="dot-fourth">
<path class="path1" d="M524.63 426.386C518.561 425.81 513.175 430.262 512.599 436.331C512.023 442.399 516.475 447.785 522.544 448.361C528.612 448.937 533.998 444.485 534.574 438.417C535.15 432.348 530.698 426.962 524.63 426.386Z" fill="#F1EAE5"/>
<path d="M524.311 430.811C520.773 430.476 517.633 433.071 517.297 436.609C516.961 440.147 519.557 443.287 523.095 443.622C526.632 443.958 529.772 441.363 530.108 437.825C530.444 434.287 527.848 431.147 524.311 430.811Z" fill="#FFC83E"/>
</g>
<g clip-path="url(#clip1_837_127)">
<path d="M508.555 616.729V630.729H470.555C464.343 630.729 460.762 636.436 460.762 642.908V655.402V692.24C460.762 698.702 455.731 703.953 449.519 703.953H400.555V689.487H437.104C443.316 689.487 448.348 684.246 448.348 677.774V661.405H448.357V628.442C448.357 624.742 450.006 621.433 452.582 619.296C454.503 617.685 456.939 616.729 459.6 616.729H508.555Z" fill="#8EC1F1"/>
</g>
<g clip-path="url(#clip2_837_127)">
<path d="M563.555 616.729H507.555V630.729H563.555V616.729Z" fill="#8EC1F1"/>
</g>
</g>
<g clip-path="url(#clip3_837_127)">
<path d="M527.847 712.029H563.627V696.729H512.547C505.917 696.729 500.547 702.109 500.547 708.739V838.449C500.547 845.079 505.917 850.449 512.547 850.449H563.627V835.159H527.837C521.207 835.159 515.837 829.789 515.837 823.159V724.029C515.837 717.399 521.217 712.029 527.847 712.029Z" fill="#71B2ED"/>
</g>
<defs>
<clipPath id="clip0_837_127">
<rect width="68" height="92.2751" fill="white" transform="translate(426.469 428.729)"/>
</clipPath>
<clipPath id="clip1_837_127">
<rect width="108" height="87.2248" fill="white" transform="translate(400.555 616.729)"/>
</clipPath>
<clipPath id="clip2_837_127">
<rect width="56" height="14" fill="white" transform="translate(507.555 616.729)"/>
</clipPath>
<clipPath id="clip3_837_127">
<rect width="63.08" height="153.72" fill="white" transform="translate(500.547 696.729)"/>
</clipPath>
</defs>
</svg>
