<svg width="82" height="82" viewBox="0 0 82 82" fill="none" xmlns="http://www.w3.org/2000/svg">
<path d="M73.8675 1H7.45285C3.88904 1 1 3.88904 1 7.45285V73.8675C1 77.4313 3.88904 80.3203 7.45285 80.3203H73.8675C77.4313 80.3203 80.3203 77.4313 80.3203 73.8675V7.45285C80.3203 3.88904 77.4313 1 73.8675 1Z" fill="#F6EFEF" stroke="#55504D" stroke-width="1.43448" stroke-miterlimit="10"/>
<path d="M71.6845 3.15234H9.57003C6.00623 3.15234 3.11719 6.04138 3.11719 9.60519V71.7196C3.11719 75.2834 6.00623 78.1725 9.57003 78.1725H71.6845C75.2483 78.1725 78.1373 75.2834 78.1373 71.7196V9.60519C78.1373 6.04138 75.2483 3.15234 71.6845 3.15234Z" fill="#256CB0" stroke="#55504D" stroke-width="0.35862" stroke-miterlimit="10"/>
<circle cx="9.71205" cy="9.71791" r="1.7433" fill="#F6EFEF"/>
<circle cx="71.5949" cy="9.71791" r="1.7433" fill="#F6EFEF"/>
<circle cx="9.7433" cy="71.7433" r="1.7433" fill="#F6EFEF"/>
<circle cx="71.6261" cy="71.7433" r="1.7433" fill="#F6EFEF"/>
<path d="M62.997 49.534C62.9884 49.8247 62.8572 52.7559 60.8872 53.864C60.2487 54.2223 59.3293 54.2784 57.4889 54.3906C56.3893 54.4568 55.4814 54.4554 54.8732 54.4424V58.4702H59.2615V62H31.3824V58.4702H34.4968V54.0884L35.1366 53.8985H34.4968V54.0884L34.0558 54.2194C32.1102 54.7964 30.0724 53.8395 29.2481 52.0494C29.1674 51.8767 29.0996 51.6968 29.0434 51.5083L19.1686 18.3512C18.5331 16.2215 19.7494 13.9795 21.8838 13.3464L25.8498 12.1679C27.9842 11.5347 30.2281 12.7478 30.8636 14.8789L37.8474 38.3272H55.7192C57.0422 38.3272 58.1158 39.3993 58.1158 40.7217V42.6456C58.1158 43.3205 57.8362 43.9306 57.3852 44.3666C57.6547 44.3264 58.0337 44.2861 58.4891 44.2976C59.3567 44.3177 60.266 44.5177 60.8295 44.7955C62.4278 45.584 63.0489 47.8864 62.997 49.534Z" fill="#F6EFEF"/>
</svg>
