<svg width="46" height="46" viewBox="0 0 46 46" fill="none" xmlns="http://www.w3.org/2000/svg">
<path d="M26.5742 22.7812L19.9297 26.5781V18.9844L26.5742 22.7812Z" fill="#F0F0F0" stroke="#F0F0F0" stroke-width="2.53124" stroke-linecap="round" stroke-linejoin="round"/>
<path d="M3.79688 24.1257V21.4375C3.79688 15.9415 3.79688 13.1926 5.51495 11.4252C7.23493 9.65584 9.94208 9.5799 15.3545 9.42613C17.9174 9.35399 20.5372 9.30273 22.7811 9.30273C25.0232 9.30273 27.643 9.35399 30.2078 9.42613C35.6202 9.5799 38.3274 9.65584 40.0454 11.4252C41.7654 13.1926 41.7654 15.9434 41.7654 21.4375V24.1238C41.7654 29.6216 41.7654 32.3686 40.0473 34.138C38.3274 35.9054 35.6221 35.9832 30.2078 36.1351C27.6449 36.2091 25.0251 36.2604 22.7811 36.2604C20.3051 36.253 17.8294 36.2112 15.3545 36.1351C9.94208 35.9832 7.23493 35.9073 5.51495 34.138C3.79688 32.3686 3.79688 29.6197 3.79688 24.1257Z" stroke="#F0F0F0" stroke-width="2.53124"/>
</svg>
