<svg width="1136" height="731" viewBox="0 0 1136 731" fill="none" xmlns="http://www.w3.org/2000/svg">
<g clip-path="url(#clip0_344_529)">
<mask id="mask0_344_529" style="mask-type:luminance" maskUnits="userSpaceOnUse" x="887" y="144" width="207" height="499">
<path d="M921.635 144.058L1073.71 154.557C1085.5 155.368 1094.4 165.594 1093.59 177.401L1062.79 622.666C1061.98 634.472 1051.75 643.379 1039.96 642.558L887.895 632.061L921.635 144.058Z" fill="white"/>
</mask>
<g mask="url(#mask0_344_529)">
<path d="M921.635 144.058L1073.71 154.557C1085.5 155.368 1094.4 165.594 1093.59 177.401L1062.79 622.666C1061.98 634.472 1051.75 643.379 1039.96 642.558L887.895 632.061L921.635 144.058Z" fill="#81BEF6" stroke="#4B7C9B" stroke-miterlimit="10"/>
<g opacity="0.8">
<path d="M1043.5 313.559L1043.62 311.695L944.525 304.852L944.396 306.714L1043.5 313.559Z" fill="#F7F5F4"/>
<path d="M1042.96 321.561L1043.32 316.274L944.22 309.429L943.86 314.716L1042.96 321.561Z" fill="#F7F5F4"/>
<path d="M1041.05 348.864L1041.41 343.576L942.314 336.732L941.953 342.02L1041.05 348.864Z" fill="#F7F5F4"/>
<path d="M1040.42 358.016L1040.54 356.152L941.447 349.309L941.318 351.171L1040.42 358.016Z" fill="#F7F5F4"/>
<path d="M1031.8 482.741L1032.16 477.453L933.064 470.609L932.703 475.897L1031.8 482.742L1031.8 482.741Z" fill="#F7F5F4"/>
<path d="M1029.73 512.499L1029.92 509.977L930.814 503.132L930.642 505.656L1029.73 512.499Z" fill="#F7F5F4"/>
<path d="M1028.37 532.337L1028.55 529.813L929.455 522.97L929.283 525.494L1028.38 532.339L1028.37 532.337Z" fill="#F7F5F4"/>
<path d="M1048.25 244.959L1048.42 242.516L949.314 235.671L949.145 238.114L1048.25 244.959Z" fill="#F7F5F4"/>
<path d="M1047.63 253.689L1047.85 250.565L948.744 243.72L948.529 246.844L1047.63 253.689Z" fill="#F7F5F4"/>
<path d="M1047.17 260.772L1047.27 259.28L948.166 252.435L948.064 253.927L1047.17 260.772Z" fill="#F7F5F4"/>
<path d="M1046.69 267.468L1046.76 266.366L947.658 259.521L947.577 260.621L1046.68 267.466L1046.69 267.468Z" fill="#F7F5F4"/>
<path d="M1046.08 276.199L1046.3 273.075L947.197 266.23L946.982 269.354L1046.08 276.199Z" fill="#F7F5F4"/>
<path d="M1045.48 284.8L1045.69 281.796L946.588 274.951L946.381 277.955L1045.48 284.8Z" fill="#F7F5F4"/>
<path d="M1045 291.891L1045.1 290.399L946.002 283.554L945.9 285.046L1045 291.891Z" fill="#F7F5F4"/>
<path d="M1044.45 299.921L1044.62 297.478L945.517 290.633L945.348 293.076L1044.45 299.921Z" fill="#F7F5F4"/>
<path d="M1043.84 308.653L1044.05 305.527L944.947 298.682L944.732 301.806L1043.83 308.651L1043.84 308.653Z" fill="#F7F5F4"/>
<path d="M1042.31 330.862L1042.41 329.369L943.306 322.524L943.205 324.017L1042.31 330.862Z" fill="#F7F5F4"/>
<path d="M1041.7 339.583L1041.92 336.458L942.814 329.613L942.599 332.738L1041.7 339.583Z" fill="#F7F5F4"/>
<path d="M1040.61 355.274L1040.71 353.782L941.611 346.937L941.509 348.429L1040.61 355.274Z" fill="#F7F5F4"/>
<path d="M1040.07 363.316L1040.24 360.872L941.134 354.027L940.965 356.471L1040.07 363.316Z" fill="#F7F5F4"/>
<path d="M1039.46 372.036L1039.67 368.911L940.564 362.066L940.349 365.19L1039.45 372.035L1039.46 372.036Z" fill="#F7F5F4"/>
<path d="M1038.97 379.126L1039.07 377.634L939.97 370.789L939.869 372.281L1038.97 379.126Z" fill="#F7F5F4"/>
<path d="M1038.5 385.814L1038.57 384.711L939.47 377.866L939.399 378.969L1038.51 385.815L1038.5 385.814Z" fill="#F7F5F4"/>
<path d="M1037.91 394.546L1038.11 391.42L939.009 384.575L938.794 387.7L1037.9 394.545L1037.91 394.546Z" fill="#F7F5F4"/>
<path d="M1037.3 403.146L1037.51 400.142L938.408 393.297L938.201 396.301L1037.3 403.146Z" fill="#F7F5F4"/>
<path d="M1036.81 410.236L1036.92 408.744L937.814 401.899L937.712 403.391L1036.81 410.236Z" fill="#F7F5F4"/>
<path d="M1036.25 418.266L1036.42 415.823L937.322 408.978L937.153 411.421L1036.25 418.266Z" fill="#F7F5F4"/>
<path d="M1035.66 426.999L1035.88 423.874L936.775 417.029L936.56 420.154L1035.66 426.999Z" fill="#F7F5F4"/>
<path d="M1035.16 434.077L1035.26 432.584L936.158 425.739L936.056 427.232L1035.16 434.077Z" fill="#F7F5F4"/>
<path d="M1034.7 440.775L1034.78 439.675L935.666 432.828L935.595 433.93L1034.7 440.775Z" fill="#F7F5F4"/>
<path d="M1034.11 449.377L1034.31 446.372L935.213 439.527L935.006 442.532L1034.11 449.377Z" fill="#F7F5F4"/>
<path d="M1033.61 456.467L1033.71 454.975L934.603 448.128L934.501 449.62L1033.61 456.467Z" fill="#F7F5F4"/>
<path d="M1033.13 463.556L1033.23 462.064L934.127 455.219L934.025 456.711L1033.13 463.556Z" fill="#F7F5F4"/>
<path d="M1032.66 470.255L1032.74 469.155L933.642 462.31L933.561 463.41L1032.66 470.255Z" fill="#F7F5F4"/>
<path d="M1031.51 487.018L1031.68 484.575L932.58 477.73L932.41 480.173L1031.51 487.018Z" fill="#F7F5F4"/>
<path d="M1030.91 495.739L1031.11 492.614L932.009 485.769L931.794 488.893L1030.9 495.738L1030.91 495.739Z" fill="#F7F5F4"/>
<path d="M1030.45 502.439L1030.52 501.336L931.416 494.491L931.345 495.594L1030.45 502.439Z" fill="#F7F5F4"/>
<path d="M1029.23 519.769L1029.44 516.765L930.338 509.92L930.131 512.924L1029.23 519.769Z" fill="#F7F5F4"/>
<path d="M1028.74 526.849L1028.85 525.357L929.744 518.512L929.642 520.004L1028.74 526.849Z" fill="#F7F5F4"/>
<path d="M1027.59 543.612L1027.8 540.487L928.697 533.642L928.482 536.766L1027.58 543.611L1027.59 543.612Z" fill="#F7F5F4"/>
<path d="M1027.1 550.702L1027.2 549.209L928.103 542.364L928.002 543.857L1027.1 550.702Z" fill="#F7F5F4"/>
<path d="M1026.65 557.401L1026.73 556.3L927.627 549.455L927.556 550.557L1026.66 557.402L1026.65 557.401Z" fill="#F7F5F4"/>
<path d="M1026.03 566.12L1026.24 562.994L927.134 556.149L926.919 559.274L1026.02 566.119L1026.03 566.12Z" fill="#F7F5F4"/>
<path d="M1048.67 238.851L1048.91 235.437L949.806 228.592L949.566 232.006L1048.67 238.851Z" fill="#F7F5F4"/>
</g>
<path d="M1055.68 169.619L110.9 105.659C99.8189 104.909 90.2278 113.284 89.4776 124.365L61.5346 537.12C60.7844 548.201 69.1593 557.792 80.2404 558.542L1025.02 622.503C1036.1 623.253 1045.69 614.878 1046.44 603.797L1074.38 191.042C1075.13 179.961 1066.76 170.37 1055.68 169.619Z" stroke="#3F79AC"/>
<path d="M921.635 144.058L1073.71 154.557C1085.5 155.368 1094.4 165.594 1093.59 177.401L1062.79 622.666C1061.98 634.472 1051.75 643.379 1039.96 642.558L887.895 632.061L921.635 144.058Z" stroke="#81BEF6" stroke-miterlimit="10"/>
</g>
<mask id="mask1_344_529" style="mask-type:luminance" maskUnits="userSpaceOnUse" x="41" y="87" width="881" height="546">
<path d="M93.4 87.9101L921.804 143.992L888.763 632.055L60.3588 575.973C49.2841 575.223 40.9033 565.625 41.653 554.551L71.9776 106.616C72.7274 95.5412 82.3254 87.1603 93.4 87.9101Z" fill="white"/>
</mask>
<g mask="url(#mask1_344_529)">
<mask id="mask2_344_529" style="mask-type:luminance" maskUnits="userSpaceOnUse" x="41" y="87" width="881" height="546">
<path d="M93.4 87.9101L921.804 143.992L888.763 632.055L60.3588 575.973C49.2841 575.223 40.9033 565.625 41.653 554.551L71.9776 106.616C72.7274 95.5412 82.3254 87.1603 93.4 87.9101Z" fill="white"/>
</mask>
<g mask="url(#mask2_344_529)">
<path d="M93.4 87.9101L921.804 143.992L888.763 632.055L60.3588 575.973C49.2841 575.223 40.9033 565.625 41.653 554.551L71.9776 106.616C72.7274 95.5412 82.3254 87.1603 93.4 87.9101Z" fill="#95C8F6"/>
<path d="M925.809 160.824L110.884 105.654C99.8033 104.904 90.2122 113.279 89.462 124.36L61.519 537.115C60.7688 548.196 69.1437 557.787 80.2248 558.538L895.149 613.707C906.23 614.457 915.822 606.082 916.572 595.001L944.515 182.246C945.265 171.165 936.89 161.574 925.809 160.824Z" stroke="#3F79AC"/>
</g>
</g>
</g>
<defs>
<clipPath id="clip0_344_529">
<rect width="1059.28" height="573.5" fill="white" transform="translate(88.5547) rotate(8.88294)"/>
</clipPath>
</defs>
</svg>
