<svg width="52" height="52" viewBox="0 0 52 52" fill="none" xmlns="http://www.w3.org/2000/svg">
<path d="M46.9324 1H5.06759C2.82112 1 1 2.82112 1 5.06759V46.9324C1 49.1789 2.82112 51 5.06759 51H46.9324C49.1789 51 51 49.1789 51 46.9324V5.06759C51 2.82112 49.1789 1 46.9324 1Z" fill="white" stroke="#55504D" stroke-width="0.904232" stroke-miterlimit="10"/>
<path d="M45.5577 2.35742H6.40353C4.15706 2.35742 2.33594 4.17854 2.33594 6.42501V45.5792C2.33594 47.8256 4.15706 49.6468 6.40353 49.6468H45.5577C47.8042 49.6468 49.6253 47.8256 49.6253 45.5792V6.42501C49.6253 4.17854 47.8042 2.35742 45.5577 2.35742Z" fill="#256CB0" stroke="#55504D" stroke-width="0.226058" stroke-miterlimit="10"/>
<circle cx="6.49734" cy="6.49539" r="1.0989" fill="white"/>
<circle cx="6.49734" cy="46.0559" r="1.0989" fill="white"/>
<circle cx="45.5051" cy="6.49539" r="1.0989" fill="white"/>
<circle cx="45.5051" cy="46.0559" r="1.0989" fill="white"/>
<g clip-path="url(#clip0_283_7779)">
<path d="M35.7658 19.635C35.7658 21.5049 35.2335 23.2535 34.3088 24.7392C33.0411 28.1821 31.7734 31.6239 30.5058 35.0668C28.9667 35.3616 27.0394 35.5819 24.8249 35.4925C23.4552 35.4372 22.2191 35.2733 21.1429 35.0668C19.8457 31.5898 18.5476 28.114 17.2504 24.637C17.2483 24.6179 17.2452 24.5998 17.2441 24.5806C16.3783 23.1289 15.8828 21.4389 15.8828 19.635C15.8828 14.2275 20.3339 9.84375 25.8243 9.84375C31.3147 9.84375 35.7658 14.2275 35.7658 19.635Z" fill="white"/>
<path d="M29.9238 35.0674H21.613C21.1191 35.0674 20.7188 35.4724 20.7188 35.972C20.7188 36.4716 21.1191 36.8766 21.613 36.8766H29.9238C30.4177 36.8766 30.818 36.4716 30.818 35.972C30.818 35.4724 30.4177 35.0674 29.9238 35.0674Z" fill="white"/>
<path d="M29.1515 36.8857H22.0446C21.554 36.8857 21.1562 37.0846 21.1562 37.3299C21.1562 37.5752 21.554 37.7741 22.0446 37.7741H29.1515C29.6422 37.7741 30.0399 37.5752 30.0399 37.3299C30.0399 37.0846 29.6422 36.8857 29.1515 36.8857Z" fill="#256CB0"/>
<path d="M29.1515 39.5518H22.0446C21.554 39.5518 21.1562 39.7506 21.1562 39.9959C21.1562 40.2413 21.554 40.4401 22.0446 40.4401H29.1515C29.6422 40.4401 30.0399 40.2413 30.0399 39.9959C30.0399 39.7506 29.6422 39.5518 29.1515 39.5518Z" fill="#256CB0"/>
<path d="M25.5982 28.002H24.2656V35.553H25.5982V28.002Z" fill="#256CB0"/>
<path d="M27.8247 28.002H26.4922V35.553H27.8247V28.002Z" fill="#256CB0"/>
<path d="M21.3962 19.9442L21.1016 20.0586L24.2692 28.4066L24.5638 28.2922L21.3962 19.9442Z" fill="#256CB0"/>
<path d="M27.3147 28.1864L27.6094 28.3008L30.7755 19.9522L30.4809 19.8378L27.3147 28.1864Z" fill="#256CB0"/>
<path d="M21.3203 19.6809C22.6441 19.3146 23.969 18.9483 25.2928 18.582C25.8296 19.3146 26.3664 20.0472 26.9032 20.7798C28.1562 20.4135 29.408 20.0472 30.661 19.6809L30.5794 20.1022L30.5536 20.2304C30.5203 20.4021 29.4413 20.7478 26.9032 21.3293C26.4308 20.6379 25.8908 20.0381 25.2928 19.6809C23.6598 18.7102 22.2759 19.9671 21.3203 21.3293" fill="#256CB0"/>
</g>
<path d="M29.6823 37.2637H21.7703C21.224 37.2637 20.7812 37.6327 20.7812 38.0878C20.7812 38.543 21.224 38.912 21.7703 38.912H29.6823C30.2286 38.912 30.6714 38.543 30.6714 38.0878C30.6714 37.6327 30.2286 37.2637 29.6823 37.2637Z" fill="white"/>
<path d="M29.6823 39.4609H21.7703C21.224 39.4609 20.7812 39.9529 20.7812 40.5598C20.7812 41.1667 21.224 41.6587 21.7703 41.6587H29.6823C30.2286 41.6587 30.6714 41.1667 30.6714 40.5598C30.6714 39.9529 30.2286 39.4609 29.6823 39.4609Z" fill="white"/>
<path d="M20.7812 41.1094H30.6714L29.8472 44.4061H21.6054L20.7812 41.1094Z" fill="white"/>
<defs>
<clipPath id="clip0_283_7779">
<rect width="19.9882" height="31.9811" fill="white" transform="translate(15.8281 9.79102)"/>
</clipPath>
</defs>
</svg>
