<svg width="249" height="433" viewBox="0 0 249 433" fill="none" xmlns="http://www.w3.org/2000/svg">
<path d="M237.056 -4.9341e-07C243.29 -2.20907e-07 248.344 5.05377 248.344 11.2879L248.344 341.346L0.00970493 341.346L0.00971936 11.2879C0.00971963 5.05374 5.06349 -1.06341e-05 11.2976 -1.03616e-05L237.056 -4.9341e-07Z" fill="#56A2E9"/>
<path d="M248.336 341.342L248.336 421.712C248.336 427.946 243.282 433 237.048 433L11.2898 433C5.05568 433 0.00191836 427.946 0.00191864 421.712L0.00192215 341.342L248.336 341.342Z" fill="#81BEF6"/>
<path d="M0.0078125 11.8631C0.0078125 5.3113 5.31911 0 11.8709 0H236.084C242.636 0 247.947 5.3113 247.947 11.8631V78.2966H0.0078125V11.8631Z" fill="#256CB0"/>
<g opacity="0.8">
<path d="M164.516 410.041L165.419 410.039L165.536 362.018L164.633 362.015L164.516 410.041Z" fill="#F7F5F4"/>
<path d="M160.638 410.038L163.2 410.042L163.317 362.016L160.755 362.012L160.638 410.038Z" fill="#F7F5F4"/>
<path d="M147.404 409.994L149.966 409.998L150.083 361.977L147.52 361.973L147.404 409.994Z" fill="#F7F5F4"/>
<path d="M142.961 409.983L143.864 409.98L143.981 361.959L143.079 361.957L142.961 409.983Z" fill="#F7F5F4"/>
<path d="M82.5287 409.832L85.091 409.836L85.2077 361.815L82.6454 361.811L82.5282 409.836L82.5287 409.832Z" fill="#F7F5F4"/>
<path d="M68.1024 409.795L69.3249 409.801L69.4421 361.776L68.2191 361.774L68.1024 409.795Z" fill="#F7F5F4"/>
<path d="M58.4852 409.775L59.7082 409.777L59.8249 361.756L58.6019 361.754L58.4848 409.78L58.4852 409.775Z" fill="#F7F5F4"/>
<path d="M197.758 410.128L198.942 410.132L199.059 362.106L197.875 362.103L197.758 410.128Z" fill="#F7F5F4"/>
<path d="M193.53 410.113L195.044 410.116L195.161 362.09L193.647 362.087L193.53 410.113Z" fill="#F7F5F4"/>
<path d="M190.094 410.109L190.817 410.11L190.934 362.084L190.211 362.083L190.094 410.109Z" fill="#F7F5F4"/>
<path d="M186.853 410.096L187.387 410.094L187.505 362.069L186.971 362.065L186.854 410.091L186.853 410.096Z" fill="#F7F5F4"/>
<path d="M182.623 410.079L184.137 410.083L184.255 362.057L182.741 362.054L182.623 410.079Z" fill="#F7F5F4"/>
<path d="M178.447 410.074L179.903 410.077L180.02 362.051L178.564 362.048L178.447 410.074Z" fill="#F7F5F4"/>
<path d="M175.016 410.07L175.739 410.071L175.856 362.045L175.133 362.044L175.016 410.07Z" fill="#F7F5F4"/>
<path d="M171.118 410.058L172.302 410.061L172.419 362.035L171.235 362.032L171.118 410.058Z" fill="#F7F5F4"/>
<path d="M166.889 410.047L168.403 410.046L168.52 362.02L167.006 362.016L166.889 410.042L166.889 410.047Z" fill="#F7F5F4"/>
<path d="M156.125 410.015L156.848 410.016L156.966 361.99L156.242 361.989L156.125 410.015Z" fill="#F7F5F4"/>
<path d="M151.905 410.005L153.419 410.009L153.536 361.983L152.022 361.979L151.905 410.005Z" fill="#F7F5F4"/>
<path d="M144.297 409.99L145.02 409.991L145.137 361.965L144.414 361.964L144.297 409.99Z" fill="#F7F5F4"/>
<path d="M140.407 409.984L141.591 409.987L141.708 361.961L140.524 361.958L140.407 409.984Z" fill="#F7F5F4"/>
<path d="M136.17 409.973L137.684 409.971L137.801 361.946L136.287 361.942L136.17 409.968L136.17 409.973Z" fill="#F7F5F4"/>
<path d="M132.735 409.959L133.458 409.96L133.575 361.934L132.852 361.933L132.735 409.959Z" fill="#F7F5F4"/>
<path d="M129.502 409.953L130.036 409.952L130.153 361.926L129.619 361.927L129.501 409.958L129.502 409.953Z" fill="#F7F5F4"/>
<path d="M125.264 409.942L126.778 409.94L126.895 361.914L125.381 361.911L125.264 409.937L125.264 409.942Z" fill="#F7F5F4"/>
<path d="M121.096 409.931L122.552 409.934L122.669 361.908L121.213 361.905L121.096 409.931Z" fill="#F7F5F4"/>
<path d="M117.664 409.922L118.387 409.923L118.505 361.897L117.781 361.896L117.664 409.922Z" fill="#F7F5F4"/>
<path d="M113.766 409.91L114.95 409.913L115.067 361.887L113.883 361.884L113.766 409.91Z" fill="#F7F5F4"/>
<path d="M109.537 409.904L111.052 409.907L111.169 361.881L109.655 361.878L109.537 409.904Z" fill="#F7F5F4"/>
<path d="M106.11 409.89L106.833 409.891L106.95 361.865L106.227 361.864L106.11 409.89Z" fill="#F7F5F4"/>
<path d="M102.861 409.885L103.395 409.888L103.512 361.858L102.978 361.859L102.861 409.885Z" fill="#F7F5F4"/>
<path d="M98.6894 409.873L100.145 409.876L100.262 361.85L98.8066 361.847L98.6894 409.873Z" fill="#F7F5F4"/>
<path d="M95.2577 409.864L95.9808 409.865L96.0984 361.834L95.3752 361.833L95.2577 409.864Z" fill="#F7F5F4"/>
<path d="M91.8206 409.855L92.5437 409.856L92.6608 361.83L91.9377 361.829L91.8206 409.855Z" fill="#F7F5F4"/>
<path d="M88.5726 409.851L89.1062 409.854L89.2234 361.828L88.6898 361.825L88.5726 409.851Z" fill="#F7F5F4"/>
<path d="M80.4534 409.832L81.6374 409.835L81.7546 361.809L80.5706 361.806L80.4534 409.832Z" fill="#F7F5F4"/>
<path d="M76.2324 409.823L77.7468 409.821L77.864 361.795L76.3499 361.792L76.2328 409.818L76.2324 409.823Z" fill="#F7F5F4"/>
<path d="M72.9784 409.814L73.5124 409.813L73.6296 361.787L73.0956 361.788L72.9784 409.814Z" fill="#F7F5F4"/>
<path d="M64.5801 409.787L66.0359 409.79L66.153 361.764L64.6972 361.761L64.5801 409.787Z" fill="#F7F5F4"/>
<path d="M61.1487 409.775L61.8718 409.776L61.989 361.75L61.2659 361.749L61.1487 409.775Z" fill="#F7F5F4"/>
<path d="M53.0214 409.762L54.5359 409.76L54.653 361.735L53.139 361.731L53.0219 409.757L53.0214 409.762Z" fill="#F7F5F4"/>
<path d="M49.5862 409.752L50.3093 409.753L50.4265 361.727L49.7034 361.726L49.5862 409.752Z" fill="#F7F5F4"/>
<path d="M46.3461 409.743L46.8796 409.747L46.9968 361.721L46.4628 361.722L46.3456 409.748L46.3461 409.743Z" fill="#F7F5F4"/>
<path d="M42.1152 409.731L43.6296 409.729L43.7468 361.703L42.2328 361.7L42.1156 409.726L42.1152 409.731Z" fill="#F7F5F4"/>
<path d="M200.717 410.133L202.372 410.139L202.489 362.114L200.834 362.107L200.717 410.133Z" fill="#F7F5F4"/>
</g>
</svg>
