<?xml version="1.0" encoding="UTF-8"?>
<svg id="Layer_2" data-name="Layer 2" xmlns="http://www.w3.org/2000/svg" viewBox="0 0 332.8 205.51">
  <defs>
    <style>
      .cls-1 {
        fill: none;
        stroke: #2f308d;
        stroke-miterlimit: 10;
        stroke-width: 16px;
      }
    </style>
  </defs>
  <g id="Layer_1-2" data-name="Layer 1">
    <path class="cls-1" d="M.1,131.18c32.31-.41,58.38-.36,76.45-.42,4.52-.01,14.19-.06,19.04,6.17,2.79,3.58,2.74,7.64,2.78,15.88.03,6.15.13,15.89.43,28.59-.13,3.23.24,8.01,3.36,11.56,4.55,5.17,12.22,4.66,20.7,4.38,19.22-.62,55.5-.42,57.1-.41,8.91.05,16.26.33,21.16-4.78,4.13-4.3,4.45-10.27,4.54-13.17.71-22.08-3.83-108.29-4.28-136.37-.12-7.85-.1-21.95,9.11-29.44,6.94-5.65,15.9-5.28,19.91-5.11,21.14.87,56.07.78,102.34.54"/>
  </g>
</svg>