<svg width="115" height="101" viewBox="0 0 115 101" fill="none" xmlns="http://www.w3.org/2000/svg">
<path d="M54.1446 2.96651L1.53368 94.0989C0.0173355 96.7209 1.91277 100 4.94546 100H110.174C113.206 100 115.095 96.7209 113.585 94.0989L60.9618 2.96651C59.4455 0.344496 55.6609 0.344496 54.1446 2.96651Z" fill="#F6EFEF" stroke="#323232" stroke-width="1.09325" stroke-miterlimit="10"/>
<path d="M53.9766 8.52266L7.01048 91.4341C5.464 94.1634 7.41334 97.5701 10.5193 97.5701H104.451C107.564 97.5701 109.513 94.1634 107.96 91.4341L61.0007 8.52266C59.4477 5.78021 55.5295 5.78021 53.9766 8.52266Z" fill="#256CB0" stroke="#323232" stroke-width="0.631811" stroke-miterlimit="10"/>
<circle cx="57.2418" cy="16.2418" r="2.24176" fill="white"/>
<circle cx="103.242" cy="92.2418" r="2.24176" fill="white"/>
<circle cx="12.2418" cy="92.2418" r="2.24176" fill="white"/>
<path d="M33.4062 61.3662C38.3439 61.3799 43.2815 61.3909 48.2164 61.4046C50.888 70.7428 53.5569 80.081 56.2285 89.422C48.622 80.0673 41.0155 70.7154 33.4062 61.3662Z" fill="#F6EFEF"/>
<path d="M49.7606 61.366C52.2951 70.9098 54.8297 80.4562 57.3616 90C59.8249 80.4645 62.2882 70.9317 64.7516 61.3962C59.7537 61.3852 54.7557 61.3742 49.7578 61.3633L49.7606 61.366Z" fill="#F6EFEF"/>
<path d="M66.6663 61.5137C64.0605 70.7724 61.4574 80.0312 58.8516 89.29C66.2553 80.0586 73.659 70.8245 81.0655 61.5931C76.2648 61.5657 71.4669 61.5411 66.6663 61.5137Z" fill="#F6EFEF"/>
<path d="M40.3571 50.29L33 60.1544H47.7115L40.3571 50.29Z" fill="#F6EFEF"/>
<path d="M48.8544 59.8643L56.2115 50H41.5L48.8544 59.8643Z" fill="#F6EFEF"/>
<path d="M57.3181 50.29L49.9609 60.1544H64.6725L57.3181 50.29Z" fill="#F6EFEF"/>
<path d="M65.7868 59.8643L73.144 50H58.4297L65.7868 59.8643Z" fill="#F6EFEF"/>
<path d="M74.1228 50.29L66.7656 60.1544H81.4799L74.1228 50.29Z" fill="#F6EFEF"/>
</svg>
