<svg width="148" height="130" viewBox="0 0 148 130" fill="none" xmlns="http://www.w3.org/2000/svg">
<path d="M69.7122 3.54256L1.69001 121.37C-0.270516 124.76 2.18014 129 6.1012 129H142.154C146.075 129 148.517 124.76 146.565 121.37L78.5264 3.54256C76.5658 0.15248 71.6727 0.15248 69.7122 3.54256Z" fill="#F6EFEF" stroke="#55504D" stroke-miterlimit="10"/>
<path d="M69.4946 10.7277L8.77073 117.926C6.77124 121.455 9.2916 125.86 13.3074 125.86H134.755C138.779 125.86 141.3 121.455 139.292 117.926L78.5762 10.7277C76.5684 7.18191 71.5024 7.18191 69.4946 10.7277Z" fill="#256CB0" stroke="#55504D" stroke-width="0.816887" stroke-miterlimit="10"/>
<circle cx="73.3203" cy="20.3066" r="2.5" fill="white"/>
<circle cx="132.797" cy="118.568" r="2.5" fill="white"/>
<circle cx="15.1406" cy="118.568" r="2.5" fill="white"/>
<g clip-path="url(#clip0_520_754)">
<path d="M88.6952 43.6659C80.9325 47.1047 75.1169 51.024 71.1723 54.0582C65.4578 58.4579 58.7825 63.7173 54.13 72.8453C52.1071 76.8151 50.059 80.8608 50.1349 86.3983C50.2613 95.9562 56.6585 102.581 58.7066 104.528C58.4538 100.988 58.4285 95.7539 59.8445 89.6601C61.5386 82.2768 64.497 77.1944 66.3934 73.9832C68.6944 70.0892 72.5378 64.577 78.6063 59.09C74.8893 65.3103 72.4619 70.8983 70.8942 75.121C69.2254 79.6218 67.329 84.8053 66.3934 91.9105C65.6096 97.9791 65.8371 103.087 66.1911 106.652C68.5679 106.728 72.9929 106.5 77.4179 103.921C83.6886 100.255 85.9896 94.1357 87.2286 90.8486C90.187 82.9089 88.4929 78.0541 88.1136 64.1218C87.9872 59.267 87.9872 52.2377 88.6952 43.6406V43.6659Z" fill="#F6EFEF"/>
<path d="M74.4552 64.6543C71.2186 68.5483 67.3247 74.2122 64.3915 81.6461C58.5759 96.4381 59.9919 109.764 61.155 116.237C62.2929 116.237 63.4307 116.237 64.5938 116.237C64.164 112.924 63.7594 108.423 63.8605 103.113C63.9364 98.6379 64.1134 91.0523 66.8695 81.7725C68.1844 77.3476 70.4348 71.3044 74.4804 64.6543H74.4552Z" fill="#F6EFEF"/>
</g>
<defs>
<clipPath id="clip0_520_754">
<rect width="38.7879" height="72.5692" fill="white" transform="translate(50.1328 43.666)"/>
</clipPath>
</defs>
</svg>
