<?xml version="1.0" encoding="UTF-8"?>
<svg id="Layer_2" data-name="Layer 2" xmlns="http://www.w3.org/2000/svg" viewBox="0 0 249.01 141.34">
  <defs>
    <style>
      .cls-1 {
        fill: none;
        stroke: #2e3192;
        stroke-miterlimit: 10;
        stroke-width: 16px;
      }
    </style>
  </defs>
  <g id="Layer_1-2" data-name="Layer 1">
    <path class="cls-1" d="M.08,74.04c52.98.52,92.77.51,111.34.71,4.14.04,14.1.17,19.04-6.17,2.79-3.58,2.74-7.64,2.78-15.88.03-6.15.13-15.89.43-28.59-.13-3.23.24-8.01,3.36-11.56,4.55-5.17,12.22-4.66,20.7-4.38,19.22.62,55.5.42,57.1.41,8.91-.05,16.26-.33,21.16,4.78,4.21,4.38,4.47,10.5,4.54,13.17.42,14.81.7,57.32.2,114.76"/>
  </g>
</svg>