<svg width="131" height="131" viewBox="0 0 131 131" fill="none" xmlns="http://www.w3.org/2000/svg">
<path d="M0.5 38.582L38.582 0.5H92.418L130.5 38.582V92.418L92.418 130.5H38.582L0.5 92.418V38.582Z" fill="#F6EFEF" stroke="#55504D"/>
<path d="M6.39648 41.0001L41.0002 6.39648H89.9729L124.604 41.0002V89.9728L89.9728 124.604H41.0002L6.39648 89.9729V41.0001Z" fill="#EF9F29" stroke="#55504D" stroke-width="0.511719"/>
<path d="M41.8613 55.8281H38.4531V85.5383H41.8613V55.8281Z" fill="#F6EFEF"/>
<path d="M48.9863 55.8281H45.5781V85.5383H48.9863V55.8281Z" fill="#F6EFEF"/>
<path d="M56.9004 55.8281H53.4922V85.5383H56.9004V55.8281Z" fill="#F6EFEF"/>
<path d="M64.9551 55.8281H61.5469V85.5383H64.9551V55.8281Z" fill="#F6EFEF"/>
<path d="M72.4004 55.8281H68.9922V85.5383H72.4004V55.8281Z" fill="#F6EFEF"/>
<path d="M79.5254 55.916H76.1172V85.6262H79.5254V55.916Z" fill="#F6EFEF"/>
<path d="M86.8144 55.916H83.4062V85.6262H86.8144V55.916Z" fill="#F6EFEF"/>
<path d="M93.9629 55.8281H90.5547V85.5383H93.9629V55.8281Z" fill="#F6EFEF"/>
<path d="M101.276 89.0605H30.7031V94.155H101.276V89.0605Z" fill="#F6EFEF"/>
<path d="M65.9936 30.7031L31.6797 45.1835H100.308L65.9936 30.7031Z" fill="#F6EFEF"/>
<path d="M101.276 47.584H30.7031V52.6784H101.276V47.584Z" fill="#F6EFEF"/>
<path d="M35.1191 55.8281H31.7109V85.5383H35.1191V55.8281Z" fill="#F6EFEF"/>
<path d="M101.275 55.8281H97.8672V85.5383H101.275V55.8281Z" fill="#F6EFEF"/>
<circle cx="42.5" cy="11.5" r="2.5" fill="white"/>
<circle cx="86.5" cy="11.5" r="2.5" fill="white"/>
<circle cx="43.5" cy="118.5" r="2.5" fill="white"/>
<circle cx="86.5" cy="118.5" r="2.5" fill="white"/>
</svg>
