<svg width="44" height="44" viewBox="0 0 44 44" fill="none" xmlns="http://www.w3.org/2000/svg">
<path d="M21.9296 29.246C23.869 29.246 25.729 28.4756 27.1003 27.1042C28.4717 25.7329 29.2421 23.8729 29.2421 21.9336C29.2421 19.9942 28.4717 18.1342 27.1003 16.7629C25.729 15.3915 23.869 14.6211 21.9296 14.6211C19.9903 14.6211 18.1303 15.3915 16.759 16.7629C15.3876 18.1342 14.6172 19.9942 14.6172 21.9336C14.6172 23.8729 15.3876 25.7329 16.759 27.1042C18.1303 28.4756 19.9903 29.246 21.9296 29.246Z" stroke="#F0F0F0" stroke-width="2.53124" stroke-linecap="round" stroke-linejoin="round"/>
<path d="M5.47656 29.2479V14.623C5.47656 12.1988 6.43958 9.87383 8.15378 8.15963C9.86797 6.44544 12.1929 5.48242 14.6171 5.48242H29.2421C31.6663 5.48242 33.9912 6.44544 35.7054 8.15963C37.4196 9.87383 38.3826 12.1988 38.3826 14.623V29.2479C38.3826 31.6722 37.4196 33.9971 35.7054 35.7113C33.9912 37.4255 31.6663 38.3885 29.2421 38.3885H14.6171C12.1929 38.3885 9.86797 37.4255 8.15378 35.7113C6.43958 33.9971 5.47656 31.6722 5.47656 29.2479Z" stroke="#F0F0F0" stroke-width="2.53124"/>
<path d="M31.9844 11.8993L32.0011 11.8809" stroke="#F0F0F0" stroke-width="2.53124" stroke-linecap="round" stroke-linejoin="round"/>
</svg>
