<svg width="117" height="101" viewBox="0 0 117 101" fill="none" xmlns="http://www.w3.org/2000/svg">
<path d="M55.0295 2.96651L1.54257 94.0989C0.000972006 96.7209 1.92797 100 5.01116 100H111.992C115.075 100 116.995 96.7209 115.46 94.0989L61.9603 2.96651C60.4187 0.344496 56.5711 0.344496 55.0295 2.96651Z" fill="#F6EFEF" stroke="#323232" stroke-width="1.09325" stroke-miterlimit="10"/>
<path d="M54.8614 8.52168L7.11325 91.4332C5.54102 94.1625 7.52282 97.5691 10.6805 97.5691H106.177C109.341 97.5691 111.323 94.1625 109.744 91.4332L62.0025 8.52168C60.4237 5.77923 56.4403 5.77923 54.8614 8.52168Z" fill="#256CB0" stroke="#323232" stroke-width="0.631811" stroke-miterlimit="10"/>
<ellipse cx="58.1775" cy="16.2408" rx="2.27909" ry="2.24176" fill="white"/>
<ellipse cx="104.943" cy="92.2408" rx="2.27909" ry="2.24176" fill="white"/>
<ellipse cx="12.4275" cy="92.2408" rx="2.27909" ry="2.24176" fill="white"/>
<g clip-path="url(#clip0_744_426)">
<path d="M71.3222 34.3262C65.2183 36.9859 60.6454 40.0172 57.5437 42.364C53.0503 45.7669 47.8014 49.8347 44.143 56.8946C42.5524 59.965 40.942 63.0941 41.0016 67.377C41.101 74.7695 46.1313 79.8933 47.7417 81.3992C47.5429 78.6613 47.523 74.613 48.6364 69.8999C49.9686 64.1893 52.2948 60.2584 53.786 57.7747C55.5953 54.763 58.6174 50.4996 63.3892 46.2558C60.4665 51.0667 58.5577 55.3888 57.325 58.6547C56.0128 62.1358 54.5216 66.145 53.786 71.6404C53.1696 76.334 53.3486 80.2845 53.6269 83.042C55.4959 83.1006 58.9753 82.9246 62.4547 80.9298C67.3855 78.0941 69.1948 73.3614 70.1691 70.819C72.4953 64.6782 71.1632 60.9233 70.8649 50.1476C70.7655 46.3927 70.7655 40.9559 71.3222 34.3066V34.3262Z" fill="#F6EFEF"/>
<path d="M60.1241 50.5576C57.5791 53.5694 54.5172 57.9501 52.2109 63.6997C47.6379 75.1404 48.7514 85.4468 49.6659 90.4533C50.5607 90.4533 51.4554 90.4533 52.3699 90.4533C52.0319 87.8914 51.7138 84.4103 51.7934 80.3034C51.853 76.8418 51.9922 70.9748 54.1594 63.7975C55.1932 60.3751 56.9628 55.701 60.144 50.5576H60.1241Z" fill="#F6EFEF"/>
</g>
<defs>
<clipPath id="clip0_744_426">
<rect width="30.4996" height="56.1278" fill="white" transform="translate(41 34.3262)"/>
</clipPath>
</defs>
</svg>
