<svg width="115" height="101" viewBox="0 0 115 101" fill="none" xmlns="http://www.w3.org/2000/svg">
<path d="M55.9826 3.17304L1.55214 103.877C-0.0166499 106.774 1.94434 110.397 5.08191 110.397H113.949C117.087 110.397 119.041 106.774 117.479 103.877L63.0356 3.17304C61.4668 0.275652 57.5514 0.275652 55.9826 3.17304Z" fill="#F6EFEF" stroke="#323232" stroke-width="1.13106" stroke-miterlimit="10"/>
<path d="M55.8149 9.31192L7.22452 100.931C5.62456 103.947 7.64132 107.712 10.8547 107.712H108.036C111.256 107.712 113.272 103.947 111.666 100.931L63.082 9.31192C61.4753 6.28144 57.4216 6.28144 55.8149 9.31192Z" fill="#256CB0" stroke="#323232" stroke-width="0.653662" stroke-miterlimit="10"/>
<ellipse cx="59.2021" cy="17.8424" rx="2.31929" ry="2.4772" fill="white"/>
<ellipse cx="106.788" cy="101.824" rx="2.31929" ry="2.4772" fill="white"/>
<ellipse cx="12.6474" cy="101.824" rx="2.31929" ry="2.4772" fill="white"/>
<g clip-path="url(#clip0_290_8116)">
<path d="M71.1774 37.465C64.9658 40.404 60.3122 43.7537 57.1559 46.3469C52.5832 50.1072 47.2417 54.6022 43.5188 62.4037C41.9001 65.7965 40.2612 69.2542 40.3219 73.987C40.4231 82.1558 45.5421 87.8178 47.181 89.4818C46.9786 86.4563 46.9584 81.9829 48.0915 76.7748C49.4471 70.4644 51.8143 66.1207 53.3318 63.3761C55.173 60.0481 58.2485 55.337 63.1044 50.6475C60.1301 55.9637 58.1878 60.7396 56.9333 64.3486C55.5979 68.1953 54.0804 72.6255 53.3318 78.6981C52.7046 83.8847 52.8867 88.25 53.17 91.2971C55.0719 91.3619 58.6127 91.1674 62.1534 88.9632C67.1712 85.8296 69.0125 80.5998 70.0039 77.7904C72.3712 71.0047 71.0155 66.8555 70.712 54.948C70.6109 50.7987 70.6109 44.791 71.1774 37.4434V37.465Z" fill="#F6EFEF"/>
<path d="M59.784 55.3994C57.1942 58.7275 54.0783 63.5682 51.7312 69.9218C47.0776 82.564 48.2107 93.9528 49.1414 99.4852C50.0519 99.4852 50.9624 99.4852 51.8931 99.4852C51.5491 96.6542 51.2254 92.8075 51.3063 88.2692C51.367 84.4441 51.5087 77.9609 53.7141 70.0298C54.7662 66.248 56.5669 61.083 59.8042 55.3994H59.784Z" fill="#F6EFEF"/>
</g>
<defs>
<clipPath id="clip0_290_8116">
<rect width="31.0375" height="62.0226" fill="white" transform="translate(40.3203 37.4648)"/>
</clipPath>
</defs>
</svg>
