<svg width="139" height="140" viewBox="0 0 139 140" fill="none" xmlns="http://www.w3.org/2000/svg">
<path d="M6.94639 138.82V121.331H0.970851V119.174H15.5162V121.331H9.5115V138.82H6.94639ZM16.3075 138.82V129.114C16.3075 127.452 16.2784 126.024 16.1909 124.712H18.4354L18.5229 127.481H18.6395C19.2807 125.587 20.8256 124.392 22.5454 124.392C22.8369 124.392 23.041 124.421 23.2741 124.479V126.898C23.0118 126.84 22.7495 126.811 22.3997 126.811C20.5924 126.811 19.3099 128.181 18.9601 130.105C18.9018 130.455 18.8435 130.863 18.8435 131.3V138.82H16.3075ZM35.8451 138.82H33.5132L33.3091 137.042H33.2217C32.4347 138.15 30.9189 139.141 28.9076 139.141C26.051 139.141 24.5936 137.13 24.5936 135.089C24.5936 131.679 27.6251 129.813 33.0759 129.842V129.551C33.0759 128.385 32.7553 126.286 29.8696 126.286C28.5579 126.286 27.1879 126.694 26.1968 127.336L25.6138 125.645C26.7798 124.887 28.4704 124.392 30.2485 124.392C34.5625 124.392 35.6119 127.336 35.6119 130.163V135.439C35.6119 136.663 35.6702 137.858 35.8451 138.82ZM33.1342 134.069V131.621C30.3359 131.562 27.1587 132.058 27.1587 134.798C27.1587 136.459 28.2664 137.246 29.5781 137.246C31.4145 137.246 32.5804 136.08 32.9885 134.885C33.0759 134.623 33.1342 134.331 33.1342 134.069ZM42.3285 138.82H39.7634V124.712H42.3285V138.82ZM41.0459 119.145C42.0078 119.145 42.62 119.844 42.62 120.748C42.6491 121.622 42.0078 122.322 40.9876 122.322C40.084 122.322 39.4427 121.622 39.4427 120.748C39.4427 119.844 40.1132 119.145 41.0459 119.145ZM46.5952 138.82V128.531C46.5952 127.073 46.566 125.878 46.4786 124.712H48.7522L48.8979 127.044H48.9562C49.6558 125.703 51.2881 124.392 53.6201 124.392C55.573 124.392 58.6045 125.558 58.6045 130.396V138.82H56.0394V130.688C56.0394 128.414 55.1941 126.519 52.7747 126.519C51.0841 126.519 49.7724 127.715 49.3352 129.143C49.2186 129.463 49.1603 129.901 49.1603 130.338V138.82H46.5952ZM73.834 138.82H71.1814L66.1969 119.174H68.8786L71.2106 129.114C71.7935 131.562 72.3182 134.011 72.668 135.905H72.7263C73.0469 133.952 73.6591 131.621 74.3295 129.085L76.9529 119.174H79.6055L81.9957 129.143C82.5495 131.475 83.0742 133.807 83.3657 135.876H83.424C83.8321 133.719 84.3859 131.533 84.998 129.085L87.5923 119.174H90.1865L84.6191 138.82H81.9665L79.4889 128.589C78.8767 126.082 78.4687 124.158 78.2063 122.176H78.148C77.7982 124.129 77.361 126.053 76.6323 128.589L73.834 138.82ZM97.5467 124.392C101.598 124.392 104.338 127.336 104.338 131.65C104.338 136.867 100.724 139.141 97.3135 139.141C93.495 139.141 90.5509 136.343 90.5509 131.883C90.5509 127.161 93.6407 124.392 97.5467 124.392ZM97.4884 126.315C94.4569 126.315 93.1452 129.114 93.1452 131.795C93.1452 134.885 94.9233 137.217 97.4301 137.217C99.8786 137.217 101.715 134.914 101.715 131.737C101.715 129.347 100.52 126.315 97.4884 126.315ZM107.569 138.82V129.114C107.569 127.452 107.54 126.024 107.452 124.712H109.697L109.784 127.481H109.901C110.542 125.587 112.087 124.392 113.807 124.392C114.098 124.392 114.302 124.421 114.536 124.479V126.898C114.273 126.84 114.011 126.811 113.661 126.811C111.854 126.811 110.571 128.181 110.221 130.105C110.163 130.455 110.105 130.863 110.105 131.3V138.82H107.569ZM117.219 138.82V118.125H119.784V138.82H117.219ZM133.727 118.125H136.292V135.177C136.292 136.43 136.321 137.858 136.408 138.82H134.106L133.989 136.372H133.931C133.144 137.946 131.424 139.141 129.121 139.141C125.711 139.141 123.087 136.255 123.087 131.97C123.058 127.277 125.973 124.392 129.413 124.392C131.57 124.392 133.027 125.412 133.668 126.549H133.727V118.125ZM133.727 132.903V130.455C133.727 130.134 133.698 129.697 133.61 129.376C133.231 127.744 131.832 126.403 129.908 126.403C127.256 126.403 125.682 128.735 125.682 131.854C125.682 134.71 127.081 137.071 129.85 137.071C131.57 137.071 133.144 135.935 133.61 134.011C133.698 133.661 133.727 133.311 133.727 132.903Z" fill="#F0F0F0"/>
<g clip-path="url(#clip0_646_125)">
<path d="M87.71 74.75C84.2002 77.993 79.3702 81.9996 73.0406 86.02H139V99.82H1V86.02H41.1764C50.2154 83.881 59.7926 80.1366 68.85 73.83C74.4344 69.943 79.0712 65.6006 83.1192 61.18H1V47.38H35.6932C38.1634 46.2806 40.7348 44.9282 43.32 43.24C47.5888 40.4616 50.9974 37.375 55.28 32.66C61.237 26.105 69.6688 15.5388 77.82 0C81.5782 2.6818 85.3318 5.3682 89.09 8.05C85.433 13.0088 81.1964 19.0164 76.67 25.99C71.6376 33.7456 70.1012 36.754 66.55 40.71C64.6272 42.8536 62.226 45.1444 59.2176 47.38H94.3248C101.777 37.5498 106.892 28.52 110.25 21.85L121.29 28.75C118.613 33.81 114.951 40.2132 110.112 47.38H139V61.18H99.992C96.427 65.7386 92.724 70.1132 87.71 74.75Z" fill="#F0F0F0"/>
</g>
<defs>
<clipPath id="clip0_646_125">
<rect width="138" height="99.82" fill="white" transform="translate(1)"/>
</clipPath>
</defs>
</svg>
