<?xml version="1.0" encoding="UTF-8"?>
<svg id="Layer_2" data-name="Layer 2" xmlns="http://www.w3.org/2000/svg" xmlns:xlink="http://www.w3.org/1999/xlink" viewBox="0 0 463.33 389.12">
  <defs>
    <style>
      .cls-1 {
        stroke: #266fb0;
      }

      .cls-1, .cls-2, .cls-3 {
        stroke-width: .03px;
      }

      .cls-1, .cls-2, .cls-3, .cls-4, .cls-5 {
        fill: none;
      }

      .cls-2 {
        stroke: #f26639;
      }

      .cls-3 {
        stroke: #ea6e26;
      }

      .cls-6 {
        letter-spacing: -.01em;
      }

      .cls-7 {
        letter-spacing: 0em;
      }

      .cls-8 {
        letter-spacing: 0em;
      }

      .cls-9 {
        mask: url(#mask);
      }

      .cls-10 {
        fill: url(#linear-gradient);
      }

      .cls-10, .cls-11, .cls-12, .cls-13, .cls-14, .cls-15, .cls-16, .cls-17 {
        stroke-width: 0px;
      }

      .cls-4 {
        stroke: #e74225;
        stroke-linecap: round;
        stroke-width: 1.32px;
      }

      .cls-4, .cls-5 {
        stroke-miterlimit: 10;
      }

      .cls-18 {
        letter-spacing: 0em;
      }

      .cls-5 {
        stroke: #2d2d2d;
        stroke-width: .13px;
      }

      .cls-11 {
        fill: url(#linear-gradient-2);
      }

      .cls-19 {
        fill: #231f20;
      }

      .cls-19, .cls-20 {
        font-family: MyriadPro-Regular, 'Myriad Pro';
        font-size: 12px;
      }

      .cls-20 {
        fill: #262324;
      }

      .cls-21 {
        letter-spacing: 0em;
      }

      .cls-12 {
        fill: #f8f3f0;
      }

      .cls-13 {
        fill: #266fb0;
      }

      .cls-14 {
        fill: #fff;
      }

      .cls-15 {
        fill: #ea6e26;
      }

      .cls-16 {
        fill: #f05526;
      }

      .cls-17 {
        fill: #efe7e3;
      }
    </style>
    <mask id="mask" x="0" y="0" width="463.33" height="389.12" maskUnits="userSpaceOnUse">
      <g id="mask0_784_480" data-name="mask0 784 480">
        <path class="cls-14" d="M408.92,303.93c.13,13.15-16.86,20.85-16.47,33.87-2.79-1.06-5.71-1.86-8.63-2.39-28.55-6.24-60.69,4.65-87.92-7.04-24.17-10.36-38.51-36.92-40.9-63.08-.53-6.11-1.06-13.15-6.11-16.47-2.52-1.59-5.71-1.99-8.77-1.72-11.82.8-21.64,8.37-31.87,14.21-10.23,5.84-23.37,9.96-33.47,3.98-19.79-11.95-6.77-46.22-22.58-63.08-14.07-15.01-40.77-6.37-57.9-17.66-16.82-11.08-13.5-33.36-29.35-37.45-7.12-1.83-10.4,1.32-18.76-1.93-9.96-3.88-17.62-15.86-18.94-18.11-8.47-14.41-8.31-29.42-7.8-36.22,9.75-7.42,18.68-13.69,26.39-18.86,8.72-5.84,19.58-12.77,32.36-20.09,8.91-5.11,16.75-9.27,23.01-12.48,1.19,1.89,2.5,3.47,3.85,4.78,14.3,13.9,40.68,6.18,44.89,4.9,22.52,4.35,40.12,2.85,52.32.51,18.76-3.6,54.8-15.06,65.51-8.92,6.13,3.51,11.11,8.56,11.12,8.56,5.98,6.06,5.13,8.67,8.77,11.68,10.23,8.5,27.09.93,38.65,7.7,4.52,2.66,7.17,6.77,8.9,11.68v.13c1.99,6.37,2.26,13.68,1.99,20.45-.66,11.95-1.2,25.76,7.7,33.87,6.37,5.71,16.2,7.17,25.23,6.91,2.65-.13,5.18-.26,7.57-.53,2.88,9.07,6.06,15.97,8.32,20.43,7.1,13.98,11,15.49,11.92,23.94.92,8.44-2.46,11.72.7,18.58,2.24,4.87,5.73,6.84,5.08,10.62-.59,3.45-3.81,5.2-6.37,7.31-6.77,5.58-13.68,11.29-18.46,18.73-4.65,7.31-6.77,17-3.19,24.97,7.04,15.94,33.2,20.85,33.2,38.24h0Z"/>
      </g>
    </mask>
    <linearGradient id="linear-gradient" x1="216.84" y1="2206.59" x2="216.84" y2="2047.01" gradientTransform="translate(0 2208.23) scale(1 -1)" gradientUnits="userSpaceOnUse">
      <stop offset="0" stop-color="#fff"/>
      <stop offset=".17" stop-color="#fff" stop-opacity=".81"/>
      <stop offset=".58" stop-color="#fff" stop-opacity=".38"/>
      <stop offset=".87" stop-color="#fff" stop-opacity=".11"/>
      <stop offset="1" stop-color="#fff" stop-opacity="0"/>
    </linearGradient>
    <linearGradient id="linear-gradient-2" x1="246.49" y1="1820.19" x2="246.49" y2="1925.56" gradientTransform="translate(0 2208.23) scale(1 -1)" gradientUnits="userSpaceOnUse">
      <stop offset="0" stop-color="#fff"/>
      <stop offset=".45" stop-color="#fff" stop-opacity=".53"/>
      <stop offset=".83" stop-color="#fff" stop-opacity=".15"/>
      <stop offset="1" stop-color="#fff" stop-opacity="0"/>
    </linearGradient>
  </defs>
  <g id="map">
    <g>
      <path class="cls-12" d="M408.9,303.93c.13,13.15-16.86,20.85-16.47,33.87-2.79-1.06-5.71-1.86-8.63-2.39-28.55-6.24-60.69,4.65-87.92-7.04-24.17-10.36-38.51-36.92-40.9-63.08-.53-6.11-1.06-13.15-6.11-16.47-2.52-1.59-5.71-1.99-8.77-1.73-11.82.8-21.64,8.37-31.87,14.21-10.23,5.84-23.37,9.96-33.47,3.98-19.79-11.95-6.77-46.22-22.58-63.08-14.07-15.01-40.77-6.37-57.9-17.66-16.82-11.08-13.5-33.36-29.35-37.45-7.12-1.83-10.4,1.32-18.76-1.93-10.52-4.09-16.03-13.26-18.94-18.11-8.72-14.51-8.42-29.38-7.8-36.22,3.37-2.56,8.09-6.08,13.81-10.17,19.53-13.95,34.85-23.06,38.06-24.97,7.82-4.63,17.88-10.28,29.89-16.3,1.19,1.89,2.5,3.47,3.85,4.78,14.3,13.9,40.68,6.18,44.89,4.9,22.52,4.35,40.12,2.85,52.32.51,23.76-4.56,51.47-16.97,65.51-8.92,6.13,3.51,11.11,8.56,11.12,8.56,5.98,6.06,5.13,8.67,8.77,11.68,10.23,8.5,27.09.93,38.65,7.7,4.52,2.66,7.17,6.77,8.9,11.68v.13c1.99,6.37,2.26,13.68,1.99,20.45-.66,11.95-1.2,25.76,7.7,33.87,6.37,5.71,16.2,7.17,25.23,6.91,2.65-.13,5.18-.26,7.57-.53,2.88,9.07,6.06,15.97,8.32,20.43,7.1,13.98,11,15.49,11.92,23.94.92,8.44-2.46,11.72.7,18.58,2.24,4.87,5.61,6.82,5.08,10.62-.47,3.37-3.73,5.13-6.37,7.31-6.77,5.58-13.68,11.29-18.46,18.73-4.65,7.31-6.77,17-3.19,24.97,7.04,15.94,33.2,20.85,33.2,38.25h0Z"/>
      <g class="cls-9">
        <g>
          <path class="cls-10" d="M433.68,0H0v198.07h433.68V0Z"/>
          <path class="cls-11" d="M29.65,389.12h433.68v-130.8H29.65v130.8Z"/>
        </g>
      </g>
      <path class="cls-5" d="M408.9,303.93c.13,13.15-16.86,20.85-16.47,33.87-2.79-1.06-5.71-1.86-8.63-2.39-28.55-6.24-60.69,4.65-87.92-7.04-24.17-10.36-38.51-36.92-40.9-63.08-.53-6.11-1.06-13.15-6.11-16.47-2.52-1.59-5.71-1.99-8.77-1.73-11.82.8-21.64,8.37-31.87,14.21-10.23,5.84-23.37,9.96-33.47,3.98-19.79-11.95-6.77-46.22-22.58-63.08-14.07-15.01-40.77-6.37-57.9-17.66-16.82-11.08-13.5-33.36-29.35-37.45-7.12-1.83-10.4,1.32-18.76-1.93-10.52-4.09-16.03-13.26-18.94-18.11-8.72-14.51-8.42-29.38-7.8-36.22,7.73-5.88,15.92-11.79,24.6-17.66,19.81-13.4,39.08-24.53,57.16-33.78,1.19,1.89,2.5,3.47,3.85,4.78,14.3,13.9,40.68,6.18,44.89,4.9,22.52,4.35,40.12,2.85,52.32.51,23.76-4.56,51.47-16.97,65.51-8.92,6.13,3.51,11.11,8.56,11.12,8.56,5.98,6.06,5.13,8.67,8.77,11.68,10.23,8.5,27.09.93,38.65,7.7,4.52,2.66,7.17,6.77,8.9,11.68v.13c1.99,6.37,2.26,13.68,1.99,20.45-.66,11.95-1.2,25.76,7.7,33.87,6.37,5.71,16.2,7.17,25.23,6.91,2.65-.13,5.18-.26,7.57-.53,3.02,10.2,6.79,17.85,9.79,23.11,5.74,10.03,10.86,15.08,10.54,23.86-.19,5.27-2.14,6.11-1.34,10.81,1.36,7.96,8.79,10.78,7.04,15.8-1.06,3.05-3.72,5.31-6.37,7.31-6.77,5.58-13.68,11.29-18.46,18.73-4.65,7.31-6.77,17-3.19,24.97,7.04,15.94,33.2,20.85,33.2,38.25h0Z"/>
      <path class="cls-4" d="M204.11,121.9c1.51.54,3.74,1.14,6.44,1.11,3.84-.06,5.76-1.44,9.25-2.52,1.78-.55,13.09-4.08,16.26-.14,1.97,2.46-.79,5.89,1.54,8.69,1.63,1.96,3.91,1.4,7.15,2.24,5.97,1.55,6.98,5.75,14.01,11.91,3.61,3.16,7.9,6.92,13.99,8.8,9.12,2.83,10.6-2.16,20.33.65,7.34,2.13,10.13,6.02,16.17,5.03,1.42-.23,3.55-.82,6.12,0,2.61.83,4.37,2.69,5.47,4.16,1.46,2.19,3.8,4.88,7.07,5.36,3.44.5,4.94-1.86,10.02-3.83,2.67-1.04,7.42-1.39,16.79-2.06,8.82-.63,11.02-.46,12.38-2.36.13-.19.24-.37.33-.57,1.36-3,.82-5.51.55-9.15-.11-1.49-.18-3.59.05-6.15"/>
      <path class="cls-4" d="M203.13,120.91c4.96-2.51,6.71-5.29,7.37-7.43,1.09-3.54-.32-6.84,0-13.7.32-6.93,2.22-6.34,1.96-10.76-.47-8.04-6.47-9.62-6.53-17.57-.01-1.15.08-4.95,2.36-8.54,1.21-1.9,2.56-2.55,11.49-7.66,4.37-2.5,6.72-3.54,7.95-6.15.93-1.98.91-3.99.73-5.37"/>
      <path class="cls-4" d="M202.95,121.35c-.52,1.79-1.51,4.37-3.46,7.02-1.34,1.84-2.76,3.19-3.94,4.16-1.69,3.58-3.94,8.16-6.73,13.44-3.93,7.44-5.12,9.06-7.07,10.31-4.67,2.99-8.86.78-15.02.88-11.68.21-12,8.45-26.81,13.55-7.33,2.53-10.42,1.5-20.15,1.75-1.04.03-2.04.06-3.12.11,0,0-4.53.21-9.74.79-8.38.93-18.53,2.9-19.82,3.16"/>
      <path class="cls-17" d="M292.05,171c7.56,0,13.69-6.13,13.69-13.69s-6.13-13.69-13.69-13.69-13.69,6.13-13.69,13.69,6.13,13.69,13.69,13.69Z"/>
      <path class="cls-2" d="M292.03,170.57c7.33,0,13.27-5.94,13.27-13.27s-5.94-13.27-13.27-13.27-13.27,5.94-13.27,13.27,5.94,13.27,13.27,13.27Z"/>
      <path class="cls-16" d="M291.68,164.9c4.41,0,7.98-3.58,7.98-7.99s-3.57-7.99-7.98-7.99-7.99,3.58-7.99,7.99,3.58,7.99,7.99,7.99Z"/>
      <path class="cls-17" d="M187.72,163.93c8.26,0,14.96-6.7,14.96-14.96s-6.7-14.96-14.96-14.96-14.96,6.7-14.96,14.96,6.7,14.96,14.96,14.96Z"/>
      <path class="cls-1" d="M187.73,163.54c8.05,0,14.57-6.52,14.57-14.57s-6.52-14.57-14.57-14.57-14.57,6.52-14.57,14.57,6.52,14.57,14.57,14.57Z"/>
      <path class="cls-13" d="M187.31,157.28c4.82,0,8.73-3.91,8.73-8.73s-3.91-8.73-8.73-8.73-8.73,3.91-8.73,8.73,3.91,8.73,8.73,8.73Z"/>
      <path class="cls-17" d="M210.2,91.78c7.96,0,14.4-6.45,14.4-14.4s-6.45-14.4-14.4-14.4-14.4,6.45-14.4,14.4,6.45,14.4,14.4,14.4Z"/>
      <path class="cls-3" d="M210.18,91.35c7.72,0,13.98-6.26,13.98-13.98s-6.26-13.98-13.98-13.98-13.98,6.26-13.98,13.98,6.26,13.98,13.98,13.98Z"/>
      <path class="cls-15" d="M209.79,85.37c4.64,0,8.4-3.76,8.4-8.4s-3.76-8.4-8.4-8.4-8.4,3.76-8.4,8.4,3.76,8.4,8.4,8.4Z"/>
      <text class="cls-20" transform="translate(291.68 184.75)"><tspan x="0" y="0">Liege</tspan></text>
      <text class="cls-20" transform="translate(230.48 83.63)"><tspan class="cls-7" x="0" y="0">A</tspan><tspan class="cls-21" x="7.31" y="0">n</tspan><tspan class="cls-18" x="13.92" y="0">t</tspan><tspan class="cls-6" x="18" y="0">w</tspan><tspan x="26.71" y="0">e</tspan><tspan class="cls-8" x="32.72" y="0">r</tspan><tspan x="36.7" y="0">p</tspan></text>
      <text class="cls-19" transform="translate(195.8 176.52)"><tspan x="0" y="0">Brussels</tspan></text>
    </g>
  </g>
</svg>