<svg width="82" height="72" viewBox="0 0 82 72" fill="none" xmlns="http://www.w3.org/2000/svg">
<path d="M38.9194 2.40314L1.38079 67.4275C0.298854 69.2983 1.65127 71.638 3.81514 71.638H78.897C81.0608 71.638 82.4087 69.2983 81.3313 67.4275L43.7836 2.40314C42.7017 0.532288 40.0014 0.532288 38.9194 2.40314Z" fill="#F6EFEF" stroke="#323232" stroke-width="0.589505" stroke-miterlimit="10"/>
<path d="M38.8038 6.36798L5.29278 65.5266C4.18935 67.474 5.58023 69.9047 7.79637 69.9047H74.8184C77.0392 69.9047 78.4301 67.474 77.322 65.5266L43.8156 6.36798C42.7075 4.4112 39.9119 4.4112 38.8038 6.36798Z" fill="#256CB0" stroke="#323232" stroke-width="0.340686" stroke-miterlimit="10"/>
<circle cx="41.1308" cy="11.8749" r="1.59953" fill="white"/>
<circle cx="73.9511" cy="66.1034" r="1.59953" fill="white"/>
<circle cx="9.0214" cy="66.1034" r="1.59953" fill="white"/>
<path d="M41.3914 29.9453C32.4678 29.9453 25.2344 37.1788 25.2344 46.1024C25.2344 55.0259 32.4678 62.2594 41.3914 62.2594C50.315 62.2594 57.5485 55.0259 57.5485 46.1024C57.5485 37.1788 50.315 29.9453 41.3914 29.9453ZM41.3914 59.1094C34.2073 59.1094 28.3844 53.2865 28.3844 46.1024C28.3844 38.9182 34.2073 33.0953 41.3914 33.0953C48.5755 33.0953 54.3985 38.9182 54.3985 46.1024C54.3985 53.2865 48.5755 59.1094 41.3914 59.1094Z" fill="#F6EFF0"/>
<path d="M41.3922 57.5187C47.6968 57.5187 52.8078 52.4078 52.8078 46.1031C52.8078 39.7984 47.6968 34.6875 41.3922 34.6875C35.0875 34.6875 29.9766 39.7984 29.9766 46.1031C29.9766 52.4078 35.0875 57.5187 41.3922 57.5187Z" fill="#F6EFF0"/>
<path d="M45.5817 50.9708C45.154 51.16 43.945 51.6246 42.4234 51.3203C42.0287 51.2422 40.6511 50.9461 39.5819 49.7042C39.2899 49.367 39.0761 49.0175 38.9075 48.6679H42.6003V46.7393H38.4181C38.3893 46.3034 38.4181 45.958 38.4263 45.777C38.4304 45.703 38.4428 45.6002 38.4551 45.4768H42.6003V43.5482H39.0308C39.2693 43.0794 39.6024 42.5982 40.0753 42.1623C40.3879 41.8704 41.2268 41.1178 42.5674 40.9328C43.7065 40.7765 44.6029 41.1096 44.9895 41.2823C45.2815 40.5915 45.5734 39.9006 45.8654 39.2098C45.2033 38.9342 43.4351 38.3174 41.4447 38.9301C40.2768 39.292 39.4914 39.9335 39.0925 40.2625C38.7183 40.575 37.7601 41.4345 37.0734 42.8655C37.0076 43.0012 36.9007 43.2356 36.7814 43.5441H34.9844V45.4727H36.3085C36.2633 45.8675 36.2427 46.2911 36.2674 46.7352H34.9844V48.6638H36.6416C36.8801 49.3547 37.5052 50.8351 39.0226 52.0153C39.405 52.3155 41.0993 53.5697 43.5502 53.5245C44.6194 53.5039 45.4706 53.2408 46.0052 53.0351C45.8654 52.3443 45.7256 51.6534 45.5858 50.9626L45.5817 50.9708Z" fill="#256CB0"/>
</svg>
