<svg width="115" height="101" viewBox="0 0 115 101" fill="none" xmlns="http://www.w3.org/2000/svg">
<path d="M54.1446 2.96651L1.53368 94.0989C0.0173355 96.7209 1.91277 100 4.94546 100H110.174C113.206 100 115.095 96.7209 113.585 94.0989L60.9618 2.96651C59.4455 0.344496 55.6609 0.344496 54.1446 2.96651Z" fill="#F6EFEF" stroke="#323232" stroke-width="1.09325" stroke-miterlimit="10"/>
<path d="M53.9766 8.52266L7.01048 91.4341C5.464 94.1634 7.41334 97.5701 10.5193 97.5701H104.451C107.564 97.5701 109.513 94.1634 107.96 91.4341L61.0007 8.52266C59.4477 5.78021 55.5295 5.78021 53.9766 8.52266Z" fill="#EB6D26" stroke="#323232" stroke-width="0.631811" stroke-miterlimit="10"/>
<circle cx="57.2418" cy="16.2418" r="2.24176" fill="white"/>
<circle cx="103.242" cy="92.2418" r="2.24176" fill="white"/>
<circle cx="12.2418" cy="92.2418" r="2.24176" fill="white"/>
<path d="M57.5 46C46.1778 46 37 55.1778 37 66.5C37 77.8222 46.1778 87 57.5 87C68.8222 87 78 77.8222 78 66.5C78 55.1778 68.8222 46 57.5 46ZM57.5 83.0033C48.3848 83.0033 40.9967 75.6152 40.9967 66.5C40.9967 57.3848 48.3848 49.9967 57.5 49.9967C66.6152 49.9967 74.0033 57.3848 74.0033 66.5C74.0033 75.6152 66.6152 83.0033 57.5 83.0033Z" fill="#F6EFF0"/>
<path d="M57.4997 80.9838C65.4991 80.9838 71.9838 74.4991 71.9838 66.4997C71.9838 58.5004 65.4991 52.0156 57.4997 52.0156C49.5004 52.0156 43.0156 58.5004 43.0156 66.4997C43.0156 74.4991 49.5004 80.9838 57.4997 80.9838Z" fill="#F6EFF0"/>
<path d="M62.8208 72.6781C62.2782 72.9182 60.7442 73.5077 58.8137 73.1216C58.3128 73.0225 56.5649 72.6468 55.2083 71.0711C54.8378 70.6433 54.5665 70.1998 54.3526 69.7563H59.038V67.3092H53.7317C53.6952 66.7562 53.7317 66.3179 53.7421 66.0883C53.7474 65.9944 53.763 65.8639 53.7787 65.7074H59.038V63.2604H54.5091C54.8118 62.6655 55.2344 62.0551 55.8344 61.502C56.2309 61.1316 57.2953 60.1767 58.9963 59.942C60.4416 59.7437 61.579 60.1663 62.0695 60.3855C62.4399 59.5089 62.8104 58.6323 63.1808 57.7558C62.3408 57.4062 60.0972 56.6236 57.5719 57.401C56.0901 57.8601 55.0935 58.6741 54.5874 59.0915C54.1126 59.488 52.8969 60.5785 52.0255 62.3942C51.9421 62.5664 51.8064 62.8638 51.6551 63.2551H49.375V65.7022H51.0551C50.9977 66.2031 50.9716 66.7405 51.0029 67.304H49.375V69.7511H51.4777C51.7803 70.6276 52.5734 72.506 54.4987 74.0034C54.9839 74.3843 57.1336 75.9757 60.2433 75.9183C61.5999 75.8922 62.6799 75.5583 63.3582 75.2974C63.1808 74.4208 63.0034 73.5443 62.826 72.6677L62.8208 72.6781Z" fill="#EB6D26"/>
</svg>
