<svg width="1175" height="637" viewBox="0 0 1175 637" fill="none" xmlns="http://www.w3.org/2000/svg">

<mask id="mask0_382_1338" style="mask-type:luminance" maskUnits="userSpaceOnUse" x="892" y="73" width="175" height="490">
<path d="M892.53 73.8063L1044.98 73.7976C1056.8 73.7937 1066.38 83.3827 1066.38 95.2167L1066.36 541.546C1066.36 553.38 1056.77 562.971 1044.95 562.965L892.52 562.975L892.53 73.8063Z" fill="white"/>
</mask>
<g mask="url(#mask0_382_1338)">
<path d="M892.53 73.8063L1044.98 73.7976C1056.8 73.7937 1066.38 83.3827 1066.38 95.2167L1066.36 541.546C1066.36 553.38 1056.77 562.971 1044.95 562.965L892.52 562.975L892.53 73.8063Z" fill="#6CAEEC" stroke="#4B7C9B" stroke-miterlimit="10"/>
<g opacity="0.8">
<path d="M1025.8 234.503L1025.79 232.636L926.461 232.639L926.461 234.506L1025.8 234.503Z" fill="#F7F5F4"/>
<path d="M1025.81 242.523L1025.81 237.223L926.469 237.226L926.474 242.526L1025.81 242.523Z" fill="#F7F5F4"/>
<path d="M1025.79 269.893L1025.78 264.593L926.454 264.596L926.458 269.896L1025.79 269.893Z" fill="#F7F5F4"/>
<path d="M1025.79 279.067L1025.78 277.199L926.454 277.203L926.453 279.07L1025.79 279.067Z" fill="#F7F5F4"/>
<path d="M1025.79 404.089L1025.78 398.789L926.454 398.793L926.458 404.093L1025.8 404.09L1025.79 404.089Z" fill="#F7F5F4"/>
<path d="M1025.78 433.919L1025.78 431.39L926.446 431.393L926.448 433.923L1025.78 433.919Z" fill="#F7F5F4"/>
<path d="M1025.79 453.804L1025.79 451.274L926.461 451.278L926.464 453.808L1025.8 453.805L1025.79 453.804Z" fill="#F7F5F4"/>
<path d="M1025.81 165.74L1025.81 163.291L926.469 163.294L926.469 165.743L1025.81 165.74Z" fill="#F7F5F4"/>
<path d="M1025.79 174.491L1025.79 171.359L926.454 171.362L926.454 174.494L1025.79 174.491Z" fill="#F7F5F4"/>
<path d="M1025.81 181.588L1025.81 180.093L926.469 180.095L926.471 181.591L1025.81 181.588Z" fill="#F7F5F4"/>
<path d="M1025.8 188.303L1025.79 187.198L926.454 187.201L926.449 188.304L1025.79 188.302L1025.8 188.303Z" fill="#F7F5F4"/>
<path d="M1025.78 197.053L1025.78 193.922L926.446 193.924L926.447 197.056L1025.78 197.053Z" fill="#F7F5F4"/>
<path d="M1025.79 205.676L1025.79 202.665L926.454 202.668L926.455 205.679L1025.79 205.676Z" fill="#F7F5F4"/>
<path d="M1025.8 212.784L1025.8 211.288L926.461 211.291L926.463 212.786L1025.8 212.784Z" fill="#F7F5F4"/>
<path d="M1025.8 220.833L1025.8 218.384L926.461 218.386L926.461 220.835L1025.8 220.833Z" fill="#F7F5F4"/>
<path d="M1025.8 229.585L1025.79 226.453L926.454 226.456L926.454 229.587L1025.79 229.585L1025.8 229.585Z" fill="#F7F5F4"/>
<path d="M1025.78 251.846L1025.78 250.35L926.446 250.353L926.447 251.849L1025.78 251.846Z" fill="#F7F5F4"/>
<path d="M1025.78 260.588L1025.78 257.457L926.446 257.46L926.447 260.591L1025.78 260.588Z" fill="#F7F5F4"/>
<path d="M1025.79 276.318L1025.79 274.822L926.454 274.825L926.455 276.32L1025.79 276.318Z" fill="#F7F5F4"/>
<path d="M1025.8 284.378L1025.8 281.928L926.461 281.931L926.461 284.38L1025.8 284.378Z" fill="#F7F5F4"/>
<path d="M1025.8 293.12L1025.79 289.987L926.454 289.99L926.454 293.122L1025.79 293.119L1025.8 293.12Z" fill="#F7F5F4"/>
<path d="M1025.79 300.226L1025.78 298.73L926.446 298.733L926.447 300.229L1025.79 300.226Z" fill="#F7F5F4"/>
<path d="M1025.79 306.93L1025.78 305.826L926.446 305.829L926.451 306.933L1025.8 306.931L1025.79 306.93Z" fill="#F7F5F4"/>
<path d="M1025.79 315.683L1025.78 312.551L926.438 312.553L926.439 315.685L1025.78 315.682L1025.79 315.683Z" fill="#F7F5F4"/>
<path d="M1025.79 324.305L1025.79 321.294L926.454 321.296L926.455 324.308L1025.79 324.305Z" fill="#F7F5F4"/>
<path d="M1025.79 331.41L1025.78 329.915L926.446 329.918L926.447 331.413L1025.79 331.41Z" fill="#F7F5F4"/>
<path d="M1025.78 339.461L1025.78 337.011L926.446 337.014L926.445 339.463L1025.78 339.461Z" fill="#F7F5F4"/>
<path d="M1025.79 348.213L1025.79 345.082L926.454 345.085L926.454 348.216L1025.79 348.213Z" fill="#F7F5F4"/>
<path d="M1025.78 355.309L1025.78 353.813L926.446 353.816L926.447 355.312L1025.78 355.309Z" fill="#F7F5F4"/>
<path d="M1025.79 362.024L1025.79 360.921L926.446 360.922L926.451 362.027L1025.79 362.024Z" fill="#F7F5F4"/>
<path d="M1025.78 370.646L1025.78 367.635L926.446 367.637L926.447 370.649L1025.78 370.646Z" fill="#F7F5F4"/>
<path d="M1025.79 377.752L1025.79 376.256L926.438 376.258L926.439 377.754L1025.79 377.752Z" fill="#F7F5F4"/>
<path d="M1025.78 384.859L1025.78 383.363L926.446 383.366L926.447 384.861L1025.78 384.859Z" fill="#F7F5F4"/>
<path d="M1025.79 391.573L1025.79 390.47L926.454 390.472L926.449 391.576L1025.79 391.573Z" fill="#F7F5F4"/>
<path d="M1025.79 408.376L1025.79 405.927L926.454 405.929L926.453 408.378L1025.79 408.376Z" fill="#F7F5F4"/>
<path d="M1025.79 417.119L1025.78 413.986L926.446 413.989L926.447 417.121L1025.78 417.118L1025.79 417.119Z" fill="#F7F5F4"/>
<path d="M1025.8 423.834L1025.79 422.729L926.454 422.732L926.459 423.837L1025.8 423.834Z" fill="#F7F5F4"/>
<path d="M1025.78 441.206L1025.78 438.195L926.446 438.198L926.447 441.209L1025.78 441.206Z" fill="#F7F5F4"/>
<path d="M1025.77 448.302L1025.77 446.806L926.43 446.809L926.432 448.305L1025.77 448.302Z" fill="#F7F5F4"/>
<path d="M1025.79 465.105L1025.78 461.972L926.438 461.975L926.439 465.107L1025.78 465.104L1025.79 465.105Z" fill="#F7F5F4"/>
<path d="M1025.78 472.211L1025.78 470.716L926.446 470.718L926.447 472.214L1025.78 472.211Z" fill="#F7F5F4"/>
<path d="M1025.78 478.926L1025.78 477.822L926.446 477.825L926.451 478.929L1025.79 478.927L1025.78 478.926Z" fill="#F7F5F4"/>
<path d="M1025.78 487.668L1025.77 484.536L926.43 484.539L926.431 487.67L1025.77 487.668L1025.78 487.668Z" fill="#F7F5F4"/>
<path d="M1025.8 159.616L1025.81 156.194L926.469 156.197L926.465 159.619L1025.8 159.616Z" fill="#F7F5F4"/>
</g>
<path d="M1028.03 90.0647L81.0865 91.3841C69.9801 91.3996 60.9891 100.416 61.0046 111.522L61.581 525.222C61.5965 536.328 70.6126 545.319 81.719 545.304L1028.66 543.984C1039.76 543.969 1048.76 534.953 1048.74 523.846L1048.16 110.147C1048.15 99.0402 1039.13 90.0492 1028.03 90.0647Z" stroke="#3F79AC"/>
<path d="M892.53 73.8063L1044.98 73.7976C1056.8 73.7937 1066.38 83.3827 1066.38 95.2167L1066.36 541.546C1066.36 553.38 1056.77 562.971 1044.95 562.965L892.52 562.975L892.53 73.8063Z" stroke="#72ACDD" stroke-miterlimit="10"/>
</g>
<mask id="mask1_382_1338" style="mask-type:luminance" maskUnits="userSpaceOnUse" x="42" y="73" width="852" height="492">
<path d="M62.4069 74.8939L892.706 73.737L893.388 562.916L63.0884 564.073C51.9884 564.089 42.9659 555.091 42.9504 543.991L42.3249 95.0319C42.3094 83.9319 51.3069 74.9093 62.4069 74.8939Z" fill="white"/>
</mask>
<g mask="url(#mask1_382_1338)">
<mask id="mask2_382_1338" style="mask-type:luminance" maskUnits="userSpaceOnUse" x="42" y="73" width="852" height="492">
<path d="M62.4069 74.8939L892.706 73.737L893.388 562.916L63.0884 564.073C51.9884 564.089 42.9659 555.091 42.9504 543.991L42.3249 95.0319C42.3094 83.9319 51.3069 74.9093 62.4069 74.8939Z" fill="white"/>
</mask>
<g mask="url(#mask2_382_1338)">
<path d="M62.4069 74.8939L892.706 73.737L893.388 562.916L63.0884 564.073C51.9884 564.089 42.9659 555.091 42.9504 543.991L42.3249 95.0319C42.3094 83.9319 51.3069 74.9093 62.4069 74.8939Z" fill="#56A2E9"/>
<path d="M759.175 59.7397L744.125 59.8027L746.231 562.988L761.281 562.925L759.175 59.7397Z" fill="#6BACEA"/>
<path d="M454.688 526.919L439.508 526.982L439.662 563.702L454.841 563.639L454.688 526.919Z" fill="#5697D1"/>
<path d="M905.394 526.459L754.875 527.089L754.938 542.139L905.457 541.509L905.394 526.459Z" fill="#5697D1"/>
<g class="dot dot--first">
<path  class="path1" d="M751.7 216.41C758.033 216.957 763.61 212.265 764.157 205.932C764.703 199.599 760.012 194.022 753.678 193.476C747.345 192.929 741.768 197.62 741.222 203.954C740.675 210.287 745.367 215.864 751.7 216.41Z" />

<path d="M751.782 211.308C755.474 211.627 758.725 208.892 759.044 205.2C759.362 201.508 756.627 198.256 752.935 197.938C749.243 197.62 745.992 200.354 745.673 204.047C745.355 207.739 748.09 210.99 751.782 211.308Z" fill="#FFC83E"/>
</g>


<path d="M491.177 321.097L491.244 335.918L534.731 335.735C538.867 335.72 542.24 338.631 542.259 342.246L542.84 481.31L543.161 481.308C542.958 482.153 542.852 483.028 542.855 483.921C542.886 490.659 549.172 496.099 556.903 496.073C557.937 496.072 558.93 495.967 559.899 495.78L559.905 496.061L640.873 495.729C647.922 495.694 653.736 491.127 654.689 485.207C654.777 484.643 654.828 484.055 654.819 483.462L654.656 445.096C654.641 441.662 657.162 438.728 660.687 437.657L905.039 436.643L904.972 421.822L651.564 422.878C650.289 422.878 649.061 423.033 647.902 423.325C642.047 424.757 637.745 429.485 637.633 435.086C637.625 435.175 637.618 435.265 637.62 435.356L637.785 473.933C637.804 477.788 634.231 480.923 629.813 480.943L568.836 481.194C563.865 481.217 559.821 477.716 559.803 473.389L559.215 333.019C559.184 326.281 552.898 320.841 545.167 320.867L491.188 321.088L491.177 321.097Z" fill="#8EBDE6"/>
<path d="M499.146 321.04L408.867 321.418L408.93 336.468L499.209 336.09L499.146 321.04Z" fill="#8EBDE6"/>
<path d="M904.644 349.443L772.766 349.995L772.847 369.465L904.726 368.913L904.644 349.443Z" fill="#5596D0"/>
<g class="dot dot--second">
<path d="M862.466 441.924C868.799 442.47 874.376 437.779 874.922 431.446C875.469 425.113 870.777 419.536 864.444 418.989C858.111 418.443 852.534 423.134 851.987 429.467C851.441 435.801 856.132 441.378 862.466 441.924Z"/>
<path d="M863.267 436.82C866.835 437.128 869.977 434.485 870.285 430.917C870.593 427.35 867.95 424.208 864.382 423.9C860.814 423.592 857.672 426.235 857.365 429.803C857.057 433.371 859.7 436.512 863.267 436.82Z" fill="#FFC83E"/>
</g>
<path d="M528.957 231.142L528.527 138.271C528.527 138.271 528.523 138.2 528.527 138.161L511.878 138.24L512.236 214.844C512.267 221.471 506.924 226.862 500.296 226.893L491.791 226.942C485.164 226.972 479.774 221.619 479.743 214.992L479.375 138.387L464.273 138.46C464.273 138.46 464.277 138.53 464.274 138.57L464.703 231.451C464.734 238.078 470.134 243.422 476.762 243.391L517.017 243.2C523.644 243.169 528.988 237.769 528.957 231.142Z" fill="#6BACEA"/>
<path d="M794.552 369.037L746.508 369.229C746.447 369.234 746.396 369.24 746.337 369.234C746.195 369.242 746.064 369.251 745.924 369.249L713.209 369.408C706.582 369.439 701.191 364.096 701.161 357.468L701.057 335.749C701.055 334.846 701.15 333.971 701.334 333.123L701.335 333.103L701.264 315.893L701.036 259.545C701.024 255.841 699.507 252.488 697.085 250.081C694.653 247.663 691.299 246.179 687.614 246.192C680.223 246.227 674.263 252.257 674.298 259.648L674.525 316.016L674.75 370.065C674.755 371.059 674.711 372.029 674.608 372.994L674.67 386.7C674.701 393.327 669.357 398.728 662.73 398.758L630.016 398.907C623.399 398.939 617.998 393.595 617.968 386.968L617.784 348.841C617.785 348.128 617.835 347.43 617.964 346.749L617.968 346.709C617.968 346.709 617.968 346.699 617.969 346.689L617.678 274.898C617.674 274.476 617.669 274.074 617.704 273.666C617.694 273.665 617.682 273.684 617.664 273.662L617.428 216.822L617.206 161.799C617.188 157.361 615.376 153.351 612.453 150.459C609.542 147.558 605.521 145.766 601.093 145.785C592.237 145.824 585.079 153.056 585.116 161.932L585.346 216.975L585.576 273.424L568.467 273.494L568.175 205.086L568.177 205.056L567.877 141.866C567.846 135.239 573.2 129.839 579.827 129.808L599.729 129.718L600.191 129.708L620.083 129.617C626.71 129.587 632.1 134.93 632.131 141.557L632.431 204.757C632.432 205.208 632.414 205.648 632.366 206.086L632.53 246.429C632.54 247.594 632.481 248.744 632.363 249.878C632.416 249.842 632.478 249.817 632.542 249.783L632.907 336.766L633.036 368.093C633.061 374.9 638.598 380.406 645.385 380.38C652.184 380.344 657.67 374.805 657.635 367.997L657.507 336.66L657.385 305.263C657.385 305.263 657.381 305.202 657.383 305.173C657.343 304.818 657.324 304.465 657.325 304.104L657.024 240.914C656.994 234.287 662.348 228.887 668.975 228.856L707.102 228.672C713.729 228.642 719.119 233.985 719.15 240.612L719.45 303.812C719.446 304.082 719.444 304.343 719.422 304.602C719.427 304.653 719.423 304.703 719.419 304.752L719.494 323.659L719.581 343.831C719.596 347.265 722.388 350.035 725.812 350.019L757.842 349.892L794.48 349.74L794.562 369.038L794.552 369.037Z" fill="#5596D0"/>
<path d="M782.014 543.055L617.216 543.734L611.703 543.76L528.907 544.106C528.542 544.155 528.178 544.184 527.806 544.192L494.81 544.357L494.8 544.356C488.173 544.386 482.783 539.033 482.752 532.406L482.605 499.552C482.55 498.092 482.506 496.633 482.461 495.173C482.452 491.549 480.879 488.262 478.333 485.894C475.798 483.518 472.3 482.062 468.444 482.08C460.844 482.107 454.676 487.868 454.534 494.983C454.525 495.082 454.527 495.183 454.527 495.293L454.734 544.563L439.602 544.633L439.23 544.641C439.23 544.641 439.236 544.571 439.219 544.53C439.206 544.328 439.215 544.118 439.212 543.917L439.422 501.689L439.519 480.78C439.559 474.148 444.384 468.713 450.305 468.612L486.265 468.06C492.185 467.968 496.948 473.257 496.909 479.878L496.899 482.206L496.732 515.324L496.704 521.465C496.96 522.571 497.323 523.596 497.805 524.531C498.388 525.685 499.153 526.705 500.154 527.554C500.808 528.112 501.503 528.553 502.266 528.9C504.004 529.692 506.106 529.994 508.912 530.156C513.668 530.416 524.589 530.525 539.456 530.502C540.971 530.503 542.527 530.496 544.124 530.493C615.488 530.256 764.358 527.59 781.951 527.261L782.014 543.055Z" fill="#5697D1"/>
<path d="M623.875 318.111C632.64 318.867 640.359 312.374 641.115 303.609C641.871 294.844 635.379 287.125 626.613 286.369C617.848 285.613 610.129 292.106 609.373 300.871C608.617 309.636 615.11 317.355 623.875 318.111Z" fill="#F1EAE5"/>
<path d="M625.375 311.619C630.506 311.598 634.648 307.421 634.627 302.29C634.605 297.16 630.428 293.018 625.298 293.039C620.167 293.061 616.025 297.237 616.047 302.368C616.068 307.499 620.245 311.641 625.375 311.619Z" fill="#FFC83E"/>
<path d="M446.794 540.746C453.127 541.293 458.704 536.601 459.25 530.268C459.797 523.935 455.105 518.358 448.772 517.811C442.439 517.265 436.862 521.956 436.315 528.29C435.769 534.623 440.46 540.2 446.794 540.746Z" fill="#F1EAE5"/>
<path d="M447.688 535.947C451.38 536.265 454.631 533.531 454.95 529.838C455.268 526.146 452.534 522.895 448.841 522.577C445.149 522.258 441.898 524.993 441.58 528.685C441.261 532.377 443.996 535.629 447.688 535.947Z" fill="#FFC83E"/>
<path d="M62.5006 74.0989L892.8 72.9421L892.933 168.782L42.5242 169.967L42.4128 90.0463C42.4006 81.2594 51.4006 74.1144 62.5006 74.0989Z" fill="#256DB0" stroke="#4B7C9B" stroke-miterlimit="10"/>
<path d="M203.39 141.594L208.168 141.595C208.168 144.154 206.118 146.276 203.561 146.366C201.004 146.457 198.714 144.373 198.629 141.756C198.632 141.716 198.637 141.666 198.63 141.625L203.401 141.585L203.39 141.594Z" fill="#D0E6F7" stroke="#256DB0" stroke-width="0.29" stroke-miterlimit="10"/>
<path d="M193.827 141.612L198.598 141.572C198.618 144.133 196.577 146.266 194.028 146.377C191.469 146.488 189.168 144.422 189.053 141.803C189.057 141.753 189.06 141.713 189.054 141.672L193.827 141.602L193.827 141.612Z" fill="#D0E6F7" stroke="#256DB0" stroke-width="0.29" stroke-miterlimit="10"/>
<path d="M184.268 141.721L189.045 141.722C189.045 144.281 186.985 146.402 184.428 146.492C181.871 146.583 179.581 144.499 179.496 141.882C179.5 141.832 179.504 141.792 179.497 141.751L184.268 141.721Z" fill="#D0E6F7" stroke="#256DB0" stroke-width="0.29" stroke-miterlimit="10"/>
<path d="M248.475 137.554C248.343 136.288 247.627 135.403 247.244 134.948C242.287 129 239.918 127.26 239.918 127.26C234.093 122.994 230.289 120.206 224.12 117.245C222.039 116.243 218.568 114.588 213.795 113.143C210.596 112.174 207.619 111.546 205.51 111.093C198.969 109.666 193.831 109.182 190.183 108.888C169.428 107.238 137.738 106.803 132.776 106.736C132.726 119.881 132.675 133.035 132.625 146.179C146.054 146.193 159.483 146.197 172.911 146.212C172.948 144.629 172.864 143.277 172.889 141.703C186.858 141.844 201.181 141.383 215.151 141.524C216.095 143.021 216.827 144.891 217.772 146.388C224.611 146.345 231.45 146.303 238.298 146.271C238.743 145.768 239.179 145.253 239.624 144.75C240.57 144.721 244.511 144.529 246.923 141.585C247.427 140.976 248.662 139.457 248.473 137.574L248.475 137.554Z" fill="#D0E6F7" stroke="#256DB0" stroke-width="0.29" stroke-miterlimit="10"/>
<path d="M175.689 117.173L131.62 117.357L131.639 121.785L175.708 121.601L175.689 117.173Z" stroke="#256DB0" stroke-width="0.29" stroke-miterlimit="10"/>
<path d="M200.563 113.828L200.613 126.981C200.614 127.553 200.152 128.025 199.569 128.025L191.336 128.058C190.764 128.059 190.292 127.596 190.291 127.024L190.241 113.871C190.241 113.299 190.703 112.827 191.285 112.827L199.518 112.795C200.09 112.794 200.562 113.256 200.562 113.838L200.563 113.828Z" stroke="#256DB0" stroke-width="0.29" stroke-miterlimit="10"/>
<path d="M227.27 121.492L202.018 121.592L202.003 117.345L218.721 117.272C218.721 117.272 218.746 117.334 218.753 117.365C219.238 117.567 219.722 117.77 220.216 117.983C222.441 118.948 224.569 119.994 226.6 121.113C226.725 121.184 226.859 121.256 226.992 121.338C227.089 121.386 227.175 121.434 227.27 121.492Z" stroke="#256DB0" stroke-width="0.29" stroke-miterlimit="10"/>
<path d="M158.034 130.947L169.983 130.894C170.696 130.885 171.277 130.313 171.269 129.599L171.251 124.68C171.243 123.966 170.67 123.385 169.957 123.394L158.008 123.447C157.296 123.446 156.713 124.028 156.722 124.741L156.739 129.661C156.738 130.373 157.32 130.956 158.034 130.947Z" stroke="#256DB0" stroke-width="0.29" stroke-miterlimit="10"/>
<path d="M158.678 130.22L169.322 130.175C170.035 130.166 170.616 129.594 170.608 128.88L170.595 125.416C170.586 124.703 170.014 124.122 169.301 124.13L158.658 124.176C157.945 124.175 157.373 124.758 157.372 125.47L157.384 128.934C157.383 129.647 157.965 130.229 158.678 130.22Z" stroke="#256DB0" stroke-width="0.29" stroke-miterlimit="10"/>
<path d="M175.743 133.829L118.691 134.067L118.697 135.282L175.738 135.044L175.733 133.829L175.743 133.829Z" stroke="#256DB0" stroke-width="0.29" stroke-miterlimit="10"/>
<path d="M279.728 133.405L202.062 133.732L202.068 134.947L279.733 134.62L279.728 133.405Z" stroke="#256DB0" stroke-width="0.29" stroke-miterlimit="10"/>
<path d="M175.746 135.044L120.03 135.277L120.042 137.697L175.758 137.464L175.746 135.044Z" stroke="#256DB0" stroke-width="0.29" stroke-miterlimit="10"/>
<path d="M284.927 134.586L202.061 134.926L202.073 137.346L284.94 136.996L284.928 134.576L284.927 134.586Z" stroke="#256DB0" stroke-width="0.29" stroke-miterlimit="10"/>
<path d="M175.758 137.465L120.604 137.696L120.61 138.911L175.764 138.68L175.758 137.465Z" stroke="#256DB0" stroke-width="0.29" stroke-miterlimit="10"/>
<path d="M281.634 137.022L202.071 137.355L202.077 138.57L281.64 138.237L281.634 137.022Z" stroke="#256DB0" stroke-width="0.29" stroke-miterlimit="10"/>
<path d="M200.473 111.221L190.312 111.258C189.489 111.257 188.819 111.932 188.817 112.765L188.923 138.771C188.921 139.604 189.607 140.265 190.43 140.266L200.591 140.219C201.414 140.22 202.085 139.545 202.086 138.712L201.981 112.706C201.982 111.873 201.297 111.212 200.474 111.211L200.473 111.221ZM190.237 113.871C190.236 113.299 190.699 112.827 191.281 112.827L199.514 112.795C200.096 112.795 200.558 113.256 200.558 113.838L200.618 126.992C200.619 127.564 200.157 128.036 199.574 128.036L191.341 128.069C190.759 128.069 190.297 127.607 190.296 127.035L190.246 113.882L190.237 113.871Z" stroke="#256DB0" stroke-width="0.29" stroke-miterlimit="10"/>
<path d="M212.21 130.16L219.66 130.131C220.372 130.132 220.954 129.55 220.946 128.836L220.928 123.917C220.93 123.204 220.348 122.622 219.634 122.631L212.184 122.661C211.471 122.669 210.889 123.241 210.898 123.955L210.915 128.874C210.914 129.587 211.496 130.169 212.21 130.16Z" stroke="#256DB0" stroke-width="0.29" stroke-miterlimit="10"/>
<path d="M212.665 129.427L219.211 129.399C219.924 129.4 220.506 128.818 220.497 128.105L220.485 124.641C220.486 123.929 219.904 123.346 219.191 123.355L212.644 123.383C211.932 123.381 211.349 123.963 211.358 124.677L211.37 128.141C211.379 128.854 211.951 129.435 212.665 129.427Z" stroke="#256DB0" stroke-width="0.29" stroke-miterlimit="10"/>
<path d="M187.31 111.271L177.149 111.308C176.315 111.316 175.656 111.982 175.654 112.815L175.759 138.82C175.758 139.653 176.434 140.314 177.266 140.315L187.427 140.278C188.26 140.28 188.921 139.604 188.922 138.771L188.817 112.766C188.818 111.933 188.143 111.273 187.31 111.271ZM187.456 127.032C187.457 127.604 186.994 128.076 186.422 128.077L178.189 128.109C177.617 128.11 177.145 127.648 177.144 127.076L177.084 113.922C177.084 113.34 177.546 112.878 178.128 112.878L186.361 112.845C186.933 112.844 187.405 113.307 187.405 113.889L187.455 127.042L187.456 127.032Z" stroke="#256DB0" stroke-width="0.29" stroke-miterlimit="10"/>
<path d="M187.397 113.877L187.447 127.03C187.448 127.602 186.985 128.074 186.413 128.075L178.18 128.108C177.598 128.108 177.136 127.646 177.135 127.074L177.085 113.921C177.085 113.339 177.547 112.877 178.129 112.877L186.362 112.844C186.934 112.844 187.406 113.306 187.406 113.888L187.397 113.877Z" stroke="#256DB0" stroke-width="0.29" stroke-miterlimit="10"/>
<path d="M158.401 116.425L170.35 116.372C171.063 116.363 171.644 115.791 171.636 115.078L171.618 110.158C171.62 109.446 171.038 108.863 170.324 108.872L158.375 108.925C157.663 108.924 157.081 109.506 157.089 110.22L157.107 115.139C157.105 115.852 157.688 116.434 158.401 116.425Z" stroke="#256DB0" stroke-width="0.29" stroke-miterlimit="10"/>
<path d="M159.039 115.697L169.682 115.651C170.395 115.652 170.977 115.07 170.968 114.357L170.956 110.893C170.957 110.181 170.375 109.598 169.662 109.607L159.019 109.653C158.306 109.651 157.724 110.233 157.733 110.947L157.745 114.411C157.744 115.123 158.326 115.705 159.039 115.697Z" stroke="#256DB0" stroke-width="0.29" stroke-miterlimit="10"/>
<path d="M140.44 131.015L152.389 130.962C153.101 130.963 153.683 130.381 153.675 129.668L153.658 124.748C153.659 124.035 153.077 123.453 152.363 123.462L140.414 123.515C139.702 123.514 139.12 124.096 139.128 124.81L139.146 129.729C139.144 130.442 139.727 131.014 140.44 131.015Z" stroke="#256DB0" stroke-width="0.29" stroke-miterlimit="10"/>
<path d="M141.086 130.289L151.729 130.243C152.442 130.244 153.024 129.662 153.015 128.949L153.003 125.485C153.004 124.772 152.422 124.19 151.709 124.199L141.065 124.244C140.353 124.243 139.771 124.825 139.779 125.539L139.792 129.003C139.791 129.715 140.373 130.287 141.086 130.289Z" stroke="#256DB0" stroke-width="0.29" stroke-miterlimit="10"/>
<path d="M140.495 116.235L152.443 116.182C153.156 116.183 153.738 115.601 153.729 114.887L153.712 109.968C153.713 109.255 153.131 108.673 152.418 108.682L140.469 108.735C139.756 108.744 139.174 109.316 139.183 110.029L139.2 114.949C139.199 115.662 139.781 116.244 140.495 116.235Z" stroke="#256DB0" stroke-width="0.29" stroke-miterlimit="10"/>
<path d="M141.133 115.508L151.776 115.463C152.489 115.464 153.071 114.882 153.062 114.169L153.05 110.705C153.051 109.992 152.469 109.41 151.756 109.419L141.112 109.464C140.4 109.463 139.818 110.045 139.826 110.758L139.839 114.222C139.837 114.935 140.42 115.517 141.133 115.508Z" stroke="#256DB0" stroke-width="0.29" stroke-miterlimit="10"/>
<path d="M237.68 126.023C237.247 126.97 236.145 127.176 236.022 127.205C233.326 125.186 230.412 123.249 227.261 121.491C227.166 121.433 227.08 121.385 226.983 121.337C226.85 121.255 226.715 121.193 226.591 121.112C224.56 119.994 222.432 118.947 220.206 117.992C219.712 117.779 219.228 117.576 218.743 117.374C218.735 117.353 218.718 117.322 218.711 117.281C218.711 117.281 218.711 117.281 218.712 117.271C218.687 117.209 218.674 117.127 218.651 117.045C218.593 116.789 218.551 116.464 218.594 116.086C218.697 115.232 219.166 114.68 219.343 114.495C221.009 115.201 222.756 116.004 224.584 116.924C225.719 117.494 226.88 118.116 228.067 118.781C228.105 118.804 228.134 118.816 228.172 118.84C229.455 119.563 230.677 120.29 231.838 121.023C231.952 121.103 232.066 121.173 232.181 121.243C234.255 122.566 236.138 123.883 237.845 125.154C237.866 125.377 237.839 125.696 237.688 126.044L237.68 126.023Z" stroke="#256DB0" stroke-width="0.29" stroke-miterlimit="10"/>
<path d="M897.884 90.2431L81.0944 91.3812C69.9879 91.3966 60.9969 100.413 61.0124 111.519L61.5888 525.219C61.6043 536.325 70.6204 545.316 81.7268 545.301L898.516 544.163C909.622 544.147 918.613 535.131 918.598 524.025L918.022 110.325C918.006 99.2187 908.99 90.2276 897.884 90.2431Z" stroke="#3F79AC"/>
</g>
<path d="M58.3939 73.76L93.9963 73.7104C93.9963 73.7104 94.0202 73.7183 94.0202 73.7342L94.0652 106.021C94.0652 106.021 94.0573 106.045 94.0413 106.045L42.4908 106.117C42.4908 106.117 42.4669 106.109 42.4669 106.093L42.4441 89.7543C42.4318 80.9394 49.579 73.7723 58.3939 73.76Z" fill="#101010"/>
<path d="M94.0749 106.031L42.4766 106.103L42.5216 138.437L94.1199 138.365L94.0749 106.031Z" fill="#EED75F"/>
<path d="M94.1061 138.018L42.5078 138.09L42.5529 170.424L94.1512 170.353L94.1061 138.018Z" fill="#D15127"/>
</g>
<mask id="mask3_382_1338" style="mask-type:alpha" maskUnits="userSpaceOnUse" x="754" y="98" width="421" height="179">
<path d="M754.047 99.1012L754.11 114.148L798.245 113.964C802.445 113.947 805.867 116.907 805.882 120.571L806.469 261.745L806.794 261.744C806.584 262.603 806.476 263.489 806.48 264.4C806.509 271.242 812.893 276.765 820.736 276.733C821.781 276.728 822.795 276.627 823.779 276.437L823.78 276.72L905.963 276.378C913.116 276.349 919.022 271.704 919.981 265.699C920.07 265.123 920.118 264.53 920.116 263.928L919.954 224.983C919.939 221.496 922.494 218.52 926.071 217.434L1174.08 216.403L1174.02 201.356L916.816 202.426C915.528 202.431 914.28 202.587 913.094 202.884C907.155 204.334 902.781 209.131 902.673 214.823C902.663 214.912 902.664 215.009 902.664 215.098L902.827 254.263C902.843 258.176 899.224 261.359 894.74 261.378L832.849 261.635C827.806 261.656 823.703 258.106 823.684 253.707L823.092 111.206C823.063 104.364 816.678 98.8407 808.836 98.8734L754.047 99.1012Z" fill="#7AB5EE"/>
</mask>
<g mask="url(#mask3_382_1338)">
<rect x="719.82" y="170.053" width="172.597" height="190.299" transform="rotate(-0.23828 719.82 170.053)" fill="#8EC1F1"/>
</g>
</svg>
