<svg width="239" height="121" viewBox="0 0 239 121" fill="none" xmlns="http://www.w3.org/2000/svg">
<g clip-path="url(#clip0_559_151)">
<path d="M3.902 0.3H235.098C237.087 0.3 238.7 1.91267 238.7 3.902V116.637C238.7 118.626 237.087 120.239 235.098 120.239H3.902C1.91267 120.239 0.3 118.626 0.3 116.637V3.902C0.3 1.91267 1.91267 0.3 3.902 0.3Z" fill="#F1EAE6" stroke="#55504D" stroke-width="0.6"/>
<path d="M229.28 4.89258H8.69106C6.53605 4.89258 4.78906 6.63956 4.78906 8.79458V111.749C4.78906 113.904 6.53605 115.651 8.69106 115.651H229.28C231.435 115.651 233.182 113.904 233.182 111.749V8.79458C233.182 6.63956 231.435 4.89258 229.28 4.89258Z" fill="#F8F3F0" stroke="#55504D" stroke-width="0.6" stroke-miterlimit="10"/>
<path d="M4.78906 83.5449H233.182V111.787C233.182 113.924 231.448 115.658 229.31 115.658H8.9028C6.63419 115.658 4.78906 113.813 4.78906 111.545V83.555V83.5449Z" fill="#4993D8" stroke="#8E8E8E" stroke-width="0.252067" stroke-miterlimit="10"/>
<path d="M14.794 16.6271C16.6651 16.6271 18.1818 15.1104 18.1818 13.2393C18.1818 11.3683 16.6651 9.85156 14.794 9.85156C12.923 9.85156 11.4062 11.3683 11.4062 13.2393C11.4062 15.1104 12.923 16.6271 14.794 16.6271Z" fill="#4993D8"/>
<path d="M221.677 16.6271C223.548 16.6271 225.065 15.1104 225.065 13.2393C225.065 11.3683 223.548 9.85156 221.677 9.85156C219.806 9.85156 218.289 11.3683 218.289 13.2393C218.289 15.1104 219.806 16.6271 221.677 16.6271Z" fill="#4993D8"/>
</g>
<defs>
<clipPath id="clip0_559_151">
<rect width="239" height="120.539" fill="white"/>
</clipPath>
</defs>
</svg>
