<svg width="71" height="71" viewBox="0 0 71 71" fill="none" xmlns="http://www.w3.org/2000/svg">
<path d="M0.413894 20.864L20.864 0.413894H49.774L70.2241 20.864V49.774L49.774 70.2241H20.864L0.413894 49.774V20.864Z" fill="#F6EFEF" stroke="#55504D" stroke-width="0.827789"/>
<path d="M3.44265 22.1095L22.1017 3.45046H48.5088L67.1824 22.1095V48.5166L48.5088 67.1902H22.1017L3.44265 48.5166V22.1095Z" fill="#EF9F29" stroke="#55504D" stroke-width="0.27593"/>
<circle cx="22.9184" cy="6.20157" r="1.34805" fill="white"/>
<circle cx="46.6449" cy="6.20157" r="1.34805" fill="white"/>
<circle cx="23.4574" cy="63.8988" r="1.34805" fill="white"/>
<circle cx="46.6449" cy="63.8988" r="1.34805" fill="white"/>
<g clip-path="url(#clip0_570_237)">
<path d="M51.4129 16.4219C51.184 16.2641 50.9094 16.2614 50.7194 16.2835H46.0807C46.0433 15.6345 45.9906 15.0547 45.9337 14.5538L24.2942 14.1387C24.2138 14.7185 24.1389 15.4173 24.0931 16.2143H19.3005C19.1104 16.1922 18.8358 16.1949 18.6069 16.3527C18.1575 16.6626 18.1616 17.3836 18.1908 17.8748C18.3725 20.9648 19.1618 22.718 19.1618 22.718C20.1661 24.9514 21.2286 27.3107 23.6006 30.0519C24.6257 31.2364 26.1641 32.8028 28.3169 34.3416C28.1574 34.0233 27.9979 33.6857 27.8411 33.33C27.8841 33.4131 27.9258 33.4961 27.9701 33.5805C29.177 35.8928 29.9149 37.5367 31.7154 38.9772C32.04 39.2359 32.3646 39.4656 32.6864 39.6677V42.8517C31.9305 44.2811 31.1731 45.7119 30.4171 47.1413H27.0519C26.5636 47.1413 26.1669 47.5371 26.1669 48.0242V55.1671H25.0571V56.5509H44.8933V55.1671H43.9223V48.0242C43.9223 47.5371 43.5256 47.1413 43.0373 47.1413H39.6111C38.8745 45.7091 38.1393 44.277 37.4027 42.8448V39.9998C39.3226 38.6437 40.5308 36.7535 41.6335 34.6183C41.6765 34.5353 41.7195 34.4523 41.7639 34.3679C43.8849 32.8416 45.4038 31.2945 46.4192 30.1211C48.7912 27.3799 49.8538 25.0206 50.8581 22.7872C50.8581 22.7872 51.6474 21.0339 51.8291 17.944C51.8582 17.4528 51.8624 16.7318 51.4129 16.4219ZM24.2942 28.253C23.1484 26.8914 21.0303 24.3135 20.2715 20.504C20.0537 19.4094 20.0024 18.4864 19.9941 17.8748H24.0528C24.0542 18.2526 24.0639 18.6456 24.0861 19.051C24.211 21.4601 24.6396 23.1885 25.1959 25.4163C25.698 27.4324 26.1058 29.0681 26.6926 30.6801C25.6273 29.7613 24.838 28.8992 24.2942 28.253ZM49.7484 20.5732C48.9896 24.3826 46.8714 26.9606 45.7256 28.3222C45.2332 28.9075 44.5382 29.67 43.6213 30.4892C44.7782 27.7632 45.8089 24.4255 46.0724 20.2272C46.1237 19.4177 46.1404 18.6539 46.1348 17.944H50.0258C50.0175 18.5556 49.9661 19.4786 49.7484 20.5732Z" fill="#F6EFEF"/>
</g>
<defs>
<clipPath id="clip0_570_237">
<rect width="33.6605" height="42.4122" fill="white" transform="translate(18.1797 14.1387)"/>
</clipPath>
</defs>
</svg>
