<svg width="115" height="115" viewBox="0 0 115 115" fill="none" xmlns="http://www.w3.org/2000/svg">
<path d="M104.807 1H10.1928C5.11573 1 1 5.11573 1 10.1928V104.807C1 109.884 5.11573 114 10.1928 114H104.807C109.884 114 114 109.884 114 104.807V10.1928C114 5.11573 109.884 1 104.807 1Z" fill="#F6EFEF" stroke="#55504D" stroke-miterlimit="10"/>
<path d="M101.697 4.06641H13.2084C8.13136 4.06641 4.01562 8.18214 4.01562 13.2592V101.748C4.01562 106.825 8.13136 110.94 13.2084 110.94H101.697C106.774 110.94 110.89 106.825 110.89 101.748V13.2592C110.89 8.18214 106.774 4.06641 101.697 4.06641Z" fill="#EB6D26" stroke="#55504D" stroke-miterlimit="10"/>
<circle cx="13.4054" cy="13.4191" r="2.48352" fill="#F6EFEF"/>
<circle cx="13.4054" cy="102.823" r="2.48352" fill="#F6EFEF"/>
<circle cx="101.569" cy="13.4191" r="2.48352" fill="#F6EFEF"/>
<circle cx="101.569" cy="102.823" r="2.48352" fill="#F6EFEF"/>
<g clip-path="url(#clip0_520_766)">
<path d="M79.5528 43.1164C79.5528 47.3424 78.3497 51.2942 76.2599 54.652C73.3949 62.4329 70.53 70.2114 67.665 77.9924C64.1867 78.6586 59.831 79.1565 54.8263 78.9544C51.7307 78.8294 48.9371 78.459 46.5049 77.9924C43.5734 70.1344 40.6395 62.279 37.708 54.421C37.7032 54.3778 37.6961 54.3369 37.6937 54.2936C35.737 51.0128 34.6172 47.1933 34.6172 43.1164C34.6172 30.8954 44.6766 20.9883 57.085 20.9883C69.4934 20.9883 79.5528 30.8954 79.5528 43.1164Z" fill="#F6EFEF"/>
<path d="M66.3504 77.9902H47.5678C46.4517 77.9902 45.5469 78.9056 45.5469 80.0347C45.5469 81.1638 46.4517 82.0791 47.5678 82.0791H66.3504C67.4665 82.0791 68.3713 81.1638 68.3713 80.0347C68.3713 78.9056 67.4665 77.9902 66.3504 77.9902Z" fill="#F6EFEF"/>
<path d="M64.6084 82.1035H48.5468C47.4379 82.1035 46.5391 82.553 46.5391 83.1074C46.5391 83.6618 47.4379 84.1112 48.5468 84.1112H64.6084C65.7172 84.1112 66.6161 83.6618 66.6161 83.1074C66.6161 82.553 65.7172 82.1035 64.6084 82.1035Z" fill="#EB6D26"/>
<path d="M64.6084 88.125H48.5468C47.4379 88.125 46.5391 88.5744 46.5391 89.1289C46.5391 89.6833 47.4379 90.1327 48.5468 90.1327H64.6084C65.7172 90.1327 66.6161 89.6833 66.6161 89.1289C66.6161 88.5744 65.7172 88.125 64.6084 88.125Z" fill="#EB6D26"/>
<path d="M56.5897 62.0254H53.5781V79.0909H56.5897V62.0254Z" fill="#EB6D26"/>
<path d="M61.6131 62.0254H58.6016V79.0909H61.6131V62.0254Z" fill="#EB6D26"/>
<path d="M47.0878 43.8137L46.4219 44.0723L53.5807 62.9388L54.2466 62.6802L47.0878 43.8137Z" fill="#EB6D26"/>
<path d="M60.4591 62.4407L61.125 62.6992L68.2805 43.8314L67.6146 43.573L60.4591 62.4407Z" fill="#EB6D26"/>
<path d="M46.9141 43.2198C49.9058 42.392 52.9001 41.5642 55.8918 40.7363C57.105 42.392 58.3183 44.0477 59.5315 45.7034C62.3631 44.8755 65.1923 44.0477 68.024 43.2198L67.8395 44.1719L67.7813 44.4616C67.7061 44.8497 65.2675 45.6309 59.5315 46.9451C58.4638 45.3826 57.2434 44.027 55.8918 43.2198C52.2012 41.0261 49.0736 43.8666 46.9141 46.9451" fill="#EB6D26"/>
</g>
<path d="M65.8118 82.9551H47.9305C46.696 82.9551 45.6953 83.789 45.6953 84.8177C45.6953 85.8464 46.696 86.6804 47.9305 86.6804H65.8118C67.0462 86.6804 68.047 85.8464 68.047 84.8177C68.047 83.789 67.0462 82.9551 65.8118 82.9551Z" fill="#F6EFEF"/>
<path d="M65.8196 87.9219H47.9383C46.7038 87.9219 45.7031 89.0338 45.7031 90.4054C45.7031 91.777 46.7038 92.8889 47.9383 92.8889H65.8196C67.0541 92.8889 68.0548 91.777 68.0548 90.4054C68.0548 89.0338 67.0541 87.9219 65.8196 87.9219Z" fill="#F6EFEF"/>
<path d="M45.7031 91.6484H68.0548L66.1921 99.099H47.5658L45.7031 91.6484Z" fill="#F6EFEF"/>
<defs>
<clipPath id="clip0_520_766">
<rect width="45.1733" height="72.2773" fill="white" transform="translate(34.5 20.8672)"/>
</clipPath>
</defs>
</svg>
