<svg width="87" height="87" viewBox="0 0 87 87" fill="none" xmlns="http://www.w3.org/2000/svg">
<path d="M82.6663 39.5804L46.591 3.50508C44.6552 1.56928 41.5167 1.56928 39.5809 3.50508L3.50558 39.5804C1.56978 41.5162 1.56978 44.6547 3.50558 46.5905L39.5809 82.6658C41.5167 84.6016 44.6552 84.6016 46.591 82.6658L82.6663 46.5905C84.6021 44.6547 84.6021 41.5162 82.6663 39.5804Z" fill="#F6EFEF" stroke="#55504D" stroke-width="1.10193" stroke-miterlimit="10"/>
<path d="M80.3071 39.5649L46.5676 5.82539C44.6318 3.88959 41.4932 3.88959 39.5574 5.82539L5.81793 39.5649C3.88213 41.5007 3.88212 44.6392 5.81792 46.575L39.5574 80.3145C41.4932 82.2503 44.6318 82.2503 46.5676 80.3145L80.3071 46.575C82.2429 44.6392 82.2429 41.5007 80.3071 39.5649Z" fill="#EB6D26" stroke="#55504D" stroke-width="0.275483" stroke-miterlimit="10"/>
<circle cx="43.0859" cy="9.46418" r="1.33917" transform="rotate(45 43.0859 9.46418)" fill="#F6EFEF"/>
<circle cx="9" cy="43.5521" r="1.33917" transform="rotate(45 9 43.5521)" fill="#F6EFEF"/>
<circle cx="76.7031" cy="43.0814" r="1.33917" transform="rotate(45 76.7031 43.0814)" fill="#F6EFEF"/>
<circle cx="42.6172" cy="77.1693" r="1.33917" transform="rotate(45 42.6172 77.1693)" fill="#F6EFEF"/>
<g clip-path="url(#clip0_570_213)">
<path d="M23.8763 37.377L28.92 40.2305C27.5435 42.4828 26.6625 45.0601 26.4262 47.8141H20.8828C21.0238 44.0324 22.0914 40.4823 23.8763 37.377Z" fill="#F6EFEF"/>
<path d="M32.3605 28.8301L35.3851 33.9643C33.084 35.2743 31.1043 37.0677 29.5909 39.2022L24.5078 36.3264C26.4876 33.2657 29.1805 30.6925 32.3605 28.8301Z" fill="#F6EFEF"/>
<path d="M33.4453 28.2344C36.5425 26.632 40.0459 25.6855 43.7671 25.584V31.5794C41.1592 31.6789 38.6943 32.3186 36.4823 33.389L33.4453 28.2344Z" fill="#F6EFEF"/>
<path d="M55.8059 28.4274L52.7979 33.5332C50.4553 32.3472 47.8142 31.6485 45.0156 31.5734V25.582C48.9213 25.6714 52.5926 26.693 55.8059 28.4274Z" fill="#F6EFEF"/>
<path d="M64.443 36.4275L59.4386 39.2587C57.9812 37.1871 56.0844 35.4324 53.8828 34.1285L56.8805 29.043C59.9403 30.9074 62.5316 33.438 64.443 36.4275Z" fill="#F6EFEF"/>
<path d="M68.0077 47.8141H62.568C62.3338 45.0824 61.4652 42.5255 60.1094 40.2873L65.0723 37.4785C66.8219 40.5595 67.8688 44.073 68.0077 47.8141Z" fill="#F6EFEF"/>
<path d="M47.3471 46.5478C50.1291 43.8223 52.9132 41.0947 55.6953 38.3691C52.5421 40.6316 49.389 42.8941 46.2359 45.1566C46.2297 45.1607 46.2255 45.1647 46.2193 45.1688C46.1986 45.1546 46.1799 45.1424 46.1592 45.1302C45.7881 44.9149 45.3507 44.791 44.8905 44.791C43.5161 44.791 42.4028 45.8817 42.4028 47.2282C42.4028 47.4171 42.4236 47.6019 42.4671 47.7786C42.4733 47.8009 42.4775 47.8233 42.4857 47.8456C41.982 48.2091 41.4803 48.5686 40.9766 48.9301C41.5301 49.6755 42.0815 50.4188 42.635 51.1642L44.2499 49.5821C44.4531 49.6389 44.6687 49.6653 44.8905 49.6653C46.2629 49.6653 47.3782 48.5767 47.3782 47.2282C47.3782 47.0109 47.3471 46.8017 47.2911 46.6027C47.3097 46.5844 47.3284 46.5661 47.3471 46.5478ZM44.8905 48.3452C44.2603 48.3452 43.7503 47.8456 43.7503 47.2282C43.7503 46.6108 44.2603 46.1112 44.8905 46.1112C45.5207 46.1112 46.0307 46.6128 46.0307 47.2282C46.0307 47.8436 45.5186 48.3452 44.8905 48.3452Z" fill="#F6EFEF"/>
</g>
<rect x="20.8828" y="51.8379" width="47.1247" height="1.34642" fill="#F6EFEF"/>
<defs>
<clipPath id="clip0_570_213">
<rect width="47.1247" height="25.582" fill="white" transform="translate(20.8828 25.582)"/>
</clipPath>
</defs>
</svg>
