

<svg width="1175" height="637" viewBox="0 0 1175 637" fill="none" xmlns="http://www.w3.org/2000/svg">
  <style>
 .path1 {
    fill: white;
   animation: pulsate 2s infinite ease-in-out;
     transform-origin: center;
      transform-box: fill-box;

 }

 @keyframes moveFirstDot {
  0% {
    transform: translate(0, 0);
  }
  100% {
    transform: translate(0, 573.3); /* Moves the dot 90% of the SVG's height */
  }
}

@keyframes moveSecondDot {
  0% {
    transform: translate(0, 0);
  }
  100% {
    transform: translate(-255, 0); /* Moves the dot 20% of the SVG's width to the left */
  }
}

 @keyframes pulsate {
  0% {
    transform: scale(1);
    opacity: 1;
  }
  50% {
    transform: scale(1.1); /* Increase the scale */
    opacity: 0.3; /* Adjust opacity */
  }
  100% {
    transform: scale(1);
    opacity: 1;
  }
}
  </style>
<mask id="mask0_382_1338" style="mask-type:luminance" maskUnits="userSpaceOnUse" x="892" y="73" width="175" height="490">
<path d="M892.53 73.8063L1044.98 73.7976C1056.8 73.7937 1066.38 83.3827 1066.38 95.2167L1066.36 541.546C1066.36 553.38 1056.77 562.971 1044.95 562.965L892.52 562.975L892.53 73.8063Z" fill="white"/>
</mask>
<g mask="url(#mask0_382_1338)">
<path d="M892.53 73.8063L1044.98 73.7976C1056.8 73.7937 1066.38 83.3827 1066.38 95.2167L1066.36 541.546C1066.36 553.38 1056.77 562.971 1044.95 562.965L892.52 562.975L892.53 73.8063Z" fill="#6CAEEC" stroke="#4B7C9B" stroke-miterlimit="10"/>
<g opacity="0.8">
<path d="M1025.8 234.503L1025.79 232.636L926.461 232.639L926.461 234.506L1025.8 234.503Z" fill="#F7F5F4"/>
<path d="M1025.81 242.523L1025.81 237.223L926.469 237.226L926.474 242.526L1025.81 242.523Z" fill="#F7F5F4"/>
<path d="M1025.79 269.893L1025.78 264.593L926.454 264.596L926.458 269.896L1025.79 269.893Z" fill="#F7F5F4"/>
<path d="M1025.79 279.067L1025.78 277.199L926.454 277.203L926.453 279.07L1025.79 279.067Z" fill="#F7F5F4"/>
<path d="M1025.79 404.089L1025.78 398.789L926.454 398.793L926.458 404.093L1025.8 404.09L1025.79 404.089Z" fill="#F7F5F4"/>
<path d="M1025.78 433.919L1025.78 431.39L926.446 431.393L926.448 433.923L1025.78 433.919Z" fill="#F7F5F4"/>
<path d="M1025.79 453.804L1025.79 451.274L926.461 451.278L926.464 453.808L1025.8 453.805L1025.79 453.804Z" fill="#F7F5F4"/>
<path d="M1025.81 165.74L1025.81 163.291L926.469 163.294L926.469 165.743L1025.81 165.74Z" fill="#F7F5F4"/>
<path d="M1025.79 174.491L1025.79 171.359L926.454 171.362L926.454 174.494L1025.79 174.491Z" fill="#F7F5F4"/>
<path d="M1025.81 181.588L1025.81 180.093L926.469 180.095L926.471 181.591L1025.81 181.588Z" fill="#F7F5F4"/>
<path d="M1025.8 188.303L1025.79 187.198L926.454 187.201L926.449 188.304L1025.79 188.302L1025.8 188.303Z" fill="#F7F5F4"/>
<path d="M1025.78 197.053L1025.78 193.922L926.446 193.924L926.447 197.056L1025.78 197.053Z" fill="#F7F5F4"/>
<path d="M1025.79 205.676L1025.79 202.665L926.454 202.668L926.455 205.679L1025.79 205.676Z" fill="#F7F5F4"/>
<path d="M1025.8 212.784L1025.8 211.288L926.461 211.291L926.463 212.786L1025.8 212.784Z" fill="#F7F5F4"/>
<path d="M1025.8 220.833L1025.8 218.384L926.461 218.386L926.461 220.835L1025.8 220.833Z" fill="#F7F5F4"/>
<path d="M1025.8 229.585L1025.79 226.453L926.454 226.456L926.454 229.587L1025.79 229.585L1025.8 229.585Z" fill="#F7F5F4"/>
<path d="M1025.78 251.846L1025.78 250.35L926.446 250.353L926.447 251.849L1025.78 251.846Z" fill="#F7F5F4"/>
<path d="M1025.78 260.588L1025.78 257.457L926.446 257.46L926.447 260.591L1025.78 260.588Z" fill="#F7F5F4"/>
<path d="M1025.79 276.318L1025.79 274.822L926.454 274.825L926.455 276.32L1025.79 276.318Z" fill="#F7F5F4"/>
<path d="M1025.8 284.378L1025.8 281.928L926.461 281.931L926.461 284.38L1025.8 284.378Z" fill="#F7F5F4"/>
<path d="M1025.8 293.12L1025.79 289.987L926.454 289.99L926.454 293.122L1025.79 293.119L1025.8 293.12Z" fill="#F7F5F4"/>
<path d="M1025.79 300.226L1025.78 298.73L926.446 298.733L926.447 300.229L1025.79 300.226Z" fill="#F7F5F4"/>
<path d="M1025.79 306.93L1025.78 305.826L926.446 305.829L926.451 306.933L1025.8 306.931L1025.79 306.93Z" fill="#F7F5F4"/>
<path d="M1025.79 315.683L1025.78 312.551L926.438 312.553L926.439 315.685L1025.78 315.682L1025.79 315.683Z" fill="#F7F5F4"/>
<path d="M1025.79 324.305L1025.79 321.294L926.454 321.296L926.455 324.308L1025.79 324.305Z" fill="#F7F5F4"/>
<path d="M1025.79 331.41L1025.78 329.915L926.446 329.918L926.447 331.413L1025.79 331.41Z" fill="#F7F5F4"/>
<path d="M1025.78 339.461L1025.78 337.011L926.446 337.014L926.445 339.463L1025.78 339.461Z" fill="#F7F5F4"/>
<path d="M1025.79 348.213L1025.79 345.082L926.454 345.085L926.454 348.216L1025.79 348.213Z" fill="#F7F5F4"/>
<path d="M1025.78 355.309L1025.78 353.813L926.446 353.816L926.447 355.312L1025.78 355.309Z" fill="#F7F5F4"/>
<path d="M1025.79 362.024L1025.79 360.921L926.446 360.922L926.451 362.027L1025.79 362.024Z" fill="#F7F5F4"/>
<path d="M1025.78 370.646L1025.78 367.635L926.446 367.637L926.447 370.649L1025.78 370.646Z" fill="#F7F5F4"/>
<path d="M1025.79 377.752L1025.79 376.256L926.438 376.258L926.439 377.754L1025.79 377.752Z" fill="#F7F5F4"/>
<path d="M1025.78 384.859L1025.78 383.363L926.446 383.366L926.447 384.861L1025.78 384.859Z" fill="#F7F5F4"/>
<path d="M1025.79 391.573L1025.79 390.47L926.454 390.472L926.449 391.576L1025.79 391.573Z" fill="#F7F5F4"/>
<path d="M1025.79 408.376L1025.79 405.927L926.454 405.929L926.453 408.378L1025.79 408.376Z" fill="#F7F5F4"/>
<path d="M1025.79 417.119L1025.78 413.986L926.446 413.989L926.447 417.121L1025.78 417.118L1025.79 417.119Z" fill="#F7F5F4"/>
<path d="M1025.8 423.834L1025.79 422.729L926.454 422.732L926.459 423.837L1025.8 423.834Z" fill="#F7F5F4"/>
<path d="M1025.78 441.206L1025.78 438.195L926.446 438.198L926.447 441.209L1025.78 441.206Z" fill="#F7F5F4"/>
<path d="M1025.77 448.302L1025.77 446.806L926.43 446.809L926.432 448.305L1025.77 448.302Z" fill="#F7F5F4"/>
<path d="M1025.79 465.105L1025.78 461.972L926.438 461.975L926.439 465.107L1025.78 465.104L1025.79 465.105Z" fill="#F7F5F4"/>
<path d="M1025.78 472.211L1025.78 470.716L926.446 470.718L926.447 472.214L1025.78 472.211Z" fill="#F7F5F4"/>
<path d="M1025.78 478.926L1025.78 477.822L926.446 477.825L926.451 478.929L1025.79 478.927L1025.78 478.926Z" fill="#F7F5F4"/>
<path d="M1025.78 487.668L1025.77 484.536L926.43 484.539L926.431 487.67L1025.77 487.668L1025.78 487.668Z" fill="#F7F5F4"/>
<path d="M1025.8 159.616L1025.81 156.194L926.469 156.197L926.465 159.619L1025.8 159.616Z" fill="#F7F5F4"/>
</g>
<path d="M1028.03 90.0647L81.0865 91.3841C69.9801 91.3996 60.9891 100.416 61.0046 111.522L61.581 525.222C61.5965 536.328 70.6126 545.319 81.719 545.304L1028.66 543.984C1039.76 543.969 1048.76 534.953 1048.74 523.846L1048.16 110.147C1048.15 99.0402 1039.13 90.0492 1028.03 90.0647Z" stroke="#3F79AC"/>
<path d="M892.53 73.8063L1044.98 73.7976C1056.8 73.7937 1066.38 83.3827 1066.38 95.2167L1066.36 541.546C1066.36 553.38 1056.77 562.971 1044.95 562.965L892.52 562.975L892.53 73.8063Z" stroke="#72ACDD" stroke-miterlimit="10"/>
</g>
<mask id="mask1_382_1338" style="mask-type:luminance" maskUnits="userSpaceOnUse" x="42" y="73" width="852" height="492">
<path d="M62.4069 74.8939L892.706 73.737L893.388 562.916L63.0884 564.073C51.9884 564.089 42.9659 555.091 42.9504 543.991L42.3249 95.0319C42.3094 83.9319 51.3069 74.9093 62.4069 74.8939Z" fill="white"/>
</mask>
<g mask="url(#mask1_382_1338)">
<mask id="mask2_382_1338" style="mask-type:luminance" maskUnits="userSpaceOnUse" x="42" y="73" width="852" height="492">
<path d="M62.4069 74.8939L892.706 73.737L893.388 562.916L63.0884 564.073C51.9884 564.089 42.9659 555.091 42.9504 543.991L42.3249 95.0319C42.3094 83.9319 51.3069 74.9093 62.4069 74.8939Z" fill="white"/>
</mask>
<g mask="url(#mask2_382_1338)">
<path d="M62.4069 74.8939L892.706 73.737L893.388 562.916L63.0884 564.073C51.9884 564.089 42.9659 555.091 42.9504 543.991L42.3249 95.0319C42.3094 83.9319 51.3069 74.9093 62.4069 74.8939Z" fill="#56A2E9"/>
<path d="M759.175 59.7397L744.125 59.8027L746.231 562.988L761.281 562.925L759.175 59.7397Z" fill="#6BACEA"/>
<path d="M454.688 526.919L439.508 526.982L439.662 563.702L454.841 563.639L454.688 526.919Z" fill="#5697D1"/>
<path d="M905.394 526.459L754.875 527.089L754.938 542.139L905.457 541.509L905.394 526.459Z" fill="#5697D1"/>
<g class="dot dot--first">
<path class="path1" d="M751.7 216.41C758.033 216.957 763.61 212.265 764.157 205.932C764.703 199.599 760.012 194.022 753.678 193.476C747.345 192.929 741.768 197.62 741.222 203.954C740.675 210.287 745.367 215.864 751.7 216.41Z" />
<path d="M751.782 211.308C755.474 211.627 758.725 208.892 759.044 205.2C759.362 201.508 756.627 198.256 752.935 197.938C749.243 197.62 745.992 200.354 745.673 204.047C745.355 207.739 748.09 210.99 751.782 211.308Z" fill="#FFC83E"/>
</g>

<path d="M491.177 321.097L491.244 335.918L534.731 335.735C538.867 335.72 542.24 338.631 542.259 342.246L542.84 481.31L543.161 481.308C542.958 482.153 542.852 483.028 542.855 483.921C542.886 490.659 549.172 496.099 556.903 496.073C557.937 496.072 558.93 495.967 559.899 495.78L559.905 496.061L640.873 495.729C647.922 495.694 653.736 491.127 654.689 485.207C654.777 484.643 654.828 484.055 654.819 483.462L654.656 445.096C654.641 441.662 657.162 438.728 660.687 437.657L905.039 436.643L904.972 421.822L651.564 422.878C650.289 422.878 649.061 423.033 647.902 423.325C642.047 424.757 637.745 429.485 637.633 435.086C637.625 435.175 637.618 435.265 637.62 435.356L637.785 473.933C637.804 477.788 634.231 480.923 629.813 480.943L568.836 481.194C563.865 481.217 559.821 477.716 559.803 473.389L559.215 333.019C559.184 326.281 552.898 320.841 545.167 320.867L491.188 321.088L491.177 321.097Z" fill="#8EBDE6"/>
<path d="M499.146 321.04L408.867 321.418L408.93 336.468L499.209 336.09L499.146 321.04Z" fill="#8EBDE6"/>
<path d="M904.644 349.443L772.766 349.995L772.847 369.465L904.726 368.913L904.644 349.443Z" fill="#5596D0"/>
<path d="M667.661 441.581C673.994 442.128 679.571 437.436 680.118 431.103C680.664 424.77 675.973 419.193 669.639 418.646C663.306 418.1 657.729 422.791 657.183 429.125C656.636 435.458 661.328 441.035 667.661 441.581Z" fill="#F1EAE5"/>
<path d="M667.766 436.481C671.458 436.8 674.71 434.065 675.028 430.373C675.347 426.681 672.612 423.429 668.92 423.111C665.227 422.792 661.976 425.527 661.658 429.219C661.339 432.911 664.074 436.163 667.766 436.481Z" fill="#FFC83E"/>
<path d="M528.957 231.142L528.527 138.271C528.527 138.271 528.523 138.2 528.527 138.161L511.878 138.24L512.236 214.844C512.267 221.471 506.924 226.862 500.296 226.893L491.791 226.942C485.164 226.972 479.774 221.619 479.743 214.992L479.375 138.387L464.273 138.46C464.273 138.46 464.277 138.53 464.274 138.57L464.703 231.451C464.734 238.078 470.134 243.422 476.762 243.391L517.017 243.2C523.644 243.169 528.988 237.769 528.957 231.142Z" fill="#6BACEA"/>
<path d="M794.552 369.037L746.508 369.229C746.447 369.234 746.396 369.24 746.337 369.234C746.195 369.242 746.064 369.251 745.924 369.249L713.209 369.408C706.582 369.439 701.191 364.096 701.161 357.468L701.057 335.749C701.055 334.846 701.15 333.971 701.334 333.123L701.335 333.103L701.264 315.893L701.036 259.545C701.024 255.841 699.507 252.488 697.085 250.081C694.653 247.663 691.299 246.179 687.614 246.192C680.223 246.227 674.263 252.257 674.298 259.648L674.525 316.016L674.75 370.065C674.755 371.059 674.711 372.029 674.608 372.994L674.67 386.7C674.701 393.327 669.357 398.728 662.73 398.758L630.016 398.907C623.399 398.939 617.998 393.595 617.968 386.968L617.784 348.841C617.785 348.128 617.835 347.43 617.964 346.749L617.968 346.709C617.968 346.709 617.968 346.699 617.969 346.689L617.678 274.898C617.674 274.476 617.669 274.074 617.704 273.666C617.694 273.665 617.682 273.684 617.664 273.662L617.428 216.822L617.206 161.799C617.188 157.361 615.376 153.351 612.453 150.459C609.542 147.558 605.521 145.766 601.093 145.785C592.237 145.824 585.079 153.056 585.116 161.932L585.346 216.975L585.576 273.424L568.467 273.494L568.175 205.086L568.177 205.056L567.877 141.866C567.846 135.239 573.2 129.839 579.827 129.808L599.729 129.718L600.191 129.708L620.083 129.617C626.71 129.587 632.1 134.93 632.131 141.557L632.431 204.757C632.432 205.208 632.414 205.648 632.366 206.086L632.53 246.429C632.54 247.594 632.481 248.744 632.363 249.878C632.416 249.842 632.478 249.817 632.542 249.783L632.907 336.766L633.036 368.093C633.061 374.9 638.598 380.406 645.385 380.38C652.184 380.344 657.67 374.805 657.635 367.997L657.507 336.66L657.385 305.263C657.385 305.263 657.381 305.202 657.383 305.173C657.343 304.818 657.324 304.465 657.325 304.104L657.024 240.914C656.994 234.287 662.348 228.887 668.975 228.856L707.102 228.672C713.729 228.642 719.12 233.985 719.15 240.612L719.45 303.812C719.446 304.082 719.444 304.343 719.422 304.602C719.427 304.653 719.423 304.703 719.419 304.752L719.494 323.659L719.581 343.831C719.596 347.265 722.388 350.035 725.812 350.019L757.842 349.892L794.48 349.74L794.562 369.038L794.552 369.037Z" fill="#5596D0"/>
<path d="M782.014 543.055L617.216 543.734L611.703 543.76L528.907 544.106C528.542 544.155 528.178 544.184 527.806 544.192L494.81 544.357L494.8 544.356C488.173 544.386 482.783 539.033 482.752 532.406L482.605 499.552C482.55 498.092 482.506 496.633 482.461 495.173C482.452 491.549 480.879 488.262 478.333 485.894C475.798 483.518 472.3 482.062 468.444 482.08C460.844 482.107 454.676 487.868 454.534 494.983C454.525 495.082 454.527 495.183 454.527 495.293L454.734 544.563L439.602 544.633L439.23 544.641C439.23 544.641 439.236 544.571 439.219 544.53C439.206 544.328 439.215 544.118 439.212 543.917L439.422 501.689L439.519 480.78C439.559 474.148 444.384 468.713 450.305 468.612L486.265 468.06C492.185 467.968 496.948 473.257 496.909 479.878L496.899 482.206L496.732 515.324L496.704 521.465C496.96 522.571 497.323 523.596 497.805 524.531C498.388 525.685 499.153 526.705 500.154 527.554C500.808 528.112 501.503 528.553 502.266 528.9C504.004 529.692 506.106 529.994 508.912 530.156C513.668 530.416 524.589 530.525 539.456 530.502C540.971 530.503 542.527 530.496 544.124 530.493C615.488 530.256 764.358 527.59 781.951 527.261L782.014 543.055Z" fill="#5697D1"/>
<path d="M576.336 286.157C585.101 286.913 592.82 280.42 593.576 271.655C594.332 262.89 587.84 255.171 579.074 254.415C570.309 253.659 562.59 260.152 561.834 268.917C561.078 277.682 567.571 285.401 576.336 286.157Z" fill="#F1EAE5"/>
<path d="M577.305 279.116C582.436 279.095 586.578 274.918 586.556 269.787C586.535 264.657 582.358 260.515 577.227 260.536C572.097 260.558 567.955 264.734 567.976 269.865C567.998 274.996 572.174 279.138 577.305 279.116Z" fill="#FFC83E"/>
<path d="M446.794 540.746C453.127 541.293 458.704 536.601 459.25 530.268C459.797 523.935 455.105 518.358 448.772 517.811C442.439 517.265 436.862 521.956 436.315 528.29C435.769 534.623 440.46 540.2 446.794 540.746Z" fill="#F1EAE5"/>
<path d="M446.891 535.646C450.583 535.965 453.835 533.23 454.153 529.538C454.472 525.846 451.737 522.594 448.045 522.276C444.352 521.957 441.101 524.692 440.783 528.384C440.464 532.077 443.199 535.328 446.891 535.646Z" fill="#FFC83E"/>
<path d="M87.7201 290.481L87.4642 228.46L129.89 228.284L129.938 239.972L100.452 240.098L100.515 255.373L127.303 255.266L127.351 266.954L100.563 267.062L100.66 290.43L87.7201 290.481ZM139.606 275.165L139.41 228.243L152.35 228.192L152.549 275.827C152.561 277.626 153.457 278.519 155.255 278.516L172.876 278.442C174.674 278.431 175.567 277.535 175.565 275.737L175.365 228.102L188.305 228.05L188.501 274.972C188.541 285.038 183.528 290.091 173.461 290.131L154.765 290.205C144.699 290.245 139.646 285.231 139.606 275.165ZM202.79 290.002L202.534 227.981L215.474 227.929L215.682 278.262L242.47 278.154L242.518 289.843L202.789 290.011L202.79 290.002ZM252.038 289.802L251.782 227.781L264.722 227.73L264.93 278.062L291.718 277.955L291.767 289.634L252.038 289.802Z" fill="#256DB0"/>
<path d="M85.6725 368.343L85.6468 361.336L113.511 361.219C115.308 361.217 116.202 360.311 116.2 358.514L116.174 352.044C116.166 350.31 115.417 349.319 113.918 349.088L96.3753 345.564C89.1766 344.155 85.5605 339.349 85.5276 331.137L85.5077 326.104C85.468 316.037 90.4813 310.984 100.548 310.944L121.126 310.857L127.165 315.501L127.191 322.509L101.126 322.614C99.3269 322.626 98.4342 323.522 98.4367 325.319L98.4611 331.159C98.4646 332.837 99.2231 333.819 100.717 334.115L118.258 337.546C125.457 338.955 129.073 343.761 129.106 351.973L129.128 357.729C129.168 367.796 124.155 372.849 114.089 372.888L91.7125 372.978L85.6733 368.334L85.6725 368.343ZM141.229 372.783L140.973 310.762L171.172 310.634C181.239 310.594 186.292 315.607 186.332 325.674L186.386 337.715C186.426 347.781 181.413 352.834 171.346 352.874L154.087 352.942L154.17 372.714L141.23 372.765L141.229 372.783ZM154.037 341.272L170.759 341.204C172.558 341.192 173.451 340.296 173.448 338.499L173.388 325.02C173.376 323.222 172.48 322.329 170.682 322.332L153.96 322.4L154.037 341.272ZM198.55 372.548L198.294 310.527L240.72 310.351L240.768 322.039L211.282 322.164L211.337 334.743L238.125 334.635L238.173 346.324L211.385 346.432L211.442 360.808L240.919 360.682L240.968 372.362L198.542 372.538L198.55 372.548ZM252.794 372.326L252.538 310.304L294.964 310.128L295.012 321.817L265.526 321.942L265.581 334.521L292.369 334.413L292.417 346.101L265.629 346.209L265.686 360.586L295.163 360.46L295.211 372.148L252.785 372.325L252.794 372.326ZM307.039 372.094L306.783 310.073L330.327 309.972C347.226 309.901 355.71 318.315 355.781 335.213L355.833 346.54C355.904 363.438 347.491 371.923 330.593 371.994L307.048 372.095L307.039 372.094ZM319.93 360.363L331.257 360.321C339.043 360.288 342.929 356.38 342.888 348.583L342.825 333.308C342.793 325.521 338.884 321.635 331.088 321.667L319.761 321.718L319.92 360.372L319.93 360.363Z" fill="#DDEDF9"/>
<path d="M83.4113 456.397L101.587 396.726L121.358 396.643L140.029 456.157L138.42 458.594L127.64 458.637L123.813 446.066L99.5455 446.169L95.8182 458.765L85.0289 458.807L83.4029 456.387L83.4113 456.397ZM103 434.477L120.26 434.409L112.239 408.375L110.802 408.38L103 434.477ZM149.033 458.555L148.777 396.534L161.716 396.483L161.819 420.75L184.825 420.659L184.723 396.392L197.662 396.34L197.918 458.361L184.979 458.413L184.873 432.347L161.866 432.448L161.972 458.513L149.032 458.564L149.033 458.555ZM212.667 458.29L212.411 396.269L254.837 396.092L254.885 407.781L225.408 407.907L225.462 420.495L252.25 420.387L252.298 432.076L225.51 432.183L225.567 446.56L255.044 446.434L255.093 458.114L212.667 458.29ZM261.151 455.662L279.326 395.99L299.098 395.907L317.769 455.421L316.159 457.859L305.37 457.901L301.543 445.33L277.276 445.433L273.549 458.028L262.759 458.071L261.133 455.651L261.151 455.662ZM280.75 433.733L298.009 433.665L289.988 407.631L288.552 407.637L280.75 433.733ZM326.782 457.811L326.526 395.79L350.071 395.69C366.969 395.619 375.454 404.032 375.525 420.93L375.567 432.257C375.638 449.155 367.225 457.64 350.327 457.711L326.782 457.811ZM339.674 446.071L351.002 446.02C358.788 445.987 362.674 442.079 362.641 434.292L362.579 419.007C362.547 411.221 358.638 407.335 350.842 407.376L339.514 407.427L339.673 446.081L339.674 446.071Z" fill="#256DB0"/>
<path d="M93.9326 497.51L93.983 511.004L92.2764 511.007L92.2536 504.873L84.8234 504.904L84.8462 511.039L83.1396 511.042L83.0883 497.558L84.7949 497.555L84.8137 503.388L92.2439 503.356L92.2151 497.522L93.9218 497.519L93.9326 497.51ZM96.9553 510.989L96.9177 501.069L98.5944 501.064L98.632 510.983L96.9553 510.989ZM96.9073 499.212L96.8968 497.123L98.5735 497.117L98.584 499.206L96.9073 499.212ZM105.29 511.066C104.617 511.068 103.996 510.934 103.426 510.674C102.868 510.395 102.388 510.023 101.977 509.556C101.567 509.079 101.253 508.53 101.023 507.928C100.805 507.317 100.699 506.685 100.695 506.032C100.695 505.34 100.802 504.677 101.006 504.052C101.231 503.429 101.549 502.884 101.951 502.417C102.364 501.931 102.847 501.561 103.413 501.288C103.969 501.005 104.593 500.868 105.276 500.867C106.099 500.868 106.815 501.06 107.423 501.464C108.04 501.868 108.569 502.376 108.987 502.994L108.977 501.016L110.463 501.013L110.501 510.813C110.5 511.746 110.281 512.54 109.823 513.193C109.386 513.838 108.782 514.328 108.01 514.663C107.248 515.009 106.409 515.187 105.466 515.186C104.352 515.191 103.434 515.001 102.726 514.609C102.017 514.216 101.419 513.693 100.956 513.021L101.923 512.161C102.314 512.746 102.829 513.172 103.446 513.466C104.084 513.752 104.754 513.9 105.467 513.892C106.069 513.893 106.632 513.771 107.133 513.544C107.654 513.327 108.064 512.992 108.365 512.536C108.685 512.081 108.835 511.502 108.834 510.82L108.824 509.072C108.46 509.683 107.957 510.162 107.313 510.528C106.68 510.885 106.012 511.068 105.3 511.067L105.29 511.066ZM105.799 509.695C106.151 509.695 106.498 509.624 106.82 509.502C107.152 509.37 107.448 509.204 107.725 509.008C108.005 508.791 108.237 508.55 108.42 508.285C108.614 508.02 108.737 507.75 108.802 507.464L108.787 504.613C108.606 504.155 108.349 503.762 108.027 503.423C107.695 503.073 107.317 502.8 106.902 502.613C106.488 502.407 106.055 502.309 105.613 502.311C105.101 502.317 104.65 502.419 104.249 502.645C103.859 502.863 103.523 503.155 103.25 503.523C102.979 503.881 102.764 504.274 102.615 504.723C102.466 505.171 102.387 505.616 102.388 506.068C102.386 506.56 102.486 507.03 102.658 507.477C102.832 507.903 103.079 508.296 103.382 508.633C103.684 508.97 104.052 509.243 104.467 509.429C104.883 509.616 105.326 509.714 105.798 509.705L105.799 509.695ZM121.796 510.884L120.13 510.891L120.107 505.338C120.104 504.324 119.918 503.565 119.55 503.062C119.192 502.559 118.682 502.305 118.009 502.307C117.578 502.31 117.146 502.423 116.695 502.655C116.263 502.889 115.885 503.197 115.56 503.591C115.236 503.974 114.997 504.416 114.843 504.924L114.869 510.909L113.202 510.915L113.143 497.049L114.82 497.043L114.847 503.128C115.239 502.419 115.769 501.863 116.437 501.448C117.116 501.025 117.857 500.818 118.64 500.815C119.232 500.816 119.736 500.91 120.118 501.134C120.523 501.329 120.848 501.628 121.087 502C121.325 502.382 121.498 502.818 121.605 503.329C121.723 503.821 121.776 504.368 121.785 504.961L121.806 510.885L121.796 510.884ZM137.355 500.161C137.2 499.987 137.004 499.81 136.747 499.647C136.49 499.485 136.212 499.34 135.892 499.212C135.572 499.074 135.23 498.964 134.845 498.891C134.481 498.809 134.094 498.756 133.682 498.761C132.648 498.762 131.878 498.966 131.383 499.355C130.887 499.744 130.65 500.286 130.651 500.968C130.65 501.45 130.777 501.832 131.035 502.105C131.292 502.388 131.674 502.612 132.201 502.788C132.727 502.964 133.404 503.143 134.211 503.333C135.147 503.534 135.96 503.775 136.647 504.065C137.335 504.355 137.864 504.742 138.233 505.236C138.602 505.719 138.788 506.357 138.788 507.17C138.793 507.813 138.664 508.384 138.411 508.864C138.17 509.335 137.835 509.728 137.386 510.051C136.948 510.354 136.426 510.59 135.831 510.739C135.236 510.879 134.588 510.953 133.895 510.954C133.212 510.955 132.536 510.887 131.885 510.75C131.235 510.604 130.621 510.39 130.043 510.11C129.464 509.839 128.912 509.49 128.406 509.075L129.213 507.629C129.415 507.847 129.678 508.061 129.991 508.269C130.325 508.468 130.69 508.66 131.097 508.836C131.513 509.012 131.963 509.151 132.445 509.263C132.928 509.365 133.426 509.408 133.928 509.411C134.892 509.404 135.64 509.227 136.171 508.892C136.703 508.536 136.969 508.017 136.966 507.355C136.959 506.852 136.813 506.448 136.508 506.141C136.214 505.834 135.773 505.585 135.198 505.385C134.614 505.184 133.908 504.983 133.072 504.79C132.158 504.561 131.395 504.325 130.766 504.06C130.147 503.785 129.677 503.424 129.353 502.984C129.05 502.546 128.889 501.97 128.89 501.258C128.884 500.394 129.097 499.67 129.51 499.073C129.923 498.476 130.504 498.025 131.233 497.716C131.962 497.408 132.799 497.249 133.722 497.248C134.334 497.251 134.891 497.309 135.413 497.434C135.944 497.56 136.441 497.734 136.893 497.963C137.344 498.193 137.763 498.46 138.147 498.774L137.355 500.161ZM146.128 510.975C145.315 510.976 144.599 510.783 143.962 510.377C143.324 509.971 142.826 509.466 142.458 508.842L142.482 514.846L140.806 514.852L140.746 500.885L142.231 500.883L142.242 502.741C142.635 502.132 143.139 501.644 143.774 501.267C144.41 500.88 145.099 500.689 145.842 500.683C146.525 500.681 147.155 500.816 147.723 501.096C148.291 501.376 148.791 501.75 149.212 502.228C149.632 502.706 149.956 503.256 150.183 503.878C150.422 504.48 150.548 505.124 150.55 505.796C150.56 506.73 150.364 507.597 149.996 508.378C149.627 509.169 149.111 509.797 148.448 510.262C147.776 510.726 147.004 510.95 146.13 510.955L146.128 510.975ZM145.6 509.535C146.092 509.537 146.542 509.435 146.932 509.228C147.332 509.011 147.677 508.73 147.957 508.393C148.249 508.037 148.464 507.634 148.613 507.195C148.762 506.746 148.841 506.291 148.831 505.829C148.833 505.337 148.743 504.867 148.561 504.42C148.398 503.975 148.151 503.582 147.839 503.244C147.537 502.907 147.168 502.644 146.754 502.448C146.349 502.252 145.907 502.144 145.424 502.152C145.123 502.156 144.807 502.209 144.475 502.331C144.154 502.444 143.859 502.609 143.569 502.825C143.281 503.031 143.03 503.261 142.836 503.535C142.632 503.798 142.497 504.088 142.44 504.394L142.457 507.226C142.651 507.654 142.898 508.047 143.219 508.396C143.54 508.755 143.907 509.037 144.321 509.244C144.735 509.44 145.168 509.548 145.609 509.545L145.6 509.535ZM157.013 510.931C156.269 510.937 155.578 510.807 154.958 510.543C154.35 510.269 153.82 509.892 153.358 509.431C152.908 508.95 152.564 508.399 152.306 507.784C152.068 507.162 151.944 506.509 151.933 505.815C151.934 504.882 152.138 504.026 152.566 503.25C152.994 502.474 153.59 501.853 154.344 501.376C155.118 500.901 155.991 500.665 156.985 500.66C157.989 500.656 158.852 500.892 159.594 501.367C160.347 501.833 160.925 502.455 161.331 503.223C161.757 503.983 161.967 504.804 161.972 505.687C161.97 505.818 161.97 505.938 161.949 506.067C161.949 506.177 161.942 506.267 161.926 506.336L153.702 506.369C153.757 507.016 153.938 507.594 154.236 508.091C154.555 508.581 154.963 508.977 155.46 509.261C155.959 509.535 156.489 509.671 157.061 509.67C157.663 509.672 158.239 509.511 158.767 509.205C159.306 508.9 159.681 508.501 159.884 508.007L161.326 508.402C161.113 508.885 160.795 509.32 160.361 509.694C159.947 510.08 159.449 510.378 158.869 510.589C158.298 510.811 157.676 510.918 157.013 510.921L157.013 510.931ZM153.643 505.2L160.41 505.171C160.355 504.524 160.174 503.956 159.854 503.467C159.535 502.978 159.127 502.591 158.629 502.318C158.13 502.044 157.59 501.907 156.988 501.905C156.406 501.905 155.872 502.05 155.376 502.328C154.88 502.607 154.475 502.993 154.162 503.488C153.858 503.984 153.688 504.551 153.633 505.199L153.643 505.2ZM168.238 510.885C167.495 510.891 166.803 510.761 166.184 510.497C165.575 510.224 165.045 509.847 164.583 509.386C164.133 508.905 163.789 508.353 163.531 507.739C163.294 507.116 163.159 506.462 163.159 505.77C163.149 504.835 163.363 503.981 163.792 503.205C164.22 502.429 164.815 501.807 165.569 501.33C166.343 500.855 167.216 500.619 168.211 500.615C169.215 500.611 170.078 500.846 170.819 501.322C171.572 501.788 172.151 502.41 172.556 503.178C172.983 503.937 173.193 504.758 173.197 505.642C173.196 505.772 173.195 505.893 173.174 506.021C173.175 506.132 173.167 506.222 173.151 506.29L164.928 506.324C164.982 506.971 165.163 507.549 165.462 508.046C165.781 508.535 166.188 508.932 166.686 509.216C167.184 509.489 167.714 509.626 168.286 509.625C168.899 509.627 169.465 509.465 169.993 509.16C170.531 508.855 170.907 508.456 171.11 507.961L172.551 508.356C172.339 508.84 172.02 509.274 171.587 509.648C171.172 510.034 170.674 510.333 170.093 510.553C169.522 510.775 168.901 510.882 168.228 510.884L168.238 510.885ZM164.868 505.154L171.636 505.126C171.581 504.479 171.399 503.911 171.08 503.422C170.761 502.933 170.352 502.546 169.854 502.272C169.356 501.998 168.816 501.861 168.224 501.861C167.641 501.86 167.107 502.005 166.611 502.284C166.115 502.562 165.711 502.949 165.397 503.443C165.093 503.939 164.924 504.507 164.868 505.154ZM174.404 505.726C174.404 504.793 174.589 503.935 174.967 503.155C175.357 502.365 175.882 501.738 176.556 501.264C177.239 500.791 178.012 500.557 178.885 500.552C179.679 500.55 180.404 500.753 181.04 501.169C181.677 501.586 182.175 502.09 182.526 502.683L182.505 496.759L184.182 496.753L184.233 508.722C184.236 508.923 184.273 509.077 184.355 509.174C184.447 509.262 184.583 509.314 184.774 509.32L184.782 510.616C184.467 510.669 184.223 510.698 184.043 510.693C183.712 510.694 183.42 510.579 183.169 510.356C182.928 510.125 182.809 509.874 182.803 509.592L182.795 508.758C182.408 509.397 181.884 509.894 181.229 510.269C180.574 510.644 179.886 510.826 179.184 510.826C178.501 510.827 177.869 510.702 177.281 510.431C176.712 510.151 176.213 509.776 175.772 509.297C175.352 508.819 175.017 508.278 174.779 507.665C174.551 507.044 174.427 506.39 174.426 505.708L174.404 505.726ZM182.542 507.151L182.527 504.299C182.374 503.864 182.126 503.481 181.784 503.141C181.443 502.79 181.056 502.506 180.621 502.308C180.198 502.09 179.786 501.985 179.364 501.988C178.872 501.986 178.421 502.098 178.021 502.314C177.632 502.521 177.286 502.803 176.995 503.149C176.714 503.496 176.5 503.889 176.352 504.328C176.202 504.777 176.123 505.232 176.132 505.714C176.129 506.206 176.219 506.676 176.382 507.121C176.565 507.558 176.802 507.95 177.113 508.298C177.435 508.637 177.794 508.899 178.199 509.095C178.614 509.281 179.067 509.38 179.55 509.372C179.851 509.368 180.167 509.315 180.478 509.201C180.809 509.089 181.114 508.924 181.413 508.719C181.702 508.513 181.952 508.284 182.147 508.01C182.351 507.736 182.477 507.436 182.544 507.131L182.542 507.151ZM192.091 510.594L192.03 497.109L193.737 497.106L193.788 509.074L201.309 509.04L201.319 510.557L192.081 510.593L192.091 510.594ZM202.926 510.545L202.888 500.625L204.565 500.619L204.602 510.539L202.936 510.546L202.926 510.545ZM202.878 498.767L202.867 496.679L204.544 496.673L204.554 498.761L202.878 498.767ZM215.908 510.491L214.232 510.496L214.209 504.944C214.209 503.89 214.035 503.122 213.704 502.652C213.385 502.163 212.895 501.91 212.242 501.914C211.79 501.915 211.328 502.036 210.877 502.258C210.436 502.491 210.038 502.798 209.682 503.198C209.338 503.58 209.099 504.021 208.945 504.53L208.971 510.514L207.294 510.52L207.256 500.6L208.773 500.591L208.78 502.719C209.041 502.25 209.388 501.838 209.798 501.502C210.219 501.157 210.694 500.887 211.222 500.702C211.751 500.506 212.311 500.414 212.893 500.414C213.465 500.413 213.938 500.514 214.321 500.728C214.715 500.933 215.022 501.22 215.24 501.6C215.469 501.971 215.632 502.407 215.719 502.906C215.827 503.407 215.879 503.964 215.878 504.556L215.899 510.48L215.908 510.491ZM222.9 510.652C222.157 510.658 221.466 510.528 220.846 510.264C220.237 509.991 219.708 509.614 219.246 509.152C218.795 508.672 218.451 508.12 218.193 507.506C217.946 506.882 217.822 506.229 217.822 505.527C217.822 504.593 218.026 503.738 218.455 502.962C218.883 502.185 219.479 501.564 220.232 501.087C221.006 500.612 221.88 500.376 222.874 500.372C223.878 500.368 224.741 500.603 225.483 501.079C226.235 501.545 226.814 502.167 227.219 502.935C227.646 503.694 227.856 504.515 227.86 505.399C227.859 505.529 227.859 505.65 227.847 505.779C227.838 505.889 227.84 505.979 227.824 506.048L219.601 506.082C219.655 506.729 219.836 507.306 220.145 507.805C220.464 508.294 220.871 508.69 221.369 508.974C221.867 509.248 222.397 509.384 222.97 509.383C223.572 509.385 224.148 509.224 224.676 508.918C225.224 508.614 225.59 508.214 225.793 507.72L227.234 508.115C227.022 508.599 226.703 509.033 226.27 509.407C225.855 509.793 225.358 510.091 224.767 510.301C224.196 510.523 223.575 510.63 222.912 510.633L222.9 510.652ZM219.529 504.931L226.297 504.903C226.242 504.256 226.06 503.688 225.741 503.199C225.422 502.709 225.014 502.323 224.516 502.049C224.017 501.775 223.477 501.638 222.885 501.637C222.303 501.637 221.768 501.782 221.273 502.06C220.777 502.339 220.372 502.725 220.058 503.22C219.755 503.716 219.585 504.284 219.529 504.931ZM233.142 510.612C232.319 510.611 231.547 510.484 230.817 510.221C230.097 509.948 229.471 509.533 228.945 508.995L229.589 507.816C230.155 508.347 230.735 508.718 231.298 508.947C231.87 509.177 232.453 509.288 233.046 509.279C233.728 509.278 234.292 509.146 234.715 508.891C235.14 508.626 235.354 508.233 235.357 507.732C235.359 507.361 235.242 507.09 235.016 506.919C234.8 506.74 234.492 506.593 234.08 506.487C233.669 506.362 233.188 506.23 232.63 506.071C231.945 505.872 231.37 505.662 230.899 505.43C230.426 505.209 230.07 504.917 229.828 504.575C229.587 504.233 229.463 503.801 229.457 503.288C229.452 502.656 229.619 502.118 229.946 501.694C230.275 501.251 230.727 500.909 231.288 500.686C231.87 500.455 232.522 500.341 233.265 500.335C233.999 500.328 234.661 500.445 235.264 500.668C235.857 500.889 236.37 501.225 236.804 501.664L236.052 502.823C235.655 502.418 235.229 502.12 234.753 501.938C234.279 501.737 233.755 501.642 233.173 501.642C232.831 501.642 232.497 501.684 232.167 501.776C231.84 501.848 231.566 501.995 231.356 502.218C231.138 502.42 231.033 502.712 231.04 503.094C231.042 503.415 231.121 503.663 231.296 503.848C231.472 504.024 231.729 504.177 232.06 504.306C232.401 504.425 232.81 504.571 233.299 504.714C234.043 504.929 234.698 505.136 235.241 505.353C235.795 505.561 236.233 505.84 236.534 506.187C236.837 506.524 236.996 507 236.994 507.612C237.003 508.546 236.648 509.289 235.94 509.82C235.233 510.341 234.297 510.601 233.132 510.611L233.142 510.612ZM244.083 510.371L244.031 496.887L248.7 496.868C250.146 496.863 251.345 497.157 252.317 497.762C253.289 498.358 254.023 499.164 254.516 500.19C255.001 501.206 255.245 502.331 255.249 503.566C255.252 504.931 254.998 506.124 254.469 507.142C253.939 508.16 253.189 508.949 252.217 509.507C251.246 510.066 250.096 510.358 248.762 510.354L244.093 510.372L244.083 510.371ZM253.522 503.578C253.519 502.564 253.325 501.664 252.941 500.878C252.568 500.093 252.028 499.484 251.323 499.042C250.609 498.599 249.744 498.384 248.72 498.386L245.758 498.401L245.8 508.853L248.762 508.838C249.806 508.838 250.669 508.601 251.381 508.14C252.085 507.669 252.62 507.043 252.99 506.252C253.35 505.45 253.537 504.562 253.532 503.568L253.522 503.578ZM261.808 510.495C261.064 510.501 260.373 510.371 259.753 510.107C259.145 509.834 258.615 509.457 258.153 508.996C257.713 508.516 257.359 507.964 257.101 507.349C256.853 506.725 256.729 506.072 256.729 505.37C256.73 504.436 256.934 503.581 257.362 502.805C257.79 502.029 258.386 501.408 259.14 500.931C259.914 500.455 260.787 500.22 261.781 500.215C262.785 500.211 263.648 500.446 264.39 500.922C265.143 501.388 265.721 502.01 266.127 502.778C266.553 503.537 266.763 504.358 266.768 505.242C266.766 505.372 266.766 505.493 266.745 505.622C266.745 505.732 266.738 505.822 266.722 505.89L258.498 505.924C258.553 506.571 258.734 507.149 259.032 507.646C259.351 508.135 259.759 508.532 260.256 508.816C260.755 509.09 261.285 509.226 261.857 509.225C262.459 509.227 263.035 509.065 263.563 508.76C264.111 508.456 264.477 508.056 264.68 507.561L266.122 507.957C265.909 508.44 265.591 508.874 265.157 509.248C264.743 509.634 264.245 509.933 263.665 510.144C263.094 510.365 262.472 510.472 261.809 510.475L261.808 510.495ZM258.438 504.764L265.205 504.736C265.151 504.089 264.969 503.521 264.65 503.032C264.33 502.543 263.922 502.156 263.424 501.882C262.926 501.608 262.385 501.472 261.783 501.47C261.201 501.47 260.667 501.614 260.171 501.893C259.675 502.171 259.27 502.558 258.957 503.053C258.653 503.548 258.484 504.116 258.428 504.764L258.438 504.764ZM271.232 510.264L267.299 500.36L269.046 500.35L272.194 508.661L275.272 500.325L276.908 500.315L273.05 510.251L271.223 510.254L271.232 510.264ZM282.682 510.409C281.939 510.415 281.248 510.285 280.628 510.021C280.019 509.748 279.49 509.371 279.028 508.909C278.587 508.43 278.233 507.877 277.975 507.263C277.728 506.639 277.604 505.986 277.603 505.293C277.603 504.36 277.808 503.504 278.236 502.728C278.664 501.952 279.26 501.331 280.014 500.854C280.787 500.379 281.661 500.143 282.655 500.139C283.659 500.135 284.522 500.37 285.264 500.845C286.016 501.312 286.595 501.934 287.001 502.702C287.427 503.461 287.637 504.282 287.641 505.166C287.64 505.296 287.64 505.416 287.619 505.545C287.619 505.656 287.611 505.745 287.595 505.814L279.372 505.848C279.427 506.495 279.608 507.072 279.906 507.57C280.225 508.059 280.633 508.456 281.13 508.739C281.628 509.013 282.159 509.149 282.731 509.148C283.334 509.14 283.909 508.989 284.437 508.683C284.985 508.379 285.351 507.979 285.554 507.485L286.996 507.88C286.783 508.364 286.465 508.798 286.031 509.172C285.616 509.558 285.119 509.856 284.529 510.066C283.957 510.288 283.336 510.395 282.673 510.398L282.682 510.409ZM279.312 504.678L286.08 504.65C286.025 504.003 285.843 503.435 285.524 502.946C285.205 502.456 284.797 502.07 284.299 501.796C283.8 501.522 283.26 501.385 282.658 501.383C282.076 501.383 281.541 501.528 281.046 501.806C280.55 502.085 280.145 502.472 279.831 502.966C279.528 503.462 279.358 504.03 279.302 504.677L279.312 504.678ZM289.499 496.313L291.176 496.307L291.224 507.613C291.228 508.155 291.299 508.492 291.459 508.617C291.609 508.74 291.794 508.806 292.015 508.805C292.275 508.807 292.529 508.779 292.774 508.73C293.01 508.67 293.217 508.598 293.382 508.542L293.656 509.91C293.375 510.026 293.046 510.118 292.668 510.196C292.289 510.274 291.955 510.315 291.664 510.31C291.021 510.315 290.505 510.13 290.125 509.766C289.755 509.403 289.569 508.885 289.565 508.232L289.518 496.324L289.499 496.313ZM299.29 510.336C298.547 510.342 297.865 510.213 297.257 509.94C296.648 509.666 296.118 509.289 295.676 508.83C295.236 508.35 294.882 507.798 294.644 507.185C294.396 506.561 294.281 505.919 294.271 505.226C294.27 504.533 294.388 503.871 294.622 503.249C294.856 502.626 295.204 502.084 295.646 501.611C296.09 501.127 296.614 500.75 297.219 500.482C297.835 500.203 298.52 500.062 299.253 500.055C299.997 500.049 300.678 500.178 301.286 500.461C301.896 500.724 302.425 501.101 302.867 501.571C303.328 502.042 303.672 502.584 303.921 503.197C304.168 503.821 304.292 504.474 304.292 505.177C304.293 505.859 304.177 506.512 303.942 507.134C303.708 507.756 303.359 508.308 302.926 508.793C302.484 509.266 301.95 509.642 301.333 509.92C300.728 510.189 300.054 510.322 299.301 510.327L299.29 510.336ZM295.976 505.242C295.977 505.925 296.124 506.55 296.417 507.107C296.72 507.665 297.124 508.102 297.617 508.435C298.112 508.749 298.661 508.907 299.273 508.899C299.885 508.902 300.432 508.728 300.923 508.399C301.433 508.072 301.823 507.624 302.111 507.066C302.411 506.5 302.566 505.871 302.565 505.188C302.563 504.506 302.406 503.88 302.102 503.332C301.809 502.774 301.405 502.338 300.902 502.004C300.408 501.68 299.85 501.511 299.248 501.52C298.636 501.517 298.089 501.691 297.597 502.04C297.107 502.369 296.707 502.816 296.408 503.372C296.119 503.93 295.974 504.56 295.975 505.252L295.976 505.242ZM311.671 510.28C310.858 510.28 310.142 510.088 309.504 509.681C308.867 509.275 308.368 508.77 308 508.146L308.025 514.151L306.348 514.157L306.288 500.19L307.774 500.187L307.784 502.045C308.178 501.437 308.682 500.948 309.316 500.571C309.952 500.185 310.641 499.993 311.383 499.997C312.066 499.996 312.697 500.13 313.265 500.41C313.833 500.69 314.333 501.064 314.753 501.542C315.173 502.02 315.497 502.57 315.725 503.192C315.964 503.795 316.089 504.438 316.091 505.111C316.091 506.044 315.906 506.911 315.527 507.692C315.168 508.484 314.642 509.111 313.98 509.576C313.307 510.04 312.535 510.264 311.662 510.269L311.671 510.28ZM311.153 508.84C311.644 508.842 312.095 508.74 312.484 508.533C312.894 508.318 313.229 508.035 313.509 507.698C313.801 507.342 314.016 506.939 314.165 506.5C314.314 506.051 314.393 505.596 314.383 505.134C314.385 504.642 314.285 504.172 314.113 503.725C313.951 503.28 313.704 502.887 313.381 502.548C313.079 502.211 312.711 501.948 312.296 501.752C311.892 501.546 311.449 501.448 310.966 501.457C310.665 501.461 310.349 501.514 310.017 501.636C309.697 501.749 309.401 501.914 309.112 502.13C308.823 502.336 308.572 502.565 308.378 502.839C308.175 503.103 308.049 503.393 307.983 503.698L307.999 506.53C308.193 506.959 308.45 507.352 308.762 507.7C309.082 508.059 309.449 508.342 309.863 508.548C310.277 508.744 310.71 508.852 311.152 508.85L311.153 508.84ZM333.124 510.002L331.447 510.008L331.423 504.466C331.423 503.422 331.248 502.664 330.899 502.172C330.569 501.682 330.069 501.438 329.416 501.442C328.743 501.444 328.14 501.693 327.595 502.188C327.051 502.673 326.666 503.303 326.438 504.076L326.466 510.04L324.789 510.046L324.766 504.504C324.766 503.45 324.591 502.682 324.261 502.212C323.932 501.722 323.431 501.478 322.779 501.472C322.116 501.475 321.513 501.714 320.96 502.198C320.417 502.673 320.032 503.292 319.813 504.087L319.839 510.071L318.162 510.077L318.125 500.157L319.641 500.147L319.648 502.276C320.053 501.538 320.574 500.97 321.22 500.575C321.867 500.169 322.588 499.96 323.401 499.96C324.224 499.96 324.888 500.178 325.381 500.632C325.874 501.076 326.186 501.645 326.296 502.357C326.735 501.572 327.268 500.976 327.905 500.569C328.533 500.151 329.255 499.933 330.068 499.933C330.64 499.932 331.113 500.033 331.496 500.246C331.89 500.451 332.197 500.738 332.435 501.12C332.664 501.491 332.827 501.927 332.934 502.428C333.041 502.939 333.094 503.486 333.093 504.078L333.114 510.002L333.124 510.002ZM340.106 510.163C339.363 510.169 338.671 510.039 338.052 509.775C337.443 509.502 336.913 509.125 336.451 508.663C336.001 508.183 335.657 507.631 335.399 507.017C335.152 506.393 335.037 505.741 335.027 505.048C335.027 504.114 335.231 503.259 335.66 502.483C336.088 501.706 336.683 501.085 337.437 500.608C338.211 500.133 339.084 499.897 340.078 499.893C341.082 499.889 341.945 500.124 342.687 500.61C343.439 501.076 344.018 501.698 344.423 502.466C344.84 503.224 345.06 504.046 345.064 504.93C345.063 505.06 345.062 505.181 345.051 505.31C345.052 505.421 345.044 505.51 345.028 505.579L336.805 505.613C336.859 506.26 337.04 506.837 337.349 507.336C337.668 507.825 338.075 508.221 338.573 508.505C339.071 508.779 339.601 508.915 340.173 508.914C340.786 508.917 341.352 508.755 341.88 508.449C342.428 508.145 342.794 507.745 342.997 507.251L344.438 507.646C344.226 508.13 343.907 508.564 343.474 508.938C343.059 509.324 342.561 509.622 341.981 509.833C341.41 510.055 340.789 510.162 340.116 510.164L340.106 510.163ZM336.745 504.443L343.513 504.415C343.458 503.768 343.276 503.2 342.957 502.711C342.638 502.221 342.23 501.835 341.732 501.551C341.234 501.277 340.694 501.14 340.091 501.138C339.509 501.138 338.975 501.283 338.479 501.561C337.983 501.84 337.579 502.227 337.265 502.721C336.961 503.217 336.792 503.785 336.736 504.432L336.745 504.443ZM355.555 509.91L353.878 509.916L353.855 504.363C353.846 503.309 353.681 502.542 353.351 502.061C353.032 501.572 352.542 501.319 351.889 501.323C351.437 501.324 350.975 501.445 350.525 501.667C350.083 501.9 349.685 502.207 349.33 502.598C348.986 502.98 348.747 503.421 348.593 503.929L348.619 509.914L346.942 509.92L346.905 500L348.421 499.99L348.428 502.119C348.689 501.649 349.035 501.247 349.446 500.902C349.868 500.556 350.343 500.286 350.87 500.101C351.399 499.906 351.959 499.813 352.541 499.814C353.114 499.813 353.587 499.914 353.97 500.127C354.364 500.332 354.67 500.619 354.888 501C355.118 501.361 355.28 501.806 355.368 502.306C355.474 502.817 355.527 503.363 355.526 503.955L355.547 509.879L355.555 509.91ZM363.188 509.384C363.052 509.452 362.854 509.536 362.615 509.636C362.375 509.735 362.096 509.832 361.778 509.905C361.461 509.978 361.126 510.019 360.774 510.029C360.372 510.034 359.997 509.962 359.648 509.821C359.299 509.671 359.027 509.447 358.823 509.138C358.62 508.819 358.513 508.429 358.514 507.957L358.486 501.29L357.141 501.294L357.134 499.979L358.48 499.974L358.463 496.671L360.14 496.665L360.156 499.969L362.375 499.959L362.383 501.265L360.164 501.274L360.185 507.429C360.215 507.782 360.332 508.054 360.548 508.223C360.765 508.382 361.019 508.464 361.31 508.469C361.641 508.468 361.947 508.414 362.218 508.297C362.489 508.179 362.677 508.095 362.772 508.043L363.179 509.373L363.188 509.384ZM369.542 509.852L369.504 499.932L371.181 499.926L371.218 509.846L369.542 509.852ZM369.494 498.074L369.483 495.985L371.16 495.979L371.17 498.068L369.494 498.074ZM382.534 509.798L380.858 509.804L380.835 504.251C380.825 503.197 380.661 502.43 380.33 501.96C380.011 501.47 379.521 501.217 378.868 501.221C378.416 501.222 377.954 501.343 377.503 501.565C377.062 501.798 376.664 502.105 376.308 502.506C375.964 502.888 375.725 503.329 375.571 503.838L375.597 509.822L373.93 509.829L373.892 499.909L375.409 499.899L375.416 502.028C375.677 501.558 376.024 501.147 376.434 500.811C376.845 500.465 377.32 500.194 377.858 500.01C378.387 499.815 378.947 499.722 379.529 499.723C380.101 499.722 380.574 499.823 380.957 500.036C381.351 500.241 381.658 500.528 381.876 500.909C382.105 501.28 382.268 501.715 382.355 502.215C382.462 502.726 382.515 503.272 382.514 503.864L382.535 509.788L382.534 509.798ZM400.546 506.253C400.546 506.946 400.372 507.563 400.017 508.074C399.661 508.596 399.184 509.006 398.577 509.295C397.98 509.585 397.324 509.739 396.602 509.737L390.195 509.766L390.144 496.282L396.851 496.258C397.484 496.253 398.031 496.42 398.484 496.761C398.957 497.092 399.312 497.515 399.557 498.048C399.814 498.562 399.938 499.104 399.948 499.677C399.952 500.34 399.778 500.957 399.446 501.541C399.116 502.115 398.648 502.536 398.031 502.824C398.804 503.051 399.411 503.465 399.859 504.086C400.318 504.698 400.548 505.41 400.556 506.254L400.546 506.253ZM398.815 505.953C398.811 505.531 398.713 505.151 398.523 504.794C398.343 504.437 398.097 504.155 397.784 503.947C397.481 503.73 397.118 503.629 396.717 503.624L391.888 503.639L391.91 508.278L396.598 508.261C397.02 508.257 397.391 508.149 397.72 507.936C398.06 507.725 398.326 507.436 398.515 507.102C398.716 506.748 398.82 506.365 398.814 505.963L398.815 505.953ZM391.864 497.755L391.886 502.264L396.184 502.243C396.586 502.238 396.946 502.138 397.245 501.933C397.563 501.73 397.807 501.46 397.978 501.113C398.168 500.768 398.261 500.395 398.255 499.993C398.252 499.561 398.164 499.182 397.982 498.855C397.811 498.509 397.583 498.239 397.279 498.042C396.985 497.846 396.653 497.737 396.271 497.744L391.863 497.765L391.864 497.755ZM407.067 509.887C406.324 509.893 405.633 509.763 405.013 509.499C404.404 509.226 403.875 508.849 403.413 508.387C402.972 507.908 402.619 507.355 402.36 506.741C402.113 506.117 401.989 505.464 401.989 504.761C401.989 503.828 402.194 502.972 402.622 502.196C403.05 501.42 403.646 500.799 404.4 500.322C405.173 499.847 406.047 499.611 407.041 499.607C408.045 499.603 408.908 499.838 409.65 500.313C410.402 500.78 410.981 501.402 411.387 502.169C411.803 502.928 412.023 503.75 412.027 504.634C412.026 504.764 412.026 504.884 412.014 505.014C412.015 505.124 412.007 505.214 411.991 505.283L403.768 505.316C403.823 505.963 404.004 506.541 404.302 507.039C404.621 507.528 405.029 507.924 405.526 508.208C406.024 508.482 406.555 508.618 407.127 508.617C407.739 508.62 408.305 508.458 408.833 508.152C409.381 507.848 409.747 507.448 409.95 506.954L411.391 507.349C411.179 507.833 410.861 508.267 410.427 508.641C410.012 509.027 409.515 509.325 408.925 509.535C408.353 509.757 407.732 509.864 407.059 509.866L407.067 509.887ZM403.707 504.167L410.474 504.138C410.419 503.491 410.238 502.924 409.918 502.434C409.599 501.945 409.191 501.559 408.693 501.285C408.194 501.011 407.654 500.874 407.062 500.873C406.48 500.873 405.945 501.018 405.45 501.296C404.954 501.574 404.549 501.961 404.236 502.456C403.932 502.952 403.762 503.519 403.707 504.167ZM413.883 495.8L415.56 495.795L415.608 507.101C415.612 507.643 415.683 507.98 415.843 508.104C415.993 508.228 416.178 508.294 416.399 508.293C416.67 508.296 416.923 508.268 417.158 508.218C417.394 508.158 417.601 508.085 417.767 508.029L418.04 509.398C417.759 509.514 417.43 509.606 417.052 509.684C416.674 509.762 416.339 509.803 416.047 509.808C415.405 509.813 414.889 509.628 414.508 509.264C414.138 508.901 413.952 508.383 413.948 507.73L413.901 495.822L413.883 495.8ZM423.3 509.741C422.627 509.744 422.006 509.61 421.437 509.35C420.879 509.071 420.399 508.698 419.987 508.231C419.577 507.754 419.263 507.205 419.034 506.603C418.816 505.992 418.709 505.361 418.706 504.708C418.705 504.015 418.803 503.351 419.017 502.727C419.241 502.104 419.559 501.56 419.961 501.092C420.374 500.606 420.868 500.237 421.423 499.964C421.98 499.681 422.604 499.544 423.286 499.542C424.109 499.543 424.826 499.735 425.433 500.139C426.051 500.544 426.579 501.051 426.997 501.669L426.987 499.691L428.473 499.689L428.51 509.498C428.51 510.432 428.291 511.226 427.833 511.879C427.396 512.524 426.782 513.013 426.01 513.348C425.248 513.693 424.399 513.871 423.466 513.871C422.351 513.875 421.434 513.686 420.725 513.293C420.016 512.901 419.419 512.378 418.955 511.705L419.923 510.845C420.315 511.421 420.829 511.857 421.446 512.151C422.084 512.437 422.754 512.585 423.467 512.576C424.079 512.579 424.632 512.456 425.143 512.229C425.663 512.013 426.074 511.677 426.374 511.221C426.684 510.766 426.845 510.188 426.843 509.505L426.833 507.758C426.47 508.369 425.967 508.847 425.324 509.203C424.691 509.56 424.022 509.743 423.31 509.742L423.3 509.741ZM423.8 508.369C424.151 508.369 424.498 508.299 424.82 508.176C425.152 508.054 425.458 507.88 425.726 507.682C426.006 507.465 426.237 507.224 426.421 506.959C426.614 506.695 426.739 506.415 426.803 506.139L426.788 503.287C426.606 502.83 426.349 502.436 426.027 502.097C425.696 501.748 425.318 501.474 424.902 501.288C424.488 501.091 424.055 500.984 423.614 500.986C423.101 500.992 422.651 501.094 422.25 501.32C421.86 501.537 421.523 501.829 421.251 502.197C420.969 502.554 420.764 502.958 420.605 503.396C420.456 503.845 420.378 504.29 420.379 504.742C420.377 505.233 420.477 505.704 420.649 506.15C420.833 506.578 421.07 506.969 421.372 507.307C421.674 507.644 422.043 507.907 422.458 508.103C422.873 508.289 423.316 508.388 423.789 508.378L423.8 508.369ZM431.201 509.6L431.164 499.68L432.84 499.674L432.878 509.594L431.201 509.6ZM431.153 497.822L431.143 495.734L432.82 495.728L432.83 497.816L431.153 497.822ZM435.47 505.612L435.441 499.667L437.107 499.661L437.134 505.284C437.137 506.298 437.323 507.057 437.671 507.558C438.029 508.061 438.559 508.317 439.252 508.307C439.704 508.306 440.144 508.213 440.562 508.018C440.991 507.815 441.377 507.527 441.72 507.155C442.064 506.783 442.322 506.344 442.516 505.838L442.491 499.623L444.167 499.617L444.199 507.63C444.201 507.831 444.238 507.984 444.31 508.081C444.403 508.169 444.539 508.221 444.729 508.227L444.738 509.523C444.545 509.546 444.393 509.563 444.283 509.564C444.181 509.575 444.08 509.587 443.98 509.588C443.658 509.59 443.385 509.497 443.161 509.307C442.927 509.106 442.808 508.855 442.793 508.562L442.753 507.404C442.328 508.141 441.747 508.713 441.009 509.121C440.291 509.531 439.501 509.734 438.637 509.739C437.593 509.74 436.809 509.401 436.277 508.703C435.746 507.995 435.474 506.957 435.462 505.591L435.47 505.612ZM461.946 509.472L460.269 509.478L460.247 503.925C460.245 502.891 460.071 502.123 459.722 501.631C459.393 501.141 458.892 500.897 458.239 500.901C457.566 500.904 456.963 501.153 456.418 501.648C455.874 502.133 455.489 502.762 455.272 503.536L455.299 509.501L453.632 509.507L453.609 503.955C453.6 502.9 453.435 502.133 453.105 501.663C452.775 501.173 452.275 500.929 451.622 500.933C450.959 500.936 450.356 501.175 449.803 501.659C449.26 502.134 448.874 502.763 448.656 503.548L448.682 509.532L447.005 509.538L446.968 499.618L448.484 499.608L448.491 501.737C448.896 500.999 449.417 500.431 450.063 500.035C450.71 499.63 451.431 499.421 452.244 499.421C453.067 499.421 453.731 499.639 454.224 500.093C454.717 500.537 455.029 501.106 455.139 501.818C455.578 501.033 456.111 500.437 456.748 500.03C457.377 499.612 458.098 499.394 458.911 499.394C459.483 499.393 459.956 499.494 460.339 499.707C460.733 499.912 461.04 500.199 461.278 500.581C461.508 500.942 461.67 501.388 461.777 501.889C461.884 502.4 461.937 502.947 461.936 503.539L461.957 509.463L461.946 509.472Z" fill="#DDEDF9"/>
<path d="M62.5006 74.0989L892.8 72.9421L892.933 168.782L42.5242 169.967L42.4128 90.0463C42.4006 81.2594 51.4006 74.1144 62.5006 74.0989Z" fill="#256DB0" stroke="#4B7C9B" stroke-miterlimit="10"/>
<path d="M203.39 141.594L208.168 141.595C208.168 144.154 206.118 146.276 203.561 146.366C201.004 146.457 198.714 144.373 198.629 141.756C198.632 141.716 198.637 141.666 198.63 141.625L203.401 141.585L203.39 141.594Z" fill="#D0E6F7" stroke="#256DB0" stroke-width="0.29" stroke-miterlimit="10"/>
<path d="M193.827 141.612L198.598 141.572C198.618 144.133 196.577 146.266 194.028 146.377C191.469 146.488 189.168 144.422 189.053 141.803C189.057 141.753 189.06 141.713 189.054 141.672L193.827 141.602L193.827 141.612Z" fill="#D0E6F7" stroke="#256DB0" stroke-width="0.29" stroke-miterlimit="10"/>
<path d="M184.268 141.721L189.045 141.722C189.045 144.281 186.985 146.402 184.428 146.492C181.871 146.583 179.581 144.499 179.496 141.882C179.5 141.832 179.504 141.792 179.497 141.751L184.268 141.721Z" fill="#D0E6F7" stroke="#256DB0" stroke-width="0.29" stroke-miterlimit="10"/>
<path d="M248.475 137.554C248.343 136.288 247.627 135.403 247.244 134.948C242.287 129 239.918 127.26 239.918 127.26C234.093 122.994 230.289 120.206 224.12 117.245C222.039 116.243 218.568 114.588 213.795 113.143C210.596 112.174 207.619 111.546 205.51 111.093C198.969 109.666 193.831 109.182 190.183 108.888C169.428 107.238 137.738 106.803 132.776 106.736C132.726 119.881 132.675 133.035 132.625 146.179C146.054 146.193 159.483 146.197 172.911 146.212C172.948 144.629 172.864 143.277 172.889 141.703C186.858 141.844 201.181 141.383 215.151 141.524C216.095 143.021 216.827 144.891 217.772 146.388C224.611 146.345 231.45 146.303 238.298 146.271C238.743 145.768 239.179 145.253 239.624 144.75C240.57 144.721 244.511 144.529 246.923 141.585C247.427 140.976 248.662 139.457 248.473 137.574L248.475 137.554Z" fill="#D0E6F7" stroke="#256DB0" stroke-width="0.29" stroke-miterlimit="10"/>
<path d="M175.689 117.173L131.62 117.357L131.639 121.785L175.708 121.601L175.689 117.173Z" stroke="#256DB0" stroke-width="0.29" stroke-miterlimit="10"/>
<path d="M200.563 113.828L200.613 126.981C200.614 127.553 200.152 128.025 199.569 128.025L191.336 128.058C190.764 128.059 190.292 127.596 190.291 127.024L190.241 113.871C190.241 113.299 190.703 112.827 191.285 112.827L199.518 112.795C200.09 112.794 200.562 113.256 200.562 113.838L200.563 113.828Z" stroke="#256DB0" stroke-width="0.29" stroke-miterlimit="10"/>
<path d="M227.27 121.492L202.018 121.592L202.003 117.345L218.721 117.272C218.721 117.272 218.746 117.334 218.753 117.365C219.238 117.567 219.722 117.77 220.216 117.983C222.441 118.948 224.569 119.994 226.6 121.113C226.725 121.184 226.859 121.256 226.992 121.338C227.089 121.386 227.175 121.434 227.27 121.492Z" stroke="#256DB0" stroke-width="0.29" stroke-miterlimit="10"/>
<path d="M158.034 130.947L169.983 130.894C170.696 130.885 171.277 130.313 171.269 129.599L171.251 124.68C171.243 123.966 170.67 123.385 169.957 123.394L158.008 123.447C157.296 123.446 156.713 124.028 156.722 124.741L156.739 129.661C156.738 130.373 157.32 130.956 158.034 130.947Z" stroke="#256DB0" stroke-width="0.29" stroke-miterlimit="10"/>
<path d="M158.678 130.22L169.322 130.175C170.035 130.166 170.616 129.594 170.608 128.88L170.595 125.416C170.586 124.703 170.014 124.122 169.301 124.13L158.658 124.176C157.945 124.175 157.373 124.758 157.372 125.47L157.384 128.934C157.383 129.647 157.965 130.229 158.678 130.22Z" stroke="#256DB0" stroke-width="0.29" stroke-miterlimit="10"/>
<path d="M175.743 133.829L118.691 134.067L118.697 135.282L175.738 135.044L175.733 133.829L175.743 133.829Z" stroke="#256DB0" stroke-width="0.29" stroke-miterlimit="10"/>
<path d="M279.728 133.405L202.062 133.732L202.068 134.947L279.733 134.62L279.728 133.405Z" stroke="#256DB0" stroke-width="0.29" stroke-miterlimit="10"/>
<path d="M175.746 135.044L120.03 135.277L120.042 137.697L175.758 137.464L175.746 135.044Z" stroke="#256DB0" stroke-width="0.29" stroke-miterlimit="10"/>
<path d="M284.927 134.586L202.061 134.926L202.073 137.346L284.94 136.996L284.928 134.576L284.927 134.586Z" stroke="#256DB0" stroke-width="0.29" stroke-miterlimit="10"/>
<path d="M175.758 137.465L120.604 137.696L120.61 138.911L175.764 138.68L175.758 137.465Z" stroke="#256DB0" stroke-width="0.29" stroke-miterlimit="10"/>
<path d="M281.634 137.022L202.071 137.355L202.077 138.57L281.64 138.237L281.634 137.022Z" stroke="#256DB0" stroke-width="0.29" stroke-miterlimit="10"/>
<path d="M200.473 111.221L190.312 111.258C189.489 111.257 188.819 111.932 188.817 112.765L188.923 138.771C188.921 139.604 189.607 140.265 190.43 140.266L200.591 140.219C201.414 140.22 202.085 139.545 202.086 138.712L201.981 112.706C201.982 111.873 201.297 111.212 200.474 111.211L200.473 111.221ZM190.237 113.871C190.236 113.299 190.699 112.827 191.281 112.827L199.514 112.795C200.096 112.795 200.558 113.256 200.558 113.838L200.618 126.992C200.619 127.564 200.157 128.036 199.574 128.036L191.341 128.069C190.759 128.069 190.297 127.607 190.296 127.035L190.246 113.882L190.237 113.871Z" stroke="#256DB0" stroke-width="0.29" stroke-miterlimit="10"/>
<path d="M212.21 130.16L219.66 130.131C220.372 130.132 220.954 129.55 220.946 128.836L220.928 123.917C220.93 123.204 220.348 122.622 219.634 122.631L212.184 122.661C211.471 122.669 210.889 123.241 210.898 123.955L210.915 128.874C210.914 129.587 211.496 130.169 212.21 130.16Z" stroke="#256DB0" stroke-width="0.29" stroke-miterlimit="10"/>
<path d="M212.665 129.427L219.211 129.399C219.924 129.4 220.506 128.818 220.497 128.105L220.485 124.641C220.486 123.929 219.904 123.346 219.191 123.355L212.644 123.383C211.932 123.381 211.349 123.963 211.358 124.677L211.37 128.141C211.379 128.854 211.951 129.435 212.665 129.427Z" stroke="#256DB0" stroke-width="0.29" stroke-miterlimit="10"/>
<path d="M187.31 111.271L177.149 111.308C176.315 111.316 175.656 111.982 175.654 112.815L175.759 138.82C175.758 139.653 176.434 140.314 177.266 140.315L187.427 140.278C188.26 140.28 188.921 139.604 188.922 138.771L188.817 112.766C188.818 111.933 188.143 111.273 187.31 111.271ZM187.456 127.032C187.457 127.604 186.994 128.076 186.422 128.077L178.189 128.109C177.617 128.11 177.145 127.648 177.144 127.076L177.084 113.922C177.084 113.34 177.546 112.878 178.128 112.878L186.361 112.845C186.933 112.844 187.405 113.307 187.405 113.889L187.455 127.042L187.456 127.032Z" stroke="#256DB0" stroke-width="0.29" stroke-miterlimit="10"/>
<path d="M187.397 113.877L187.447 127.03C187.448 127.602 186.985 128.074 186.413 128.075L178.18 128.108C177.598 128.108 177.136 127.646 177.135 127.074L177.085 113.921C177.085 113.339 177.547 112.877 178.129 112.877L186.362 112.844C186.934 112.844 187.406 113.306 187.406 113.888L187.397 113.877Z" stroke="#256DB0" stroke-width="0.29" stroke-miterlimit="10"/>
<path d="M158.401 116.425L170.35 116.372C171.063 116.363 171.644 115.791 171.636 115.078L171.618 110.158C171.62 109.446 171.038 108.863 170.324 108.872L158.375 108.925C157.663 108.924 157.081 109.506 157.089 110.22L157.107 115.139C157.105 115.852 157.688 116.434 158.401 116.425Z" stroke="#256DB0" stroke-width="0.29" stroke-miterlimit="10"/>
<path d="M159.039 115.697L169.682 115.651C170.395 115.652 170.977 115.07 170.968 114.357L170.956 110.893C170.957 110.181 170.375 109.598 169.662 109.607L159.019 109.653C158.306 109.651 157.724 110.233 157.733 110.947L157.745 114.411C157.744 115.123 158.326 115.705 159.039 115.697Z" stroke="#256DB0" stroke-width="0.29" stroke-miterlimit="10"/>
<path d="M140.44 131.015L152.389 130.962C153.101 130.963 153.683 130.381 153.675 129.668L153.658 124.748C153.659 124.035 153.077 123.453 152.363 123.462L140.414 123.515C139.702 123.514 139.12 124.096 139.128 124.81L139.146 129.729C139.144 130.442 139.727 131.014 140.44 131.015Z" stroke="#256DB0" stroke-width="0.29" stroke-miterlimit="10"/>
<path d="M141.086 130.289L151.729 130.243C152.442 130.244 153.024 129.662 153.015 128.949L153.003 125.485C153.004 124.772 152.422 124.19 151.709 124.199L141.065 124.244C140.353 124.243 139.771 124.825 139.779 125.539L139.792 129.003C139.791 129.715 140.373 130.287 141.086 130.289Z" stroke="#256DB0" stroke-width="0.29" stroke-miterlimit="10"/>
<path d="M140.495 116.235L152.443 116.182C153.156 116.183 153.738 115.601 153.729 114.887L153.712 109.968C153.713 109.255 153.131 108.673 152.418 108.682L140.469 108.735C139.756 108.744 139.174 109.316 139.183 110.029L139.2 114.949C139.199 115.662 139.781 116.244 140.495 116.235Z" stroke="#256DB0" stroke-width="0.29" stroke-miterlimit="10"/>
<path d="M141.133 115.508L151.776 115.463C152.489 115.464 153.071 114.882 153.062 114.169L153.05 110.705C153.051 109.992 152.469 109.41 151.756 109.419L141.112 109.464C140.4 109.463 139.818 110.045 139.826 110.758L139.839 114.222C139.837 114.935 140.42 115.517 141.133 115.508Z" stroke="#256DB0" stroke-width="0.29" stroke-miterlimit="10"/>
<path d="M237.68 126.023C237.247 126.97 236.145 127.176 236.022 127.205C233.326 125.186 230.412 123.249 227.261 121.491C227.166 121.433 227.08 121.385 226.983 121.337C226.85 121.255 226.715 121.193 226.591 121.112C224.56 119.994 222.432 118.947 220.206 117.992C219.712 117.779 219.228 117.576 218.743 117.374C218.735 117.353 218.718 117.322 218.711 117.281C218.711 117.281 218.711 117.281 218.712 117.271C218.687 117.209 218.674 117.127 218.651 117.045C218.593 116.789 218.551 116.464 218.594 116.086C218.697 115.232 219.166 114.68 219.343 114.495C221.009 115.201 222.756 116.004 224.584 116.924C225.719 117.494 226.88 118.116 228.067 118.781C228.105 118.804 228.134 118.816 228.172 118.84C229.455 119.563 230.677 120.29 231.838 121.023C231.952 121.103 232.066 121.173 232.181 121.243C234.255 122.566 236.138 123.883 237.845 125.154C237.866 125.377 237.839 125.696 237.688 126.044L237.68 126.023Z" stroke="#256DB0" stroke-width="0.29" stroke-miterlimit="10"/>
<path d="M897.884 90.2431L81.0944 91.3812C69.9879 91.3966 60.9969 100.413 61.0124 111.519L61.5888 525.219C61.6043 536.325 70.6204 545.316 81.7268 545.301L898.516 544.163C909.622 544.147 918.613 535.131 918.598 524.025L918.022 110.325C918.006 99.2187 908.99 90.2276 897.884 90.2431Z" stroke="#3F79AC"/>
</g>
<path d="M58.3939 73.76L93.9963 73.7104C93.9963 73.7104 94.0202 73.7183 94.0202 73.7342L94.0652 106.021C94.0652 106.021 94.0573 106.045 94.0413 106.045L42.4908 106.117C42.4908 106.117 42.4669 106.109 42.4669 106.093L42.4441 89.7543C42.4318 80.9394 49.579 73.7723 58.3939 73.76Z" fill="#101010"/>
<path d="M94.0749 106.031L42.4766 106.103L42.5216 138.437L94.1199 138.365L94.0749 106.031Z" fill="#EED75F"/>
<path d="M94.1061 138.018L42.5078 138.09L42.5529 170.424L94.1512 170.353L94.1061 138.018Z" fill="#D15127"/>
</g>
<mask id="mask3_382_1338" style="mask-type:alpha" maskUnits="userSpaceOnUse" x="754" y="98" width="421" height="179">
<path d="M754.047 99.1012L754.109 114.148L798.245 113.964C802.445 113.947 805.867 116.907 805.882 120.571L806.469 261.745L806.794 261.744C806.584 262.603 806.476 263.489 806.48 264.4C806.509 271.242 812.893 276.765 820.736 276.733C821.781 276.728 822.795 276.627 823.779 276.437L823.78 276.72L905.963 276.378C913.116 276.349 919.022 271.704 919.981 265.699C920.07 265.123 920.118 264.53 920.116 263.928L919.954 224.983C919.939 221.496 922.494 218.52 926.071 217.434L1174.08 216.403L1174.02 201.356L916.816 202.426C915.528 202.431 914.28 202.587 913.094 202.884C907.155 204.334 902.781 209.131 902.673 214.823C902.663 214.912 902.664 215.009 902.664 215.098L902.827 254.263C902.843 258.176 899.224 261.359 894.74 261.378L832.849 261.635C827.806 261.656 823.702 258.106 823.684 253.707L823.092 111.206C823.063 104.364 816.678 98.8407 808.836 98.8734L754.047 99.1012Z" fill="#7AB5EE"/>
</mask>
<g mask="url(#mask3_382_1338)">
<rect x="719.82" y="170.053" width="172.597" height="190.299" transform="rotate(-0.23828 719.82 170.053)" fill="#8EC1F1"/>
</g>
</svg>
