<svg width="1177" height="758" viewBox="0 0 1177 758" fill="none" xmlns="http://www.w3.org/2000/svg">
<g clip-path="url(#clip0_358_1135)">
<mask id="mask0_358_1135" style="mask-type:luminance" maskUnits="userSpaceOnUse" x="928" y="171" width="207" height="499">
<path d="M962.635 171.058L1114.71 181.557C1126.5 182.368 1135.4 192.594 1134.59 204.401L1103.79 649.666C1102.98 661.472 1092.75 670.379 1080.96 669.558L928.895 659.061L962.635 171.058Z" fill="white"/>
</mask>
<g mask="url(#mask0_358_1135)">
<path d="M962.635 171.058L1114.71 181.557C1126.5 182.368 1135.4 192.594 1134.59 204.401L1103.79 649.666C1102.98 661.472 1092.75 670.379 1080.96 669.558L928.895 659.061L962.635 171.058Z" fill="#81BEF6" stroke="#4B7C9B" stroke-miterlimit="10"/>
<g opacity="0.8">
<path d="M1084.5 340.559L1084.62 338.695L985.525 331.852L985.396 333.714L1084.5 340.559Z" fill="#F7F5F4"/>
<path d="M1083.96 348.561L1084.32 343.274L985.22 336.429L984.86 341.716L1083.96 348.561Z" fill="#F7F5F4"/>
<path d="M1082.05 375.864L1082.41 370.576L983.314 363.732L982.953 369.02L1082.05 375.864Z" fill="#F7F5F4"/>
<path d="M1081.42 385.016L1081.54 383.152L982.447 376.309L982.318 378.171L1081.42 385.016Z" fill="#F7F5F4"/>
<path d="M1072.8 509.741L1073.16 504.453L974.064 497.609L973.703 502.897L1072.8 509.742L1072.8 509.741Z" fill="#F7F5F4"/>
<path d="M1070.73 539.499L1070.92 536.977L971.814 530.132L971.642 532.656L1070.73 539.499Z" fill="#F7F5F4"/>
<path d="M1069.37 559.337L1069.55 556.813L970.455 549.97L970.283 552.494L1069.38 559.339L1069.37 559.337Z" fill="#F7F5F4"/>
<path d="M1089.25 271.959L1089.42 269.516L990.314 262.671L990.145 265.114L1089.25 271.959Z" fill="#F7F5F4"/>
<path d="M1088.63 280.689L1088.85 277.565L989.744 270.72L989.529 273.844L1088.63 280.689Z" fill="#F7F5F4"/>
<path d="M1088.17 287.772L1088.27 286.28L989.166 279.435L989.064 280.927L1088.17 287.772Z" fill="#F7F5F4"/>
<path d="M1087.69 294.468L1087.76 293.366L988.658 286.521L988.577 287.621L1087.68 294.466L1087.69 294.468Z" fill="#F7F5F4"/>
<path d="M1087.08 303.199L1087.3 300.075L988.197 293.23L987.982 296.354L1087.08 303.199Z" fill="#F7F5F4"/>
<path d="M1086.48 311.8L1086.69 308.796L987.588 301.951L987.381 304.955L1086.48 311.8Z" fill="#F7F5F4"/>
<path d="M1086 318.891L1086.1 317.399L987.002 310.554L986.9 312.046L1086 318.891Z" fill="#F7F5F4"/>
<path d="M1085.45 326.921L1085.62 324.478L986.517 317.633L986.348 320.076L1085.45 326.921Z" fill="#F7F5F4"/>
<path d="M1084.84 335.653L1085.05 332.527L985.947 325.682L985.732 328.806L1084.83 335.651L1084.84 335.653Z" fill="#F7F5F4"/>
<path d="M1083.31 357.862L1083.41 356.369L984.306 349.524L984.205 351.017L1083.31 357.862Z" fill="#F7F5F4"/>
<path d="M1082.7 366.583L1082.92 363.458L983.814 356.613L983.599 359.738L1082.7 366.583Z" fill="#F7F5F4"/>
<path d="M1081.61 382.274L1081.71 380.782L982.611 373.937L982.509 375.429L1081.61 382.274Z" fill="#F7F5F4"/>
<path d="M1081.07 390.316L1081.24 387.872L982.134 381.027L981.965 383.471L1081.07 390.316Z" fill="#F7F5F4"/>
<path d="M1080.46 399.036L1080.67 395.911L981.564 389.066L981.349 392.19L1080.45 399.035L1080.46 399.036Z" fill="#F7F5F4"/>
<path d="M1079.97 406.126L1080.07 404.634L980.97 397.789L980.869 399.281L1079.97 406.126Z" fill="#F7F5F4"/>
<path d="M1079.5 412.814L1079.57 411.711L980.47 404.866L980.399 405.969L1079.51 412.815L1079.5 412.814Z" fill="#F7F5F4"/>
<path d="M1078.91 421.546L1079.11 418.42L980.009 411.575L979.794 414.7L1078.9 421.545L1078.91 421.546Z" fill="#F7F5F4"/>
<path d="M1078.3 430.146L1078.51 427.142L979.408 420.297L979.201 423.301L1078.3 430.146Z" fill="#F7F5F4"/>
<path d="M1077.81 437.236L1077.92 435.744L978.814 428.899L978.712 430.391L1077.81 437.236Z" fill="#F7F5F4"/>
<path d="M1077.25 445.266L1077.42 442.823L978.322 435.978L978.153 438.421L1077.25 445.266Z" fill="#F7F5F4"/>
<path d="M1076.66 453.999L1076.88 450.874L977.775 444.029L977.56 447.154L1076.66 453.999Z" fill="#F7F5F4"/>
<path d="M1076.16 461.077L1076.26 459.584L977.158 452.739L977.056 454.232L1076.16 461.077Z" fill="#F7F5F4"/>
<path d="M1075.7 467.775L1075.78 466.675L976.666 459.828L976.595 460.93L1075.7 467.775Z" fill="#F7F5F4"/>
<path d="M1075.11 476.377L1075.31 473.372L976.213 466.527L976.006 469.532L1075.11 476.377Z" fill="#F7F5F4"/>
<path d="M1074.61 483.467L1074.71 481.975L975.603 475.128L975.501 476.62L1074.61 483.467Z" fill="#F7F5F4"/>
<path d="M1074.13 490.556L1074.23 489.064L975.127 482.219L975.025 483.711L1074.13 490.556Z" fill="#F7F5F4"/>
<path d="M1073.66 497.255L1073.74 496.155L974.642 489.31L974.561 490.41L1073.66 497.255Z" fill="#F7F5F4"/>
<path d="M1072.51 514.018L1072.68 511.575L973.58 504.73L973.41 507.173L1072.51 514.018Z" fill="#F7F5F4"/>
<path d="M1071.91 522.739L1072.11 519.614L973.009 512.769L972.794 515.893L1071.9 522.738L1071.91 522.739Z" fill="#F7F5F4"/>
<path d="M1071.45 529.439L1071.52 528.336L972.416 521.491L972.345 522.594L1071.45 529.439Z" fill="#F7F5F4"/>
<path d="M1070.23 546.769L1070.44 543.765L971.338 536.92L971.131 539.924L1070.23 546.769Z" fill="#F7F5F4"/>
<path d="M1069.74 553.849L1069.85 552.357L970.744 545.512L970.642 547.004L1069.74 553.849Z" fill="#F7F5F4"/>
<path d="M1068.59 570.612L1068.8 567.487L969.697 560.642L969.482 563.766L1068.58 570.611L1068.59 570.612Z" fill="#F7F5F4"/>
<path d="M1068.1 577.702L1068.2 576.209L969.103 569.364L969.002 570.857L1068.1 577.702Z" fill="#F7F5F4"/>
<path d="M1067.65 584.401L1067.73 583.3L968.627 576.455L968.556 577.557L1067.66 584.402L1067.65 584.401Z" fill="#F7F5F4"/>
<path d="M1067.03 593.12L1067.24 589.994L968.134 583.149L967.919 586.274L1067.02 593.119L1067.03 593.12Z" fill="#F7F5F4"/>
<path d="M1089.67 265.851L1089.91 262.437L990.806 255.592L990.566 259.006L1089.67 265.851Z" fill="#F7F5F4"/>
</g>
<path d="M1096.68 196.619L151.9 132.659C140.819 131.909 131.228 140.284 130.478 151.365L102.535 564.12C101.784 575.201 110.159 584.792 121.24 585.542L1066.02 649.503C1077.1 650.253 1086.69 641.878 1087.44 630.797L1115.38 218.042C1116.13 206.961 1107.76 197.37 1096.68 196.619Z" stroke="#3F79AC"/>
<path d="M962.635 171.058L1114.71 181.557C1126.5 182.368 1135.4 192.594 1134.59 204.401L1103.79 649.666C1102.98 661.472 1092.75 670.379 1080.96 669.558L928.895 659.061L962.635 171.058Z" stroke="#81BEF6" stroke-miterlimit="10"/>
</g>
<mask id="mask1_358_1135" style="mask-type:luminance" maskUnits="userSpaceOnUse" x="82" y="114" width="881" height="546">
<path d="M134.4 114.91L962.804 170.992L929.763 659.055L101.359 602.973C90.2841 602.223 81.9033 592.625 82.653 581.551L112.978 133.616C113.727 122.541 123.325 114.16 134.4 114.91Z" fill="white"/>
</mask>
<g mask="url(#mask1_358_1135)">
<mask id="mask2_358_1135" style="mask-type:luminance" maskUnits="userSpaceOnUse" x="82" y="114" width="881" height="546">
<path d="M134.4 114.91L962.804 170.992L929.763 659.055L101.359 602.973C90.2841 602.223 81.9033 592.625 82.653 581.551L112.978 133.616C113.727 122.541 123.325 114.16 134.4 114.91Z" fill="white"/>
</mask>
<g mask="url(#mask2_358_1135)">
<path d="M134.4 114.91L962.804 170.992L929.763 659.055L101.359 602.973C90.2841 602.223 81.9033 592.625 82.653 581.551L112.978 133.616C113.727 122.541 123.325 114.16 134.4 114.91Z" fill="#95C8F6"/>
<path d="M966.809 187.824L151.884 132.654C140.803 131.904 131.212 140.279 130.462 151.36L102.519 564.115C101.769 575.196 110.144 584.787 121.225 585.538L936.149 640.707C947.23 641.457 956.822 633.082 957.572 622.001L985.515 209.246C986.265 198.165 977.89 188.574 966.809 187.824Z" stroke="#3F79AC"/>
</g>
</g>
</g>
<g clip-path="url(#clip1_358_1135)">
<mask id="mask3_358_1135" style="mask-type:luminance" maskUnits="userSpaceOnUse" x="845" y="0" width="215" height="502">
<path d="M845.797 13.69L997.677 0.580038C1009.46 -0.439962 1019.83 8.29004 1020.85 20.08L1059.18 464.76C1060.2 476.55 1051.47 486.93 1039.69 487.94L887.827 501.05L845.797 13.69Z" fill="white"/>
</mask>
<g mask="url(#mask3_358_1135)">
<path d="M845.797 13.69L997.677 0.580038C1009.46 -0.439962 1019.83 8.29004 1020.85 20.08L1059.18 464.76C1060.2 476.55 1051.47 486.93 1039.69 487.94L887.827 501.05L845.797 13.69Z" fill="#6CAEEC" stroke="#4B7C9B" stroke-miterlimit="10"/>
<g opacity="0.8">
<path d="M992.38 162.34L992.21 160.48L893.25 169.02L893.41 170.88L992.38 162.34Z" fill="#F7F5F4"/>
<path d="M993.078 170.331L992.618 165.051L893.648 173.591L894.108 178.871L993.078 170.331Z" fill="#F7F5F4"/>
<path d="M995.404 197.6L994.944 192.32L895.984 200.86L896.444 206.14L995.404 197.6Z" fill="#F7F5F4"/>
<path d="M996.2 206.74L996.03 204.88L897.07 213.42L897.23 215.28L996.2 206.74Z" fill="#F7F5F4"/>
<path d="M1006.94 331.301L1006.48 326.021L907.516 334.561L907.976 339.841L1006.95 331.301H1006.94Z" fill="#F7F5F4"/>
<path d="M1009.5 361.02L1009.29 358.5L910.32 367.04L910.54 369.56L1009.5 361.02Z" fill="#F7F5F4"/>
<path d="M1011.22 380.831L1011 378.311L912.039 386.851L912.259 389.371L1011.23 380.831H1011.22Z" fill="#F7F5F4"/>
<path d="M986.477 93.8306L986.267 91.3906L887.297 99.9306L887.507 102.371L986.477 93.8306Z" fill="#F7F5F4"/>
<path d="M987.217 102.551L986.947 99.4307L887.977 107.971L888.247 111.091L987.217 102.551Z" fill="#F7F5F4"/>
<path d="M987.834 109.62L987.704 108.13L888.734 116.67L888.864 118.16L987.834 109.62Z" fill="#F7F5F4"/>
<path d="M988.406 116.31L988.306 115.21L889.336 123.75L889.426 124.85L988.396 116.31H988.406Z" fill="#F7F5F4"/>
<path d="M989.146 125.03L988.876 121.91L889.906 130.45L890.176 133.57L989.146 125.03Z" fill="#F7F5F4"/>
<path d="M989.894 133.62L989.634 130.62L890.664 139.16L890.924 142.16L989.894 133.62Z" fill="#F7F5F4"/>
<path d="M990.514 140.7L990.384 139.21L891.414 147.75L891.544 149.24L990.514 140.7Z" fill="#F7F5F4"/>
<path d="M991.211 148.72L991.001 146.28L892.031 154.82L892.241 157.26L991.211 148.72Z" fill="#F7F5F4"/>
<path d="M991.961 157.44L991.681 154.32L892.711 162.86L892.981 165.98L991.951 157.44H991.961Z" fill="#F7F5F4"/>
<path d="M993.858 179.62L993.728 178.13L894.758 186.67L894.888 188.16L993.858 179.62Z" fill="#F7F5F4"/>
<path d="M994.607 188.33L994.337 185.21L895.367 193.75L895.637 196.87L994.607 188.33Z" fill="#F7F5F4"/>
<path d="M995.967 204.001L995.837 202.511L896.867 211.051L896.997 212.541L995.967 204.001Z" fill="#F7F5F4"/>
<path d="M996.664 212.03L996.454 209.59L897.484 218.13L897.694 220.57L996.664 212.03Z" fill="#F7F5F4"/>
<path d="M997.414 220.74L997.134 217.62L898.164 226.16L898.434 229.28L997.404 220.74H997.414Z" fill="#F7F5F4"/>
<path d="M998.014 227.82L997.884 226.33L898.914 234.87L899.044 236.36L998.014 227.82Z" fill="#F7F5F4"/>
<path d="M998.601 234.5L998.501 233.4L899.531 241.94L899.631 243.04L998.611 234.5H998.601Z" fill="#F7F5F4"/>
<path d="M999.344 243.221L999.064 240.101L900.094 248.641L900.364 251.761L999.334 243.221H999.344Z" fill="#F7F5F4"/>
<path d="M1000.09 251.811L999.829 248.811L900.859 257.351L901.119 260.351L1000.09 251.811Z" fill="#F7F5F4"/>
<path d="M1000.69 258.89L1000.56 257.4L901.594 265.94L901.724 267.43L1000.69 258.89Z" fill="#F7F5F4"/>
<path d="M1001.39 266.911L1001.18 264.471L902.211 273.011L902.421 275.451L1001.39 266.911Z" fill="#F7F5F4"/>
<path d="M1002.15 275.631L1001.88 272.511L902.906 281.051L903.176 284.171L1002.15 275.631Z" fill="#F7F5F4"/>
<path d="M1002.75 282.7L1002.62 281.21L903.648 289.75L903.778 291.24L1002.75 282.7Z" fill="#F7F5F4"/>
<path d="M1003.33 289.39L1003.24 288.29L904.258 296.83L904.358 297.93L1003.33 289.39Z" fill="#F7F5F4"/>
<path d="M1004.07 297.98L1003.81 294.98L904.836 303.52L905.096 306.52L1004.07 297.98Z" fill="#F7F5F4"/>
<path d="M1004.68 305.06L1004.55 303.57L905.57 312.11L905.7 313.6L1004.68 305.06Z" fill="#F7F5F4"/>
<path d="M1005.29 312.14L1005.16 310.65L906.188 319.19L906.318 320.68L1005.29 312.14Z" fill="#F7F5F4"/>
<path d="M1005.86 318.83L1005.77 317.73L906.805 326.27L906.895 327.37L1005.86 318.83Z" fill="#F7F5F4"/>
<path d="M1007.32 335.57L1007.11 333.13L908.141 341.67L908.351 344.11L1007.32 335.57Z" fill="#F7F5F4"/>
<path d="M1008.07 344.28L1007.79 341.16L908.82 349.7L909.09 352.82L1008.06 344.28H1008.07Z" fill="#F7F5F4"/>
<path d="M1008.65 350.97L1008.55 349.87L909.578 358.41L909.678 359.51L1008.65 350.97Z" fill="#F7F5F4"/>
<path d="M1010.13 368.28L1009.87 365.28L910.898 373.82L911.158 376.82L1010.13 368.28Z" fill="#F7F5F4"/>
<path d="M1010.72 375.35L1010.59 373.86L911.625 382.4L911.755 383.89L1010.72 375.35Z" fill="#F7F5F4"/>
<path d="M1012.19 392.091L1011.91 388.971L912.938 397.511L913.208 400.631L1012.18 392.091H1012.19Z" fill="#F7F5F4"/>
<path d="M1012.8 399.171L1012.67 397.681L913.695 406.221L913.825 407.711L1012.8 399.171Z" fill="#F7F5F4"/>
<path d="M1013.36 405.861L1013.27 404.761L914.305 413.301L914.405 414.401L1013.37 405.861H1013.36Z" fill="#F7F5F4"/>
<path d="M1014.12 414.57L1013.84 411.45L914.867 419.99L915.137 423.11L1014.11 414.57H1014.12Z" fill="#F7F5F4"/>
<path d="M985.948 87.7303L985.657 84.3203L886.688 92.8603L886.977 96.2703L985.948 87.7303Z" fill="#F7F5F4"/>
</g>
<path d="M982.183 18.2442L38.8613 100.94C27.7973 101.91 19.6144 111.665 20.5843 122.729L56.7126 534.849C57.6825 545.913 67.4379 554.096 78.502 553.126L1021.82 470.43C1032.89 469.46 1041.07 459.705 1040.1 448.641L1003.97 36.5212C1003 25.4572 993.247 17.2743 982.183 18.2442Z" stroke="#3F79AC"/>
<path d="M845.797 13.69L997.677 0.580038C1009.46 -0.439962 1019.83 8.29004 1020.85 20.08L1059.18 464.76C1060.2 476.55 1051.47 486.93 1039.69 487.94L887.827 501.05L845.797 13.69Z" stroke="#72ACDD" stroke-miterlimit="10"/>
</g>
<mask id="mask4_358_1135" style="mask-type:luminance" maskUnits="userSpaceOnUse" x="0" y="13" width="889" height="561">
<path d="M18.8379 86.1159L845.966 13.6061L888.686 500.917L61.5578 573.427C50.5002 574.396 40.7377 566.208 39.7684 555.15L0.560886 107.905C-0.408473 96.8476 7.78026 87.0852 18.8379 86.1159Z" fill="white"/>
</mask>
<g mask="url(#mask4_358_1135)">
<mask id="mask5_358_1135" style="mask-type:luminance" maskUnits="userSpaceOnUse" x="0" y="13" width="889" height="561">
<path d="M18.8379 86.1159L845.966 13.6061L888.686 500.917L61.5578 573.427C50.5002 574.396 40.7377 566.208 39.7684 555.15L0.560886 107.905C-0.408473 96.8476 7.78026 87.0852 18.8379 86.1159Z" fill="white"/>
</mask>
<g mask="url(#mask5_358_1135)">
<path d="M18.8379 86.1159L845.966 13.6061L888.686 500.917L61.5578 573.427C50.5002 574.396 40.7377 566.208 39.7684 555.15L0.560886 107.905C-0.408473 96.8476 7.78026 87.0852 18.8379 86.1159Z" fill="#56A2E9"/>
<path d="M711.731 11.137L696.742 12.4932L742.085 513.636L757.074 512.28L711.731 11.137Z" fill="#6BACEA"/>
<path d="M448.517 502.755L433.398 504.123L436.707 540.694L451.826 539.326L448.517 502.755Z" fill="#5697D1"/>
<path d="M897.517 463.562L747.609 477.126L748.966 492.115L898.873 478.551L897.517 463.562Z" fill="#5697D1"/>
<path d="M717.744 167.871C724.101 167.871 729.254 162.717 729.254 156.361C729.254 150.004 724.101 144.851 717.744 144.851C711.388 144.851 706.234 150.004 706.234 156.361C706.234 162.717 711.388 167.871 717.744 167.871Z" fill="#F1EAE5"/>
<path d="M717.39 162.78C721.096 162.78 724.1 159.776 724.1 156.07C724.1 152.365 721.096 149.36 717.39 149.36C713.684 149.36 710.68 152.365 710.68 156.07C710.68 159.776 713.684 162.78 717.39 162.78Z" fill="#FFC83E"/>
<path d="M467.18 294.56L468.52 309.32L511.83 305.4C515.95 305.03 519.56 307.64 519.89 311.24L532.42 449.74L532.74 449.71C532.61 450.57 532.58 451.45 532.66 452.34C533.27 459.05 540 463.93 547.7 463.24C548.73 463.15 549.71 462.96 550.66 462.69L550.69 462.97L631.33 455.68C638.35 455.04 643.75 449.99 644.19 444.01C644.23 443.44 644.23 442.85 644.17 442.26L640.71 404.05C640.4 400.63 642.66 397.49 646.08 396.12L889.44 374.11L888.1 359.35L635.72 382.18C634.45 382.29 633.24 382.55 632.11 382.94C626.4 384.87 622.52 389.95 622.89 395.54C622.89 395.63 622.89 395.72 622.9 395.81L626.38 434.23C626.73 438.07 623.44 441.5 619.04 441.9L558.31 447.39C553.36 447.84 549.03 444.7 548.64 440.39L535.99 300.59C535.38 293.88 528.65 289 520.95 289.69L467.19 294.55L467.18 294.56Z" fill="#8EBDE6"/>
<path d="M475.116 293.818L385.203 301.953L386.559 316.942L476.472 308.807L475.116 293.818Z" fill="#8EBDE6"/>
<path d="M881.562 287.267L750.219 299.15L751.973 318.541L883.317 306.657L881.562 287.267Z" fill="#5596D0"/>
<path d="M653.369 399.43C659.726 399.43 664.879 394.277 664.879 387.92C664.879 381.563 659.726 376.41 653.369 376.41C647.013 376.41 641.859 381.563 641.859 387.92C641.859 394.277 647.013 399.43 653.369 399.43Z" fill="#F1EAE5"/>
<path d="M653.03 394.34C656.736 394.34 659.74 391.336 659.74 387.63C659.74 383.924 656.736 380.92 653.03 380.92C649.325 380.92 646.32 383.924 646.32 387.63C646.32 391.336 649.325 394.34 653.03 394.34Z" fill="#FFC83E"/>
<path d="M497.09 201.69L488.68 109.2C488.68 109.2 488.67 109.13 488.67 109.09L472.09 110.6L479.03 186.89C479.63 193.49 474.77 199.32 468.17 199.92L459.7 200.7C453.1 201.3 447.27 196.43 446.67 189.83L439.72 113.54L424.68 114.91C424.68 114.91 424.69 114.98 424.69 115.02L433.1 207.52C433.7 214.12 439.54 218.98 446.14 218.38L486.23 214.73C492.83 214.13 497.69 208.29 497.09 201.69Z" fill="#6BACEA"/>
<path d="M773.551 316.25L725.701 320.57C725.641 320.58 725.591 320.59 725.531 320.59C725.391 320.61 725.261 320.63 725.121 320.64L692.541 323.61C685.941 324.21 680.111 319.35 679.511 312.75L677.541 291.12C677.461 290.22 677.481 289.34 677.591 288.48V288.46L676.041 271.32L670.971 215.2C670.641 211.51 668.841 208.3 666.221 206.11C663.591 203.91 660.121 202.72 656.451 203.05C649.091 203.72 643.671 210.24 644.341 217.6L649.411 273.74L654.281 327.57C654.371 328.56 654.411 329.53 654.391 330.5L655.631 344.15C656.231 350.75 651.371 356.59 644.771 357.19L612.191 360.15C605.601 360.75 599.761 355.89 599.161 349.29L595.701 311.32C595.641 310.61 595.631 309.91 595.701 309.22V309.18C595.701 309.18 595.701 309.17 595.701 309.16L589.241 237.66C589.201 237.24 589.161 236.84 589.161 236.43C589.151 236.43 589.141 236.45 589.121 236.43L584.001 179.82L579.051 125.02C578.651 120.6 576.501 116.76 573.341 114.13C570.191 111.49 566.031 110.05 561.621 110.45C552.801 111.25 546.291 119.07 547.091 127.91L552.051 182.73L557.131 238.95L540.091 240.49L533.921 172.36V172.33L528.191 109.4C527.591 102.8 532.461 96.9602 539.061 96.3602L558.881 94.5602L559.341 94.5102L579.151 92.7102C585.751 92.1102 591.581 96.9702 592.181 103.57L597.911 166.51C597.951 166.96 597.971 167.4 597.961 167.84L601.591 208.02C601.701 209.18 601.741 210.33 601.721 211.47C601.771 211.43 601.831 211.4 601.891 211.36L609.731 297.99L612.551 329.19C613.161 335.97 619.151 340.98 625.911 340.37C632.681 339.75 637.671 333.76 637.051 326.98L634.231 295.77L631.411 264.5C631.411 264.5 631.401 264.44 631.401 264.41C631.331 264.06 631.281 263.71 631.251 263.35L625.521 200.42C624.921 193.82 629.791 187.98 636.391 187.38L674.361 183.92C680.961 183.32 686.791 188.18 687.391 194.78L693.121 257.72C693.141 257.99 693.161 258.25 693.161 258.51C693.171 258.56 693.171 258.61 693.171 258.66L694.871 277.49L696.691 297.58C697.001 301 700.021 303.52 703.431 303.21L735.331 300.33L771.821 297.03L773.561 316.25H773.551Z" fill="#5596D0"/>
<path d="M776.022 490.7L611.892 505.54L606.402 506.04L523.942 513.5C523.582 513.58 523.222 513.64 522.852 513.68L489.992 516.68H489.982C483.382 517.28 477.552 512.41 476.952 505.81L473.982 473.09C473.802 471.64 473.632 470.19 473.462 468.74C473.142 465.13 471.292 461.99 468.552 459.85C465.822 457.7 462.212 456.55 458.372 456.9C450.802 457.58 445.152 463.85 445.622 470.95C445.622 471.05 445.632 471.15 445.642 471.26L450.082 520.33L435.012 521.7L434.642 521.74C434.642 521.74 434.642 521.67 434.622 521.63C434.592 521.43 434.582 521.22 434.562 521.02L431.142 478.93L429.442 458.09C428.912 451.48 433.252 445.65 439.142 445.04L474.922 441.4C480.812 440.8 486.012 445.66 486.542 452.26L486.732 454.58L489.412 487.59L489.912 493.71C490.262 494.79 490.712 495.78 491.272 496.67C491.952 497.77 492.802 498.72 493.872 499.48C494.572 499.98 495.302 500.36 496.092 500.64C497.892 501.28 500.012 501.4 502.822 501.32C507.582 501.17 518.472 500.34 533.282 499.04C534.792 498.91 536.342 498.77 537.932 498.63C609.012 492.26 757.102 476.81 774.602 474.97L776.022 490.7Z" fill="#5697D1"/>
<path d="M549.024 252.43C557.822 252.43 564.954 245.298 564.954 236.5C564.954 227.702 557.822 220.57 549.024 220.57C540.226 220.57 533.094 227.702 533.094 236.5C533.094 245.298 540.226 252.43 549.024 252.43Z" fill="#F1EAE5"/>
<path d="M549.387 245.332C554.497 244.87 558.265 240.353 557.802 235.243C557.34 230.133 552.823 226.366 547.713 226.828C542.603 227.29 538.836 231.807 539.298 236.917C539.76 242.027 544.278 245.795 549.387 245.332Z" fill="#FFC83E"/>
<path d="M441.838 517.21C448.195 517.21 453.348 512.057 453.348 505.7C453.348 499.344 448.195 494.19 441.838 494.19C435.481 494.19 430.328 499.344 430.328 505.7C430.328 512.057 435.481 517.21 441.838 517.21Z" fill="#F1EAE5"/>
<path d="M441.499 512.12C445.205 512.12 448.209 509.116 448.209 505.41C448.209 501.704 445.205 498.7 441.499 498.7C437.793 498.7 434.789 501.704 434.789 505.41C434.789 509.116 437.793 512.12 441.499 512.12Z" fill="#FFC83E"/>
<path d="M62.5852 298.731L57 236.962L99.2538 233.14L100.306 244.781L70.94 247.44L72.3155 262.654L98.9953 260.244L100.048 271.885L73.3679 274.295L75.4727 297.568L62.5852 298.731ZM112.963 279.012L108.735 232.281L121.622 231.118L125.915 278.56C126.081 280.351 127.051 281.163 128.842 281.006L146.391 279.419C148.182 279.252 148.994 278.283 148.838 276.492L144.545 229.05L157.432 227.887L161.66 274.618C162.565 284.644 158.005 290.109 147.979 291.014L129.359 292.694C119.333 293.599 113.868 289.038 112.963 279.012ZM177.188 288.364L171.603 226.594L184.491 225.431L189.023 275.56L215.703 273.15L216.756 284.791L177.188 288.373V288.364ZM226.237 283.933L220.651 222.163L233.539 221L238.072 271.128L264.751 268.719L265.804 280.351L226.237 283.933Z" fill="#256DB0"/>
<path d="M67.2347 376.481L66.6069 369.502L94.3576 366.991C96.1486 366.834 96.961 365.855 96.804 364.064L96.2224 357.62C96.0655 355.894 95.2346 354.971 93.7206 354.869L75.9402 352.866C68.6472 352.081 64.6313 347.604 63.8928 339.425L63.4404 334.412C62.5357 324.386 67.0962 318.921 77.1219 318.016L97.6164 316.16L104.032 320.269L104.66 327.248L78.7005 329.593C76.9096 329.759 76.0972 330.728 76.2541 332.519L76.7803 338.335C76.928 340.006 77.7681 340.92 79.2821 341.086L97.0533 342.997C104.346 343.782 108.362 348.259 109.101 356.439L109.618 362.172C110.522 372.197 105.962 377.662 95.9362 378.567L73.6508 380.58L67.2347 376.472V376.481ZM122.967 376.13L117.382 314.36L147.459 311.637C157.484 310.732 162.95 315.293 163.854 325.318L164.944 337.31C165.848 347.336 161.288 352.801 151.262 353.706L134.073 355.257L135.854 374.948L122.967 376.112V376.13ZM133.02 343.634L149.674 342.129C151.465 341.963 152.278 340.994 152.121 339.203L150.902 325.78C150.736 323.989 149.767 323.177 147.976 323.334L131.322 324.838L133.02 343.634ZM180.056 370.969L174.471 309.2L216.725 305.378L217.777 317.019L188.411 319.678L189.546 332.205L216.226 329.796L217.278 341.437L190.599 343.847L191.891 358.165L221.248 355.506L222.301 367.138L180.047 370.96L180.056 370.969ZM234.08 366.086L228.495 304.316L270.749 300.494L271.801 312.135L242.435 314.794L243.571 327.322L270.25 324.912L271.303 336.553L244.623 338.963L245.915 353.281L275.272 350.623L276.325 362.264L234.071 366.086H234.08ZM288.105 361.193L282.519 299.423L305.968 297.3C322.797 295.777 331.974 303.43 333.497 320.259L334.522 331.541C336.045 348.37 328.392 357.546 311.562 359.07L288.114 361.193H288.105ZM299.94 348.398L311.221 347.382C318.976 346.681 322.511 342.453 321.8 334.689L320.425 319.475C319.723 311.72 315.495 308.184 307.731 308.886L296.45 309.911L299.93 348.407L299.94 348.398Z" fill="#DDEDF9"/>
<path d="M72.5483 464.404L85.5282 403.391L105.219 401.609L128.936 459.299L127.542 461.865L116.805 462.834L111.913 450.639L87.7438 452.827L85.1127 465.696L74.367 466.666L72.5391 464.395L72.5483 464.404ZM90.181 440.881L107.37 439.33L97.1417 414.081L95.7108 414.211L90.181 440.881ZM138.112 460.914L132.527 399.144L145.415 397.981L147.602 422.15L170.516 420.082L168.328 395.913L181.215 394.75L186.801 456.52L173.913 457.683L171.568 431.723L148.655 433.801L151 459.76L138.112 460.923V460.914ZM201.488 455.181L195.903 393.412L238.157 389.59L239.209 401.231L209.852 403.89L210.988 416.426L237.668 414.017L238.72 425.658L212.04 428.068L213.333 442.386L242.69 439.727L243.742 451.359L201.488 455.181ZM249.567 448.396L262.547 387.383L282.238 385.602L305.955 443.291L304.561 445.857L293.815 446.827L288.922 434.631L264.754 436.819L262.122 449.688L251.377 450.658L249.549 448.387L249.567 448.396ZM267.209 424.864L284.399 423.313L274.17 398.064L272.739 398.194L267.209 424.864ZM315.14 444.897L309.555 383.127L333.004 381.004C349.833 379.481 359.01 387.134 360.533 403.963L361.548 415.245C363.072 432.074 355.419 441.251 338.589 442.774L315.14 444.897ZM326.976 432.093L338.257 431.068C346.011 430.366 349.547 426.138 348.846 418.383L347.47 403.16C346.768 395.406 342.54 391.87 334.776 392.581L323.495 393.605L326.976 432.102V432.093Z" fill="#256DB0"/>
<path d="M86.5656 504.46L87.7756 517.9L86.0756 518.05L85.5256 511.94L78.1256 512.61L78.6756 518.72L76.9756 518.87L75.7656 505.44L77.4656 505.29L77.9856 511.1L85.3856 510.43L84.8556 504.62L86.5556 504.47L86.5656 504.46ZM90.7356 517.63L89.8456 507.75L91.5156 507.6L92.4056 517.48L90.7356 517.63ZM89.6756 505.9L89.4856 503.82L91.1556 503.67L91.3456 505.75L89.6756 505.9ZM99.0456 516.99C98.3756 517.05 97.7456 516.97 97.1556 516.76C96.5756 516.53 96.0656 516.2 95.6156 515.77C95.1656 515.33 94.8056 514.81 94.5256 514.23C94.2556 513.64 94.0956 513.02 94.0356 512.37C93.9756 511.68 94.0256 511.01 94.1756 510.37C94.3456 509.73 94.6156 509.16 94.9756 508.66C95.3456 508.14 95.7956 507.73 96.3356 507.41C96.8656 507.08 97.4756 506.89 98.1556 506.83C98.9756 506.76 99.7056 506.89 100.346 507.24C100.996 507.59 101.566 508.05 102.036 508.63L101.856 506.66L103.336 506.53L104.216 516.29C104.296 517.22 104.146 518.03 103.746 518.72C103.366 519.4 102.806 519.94 102.066 520.34C101.336 520.75 100.516 521 99.5756 521.08C98.4656 521.18 97.5356 521.07 96.7956 520.74C96.0556 520.41 95.4156 519.94 94.8956 519.31L95.7856 518.37C96.2256 518.92 96.7756 519.3 97.4156 519.54C98.0756 519.77 98.7556 519.86 99.4656 519.79C100.066 519.74 100.616 519.57 101.096 519.3C101.596 519.04 101.976 518.67 102.236 518.19C102.516 517.71 102.616 517.12 102.556 516.44L102.396 514.7C102.086 515.34 101.626 515.86 101.016 516.28C100.416 516.69 99.7656 516.93 99.0556 516.99H99.0456ZM99.4356 515.58C99.7856 515.55 100.126 515.45 100.436 515.3C100.756 515.14 101.036 514.95 101.296 514.73C101.556 514.49 101.766 514.23 101.926 513.95C102.096 513.67 102.196 513.39 102.236 513.1L101.976 510.26C101.756 509.82 101.466 509.45 101.116 509.14C100.756 508.82 100.356 508.58 99.9256 508.43C99.4956 508.26 99.0556 508.2 98.6156 508.24C98.1056 508.29 97.6656 508.43 97.2856 508.69C96.9156 508.94 96.6056 509.26 96.3656 509.65C96.1256 510.03 95.9456 510.44 95.8356 510.9C95.7256 511.36 95.6856 511.81 95.7256 512.26C95.7656 512.75 95.9056 513.21 96.1156 513.64C96.3256 514.05 96.6056 514.42 96.9356 514.73C97.2656 515.04 97.6556 515.28 98.0856 515.43C98.5156 515.58 98.9656 515.64 99.4356 515.59V515.58ZM115.476 515.39L113.816 515.54L113.316 510.01C113.226 509 112.976 508.26 112.566 507.79C112.166 507.32 111.636 507.11 110.966 507.17C110.536 507.21 110.116 507.36 109.686 507.63C109.276 507.9 108.926 508.24 108.636 508.66C108.346 509.07 108.146 509.53 108.036 510.05L108.576 516.01L106.916 516.16L105.666 502.35L107.336 502.2L107.886 508.26C108.216 507.52 108.696 506.92 109.326 506.45C109.966 505.97 110.686 505.7 111.466 505.63C112.056 505.58 112.566 505.63 112.966 505.82C113.386 505.98 113.736 506.25 114.006 506.6C114.276 506.96 114.486 507.38 114.636 507.88C114.796 508.36 114.896 508.9 114.956 509.49L115.486 515.39H115.476ZM130.056 503.37C129.886 503.21 129.676 503.05 129.406 502.91C129.136 502.77 128.846 502.65 128.516 502.55C128.186 502.44 127.836 502.36 127.446 502.32C127.076 502.27 126.686 502.25 126.276 502.29C125.246 502.38 124.496 502.65 124.036 503.08C123.576 503.51 123.386 504.07 123.446 504.75C123.486 505.23 123.646 505.6 123.926 505.85C124.206 506.11 124.606 506.3 125.146 506.43C125.686 506.56 126.376 506.68 127.196 506.8C128.146 506.92 128.976 507.09 129.686 507.32C130.396 507.55 130.956 507.89 131.366 508.35C131.776 508.8 132.016 509.42 132.086 510.23C132.146 510.87 132.066 511.45 131.856 511.95C131.656 512.44 131.356 512.86 130.936 513.22C130.526 513.56 130.026 513.84 129.446 514.04C128.866 514.23 128.226 514.36 127.536 514.42C126.856 514.48 126.176 514.47 125.516 514.39C124.856 514.3 124.226 514.14 123.626 513.91C123.026 513.69 122.446 513.39 121.906 513.02L122.586 511.51C122.806 511.71 123.086 511.9 123.416 512.08C123.766 512.25 124.146 512.41 124.566 512.55C124.996 512.69 125.456 512.79 125.946 512.86C126.436 512.92 126.936 512.92 127.436 512.88C128.396 512.79 129.126 512.55 129.626 512.17C130.126 511.77 130.346 511.23 130.286 510.57C130.236 510.07 130.056 509.68 129.726 509.4C129.406 509.12 128.946 508.91 128.356 508.76C127.756 508.61 127.036 508.47 126.186 508.35C125.256 508.2 124.476 508.03 123.826 507.82C123.186 507.6 122.686 507.28 122.326 506.87C121.986 506.46 121.776 505.9 121.716 505.19C121.636 504.33 121.786 503.59 122.146 502.96C122.506 502.33 123.046 501.83 123.746 501.46C124.446 501.09 125.266 500.86 126.186 500.78C126.796 500.73 127.356 500.74 127.886 500.82C128.426 500.9 128.936 501.03 129.406 501.22C129.876 501.41 130.316 501.64 130.726 501.92L130.056 503.37ZM139.726 513.39C138.916 513.46 138.186 513.33 137.516 512.98C136.846 512.63 136.306 512.17 135.886 511.58L136.426 517.56L134.756 517.71L133.496 503.8L134.976 503.67L135.146 505.52C135.486 504.88 135.946 504.35 136.546 503.92C137.146 503.48 137.816 503.23 138.556 503.16C139.236 503.1 139.876 503.18 140.466 503.41C141.056 503.64 141.586 503.97 142.046 504.41C142.506 504.85 142.876 505.37 143.156 505.97C143.446 506.55 143.626 507.18 143.686 507.85C143.776 508.78 143.656 509.66 143.356 510.47C143.056 511.29 142.596 511.96 141.976 512.48C141.346 513 140.596 513.29 139.726 513.37V513.39ZM139.076 512C139.566 511.96 140.006 511.82 140.376 511.58C140.756 511.33 141.076 511.02 141.326 510.66C141.586 510.28 141.766 509.86 141.876 509.41C141.986 508.95 142.026 508.49 141.976 508.03C141.936 507.54 141.806 507.08 141.586 506.65C141.386 506.22 141.106 505.85 140.766 505.54C140.436 505.23 140.046 505 139.616 504.84C139.196 504.68 138.746 504.61 138.266 504.66C137.966 504.69 137.656 504.77 137.336 504.92C137.026 505.06 136.746 505.25 136.476 505.49C136.206 505.72 135.976 505.97 135.806 506.26C135.626 506.54 135.516 506.84 135.486 507.15L135.746 509.97C135.976 510.38 136.256 510.75 136.606 511.07C136.956 511.4 137.346 511.65 137.776 511.82C138.206 511.98 138.646 512.05 139.086 512.01L139.076 512ZM150.566 512.41C149.826 512.48 149.126 512.41 148.486 512.2C147.856 511.98 147.296 511.65 146.796 511.23C146.306 510.79 145.916 510.27 145.606 509.68C145.316 509.08 145.136 508.44 145.066 507.75C144.986 506.82 145.116 505.95 145.476 505.14C145.836 504.33 146.376 503.66 147.086 503.12C147.816 502.58 148.666 502.27 149.656 502.18C150.656 502.09 151.536 502.25 152.316 502.66C153.106 503.06 153.736 503.63 154.206 504.36C154.696 505.08 154.976 505.88 155.056 506.76C155.066 506.89 155.076 507.01 155.066 507.14C155.076 507.25 155.076 507.34 155.066 507.41L146.876 508.15C146.986 508.79 147.216 509.35 147.556 509.82C147.916 510.28 148.356 510.64 148.876 510.88C149.396 511.11 149.936 511.2 150.506 511.15C151.106 511.1 151.666 510.89 152.166 510.54C152.676 510.19 153.016 509.76 153.176 509.25L154.646 509.52C154.476 510.02 154.196 510.48 153.796 510.89C153.416 511.31 152.946 511.65 152.386 511.91C151.836 512.18 151.226 512.34 150.566 512.4V512.41ZM146.716 506.99L153.456 506.38C153.346 505.74 153.116 505.19 152.756 504.73C152.396 504.27 151.956 503.92 151.436 503.69C150.916 503.46 150.366 503.37 149.766 503.42C149.186 503.47 148.666 503.66 148.196 503.98C147.726 504.3 147.356 504.72 147.086 505.24C146.826 505.76 146.706 506.34 146.706 506.99H146.716ZM161.746 511.4C161.006 511.47 160.306 511.4 159.666 511.19C159.036 510.97 158.476 510.64 157.976 510.22C157.486 509.78 157.096 509.26 156.786 508.67C156.496 508.07 156.306 507.43 156.246 506.74C156.156 505.81 156.296 504.94 156.656 504.13C157.016 503.32 157.556 502.65 158.266 502.11C158.996 501.57 159.846 501.26 160.836 501.17C161.836 501.08 162.716 501.24 163.496 501.65C164.286 502.05 164.916 502.62 165.386 503.35C165.876 504.07 166.156 504.87 166.236 505.75C166.246 505.88 166.256 506 166.246 506.13C166.256 506.24 166.256 506.33 166.246 506.4L158.056 507.14C158.166 507.78 158.396 508.34 158.736 508.81C159.096 509.27 159.536 509.63 160.056 509.87C160.576 510.1 161.116 510.19 161.686 510.14C162.296 510.09 162.846 509.88 163.346 509.53C163.856 509.18 164.196 508.75 164.356 508.24L165.826 508.51C165.656 509.01 165.376 509.47 164.976 509.88C164.596 510.3 164.126 510.64 163.566 510.91C163.016 511.18 162.406 511.34 161.736 511.4H161.746ZM157.896 505.98L164.636 505.37C164.526 504.73 164.296 504.18 163.936 503.72C163.576 503.26 163.136 502.91 162.616 502.68C162.096 502.45 161.546 502.36 160.956 502.41C160.376 502.46 159.856 502.65 159.386 502.97C158.916 503.29 158.546 503.71 158.276 504.23C158.016 504.75 157.896 505.33 157.896 505.98ZM167.446 505.73C167.366 504.8 167.476 503.93 167.786 503.12C168.106 502.3 168.576 501.63 169.206 501.1C169.846 500.57 170.596 500.27 171.466 500.19C172.256 500.12 172.996 500.26 173.666 500.62C174.336 500.98 174.876 501.44 175.276 502L174.746 496.1L176.416 495.95L177.496 507.87C177.516 508.07 177.566 508.22 177.656 508.31C177.756 508.39 177.896 508.43 178.086 508.42L178.206 509.71C177.896 509.79 177.656 509.84 177.476 509.85C177.146 509.88 176.846 509.79 176.576 509.59C176.316 509.38 176.176 509.14 176.146 508.86L176.066 508.03C175.736 508.7 175.256 509.24 174.636 509.67C174.016 510.1 173.346 510.34 172.646 510.4C171.966 510.46 171.326 510.39 170.716 510.17C170.126 509.94 169.596 509.61 169.116 509.17C168.656 508.73 168.276 508.22 167.986 507.63C167.706 507.03 167.526 506.39 167.466 505.71L167.446 505.73ZM175.676 506.45L175.416 503.61C175.226 503.19 174.946 502.83 174.576 502.52C174.206 502.2 173.796 501.95 173.346 501.79C172.906 501.61 172.486 501.54 172.066 501.58C171.576 501.62 171.136 501.77 170.756 502.02C170.386 502.26 170.066 502.57 169.806 502.94C169.556 503.31 169.376 503.72 169.266 504.17C169.156 504.63 169.116 505.09 169.166 505.57C169.206 506.06 169.336 506.52 169.536 506.95C169.756 507.37 170.026 507.74 170.366 508.06C170.716 508.37 171.096 508.6 171.516 508.76C171.946 508.91 172.406 508.97 172.886 508.92C173.186 508.89 173.496 508.81 173.796 508.67C174.116 508.53 174.406 508.34 174.686 508.11C174.956 507.88 175.186 507.63 175.356 507.34C175.536 507.05 175.636 506.74 175.676 506.43V506.45ZM185.486 509.06L184.266 495.63L185.966 495.48L187.046 507.4L194.536 506.72L194.676 508.23L185.476 509.06H185.486ZM196.276 508.08L195.386 498.2L197.056 498.05L197.946 507.93L196.286 508.08H196.276ZM195.216 496.35L195.026 494.27L196.696 494.12L196.886 496.2L195.216 496.35ZM209.206 506.91L207.536 507.06L207.036 501.53C206.946 500.48 206.706 499.73 206.336 499.29C205.976 498.83 205.466 498.62 204.816 498.68C204.366 498.72 203.916 498.88 203.486 499.14C203.066 499.41 202.696 499.75 202.376 500.18C202.066 500.59 201.866 501.05 201.756 501.57L202.296 507.53L200.626 507.68L199.736 497.8L201.246 497.66L201.436 499.78C201.656 499.29 201.966 498.85 202.346 498.48C202.736 498.1 203.186 497.79 203.696 497.56C204.206 497.32 204.756 497.18 205.336 497.13C205.906 497.08 206.386 497.14 206.786 497.32C207.196 497.49 207.526 497.75 207.776 498.11C208.036 498.46 208.236 498.88 208.366 499.37C208.516 499.86 208.616 500.41 208.666 501L209.196 506.9L209.206 506.91ZM216.186 506.47C215.446 506.54 214.746 506.47 214.106 506.26C213.476 506.04 212.916 505.71 212.416 505.29C211.926 504.85 211.536 504.33 211.226 503.74C210.926 503.14 210.746 502.5 210.686 501.8C210.606 500.87 210.736 500 211.096 499.19C211.456 498.38 211.996 497.71 212.706 497.17C213.436 496.63 214.286 496.32 215.276 496.23C216.276 496.14 217.156 496.3 217.936 496.71C218.726 497.11 219.356 497.68 219.826 498.41C220.316 499.13 220.596 499.93 220.676 500.81C220.686 500.94 220.696 501.06 220.696 501.19C220.696 501.3 220.706 501.39 220.696 501.46L212.506 502.2C212.616 502.84 212.846 503.4 213.196 503.87C213.556 504.33 213.996 504.69 214.516 504.93C215.036 505.16 215.576 505.25 216.146 505.2C216.746 505.15 217.306 504.94 217.806 504.59C218.326 504.24 218.656 503.81 218.816 503.3L220.286 503.57C220.116 504.07 219.836 504.53 219.436 504.94C219.056 505.36 218.586 505.7 218.016 505.96C217.466 506.23 216.856 506.39 216.196 506.45L216.186 506.47ZM212.336 501.06L219.076 500.45C218.966 499.81 218.736 499.26 218.376 498.8C218.016 498.34 217.576 497.99 217.056 497.76C216.536 497.53 215.986 497.44 215.396 497.49C214.816 497.54 214.296 497.73 213.826 498.05C213.356 498.37 212.986 498.79 212.716 499.31C212.456 499.83 212.336 500.41 212.336 501.06ZM226.386 505.55C225.566 505.62 224.786 505.56 224.036 505.36C223.296 505.15 222.636 504.79 222.066 504.3L222.606 503.07C223.216 503.55 223.826 503.87 224.406 504.05C224.996 504.23 225.586 504.29 226.176 504.23C226.856 504.17 227.406 503.99 227.806 503.7C228.206 503.4 228.386 502.99 228.346 502.49C228.316 502.12 228.176 501.86 227.936 501.71C227.706 501.55 227.386 501.43 226.966 501.36C226.546 501.27 226.056 501.18 225.486 501.07C224.786 500.93 224.196 500.77 223.706 500.58C223.216 500.4 222.836 500.14 222.566 499.82C222.296 499.5 222.136 499.08 222.086 498.57C222.026 497.94 222.146 497.39 222.436 496.94C222.726 496.47 223.146 496.09 223.686 495.82C224.246 495.54 224.886 495.37 225.626 495.3C226.356 495.23 227.026 495.29 227.646 495.46C228.256 495.63 228.796 495.92 229.266 496.32L228.616 497.54C228.186 497.17 227.736 496.91 227.246 496.77C226.756 496.61 226.226 496.56 225.646 496.61C225.306 496.64 224.976 496.71 224.656 496.83C224.336 496.93 224.076 497.1 223.886 497.34C223.686 497.56 223.606 497.86 223.646 498.24C223.676 498.56 223.776 498.8 223.966 498.97C224.156 499.13 224.426 499.26 224.766 499.36C225.116 499.45 225.536 499.56 226.036 499.66C226.796 499.81 227.466 499.96 228.026 500.13C228.596 500.29 229.056 500.53 229.386 500.85C229.716 501.16 229.916 501.62 229.966 502.23C230.056 503.16 229.766 503.93 229.106 504.52C228.446 505.1 227.536 505.44 226.376 505.55H226.386ZM237.266 504.37L236.056 490.94L240.706 490.52C242.146 490.39 243.366 490.58 244.386 491.1C245.406 491.61 246.206 492.35 246.786 493.33C247.356 494.3 247.696 495.4 247.806 496.63C247.926 497.99 247.776 499.2 247.336 500.26C246.896 501.32 246.216 502.17 245.296 502.81C244.376 503.45 243.256 503.84 241.926 503.95L237.276 504.37H237.266ZM246.086 496.79C245.996 495.78 245.726 494.9 245.276 494.15C244.836 493.4 244.246 492.84 243.506 492.46C242.756 492.08 241.876 491.94 240.856 492.03L237.906 492.3L238.846 502.71L241.796 502.44C242.836 502.35 243.676 502.04 244.346 501.52C245.006 500.99 245.486 500.32 245.786 499.5C246.076 498.67 246.186 497.77 246.096 496.78L246.086 496.79ZM254.936 502.97C254.196 503.04 253.496 502.97 252.856 502.76C252.226 502.54 251.666 502.21 251.166 501.79C250.686 501.35 250.286 500.83 249.976 500.24C249.676 499.64 249.496 499 249.436 498.3C249.356 497.37 249.486 496.5 249.846 495.69C250.206 494.88 250.746 494.21 251.456 493.67C252.186 493.13 253.036 492.82 254.026 492.73C255.026 492.64 255.906 492.8 256.686 493.21C257.476 493.61 258.106 494.18 258.576 494.91C259.066 495.63 259.346 496.43 259.426 497.31C259.436 497.44 259.446 497.56 259.436 497.69C259.446 497.8 259.446 497.89 259.436 497.96L251.246 498.7C251.356 499.34 251.586 499.9 251.926 500.37C252.286 500.83 252.726 501.19 253.246 501.43C253.766 501.66 254.306 501.75 254.876 501.7C255.476 501.65 256.036 501.44 256.536 501.09C257.056 500.74 257.386 500.31 257.546 499.8L259.016 500.07C258.846 500.57 258.566 501.03 258.166 501.44C257.786 501.86 257.316 502.2 256.756 502.46C256.206 502.73 255.596 502.89 254.936 502.95V502.97ZM251.086 497.55L257.826 496.94C257.716 496.3 257.486 495.75 257.126 495.29C256.766 494.83 256.326 494.48 255.806 494.25C255.286 494.02 254.736 493.93 254.136 493.98C253.556 494.03 253.036 494.22 252.566 494.54C252.096 494.86 251.726 495.28 251.456 495.8C251.196 496.32 251.076 496.9 251.076 497.55H251.086ZM264.306 501.93L259.536 492.4L261.276 492.24L265.126 500.25L267.476 491.68L269.106 491.53L266.116 501.76L264.296 501.92L264.306 501.93ZM275.726 501.09C274.986 501.16 274.286 501.09 273.646 500.88C273.016 500.66 272.456 500.33 271.956 499.91C271.476 499.47 271.076 498.95 270.766 498.36C270.466 497.76 270.286 497.12 270.226 496.43C270.146 495.5 270.276 494.63 270.636 493.82C270.996 493.01 271.536 492.34 272.246 491.8C272.976 491.26 273.826 490.95 274.816 490.86C275.816 490.77 276.696 490.93 277.476 491.34C278.266 491.74 278.896 492.31 279.366 493.04C279.856 493.76 280.136 494.56 280.216 495.44C280.226 495.57 280.236 495.69 280.226 495.82C280.236 495.93 280.236 496.02 280.226 496.09L272.036 496.83C272.146 497.47 272.376 498.03 272.716 498.5C273.076 498.96 273.516 499.32 274.036 499.56C274.556 499.79 275.096 499.88 275.666 499.83C276.266 499.77 276.826 499.57 277.326 499.22C277.846 498.87 278.176 498.44 278.336 497.93L279.806 498.2C279.636 498.7 279.356 499.16 278.956 499.57C278.576 499.99 278.106 500.33 277.536 500.59C276.986 500.86 276.376 501.02 275.716 501.08L275.726 501.09ZM271.876 495.67L278.616 495.06C278.506 494.42 278.276 493.87 277.916 493.41C277.556 492.95 277.116 492.6 276.596 492.37C276.076 492.14 275.526 492.05 274.926 492.1C274.346 492.15 273.826 492.34 273.356 492.66C272.886 492.98 272.516 493.4 272.246 493.92C271.986 494.44 271.866 495.02 271.866 495.67H271.876ZM281.306 486.46L282.976 486.31L283.996 497.57C284.046 498.11 284.146 498.44 284.316 498.55C284.476 498.66 284.666 498.71 284.886 498.69C285.146 498.67 285.396 498.62 285.636 498.55C285.866 498.47 286.066 498.38 286.226 498.31L286.616 499.65C286.346 499.79 286.026 499.91 285.656 500.02C285.286 500.13 284.956 500.2 284.666 500.22C284.026 500.28 283.496 500.14 283.086 499.81C282.686 499.48 282.456 498.98 282.396 498.33L281.326 486.47L281.306 486.46ZM292.266 499.59C291.526 499.66 290.836 499.59 290.206 499.37C289.576 499.15 289.016 498.82 288.536 498.4C288.056 497.96 287.656 497.44 287.366 496.85C287.066 496.25 286.896 495.62 286.826 494.93C286.766 494.24 286.826 493.57 287.006 492.93C287.186 492.29 287.486 491.72 287.886 491.21C288.286 490.69 288.776 490.27 289.356 489.95C289.946 489.62 290.616 489.42 291.346 489.35C292.086 489.28 292.776 489.35 293.406 489.58C294.036 489.79 294.596 490.12 295.076 490.55C295.576 490.98 295.966 491.49 296.266 492.08C296.566 492.68 296.746 493.32 296.806 494.02C296.866 494.7 296.806 495.36 296.626 496C296.446 496.64 296.146 497.22 295.756 497.74C295.356 498.25 294.856 498.67 294.266 499C293.686 499.32 293.026 499.51 292.276 499.58L292.266 499.59ZM288.526 494.8C288.586 495.48 288.786 496.09 289.126 496.62C289.476 497.15 289.916 497.55 290.436 497.84C290.956 498.11 291.516 498.22 292.126 498.16C292.736 498.11 293.266 497.89 293.726 497.52C294.206 497.15 294.556 496.67 294.796 496.09C295.046 495.5 295.146 494.86 295.086 494.18C295.026 493.5 294.816 492.89 294.466 492.37C294.126 491.84 293.686 491.44 293.156 491.15C292.636 490.87 292.066 490.75 291.466 490.81C290.856 490.86 290.326 491.08 289.866 491.47C289.406 491.84 289.046 492.32 288.796 492.9C288.556 493.48 288.466 494.12 288.526 494.81V494.8ZM304.596 498.47C303.786 498.54 303.056 498.41 302.386 498.06C301.716 497.71 301.176 497.25 300.756 496.66L301.296 502.64L299.626 502.79L298.366 488.88L299.846 488.75L300.016 490.6C300.356 489.96 300.816 489.43 301.416 489C302.016 488.56 302.686 488.31 303.426 488.25C304.106 488.19 304.746 488.27 305.336 488.5C305.926 488.73 306.456 489.06 306.916 489.5C307.376 489.94 307.746 490.46 308.026 491.06C308.316 491.64 308.496 492.27 308.556 492.94C308.636 493.87 308.526 494.75 308.216 495.56C307.926 496.38 307.456 497.05 306.836 497.57C306.206 498.09 305.456 498.38 304.586 498.46L304.596 498.47ZM303.956 497.08C304.446 497.04 304.886 496.9 305.256 496.66C305.646 496.41 305.956 496.1 306.206 495.74C306.466 495.36 306.646 494.94 306.756 494.49C306.866 494.03 306.906 493.57 306.856 493.11C306.816 492.62 306.676 492.16 306.466 491.73C306.266 491.3 305.986 490.93 305.636 490.62C305.306 490.31 304.916 490.08 304.486 489.92C304.066 489.75 303.616 489.69 303.136 489.74C302.836 489.77 302.526 489.85 302.206 490C301.896 490.14 301.616 490.33 301.346 490.57C301.076 490.8 300.846 491.05 300.676 491.34C300.496 491.62 300.396 491.92 300.356 492.23L300.616 495.05C300.846 495.46 301.136 495.83 301.476 496.15C301.826 496.48 302.216 496.73 302.646 496.9C303.076 497.06 303.516 497.13 303.956 497.09V497.08ZM325.946 496.35L324.276 496.5L323.776 490.98C323.686 489.94 323.446 489.2 323.056 488.74C322.686 488.28 322.166 488.08 321.516 488.14C320.846 488.2 320.266 488.5 319.766 489.04C319.266 489.57 318.936 490.23 318.776 491.02L319.316 496.96L317.646 497.11L317.146 491.59C317.056 490.54 316.816 489.79 316.446 489.35C316.076 488.89 315.556 488.69 314.906 488.74C314.246 488.8 313.666 489.09 313.156 489.62C312.656 490.14 312.326 490.79 312.176 491.6L312.716 497.56L311.046 497.71L310.156 487.83L311.666 487.69L311.856 489.81C312.196 489.04 312.666 488.43 313.276 487.98C313.886 487.52 314.586 487.25 315.396 487.18C316.216 487.11 316.896 487.27 317.426 487.68C317.956 488.08 318.316 488.62 318.486 489.32C318.856 488.5 319.336 487.86 319.936 487.4C320.526 486.93 321.226 486.65 322.036 486.58C322.606 486.53 323.086 486.59 323.486 486.77C323.896 486.94 324.226 487.2 324.496 487.56C324.756 487.91 324.956 488.33 325.106 488.82C325.256 489.32 325.356 489.86 325.406 490.45L325.936 496.35H325.946ZM332.916 495.91C332.176 495.98 331.476 495.91 330.836 495.7C330.206 495.48 329.646 495.15 329.146 494.73C328.656 494.29 328.266 493.77 327.956 493.18C327.656 492.58 327.486 491.94 327.416 491.25C327.336 490.32 327.466 489.45 327.826 488.64C328.186 487.83 328.726 487.16 329.436 486.62C330.166 486.08 331.016 485.77 332.006 485.68C333.006 485.59 333.886 485.75 334.666 486.17C335.456 486.57 336.086 487.14 336.556 487.87C337.036 488.59 337.326 489.39 337.406 490.27C337.416 490.4 337.426 490.52 337.426 490.65C337.436 490.76 337.436 490.85 337.426 490.92L329.236 491.66C329.346 492.3 329.576 492.86 329.926 493.33C330.286 493.79 330.726 494.15 331.246 494.39C331.766 494.62 332.306 494.71 332.876 494.66C333.486 494.61 334.036 494.4 334.536 494.05C335.056 493.7 335.386 493.27 335.546 492.76L337.016 493.03C336.846 493.53 336.566 493.99 336.166 494.4C335.786 494.82 335.316 495.16 334.756 495.42C334.206 495.69 333.596 495.85 332.926 495.91H332.916ZM329.076 490.5L335.816 489.89C335.706 489.25 335.476 488.7 335.116 488.24C334.756 487.78 334.316 487.43 333.796 487.19C333.276 486.96 332.726 486.87 332.126 486.92C331.546 486.97 331.026 487.16 330.556 487.48C330.086 487.8 329.716 488.22 329.446 488.74C329.186 489.26 329.066 489.84 329.066 490.49L329.076 490.5ZM348.286 494.33L346.616 494.48L346.116 488.95C346.016 487.9 345.786 487.15 345.416 486.7C345.056 486.24 344.546 486.03 343.896 486.09C343.446 486.13 342.996 486.29 342.566 486.55C342.146 486.82 341.776 487.16 341.456 487.58C341.146 487.99 340.946 488.45 340.836 488.97L341.376 494.93L339.706 495.08L338.816 485.2L340.326 485.06L340.516 487.18C340.736 486.69 341.046 486.26 341.426 485.88C341.816 485.5 342.266 485.19 342.776 484.96C343.286 484.72 343.836 484.58 344.416 484.53C344.986 484.48 345.466 484.54 345.866 484.72C346.276 484.89 346.606 485.15 346.856 485.51C347.116 485.85 347.316 486.28 347.446 486.77C347.596 487.27 347.696 487.81 347.746 488.4L348.276 494.3L348.286 494.33ZM355.846 493.15C355.716 493.23 355.526 493.33 355.296 493.45C355.066 493.57 354.796 493.69 354.486 493.79C354.176 493.89 353.846 493.96 353.496 494C353.096 494.04 352.716 494 352.356 493.89C351.996 493.77 351.706 493.57 351.476 493.28C351.246 492.98 351.106 492.6 351.066 492.13L350.466 485.49L349.126 485.61L349.006 484.3L350.346 484.18L350.046 480.89L351.716 480.74L352.016 484.03L354.226 483.83L354.346 485.13L352.136 485.33L352.686 491.46C352.746 491.81 352.886 492.07 353.116 492.22C353.346 492.36 353.606 492.42 353.896 492.4C354.226 492.37 354.526 492.29 354.786 492.15C355.046 492.01 355.226 491.91 355.316 491.85L355.836 493.14L355.846 493.15ZM362.216 493.07L361.326 483.19L362.996 483.04L363.886 492.92L362.216 493.07ZM361.156 481.34L360.966 479.26L362.636 479.11L362.826 481.19L361.156 481.34ZM375.156 491.9L373.486 492.05L372.986 486.52C372.886 485.47 372.656 484.72 372.286 484.28C371.926 483.82 371.416 483.61 370.766 483.67C370.316 483.71 369.866 483.87 369.436 484.13C369.016 484.4 368.646 484.74 368.326 485.17C368.016 485.58 367.816 486.04 367.706 486.56L368.246 492.52L366.586 492.67L365.696 482.79L367.206 482.65L367.396 484.77C367.616 484.28 367.926 483.84 368.306 483.47C368.686 483.09 369.136 482.78 369.656 482.55C370.166 482.31 370.716 482.17 371.296 482.12C371.866 482.07 372.346 482.13 372.746 482.31C373.156 482.48 373.486 482.74 373.736 483.1C373.996 483.45 374.196 483.87 374.326 484.36C374.476 484.86 374.576 485.4 374.626 485.99L375.156 491.89V491.9ZM392.796 486.82C392.856 487.51 392.736 488.14 392.426 488.68C392.116 489.23 391.676 489.68 391.096 490.02C390.526 490.36 389.886 490.57 389.166 490.63L382.786 491.21L381.576 477.78L388.256 477.18C388.886 477.12 389.446 477.24 389.926 477.54C390.426 477.83 390.816 478.22 391.106 478.73C391.406 479.22 391.576 479.75 391.636 480.32C391.696 480.98 391.576 481.61 391.296 482.22C391.016 482.82 390.586 483.28 389.996 483.62C390.786 483.78 391.426 484.14 391.926 484.72C392.436 485.29 392.726 485.98 392.806 486.82H392.796ZM391.046 486.67C391.006 486.25 390.876 485.88 390.656 485.54C390.446 485.2 390.176 484.94 389.846 484.76C389.526 484.57 389.156 484.5 388.756 484.53L383.946 484.96L384.366 489.58L389.036 489.16C389.456 489.12 389.816 488.98 390.126 488.74C390.446 488.5 390.686 488.19 390.846 487.84C391.016 487.47 391.086 487.08 391.046 486.68V486.67ZM383.416 479.1L383.826 483.59L388.106 483.2C388.506 483.16 388.856 483.03 389.136 482.8C389.436 482.57 389.656 482.28 389.796 481.92C389.956 481.56 390.016 481.18 389.976 480.78C389.936 480.35 389.816 479.98 389.606 479.67C389.406 479.34 389.156 479.09 388.836 478.92C388.526 478.75 388.186 478.67 387.806 478.71L383.416 479.11V479.1ZM399.606 489.88C398.866 489.95 398.166 489.88 397.526 489.67C396.896 489.45 396.336 489.12 395.836 488.7C395.356 488.26 394.956 487.74 394.646 487.15C394.346 486.55 394.166 485.91 394.106 485.21C394.026 484.28 394.156 483.41 394.516 482.6C394.876 481.79 395.416 481.12 396.126 480.58C396.856 480.04 397.706 479.73 398.696 479.64C399.696 479.55 400.576 479.71 401.356 480.12C402.146 480.52 402.776 481.09 403.246 481.82C403.726 482.54 404.016 483.34 404.096 484.22C404.106 484.35 404.116 484.47 404.116 484.6C404.126 484.71 404.126 484.8 404.116 484.87L395.926 485.61C396.036 486.25 396.266 486.81 396.606 487.28C396.966 487.74 397.406 488.1 397.926 488.34C398.446 488.57 398.986 488.66 399.556 488.61C400.166 488.56 400.716 488.35 401.216 488C401.736 487.65 402.066 487.22 402.226 486.71L403.696 486.98C403.526 487.48 403.246 487.94 402.846 488.35C402.466 488.77 401.996 489.11 401.426 489.37C400.876 489.64 400.266 489.8 399.596 489.86L399.606 489.88ZM395.766 484.47L402.506 483.86C402.396 483.22 402.166 482.67 401.806 482.21C401.446 481.75 401.006 481.4 400.486 481.17C399.966 480.94 399.416 480.85 398.826 480.9C398.246 480.95 397.726 481.14 397.256 481.46C396.786 481.78 396.416 482.2 396.146 482.72C395.886 483.24 395.766 483.82 395.766 484.47ZM405.186 475.26L406.856 475.11L407.876 486.37C407.926 486.91 408.026 487.24 408.196 487.35C408.356 487.46 408.546 487.51 408.766 487.49C409.036 487.47 409.286 487.42 409.516 487.35C409.746 487.27 409.946 487.18 410.106 487.11L410.496 488.45C410.226 488.59 409.906 488.71 409.536 488.82C409.166 488.93 408.836 489 408.546 489.03C407.906 489.09 407.376 488.95 406.966 488.62C406.566 488.29 406.336 487.79 406.276 487.14L405.206 475.28L405.186 475.26ZM415.766 488.34C415.096 488.4 414.466 488.32 413.876 488.11C413.296 487.88 412.786 487.55 412.336 487.12C411.886 486.68 411.526 486.16 411.246 485.58C410.976 484.99 410.816 484.37 410.756 483.72C410.696 483.03 410.736 482.36 410.896 481.72C411.066 481.08 411.336 480.51 411.696 480.01C412.066 479.49 412.526 479.08 413.056 478.76C413.586 478.43 414.196 478.24 414.876 478.18C415.696 478.11 416.426 478.24 417.066 478.59C417.716 478.94 418.286 479.4 418.756 479.98L418.576 478.01L420.056 477.88L420.936 487.65C421.016 488.58 420.866 489.39 420.466 490.08C420.086 490.76 419.516 491.3 418.776 491.7C418.046 492.11 417.216 492.36 416.286 492.44C415.176 492.54 414.246 492.43 413.506 492.1C412.766 491.77 412.126 491.3 411.606 490.67L412.496 489.73C412.936 490.27 413.486 490.66 414.126 490.9C414.786 491.13 415.466 491.22 416.176 491.15C416.786 491.1 417.326 490.93 417.816 490.66C418.316 490.4 418.696 490.03 418.956 489.55C419.226 489.07 419.336 488.48 419.276 487.8L419.116 486.06C418.806 486.7 418.346 487.22 417.736 487.63C417.136 488.04 416.486 488.28 415.776 488.34H415.766ZM416.146 486.93C416.496 486.9 416.836 486.8 417.146 486.65C417.466 486.5 417.756 486.3 418.006 486.08C418.266 485.84 418.476 485.58 418.636 485.3C418.806 485.02 418.906 484.73 418.946 484.45L418.686 481.61C418.466 481.17 418.176 480.8 417.826 480.49C417.466 480.17 417.066 479.93 416.636 479.78C416.206 479.62 415.766 479.55 415.326 479.59C414.816 479.64 414.376 479.78 413.996 480.04C413.626 480.29 413.316 480.61 413.076 481C412.826 481.38 412.656 481.8 412.536 482.25C412.426 482.71 412.386 483.16 412.426 483.61C412.466 484.1 412.606 484.56 412.816 484.99C413.036 485.4 413.306 485.77 413.636 486.08C413.966 486.39 414.356 486.62 414.786 486.78C415.216 486.93 415.666 486.99 416.136 486.94L416.146 486.93ZM423.626 487.52L422.736 477.64L424.406 477.49L425.296 487.37L423.626 487.52ZM422.566 475.79L422.376 473.71L424.046 473.56L424.236 475.64L422.566 475.79ZM427.536 483.18L426.996 477.26L428.656 477.11L429.166 482.71C429.256 483.72 429.506 484.46 429.896 484.93C430.296 485.4 430.846 485.61 431.536 485.54C431.986 485.5 432.416 485.37 432.816 485.14C433.226 484.9 433.586 484.58 433.896 484.18C434.206 483.78 434.426 483.32 434.576 482.8L434.016 476.61L435.686 476.46L436.406 484.44C436.426 484.64 436.476 484.79 436.556 484.88C436.656 484.96 436.796 485 436.986 484.99L437.106 486.28C436.916 486.32 436.766 486.35 436.656 486.36C436.556 486.38 436.456 486.4 436.356 486.41C436.036 486.44 435.756 486.37 435.516 486.2C435.266 486.02 435.126 485.78 435.086 485.49L434.946 484.34C434.586 485.11 434.056 485.73 433.356 486.2C432.676 486.67 431.906 486.94 431.046 487.02C430.006 487.11 429.196 486.84 428.606 486.19C428.016 485.53 427.656 484.52 427.526 483.16L427.536 483.18ZM454.246 484.75L452.576 484.9L452.076 479.37C451.986 478.34 451.746 477.59 451.356 477.13C450.986 476.67 450.466 476.47 449.816 476.53C449.146 476.59 448.566 476.89 448.066 477.43C447.566 477.96 447.236 478.62 447.086 479.41L447.626 485.35L445.966 485.5L445.466 479.97C445.366 478.92 445.136 478.17 444.766 477.73C444.396 477.27 443.876 477.07 443.226 477.13C442.566 477.19 441.986 477.48 441.476 478.01C440.976 478.53 440.646 479.19 440.496 479.99L441.036 485.95L439.366 486.1L438.476 476.22L439.986 476.08L440.176 478.2C440.516 477.43 440.986 476.82 441.596 476.37C442.206 475.91 442.906 475.64 443.716 475.57C444.536 475.5 445.216 475.66 445.746 476.07C446.276 476.47 446.636 477.01 446.806 477.71C447.176 476.89 447.656 476.25 448.256 475.79C448.846 475.32 449.546 475.04 450.356 474.97C450.926 474.92 451.406 474.98 451.806 475.16C452.216 475.33 452.546 475.59 452.816 475.95C453.076 476.29 453.276 476.72 453.426 477.21C453.576 477.71 453.676 478.25 453.726 478.84L454.256 484.74L454.246 484.75Z" fill="#DDEDF9"/>
<path d="M18.8613 85.317L845.989 12.8073L854.359 108.282L7.19784 182.548L0.218353 102.932C-0.549003 94.1784 7.8037 86.2864 18.8613 85.317Z" fill="#256DB0" stroke="#4B7C9B" stroke-miterlimit="10"/>
<path d="M165.029 140.453L169.789 140.043C170.009 142.593 168.149 144.883 165.609 145.193C163.069 145.503 160.609 143.623 160.299 141.023C160.299 140.983 160.299 140.933 160.289 140.893L165.039 140.443L165.029 140.453Z" fill="#D0E6F7" stroke="#256DB0" stroke-width="0.29" stroke-miterlimit="10"/>
<path d="M155.508 141.294L160.258 140.844C160.498 143.394 158.648 145.694 156.118 146.024C153.578 146.354 151.108 144.494 150.768 141.894C150.768 141.844 150.768 141.804 150.758 141.764L155.508 141.284V141.294Z" fill="#D0E6F7" stroke="#256DB0" stroke-width="0.29" stroke-miterlimit="10"/>
<path d="M145.992 142.223L150.752 141.813C150.972 144.363 149.102 146.653 146.562 146.963C144.022 147.273 141.562 145.393 141.252 142.793C141.252 142.743 141.252 142.703 141.242 142.663L145.992 142.223Z" fill="#D0E6F7" stroke="#256DB0" stroke-width="0.29" stroke-miterlimit="10"/>
<path d="M209.6 132.553C209.36 131.303 208.57 130.483 208.15 130.063C202.7 124.563 200.19 123.033 200.19 123.033C194.02 119.283 189.99 116.833 183.59 114.413C181.43 113.593 177.83 112.243 172.95 111.213C169.68 110.523 166.66 110.153 164.52 109.883C157.88 109.023 152.72 108.983 149.06 109.003C128.24 109.143 96.6297 111.433 91.6797 111.793C92.7597 124.893 93.8397 138.003 94.9197 151.103C108.3 149.963 121.68 148.813 135.06 147.673C134.96 146.093 134.76 144.753 134.65 143.183C148.58 142.123 162.81 140.433 176.74 139.373C177.81 140.783 178.7 142.583 179.77 143.993C186.58 143.363 193.39 142.733 200.21 142.113C200.61 141.573 201 141.023 201.4 140.483C202.34 140.373 206.25 139.843 208.4 136.703C208.85 136.053 209.95 134.433 209.6 132.573V132.553Z" fill="#D0E6F7" stroke="#256DB0" stroke-width="0.29" stroke-miterlimit="10"/>
<path d="M135.343 118.503L91.4531 122.473L91.8531 126.883L135.743 122.913L135.343 118.503Z" stroke="#256DB0" stroke-width="0.29" stroke-miterlimit="10"/>
<path d="M159.831 113.033L161.011 126.133C161.061 126.703 160.641 127.213 160.061 127.263L151.861 128.003C151.291 128.053 150.781 127.633 150.731 127.063L149.551 113.963C149.501 113.393 149.921 112.883 150.501 112.833L158.701 112.093C159.271 112.043 159.781 112.463 159.831 113.043V113.033Z" stroke="#256DB0" stroke-width="0.29" stroke-miterlimit="10"/>
<path d="M187.1 118.373L161.95 120.643L161.57 116.413L178.22 114.903C178.22 114.903 178.25 114.963 178.26 114.993C178.76 115.153 179.26 115.313 179.77 115.483C182.07 116.253 184.28 117.113 186.4 118.053C186.53 118.113 186.67 118.173 186.81 118.243C186.91 118.283 187 118.323 187.1 118.373Z" stroke="#256DB0" stroke-width="0.29" stroke-miterlimit="10"/>
<path d="M118.932 133.744L130.832 132.664C131.542 132.594 132.072 131.974 132.002 131.264L131.562 126.364C131.492 125.654 130.872 125.124 130.162 125.194L118.262 126.274C117.552 126.334 117.022 126.964 117.092 127.674L117.532 132.574C117.592 133.284 118.222 133.814 118.932 133.744Z" stroke="#256DB0" stroke-width="0.29" stroke-miterlimit="10"/>
<path d="M119.512 132.964L130.112 132.004C130.822 131.934 131.352 131.314 131.282 130.604L130.972 127.154C130.902 126.444 130.282 125.914 129.572 125.984L118.972 126.944C118.262 127.004 117.742 127.634 117.802 128.344L118.112 131.794C118.172 132.504 118.802 133.034 119.512 132.964Z" stroke="#256DB0" stroke-width="0.29" stroke-miterlimit="10"/>
<path d="M136.82 135.094L80 140.234L80.11 141.444L136.92 136.304L136.81 135.094H136.82Z" stroke="#256DB0" stroke-width="0.29" stroke-miterlimit="10"/>
<path d="M240.389 125.733L163.039 132.733L163.149 133.943L240.499 126.943L240.389 125.733Z" stroke="#256DB0" stroke-width="0.29" stroke-miterlimit="10"/>
<path d="M136.927 136.304L81.4375 141.324L81.6575 143.734L137.147 138.714L136.927 136.304Z" stroke="#256DB0" stroke-width="0.29" stroke-miterlimit="10"/>
<path d="M245.671 126.463L163.141 133.923L163.361 136.333L245.891 128.863L245.671 126.453V126.463Z" stroke="#256DB0" stroke-width="0.29" stroke-miterlimit="10"/>
<path d="M137.149 138.713L82.2188 143.683L82.3288 144.893L137.259 139.923L137.149 138.713Z" stroke="#256DB0" stroke-width="0.29" stroke-miterlimit="10"/>
<path d="M242.599 129.173L163.359 136.343L163.469 137.553L242.709 130.383L242.599 129.173Z" stroke="#256DB0" stroke-width="0.29" stroke-miterlimit="10"/>
<path d="M159.517 110.443L149.397 111.353C148.577 111.423 147.967 112.153 148.037 112.983L150.377 138.883C150.447 139.713 151.187 140.313 152.007 140.243L162.127 139.323C162.947 139.253 163.557 138.523 163.487 137.693L161.147 111.793C161.077 110.963 160.337 110.363 159.517 110.433V110.443ZM149.547 113.963C149.497 113.393 149.917 112.883 150.497 112.833L158.697 112.093C159.277 112.043 159.777 112.463 159.827 113.043L161.017 126.143C161.067 126.713 160.647 127.223 160.067 127.273L151.867 128.013C151.287 128.063 150.787 127.643 150.737 127.073L149.557 113.973L149.547 113.963Z" stroke="#256DB0" stroke-width="0.29" stroke-miterlimit="10"/>
<path d="M172.838 128.303L180.258 127.633C180.968 127.573 181.498 126.943 181.428 126.233L180.988 121.333C180.928 120.623 180.298 120.093 179.588 120.163L172.168 120.833C171.458 120.903 170.928 121.523 170.998 122.233L171.438 127.133C171.498 127.843 172.128 128.373 172.838 128.303Z" stroke="#256DB0" stroke-width="0.29" stroke-miterlimit="10"/>
<path d="M173.232 127.533L179.752 126.943C180.462 126.883 180.992 126.253 180.922 125.543L180.612 122.093C180.552 121.383 179.922 120.853 179.212 120.923L172.692 121.513C171.982 121.573 171.452 122.203 171.522 122.913L171.832 126.363C171.902 127.073 172.522 127.603 173.232 127.533Z" stroke="#256DB0" stroke-width="0.29" stroke-miterlimit="10"/>
<path d="M146.407 111.624L136.287 112.534C135.457 112.614 134.857 113.334 134.927 114.164L137.267 140.064C137.337 140.894 138.067 141.494 138.897 141.424L149.017 140.514C149.847 140.444 150.447 139.714 150.377 138.884L148.037 112.984C147.967 112.154 147.237 111.554 146.407 111.624ZM147.907 127.314C147.957 127.884 147.537 128.394 146.967 128.444L138.767 129.184C138.197 129.234 137.687 128.814 137.637 128.244L136.447 115.144C136.397 114.564 136.817 114.064 137.397 114.014L145.597 113.274C146.167 113.224 146.677 113.644 146.727 114.224L147.907 127.324V127.314Z" stroke="#256DB0" stroke-width="0.29" stroke-miterlimit="10"/>
<path d="M146.719 114.214L147.899 127.314C147.949 127.884 147.529 128.394 146.959 128.444L138.759 129.184C138.179 129.234 137.679 128.814 137.629 128.244L136.449 115.144C136.399 114.564 136.819 114.064 137.399 114.014L145.599 113.274C146.169 113.224 146.679 113.644 146.729 114.224L146.719 114.214Z" stroke="#256DB0" stroke-width="0.29" stroke-miterlimit="10"/>
<path d="M118.049 119.244L129.949 118.164C130.659 118.094 131.189 117.474 131.119 116.764L130.679 111.864C130.619 111.154 129.989 110.624 129.279 110.694L117.379 111.774C116.669 111.834 116.139 112.464 116.209 113.174L116.649 118.074C116.709 118.784 117.339 119.314 118.049 119.244Z" stroke="#256DB0" stroke-width="0.29" stroke-miterlimit="10"/>
<path d="M118.622 118.464L129.222 117.504C129.932 117.444 130.462 116.814 130.392 116.104L130.082 112.654C130.022 111.944 129.392 111.414 128.682 111.484L118.082 112.444C117.372 112.504 116.842 113.134 116.912 113.844L117.222 117.294C117.282 118.004 117.912 118.534 118.622 118.464Z" stroke="#256DB0" stroke-width="0.29" stroke-miterlimit="10"/>
<path d="M101.409 135.323L113.309 134.243C114.019 134.183 114.549 133.553 114.479 132.843L114.039 127.943C113.979 127.233 113.349 126.703 112.639 126.773L100.739 127.853C100.029 127.913 99.4987 128.543 99.5687 129.253L100.009 134.153C100.069 134.863 100.699 135.383 101.409 135.323Z" stroke="#256DB0" stroke-width="0.29" stroke-miterlimit="10"/>
<path d="M101.99 134.543L112.59 133.583C113.3 133.523 113.83 132.893 113.76 132.183L113.45 128.733C113.39 128.023 112.76 127.493 112.05 127.563L101.45 128.523C100.74 128.583 100.21 129.213 100.28 129.923L100.59 133.373C100.65 134.083 101.28 134.603 101.99 134.543Z" stroke="#256DB0" stroke-width="0.29" stroke-miterlimit="10"/>
<path d="M100.19 120.593L112.09 119.513C112.8 119.453 113.33 118.823 113.26 118.113L112.82 113.213C112.76 112.503 112.13 111.973 111.42 112.043L99.52 113.123C98.81 113.193 98.28 113.813 98.35 114.523L98.79 119.423C98.85 120.133 99.48 120.663 100.19 120.593Z" stroke="#256DB0" stroke-width="0.29" stroke-miterlimit="10"/>
<path d="M100.771 119.813L111.371 118.853C112.081 118.793 112.611 118.163 112.541 117.453L112.231 114.003C112.171 113.293 111.541 112.763 110.831 112.833L100.231 113.793C99.5209 113.853 98.9909 114.483 99.0609 115.193L99.3709 118.643C99.4309 119.353 100.061 119.883 100.771 119.813Z" stroke="#256DB0" stroke-width="0.29" stroke-miterlimit="10"/>
<path d="M197.863 121.993C197.513 122.973 196.433 123.273 196.313 123.313C193.453 121.533 190.383 119.853 187.093 118.373C186.993 118.323 186.903 118.283 186.803 118.243C186.663 118.173 186.523 118.123 186.393 118.053C184.273 117.113 182.063 116.253 179.763 115.493C179.253 115.323 178.753 115.163 178.253 115.003C178.243 114.983 178.223 114.953 178.213 114.913C178.213 114.913 178.213 114.913 178.213 114.903C178.183 114.843 178.163 114.763 178.133 114.683C178.053 114.433 177.983 114.113 177.993 113.733C178.023 112.873 178.443 112.283 178.603 112.083C180.323 112.643 182.133 113.293 184.033 114.053C185.213 114.523 186.423 115.043 187.663 115.603C187.703 115.623 187.733 115.633 187.773 115.653C189.113 116.263 190.393 116.883 191.613 117.513C191.733 117.583 191.853 117.643 191.973 117.703C194.153 118.843 196.143 119.993 197.953 121.113C197.993 121.333 197.993 121.653 197.873 122.013L197.863 121.993Z" stroke="#256DB0" stroke-width="0.29" stroke-miterlimit="10"/>
<path d="M852.546 29.6062L38.8769 100.936C27.8129 101.906 19.63 111.662 20.5999 122.726L56.7282 534.845C57.6981 545.909 67.4536 554.092 78.5176 553.122L892.187 481.792C903.251 480.822 911.434 471.067 910.464 460.003L874.336 47.8832C873.366 36.8192 863.61 28.6363 852.546 29.6062Z" stroke="#3F79AC"/>
</g>
<path d="M14.747 85.3317L50.2134 82.2226C50.2134 82.2226 50.2379 82.2284 50.2393 82.2443L53.0589 114.408C53.0589 114.408 53.053 114.432 53.0371 114.434L1.68353 118.936C1.68353 118.936 1.65902 118.93 1.65762 118.914L0.230772 102.638C-0.539032 93.8564 5.96574 86.1015 14.747 85.3317Z" fill="#101010"/>
<path d="M53.0653 114.417L1.66406 118.923L4.48784 151.134L55.8891 146.628L53.0653 114.417Z" fill="#EED75F"/>
<path d="M55.8466 146.283L4.44531 150.789L7.26909 183L58.6703 178.494L55.8466 146.283Z" fill="#D15127"/>
</g>
<mask id="mask6_358_1135" style="mask-type:alpha" maskUnits="userSpaceOnUse" x="710" y="45" width="429" height="178">
<path d="M709.999 50.7942L711.355 65.7799L755.311 61.8039C759.494 61.4255 763.157 64.0803 763.487 67.7298L776.205 208.331L776.528 208.302C776.394 209.176 776.362 210.068 776.444 210.976C777.061 217.79 783.896 222.744 791.707 222.037C792.748 221.943 793.75 221.755 794.713 221.481L794.739 221.763L876.588 214.359C883.712 213.715 889.197 208.58 889.637 202.514C889.676 201.933 889.673 201.338 889.619 200.739L886.111 161.952C885.797 158.479 888.086 155.295 891.556 153.905L1138.56 131.563L1137.2 116.578L881.046 139.748C879.763 139.864 878.533 140.126 877.377 140.524C871.584 142.479 867.639 147.635 868.021 153.315C868.019 153.404 868.027 153.501 868.035 153.589L871.564 192.596C871.916 196.492 868.584 199.975 864.118 200.379L802.478 205.955C797.456 206.409 793.062 203.225 792.666 198.844L779.829 56.9201C779.212 50.106 772.377 45.152 764.565 45.8585L709.999 50.7942Z" fill="#7AB5EE"/>
</mask>
<g mask="url(#mask6_358_1135)">
<rect x="682" y="124.424" width="172.597" height="190.299" transform="rotate(-5.16845 682 124.424)" fill="#8EC1F1"/>
</g>
</g>
<defs>
<clipPath id="clip0_358_1135">
<rect width="1059.28" height="573.5" fill="white" transform="translate(129.555 27) rotate(8.88294)"/>
</clipPath>
<clipPath id="clip1_358_1135">
<rect width="1059.75" height="573.5" fill="white"/>
</clipPath>
</defs>
</svg>
