<svg width="665" height="1107" viewBox="0 0 665 1107" fill="none" xmlns="http://www.w3.org/2000/svg">
<g clip-path="url(#clip0_351_961)">
<mask id="mask0_351_961" style="mask-type:luminance" maskUnits="userSpaceOnUse" x="87" y="891" width="490" height="176">
<path d="M576.533 892.59L576.165 1045.03C576.14 1056.86 566.527 1066.42 554.693 1066.39L108.366 1065.26C96.5317 1065.23 86.9641 1055.62 86.9994 1043.8L87.3651 891.373L576.533 892.59Z" fill="white"/>
</mask>
<g mask="url(#mask0_351_961)">
<path d="M576.533 892.59L576.165 1045.03C576.14 1056.86 566.527 1066.42 554.693 1066.39L108.366 1065.26C96.5317 1065.23 86.9641 1055.62 86.9994 1043.8L87.3651 891.373L576.533 892.59Z" fill="#6CAEEC" stroke="#4B7C9B" stroke-miterlimit="10"/>
<g opacity="0.8">
<path d="M415.501 1025.46L417.369 1025.45L417.611 926.123L415.744 926.118L415.501 1025.46Z" fill="#F7F5F4"/>
<path d="M407.482 1025.45L412.782 1025.45L413.025 926.117L407.725 926.109L407.482 1025.45Z" fill="#F7F5F4"/>
<path d="M380.116 1025.36L385.416 1025.37L385.658 926.038L380.358 926.03L380.116 1025.36Z" fill="#F7F5F4"/>
<path d="M370.939 1025.34L372.807 1025.33L373.048 926.003L371.181 925.998L370.939 1025.34Z" fill="#F7F5F4"/>
<path d="M245.921 1025.02L251.221 1025.03L251.462 925.704L246.162 925.695L245.92 1025.03L245.921 1025.02Z" fill="#F7F5F4"/>
<path d="M216.09 1024.94L218.618 1024.96L218.861 925.621L216.331 925.617L216.09 1024.94Z" fill="#F7F5F4"/>
<path d="M196.207 1024.91L198.736 1024.91L198.978 925.584L196.448 925.58L196.206 1024.92L196.207 1024.91Z" fill="#F7F5F4"/>
<path d="M484.271 1025.63L486.72 1025.64L486.962 926.304L484.513 926.297L484.271 1025.63Z" fill="#F7F5F4"/>
<path d="M475.518 1025.6L478.65 1025.61L478.892 926.27L475.76 926.264L475.518 1025.6Z" fill="#F7F5F4"/>
<path d="M468.42 1025.59L469.915 1025.6L470.157 926.259L468.662 926.257L468.42 1025.59Z" fill="#F7F5F4"/>
<path d="M461.709 1025.57L462.814 1025.57L463.056 926.23L461.952 926.223L461.71 1025.56L461.709 1025.57Z" fill="#F7F5F4"/>
<path d="M452.955 1025.54L456.087 1025.54L456.329 926.206L453.198 926.199L452.955 1025.54Z" fill="#F7F5F4"/>
<path d="M444.334 1025.52L447.345 1025.53L447.587 926.192L444.576 926.186L444.334 1025.52Z" fill="#F7F5F4"/>
<path d="M437.224 1025.52L438.72 1025.52L438.962 926.181L437.467 926.178L437.224 1025.52Z" fill="#F7F5F4"/>
<path d="M429.177 1025.49L431.626 1025.5L431.868 926.163L429.419 926.156L429.177 1025.49Z" fill="#F7F5F4"/>
<path d="M420.423 1025.47L423.556 1025.47L423.798 926.13L420.666 926.123L420.424 1025.46L420.423 1025.47Z" fill="#F7F5F4"/>
<path d="M398.162 1025.4L399.657 1025.4L399.9 926.067L398.404 926.065L398.162 1025.4Z" fill="#F7F5F4"/>
<path d="M389.416 1025.38L392.548 1025.39L392.79 926.049L389.659 926.042L389.416 1025.38Z" fill="#F7F5F4"/>
<path d="M373.693 1025.35L375.189 1025.35L375.431 926.014L373.935 926.011L373.693 1025.35Z" fill="#F7F5F4"/>
<path d="M365.63 1025.34L368.079 1025.34L368.322 926.005L365.873 925.998L365.63 1025.34Z" fill="#F7F5F4"/>
<path d="M356.892 1025.31L360.025 1025.31L360.267 925.973L357.135 925.966L356.893 1025.3L356.892 1025.31Z" fill="#F7F5F4"/>
<path d="M349.779 1025.29L351.275 1025.29L351.517 925.95L350.021 925.948L349.779 1025.29Z" fill="#F7F5F4"/>
<path d="M343.076 1025.27L344.181 1025.27L344.423 925.933L343.319 925.935L343.075 1025.28L343.076 1025.27Z" fill="#F7F5F4"/>
<path d="M334.322 1025.25L337.454 1025.25L337.697 925.908L334.565 925.901L334.323 1025.24L334.322 1025.25Z" fill="#F7F5F4"/>
<path d="M325.701 1025.23L328.712 1025.23L328.954 925.894L325.943 925.888L325.701 1025.23Z" fill="#F7F5F4"/>
<path d="M318.599 1025.21L320.095 1025.21L320.337 925.873L318.842 925.871L318.599 1025.21Z" fill="#F7F5F4"/>
<path d="M310.544 1025.19L312.993 1025.19L313.236 925.855L310.787 925.849L310.544 1025.19Z" fill="#F7F5F4"/>
<path d="M301.791 1025.17L304.923 1025.18L305.165 925.842L302.034 925.835L301.791 1025.17Z" fill="#F7F5F4"/>
<path d="M294.701 1025.14L296.196 1025.15L296.439 925.81L294.943 925.807L294.701 1025.14Z" fill="#F7F5F4"/>
<path d="M287.983 1025.13L289.086 1025.14L289.329 925.792L288.225 925.794L287.983 1025.13Z" fill="#F7F5F4"/>
<path d="M279.365 1025.11L282.376 1025.12L282.618 925.778L279.607 925.772L279.365 1025.11Z" fill="#F7F5F4"/>
<path d="M272.255 1025.09L273.75 1025.09L273.993 925.746L272.498 925.744L272.255 1025.09Z" fill="#F7F5F4"/>
<path d="M265.154 1025.07L266.65 1025.07L266.892 925.737L265.396 925.735L265.154 1025.07Z" fill="#F7F5F4"/>
<path d="M258.437 1025.06L259.54 1025.07L259.783 925.729L258.679 925.722L258.437 1025.06Z" fill="#F7F5F4"/>
<path d="M241.63 1025.02L244.079 1025.03L244.322 925.692L241.873 925.686L241.63 1025.02Z" fill="#F7F5F4"/>
<path d="M232.892 1025L236.025 1025L236.267 925.66L233.135 925.653L232.893 1024.99L232.892 1025Z" fill="#F7F5F4"/>
<path d="M226.178 1024.99L227.282 1024.98L227.525 925.647L226.42 925.65L226.178 1024.99Z" fill="#F7F5F4"/>
<path d="M208.802 1024.93L211.814 1024.94L212.056 925.6L209.045 925.593L208.802 1024.93Z" fill="#F7F5F4"/>
<path d="M201.709 1024.9L203.204 1024.91L203.447 925.568L201.951 925.566L201.709 1024.9Z" fill="#F7F5F4"/>
<path d="M184.9 1024.88L188.032 1024.88L188.275 925.538L185.143 925.531L184.901 1024.87L184.9 1024.88Z" fill="#F7F5F4"/>
<path d="M177.795 1024.86L179.29 1024.86L179.532 925.524L178.037 925.522L177.795 1024.86Z" fill="#F7F5F4"/>
<path d="M171.085 1024.84L172.189 1024.84L172.431 925.507L171.326 925.509L171.084 1024.85L171.085 1024.84Z" fill="#F7F5F4"/>
<path d="M162.337 1024.81L165.47 1024.81L165.712 925.473L162.581 925.466L162.338 1024.8L162.337 1024.81Z" fill="#F7F5F4"/>
<path d="M490.391 1025.65L493.814 1025.66L494.056 926.321L490.634 926.309L490.391 1025.65Z" fill="#F7F5F4"/>
</g>
<path d="M559.938 1028.04L560.955 81.1002C560.967 69.9938 551.973 60.9806 540.867 60.9686L127.167 60.5244C116.06 60.5125 107.047 69.5064 107.035 80.6128L106.018 1027.55C106.006 1038.66 115 1047.67 126.107 1047.68L539.807 1048.13C550.913 1048.14 559.926 1039.15 559.938 1028.04Z" stroke="#3F79AC"/>
<path d="M576.533 892.59L576.165 1045.03C576.14 1056.86 566.527 1066.42 554.693 1066.39L108.366 1065.26C96.5317 1065.23 86.9641 1055.62 86.9994 1043.8L87.3651 891.373L576.533 892.59Z" stroke="#72ACDD" stroke-miterlimit="10"/>
</g>
<mask id="mask1_351_961" style="mask-type:luminance" maskUnits="userSpaceOnUse" x="87" y="41" width="491" height="852">
<path d="M577.494 62.4586L576.602 892.758L87.4227 892.233L88.3143 61.9333C88.3262 50.8333 97.3459 41.833 108.446 41.8449L557.406 42.327C568.506 42.339 577.506 51.3586 577.494 62.4586Z" fill="white"/>
</mask>
<g mask="url(#mask1_351_961)">
<mask id="mask2_351_961" style="mask-type:luminance" maskUnits="userSpaceOnUse" x="87" y="41" width="491" height="852">
<path d="M577.494 62.4586L576.602 892.758L87.4227 892.233L88.3143 61.9333C88.3262 50.8333 97.3459 41.833 108.446 41.8449L557.406 42.327C568.506 42.339 577.506 51.3586 577.494 62.4586Z" fill="white"/>
</mask>
<g mask="url(#mask2_351_961)">
<path d="M577.494 62.4586L576.602 892.758L87.4227 892.233L88.3143 61.9333C88.3262 50.8333 97.3459 41.833 108.446 41.8449L557.406 42.327C568.506 42.339 577.506 51.3586 577.494 62.4586Z" fill="#56A2E9"/>
<path d="M189.451 950.891L203.883 950.955L206.009 468.447L191.578 468.383L189.451 950.891Z" fill="#6BACEA"/>
<path d="M439.247 507.988L454.266 508.054L454.421 472.843L439.402 472.777L439.247 507.988Z" fill="#5697D1"/>
<path d="M82.2441 505.429L151.438 505.734L151.501 491.303L82.3077 490.998L82.2441 505.429Z" fill="#5697D1"/>
<path d="M197.919 800.724C191.85 800.148 186.464 804.6 185.888 810.669C185.312 816.737 189.764 822.123 195.833 822.699C201.901 823.275 207.287 818.823 207.863 812.755C208.439 806.686 203.987 801.3 197.919 800.724Z" fill="#F1EAE5"/>
<path d="M197.795 805.618C194.257 805.282 191.117 807.878 190.781 811.416C190.446 814.953 193.041 818.093 196.579 818.429C200.117 818.765 203.257 816.169 203.592 812.632C203.928 809.094 201.333 805.954 197.795 805.618Z" fill="#FFC83E"/>
<path d="M422.471 703.188L422.529 688.977L380.829 688.794C376.863 688.774 373.653 685.956 373.664 682.489L374.253 549.139L373.945 549.139C374.147 548.33 374.255 547.492 374.26 546.635C374.285 540.175 368.303 534.906 360.89 534.867C359.898 534.86 358.946 534.952 358.014 535.124L358.011 534.854L280.37 534.506C273.611 534.481 267.998 538.812 267.036 544.481C266.947 545.021 266.893 545.585 266.897 546.153L266.737 582.943C266.723 586.236 264.281 589.028 260.893 590.026L80.9466 589.982L80.8615 603.886L269.519 604.272C270.742 604.283 271.92 604.144 273.034 603.874C278.66 602.549 282.824 598.051 282.978 592.681C282.986 592.595 282.994 592.51 282.992 592.423L283.152 555.431C283.166 551.734 286.617 548.757 290.854 548.774L349.325 549.036C354.091 549.055 357.94 552.445 357.922 556.595L357.33 691.197C357.304 697.658 363.286 702.926 370.7 702.965L422.46 703.197L422.471 703.188Z" fill="#8EC1F1"/>
<path d="M413.488 703.104L477.555 703.387L477.617 689.255L413.55 688.972L413.488 703.104Z" fill="#8EC1F1"/>
<path d="M81.1893 714.175L143.445 714.449L143.528 695.779L81.2716 695.505L81.1893 714.175Z" fill="#5596D0"/>
<path d="M254.223 586.21C248.155 585.634 242.769 590.087 242.193 596.155C241.617 602.223 246.069 607.61 252.137 608.186C258.206 608.762 263.592 604.309 264.168 598.241C264.744 592.173 260.292 586.786 254.223 586.21Z" fill="#F1EAE5"/>
<path d="M254.1 591.096C250.562 590.76 247.422 593.355 247.086 596.893C246.75 600.431 249.346 603.571 252.884 603.907C256.421 604.242 259.561 601.647 259.897 598.109C260.233 594.572 257.637 591.431 254.1 591.096Z" fill="#FFC83E"/>
<path d="M404.447 754.983L404.094 844.038C404.094 844.038 404.097 844.106 404.094 844.144L420.058 844.205L420.346 770.748C420.371 764.393 425.539 759.268 431.894 759.294L440.05 759.317C446.405 759.342 451.529 764.519 451.504 770.874L451.225 844.331L465.707 844.387C465.707 844.387 465.704 844.319 465.707 844.281L466.061 755.216C466.086 748.862 460.952 743.693 454.597 743.668L415.996 743.519C409.641 743.494 404.472 748.629 404.447 754.983Z" fill="#6BACEA"/>
<path d="M525.971 555.734L615.017 557.011C615.017 557.011 615.084 557.009 615.123 557.013L615.349 541.05L541.9 540C535.545 539.908 530.474 534.688 530.565 528.334L530.673 520.178C530.764 513.824 535.994 508.754 542.349 508.845L615.799 509.885L616.005 495.405C616.005 495.405 615.937 495.408 615.899 495.404L526.843 494.126C520.489 494.035 515.267 499.115 515.176 505.47L514.627 544.067C514.536 550.422 519.616 555.643 525.971 555.734Z" fill="#6BACEA"/>
<path d="M136.363 694.112L182.433 694.324C182.491 694.32 182.54 694.315 182.597 694.32C182.733 694.314 182.859 694.307 182.993 694.31L214.364 694.427C220.719 694.452 225.844 699.62 225.818 705.975L225.739 726.802C225.734 727.668 225.635 728.506 225.452 729.317L225.45 729.336L225.377 745.839L225.131 799.871C225.112 803.424 226.539 806.651 228.842 808.979C231.153 811.318 234.358 812.768 237.891 812.786C244.978 812.813 250.743 807.08 250.77 799.993L251.017 745.942L251.246 694.114C251.25 693.16 251.3 692.231 251.407 691.307L251.46 678.164C251.485 671.809 256.654 666.674 263.009 666.7L294.378 666.826C300.724 666.851 305.858 672.019 305.833 678.374L305.695 714.934C305.688 715.618 305.634 716.287 305.505 716.939L305.501 716.977C305.501 716.977 305.5 716.987 305.499 716.996L305.187 785.837C305.187 786.241 305.189 786.627 305.152 787.018C305.162 787.019 305.173 787.001 305.19 787.022L304.948 841.527L304.708 894.288C304.689 898.544 306.394 902.404 309.172 905.201C311.94 908.007 315.78 909.759 320.026 909.776C328.519 909.812 335.442 902.937 335.479 894.425L335.712 841.644L335.957 787.515L352.363 787.589L352.079 853.186L352.077 853.215L351.844 913.808C351.819 920.163 346.641 925.297 340.286 925.271L321.202 925.194L320.759 925.2L301.685 925.123C295.33 925.098 290.205 919.93 290.23 913.575L290.463 852.972C290.466 852.539 290.487 852.117 290.536 851.698L290.712 813.013C290.712 811.895 290.778 810.794 290.9 809.707C290.849 809.741 290.789 809.764 290.728 809.797L291.094 726.388L291.229 696.348C291.261 689.821 285.997 684.495 279.489 684.465C272.97 684.444 267.663 689.71 267.641 696.238L267.505 726.287L267.363 756.394C267.363 756.394 267.367 756.452 267.365 756.48C267.4 756.821 267.416 757.16 267.412 757.506L267.179 818.099C267.154 824.454 261.976 829.588 255.621 829.562L219.061 829.425C212.706 829.399 207.581 824.232 207.606 817.877L207.839 757.274C207.845 757.014 207.849 756.764 207.873 756.516C207.868 756.468 207.872 756.42 207.877 756.372L207.96 738.243L208.043 718.9C208.057 715.607 205.403 712.927 202.119 712.914L171.406 712.773L136.273 712.617L136.354 694.111L136.363 694.112Z" fill="#5596D0"/>
<path d="M125.548 490.202L283.574 490.908L288.86 490.928L368.254 491.279C368.604 491.235 368.954 491.21 369.31 491.206L400.951 491.32L400.961 491.32C407.315 491.346 412.439 496.523 412.414 502.878L412.284 534.382C412.325 535.783 412.356 537.182 412.387 538.582C412.365 542.057 413.847 545.222 416.268 547.513C418.68 549.813 422.022 551.238 425.719 551.252C433.007 551.289 438.969 545.815 439.163 538.995C439.173 538.899 439.172 538.803 439.172 538.697L439.38 491.452L453.891 491.509L454.248 491.505C454.248 491.505 454.241 491.572 454.257 491.612C454.267 491.805 454.258 492.007 454.259 492.199L453.709 532.689L453.444 552.737C453.351 559.095 448.679 564.268 443.002 564.316L408.515 564.549C402.838 564.588 398.315 559.477 398.407 553.129L398.436 550.897L398.869 519.142L398.946 513.254C398.71 512.192 398.37 511.206 397.916 510.305C397.366 509.194 396.641 508.21 395.688 507.387C395.066 506.847 394.403 506.418 393.674 506.079C392.014 505.305 390.001 504.998 387.311 504.82C382.754 504.532 372.283 504.337 358.027 504.236C356.574 504.224 355.082 504.217 353.551 504.206C285.12 503.846 142.35 505.176 125.478 505.346L125.548 490.202Z" fill="#5697D1"/>
<path d="M347.102 769.443C338.703 768.646 331.249 774.808 330.451 783.207C329.654 791.605 335.816 799.06 344.215 799.857C352.613 800.655 360.068 794.492 360.865 786.094C361.663 777.695 355.5 770.24 347.102 769.443Z" fill="#F1EAE5"/>
<path d="M346.108 776.188C341.188 776.167 337.182 780.137 337.16 785.057C337.139 789.977 341.11 793.983 346.029 794.005C350.949 794.026 354.955 790.056 354.977 785.136C354.998 780.216 351.028 776.21 346.108 776.188Z" fill="#FFC83E"/>
<path d="M-94.5306 42H735.769V137.84H-114.641V57.9193C-114.641 49.1324 -105.631 42 -94.5306 42Z" fill="#256DB0" stroke="#4B7C9B" stroke-miterlimit="10"/>
<path d="M560.086 897.895L560.963 81.1051C560.975 69.9987 551.981 60.9854 540.874 60.9735L127.175 60.5293C116.068 60.5174 107.055 69.5112 107.043 80.6177L106.166 897.407C106.154 908.514 115.148 917.527 126.254 917.539L539.954 917.983C551.061 917.995 560.074 909.001 560.086 897.895Z" stroke="#3F79AC"/>
</g>
<path d="M103.785 40.9364L139.387 41.0384C139.387 41.0384 139.411 41.0465 139.411 41.0624L139.318 73.3491C139.318 73.3491 139.31 73.373 139.294 73.3729L87.7438 73.2252C87.7438 73.2252 87.7199 73.2172 87.7199 73.2012L87.7667 56.8626C87.792 48.0477 94.9696 40.9111 103.785 40.9364Z" fill="#101010"/>
<path d="M139.325 73.3588L87.7266 73.2109L87.6339 105.545L139.232 105.693L139.325 73.3588Z" fill="#EED75F"/>
<path d="M139.223 105.346L87.625 105.198L87.5323 137.533L139.131 137.681L139.223 105.346Z" fill="#D15127"/>
</g>
<path d="M146.473 403.692L146.527 420.022L144.457 420.029L144.432 412.6L135.439 412.63L135.464 420.059L133.394 420.066L133.34 403.736L135.41 403.729L135.433 410.79L144.426 410.76L144.403 403.699L146.473 403.692ZM150.12 420.01L150.08 408.004L152.104 407.997L152.144 420.003L150.12 420.01ZM150.073 405.75L150.064 403.22L152.088 403.213L152.096 405.743L150.073 405.75ZM160.205 420.114C159.392 420.117 158.641 419.959 157.95 419.639C157.274 419.304 156.69 418.853 156.197 418.288C155.704 417.707 155.319 417.049 155.04 416.314C154.777 415.579 154.644 414.812 154.642 414.015C154.639 413.172 154.767 412.374 155.025 411.622C155.298 410.869 155.679 410.209 156.168 409.64C156.672 409.056 157.261 408.601 157.935 408.277C158.608 407.937 159.359 407.766 160.187 407.763C161.184 407.76 162.051 408.003 162.788 408.491C163.541 408.979 164.172 409.598 164.681 410.348L164.673 407.956L166.467 407.95L166.506 419.818C166.51 420.952 166.237 421.911 165.688 422.695C165.154 423.479 164.42 424.072 163.486 424.474C162.567 424.891 161.54 425.101 160.406 425.105C159.056 425.109 157.952 424.875 157.091 424.403C156.231 423.93 155.516 423.289 154.946 422.478L156.115 421.439C156.593 422.143 157.208 422.67 157.961 423.02C158.729 423.37 159.542 423.544 160.401 423.541C161.136 423.538 161.811 423.398 162.423 423.12C163.051 422.857 163.548 422.449 163.914 421.896C164.296 421.343 164.485 420.652 164.482 419.824L164.475 417.708C164.033 418.446 163.422 419.03 162.641 419.462C161.876 419.894 161.064 420.112 160.205 420.114ZM160.821 418.456C161.25 418.455 161.664 418.377 162.062 418.222C162.46 418.068 162.827 417.867 163.164 417.621C163.5 417.359 163.783 417.067 164.012 416.744C164.241 416.421 164.393 416.091 164.469 415.753L164.457 412.303C164.241 411.752 163.932 411.27 163.532 410.857C163.132 410.429 162.679 410.101 162.172 409.873C161.665 409.629 161.144 409.508 160.607 409.51C159.994 409.512 159.442 409.644 158.952 409.907C158.478 410.169 158.073 410.523 157.737 410.969C157.401 411.399 157.142 411.883 156.96 412.42C156.777 412.958 156.687 413.502 156.689 414.054C156.691 414.652 156.8 415.219 157.017 415.755C157.233 416.276 157.526 416.742 157.895 417.155C158.265 417.568 158.703 417.888 159.209 418.117C159.716 418.345 160.253 418.458 160.821 418.456ZM180.192 419.91L178.168 419.917L178.146 413.201C178.142 411.974 177.916 411.055 177.47 410.443C177.038 409.831 176.416 409.527 175.604 409.529C175.082 409.531 174.554 409.671 174.018 409.948C173.498 410.226 173.039 410.603 172.642 411.08C172.245 411.541 171.955 412.079 171.773 412.693L171.797 419.938L169.773 419.945L169.717 403.155L171.741 403.148L171.766 410.508C172.238 409.648 172.88 408.971 173.691 408.478C174.517 407.969 175.406 407.713 176.356 407.71C177.077 407.707 177.676 407.836 178.152 408.095C178.643 408.338 179.035 408.69 179.328 409.149C179.621 409.608 179.83 410.144 179.955 410.757C180.095 411.354 180.166 412.013 180.168 412.734L180.192 419.91ZM199.027 406.944C198.842 406.73 198.596 406.524 198.289 406.326C197.981 406.127 197.636 405.952 197.252 405.8C196.868 405.633 196.446 405.504 195.986 405.413C195.541 405.308 195.073 405.255 194.582 405.257C193.325 405.261 192.398 405.502 191.802 405.979C191.205 406.457 190.908 407.109 190.911 407.937C190.913 408.52 191.068 408.979 191.376 409.316C191.683 409.652 192.152 409.927 192.781 410.139C193.426 410.352 194.24 410.571 195.222 410.798C196.357 411.04 197.339 411.335 198.169 411.685C198.998 412.035 199.636 412.508 200.082 413.105C200.529 413.686 200.754 414.467 200.757 415.449C200.76 416.231 200.609 416.913 200.304 417.497C200.015 418.065 199.602 418.542 199.067 418.927C198.531 419.297 197.904 419.575 197.183 419.762C196.463 419.933 195.682 420.02 194.838 420.022C194.01 420.025 193.197 419.943 192.399 419.777C191.617 419.596 190.872 419.338 190.166 419.003C189.459 418.668 188.799 418.248 188.184 417.744L189.167 415.993C189.413 416.253 189.728 416.513 190.112 416.772C190.512 417.016 190.957 417.245 191.449 417.458C191.955 417.671 192.5 417.845 193.084 417.981C193.667 418.102 194.265 418.161 194.878 418.159C196.043 418.155 196.947 417.945 197.59 417.529C198.233 417.098 198.553 416.476 198.55 415.663C198.548 415.05 198.362 414.56 197.993 414.193C197.639 413.826 197.109 413.521 196.403 413.278C195.697 413.035 194.837 412.793 193.824 412.551C192.72 412.278 191.791 411.982 191.039 411.663C190.286 411.328 189.717 410.893 189.332 410.358C188.962 409.822 188.776 409.125 188.773 408.266C188.77 407.224 189.02 406.341 189.523 405.619C190.027 404.897 190.723 404.35 191.611 403.979C192.499 403.608 193.503 403.421 194.622 403.417C195.358 403.415 196.041 403.489 196.67 403.64C197.314 403.791 197.913 404.004 198.466 404.278C199.019 404.552 199.526 404.88 199.987 405.262L199.027 406.944ZM209.636 420.042C208.655 420.045 207.78 419.803 207.012 419.315C206.243 418.827 205.636 418.208 205.188 417.458L205.213 424.726L203.189 424.733L203.132 407.828L204.926 407.822L204.934 410.076C205.407 409.338 206.026 408.746 206.791 408.299C207.556 407.836 208.391 407.603 209.296 407.6C210.124 407.597 210.883 407.764 211.574 408.099C212.266 408.434 212.865 408.892 213.373 409.473C213.881 410.054 214.274 410.719 214.553 411.47C214.846 412.205 214.995 412.979 214.997 413.791C215.001 414.926 214.775 415.969 214.318 416.922C213.876 417.874 213.25 418.635 212.439 419.205C211.629 419.759 210.694 420.039 209.636 420.042ZM209.009 418.296C209.607 418.294 210.144 418.17 210.618 417.923C211.108 417.661 211.521 417.322 211.857 416.907C212.208 416.476 212.475 415.992 212.657 415.455C212.839 414.918 212.929 414.365 212.927 413.798C212.925 413.2 212.816 412.633 212.6 412.097C212.399 411.561 212.106 411.087 211.721 410.674C211.352 410.261 210.914 409.941 210.407 409.712C209.915 409.469 209.378 409.348 208.796 409.35C208.428 409.351 208.044 409.421 207.646 409.561C207.263 409.7 206.896 409.901 206.544 410.162C206.192 410.409 205.894 410.694 205.65 411.016C205.406 411.339 205.246 411.685 205.171 412.053L205.182 415.48C205.414 416 205.722 416.475 206.107 416.903C206.491 417.331 206.937 417.674 207.444 417.933C207.951 418.177 208.473 418.298 209.009 418.296ZM222.816 419.998C221.911 420.001 221.083 419.843 220.331 419.524C219.593 419.189 218.948 418.738 218.394 418.173C217.855 417.592 217.432 416.927 217.122 416.176C216.829 415.426 216.68 414.629 216.677 413.786C216.674 412.651 216.931 411.615 217.449 410.678C217.967 409.741 218.685 408.987 219.604 408.417C220.537 407.846 221.602 407.559 222.798 407.555C224.009 407.551 225.06 407.839 225.952 408.419C226.858 408.983 227.558 409.732 228.052 410.666C228.561 411.584 228.817 412.58 228.821 413.653C228.822 413.807 228.814 413.96 228.8 414.113C228.8 414.251 228.793 414.359 228.778 414.435L218.819 414.469C218.883 415.25 219.1 415.947 219.47 416.559C219.855 417.156 220.347 417.63 220.946 417.981C221.545 418.316 222.19 418.482 222.88 418.48C223.616 418.478 224.305 418.291 224.948 417.921C225.606 417.551 226.057 417.067 226.3 416.468L228.05 416.945C227.791 417.528 227.402 418.051 226.882 418.513C226.378 418.974 225.773 419.337 225.069 419.6C224.38 419.863 223.629 419.996 222.816 419.998ZM218.745 413.066L226.933 413.039C226.869 412.257 226.644 411.568 226.259 410.971C225.874 410.374 225.382 409.908 224.782 409.573C224.183 409.237 223.523 409.071 222.803 409.073C222.097 409.076 221.446 409.246 220.849 409.586C220.253 409.925 219.763 410.394 219.382 410.994C219.016 411.593 218.804 412.284 218.745 413.066ZM236.405 419.953C235.5 419.956 234.672 419.798 233.919 419.478C233.182 419.143 232.537 418.693 231.983 418.128C231.444 417.547 231.02 416.881 230.711 416.131C230.417 415.381 230.269 414.584 230.266 413.74C230.262 412.606 230.52 411.57 231.038 410.633C231.556 409.696 232.274 408.942 233.192 408.372C234.126 407.801 235.191 407.514 236.387 407.51C237.598 407.506 238.649 407.794 239.54 408.374C240.447 408.938 241.147 409.687 241.641 410.621C242.15 411.539 242.406 412.535 242.41 413.608C242.41 413.761 242.403 413.915 242.388 414.068C242.389 414.206 242.382 414.314 242.366 414.39L232.407 414.423C232.471 415.205 232.688 415.902 233.058 416.514C233.444 417.111 233.936 417.585 234.535 417.935C235.134 418.271 235.779 418.437 236.469 418.435C237.205 418.432 237.894 418.246 238.537 417.876C239.195 417.506 239.646 417.021 239.889 416.423L241.639 416.9C241.38 417.483 240.991 418.006 240.471 418.468C239.967 418.929 239.362 419.292 238.658 419.555C237.968 419.818 237.218 419.95 236.405 419.953ZM232.334 413.021L240.522 412.993C240.458 412.212 240.233 411.522 239.848 410.926C239.463 410.329 238.97 409.863 238.371 409.528C237.772 409.192 237.112 409.026 236.392 409.028C235.686 409.03 235.035 409.201 234.438 409.541C233.841 409.88 233.352 410.349 232.971 410.948C232.605 411.548 232.393 412.238 232.334 413.021ZM243.878 413.718C243.874 412.584 244.101 411.548 244.558 410.611C245.03 409.659 245.671 408.898 246.482 408.328C247.308 407.757 248.25 407.471 249.308 407.467C250.274 407.464 251.141 407.714 251.91 408.217C252.678 408.721 253.278 409.332 253.71 410.052L253.686 402.876L255.71 402.869L255.758 417.359C255.759 417.604 255.806 417.788 255.898 417.91C256.006 418.017 256.175 418.078 256.405 418.093L256.41 419.657C256.027 419.719 255.728 419.751 255.513 419.752C255.115 419.753 254.761 419.616 254.454 419.341C254.162 419.066 254.015 418.76 254.014 418.423L254.01 417.411C253.538 418.179 252.903 418.787 252.107 419.234C251.312 419.681 250.484 419.906 249.626 419.909C248.798 419.912 248.03 419.753 247.324 419.434C246.633 419.099 246.026 418.641 245.503 418.06C244.995 417.479 244.594 416.821 244.3 416.086C244.021 415.335 243.881 414.546 243.878 413.718ZM253.728 415.456L253.716 412.007C253.531 411.486 253.23 411.019 252.815 410.606C252.399 410.179 251.931 409.843 251.408 409.599C250.902 409.34 250.395 409.212 249.889 409.213C249.291 409.215 248.747 409.347 248.257 409.61C247.783 409.857 247.37 410.195 247.019 410.626C246.683 411.041 246.424 411.517 246.242 412.054C246.059 412.592 245.969 413.152 245.971 413.734C245.973 414.332 246.075 414.899 246.276 415.435C246.492 415.971 246.785 416.446 247.155 416.858C247.539 417.271 247.977 417.592 248.469 417.82C248.975 418.048 249.52 418.161 250.103 418.16C250.471 418.158 250.846 418.088 251.229 417.949C251.627 417.809 252.002 417.617 252.354 417.37C252.706 417.124 253.004 416.839 253.248 416.516C253.493 416.178 253.652 415.825 253.728 415.456ZM265.284 419.627L265.23 403.297L267.3 403.29L267.348 417.78L276.456 417.75L276.462 419.59L265.284 419.627ZM278.394 419.583L278.354 407.578L280.378 407.571L280.418 419.577L278.394 419.583ZM278.346 405.324L278.338 402.794L280.362 402.787L280.37 405.317L278.346 405.324ZM294.113 419.531L292.089 419.538L292.067 412.822C292.063 411.549 291.86 410.622 291.46 410.041C291.074 409.444 290.483 409.147 289.686 409.15C289.134 409.152 288.582 409.292 288.031 409.569C287.495 409.847 287.014 410.224 286.586 410.701C286.173 411.163 285.876 411.7 285.694 412.314L285.718 419.559L283.694 419.566L283.654 407.56L285.494 407.554L285.503 410.13C285.823 409.561 286.235 409.069 286.74 408.654C287.245 408.238 287.819 407.914 288.462 407.682C289.105 407.45 289.779 407.333 290.485 407.33C291.175 407.328 291.75 407.456 292.211 407.715C292.687 407.959 293.056 408.311 293.319 408.77C293.596 409.214 293.789 409.742 293.899 410.355C294.024 410.968 294.087 411.635 294.089 412.355L294.113 419.531ZM302.574 419.733C301.67 419.736 300.841 419.578 300.089 419.258C299.352 418.923 298.706 418.473 298.152 417.908C297.614 417.327 297.19 416.661 296.881 415.911C296.587 415.161 296.439 414.364 296.436 413.52C296.432 412.386 296.689 411.35 297.207 410.413C297.726 409.476 298.444 408.722 299.362 408.152C300.295 407.581 301.36 407.294 302.556 407.29C303.767 407.286 304.819 407.574 305.71 408.154C306.617 408.718 307.317 409.467 307.81 410.401C308.32 411.319 308.576 412.315 308.579 413.388C308.58 413.541 308.573 413.695 308.558 413.848C308.558 413.986 308.551 414.094 308.536 414.17L298.577 414.203C298.641 414.985 298.858 415.682 299.228 416.294C299.613 416.891 300.106 417.365 300.705 417.715C301.304 418.051 301.948 418.217 302.638 418.215C303.374 418.212 304.064 418.026 304.707 417.656C305.365 417.286 305.815 416.801 306.059 416.202L307.808 416.68C307.55 417.263 307.16 417.786 306.641 418.248C306.136 418.709 305.532 419.072 304.827 419.335C304.138 419.598 303.387 419.73 302.574 419.733ZM298.503 412.801L306.691 412.773C306.627 411.992 306.403 411.302 306.017 410.706C305.632 410.109 305.14 409.643 304.541 409.307C303.942 408.972 303.282 408.806 302.561 408.808C301.856 408.81 301.205 408.981 300.608 409.321C300.011 409.66 299.522 410.129 299.14 410.728C298.774 411.328 298.562 412.018 298.503 412.801ZM314.967 419.692C313.971 419.695 313.035 419.537 312.16 419.218C311.285 418.884 310.532 418.388 309.901 417.731L310.678 416.302C311.37 416.944 312.062 417.402 312.753 417.675C313.443 417.949 314.149 418.085 314.87 418.082C315.698 418.079 316.372 417.924 316.892 417.615C317.413 417.292 317.672 416.823 317.67 416.21C317.668 415.765 317.529 415.436 317.252 415.222C316.991 415.008 316.615 414.833 316.124 414.697C315.632 414.545 315.049 414.379 314.374 414.197C313.545 413.954 312.847 413.696 312.278 413.422C311.71 413.148 311.28 412.804 310.987 412.391C310.694 411.978 310.547 411.457 310.545 410.829C310.542 410.062 310.739 409.417 311.136 408.895C311.533 408.357 312.076 407.948 312.765 407.67C313.47 407.392 314.267 407.251 315.156 407.248C316.045 407.245 316.851 407.381 317.572 407.654C318.294 407.928 318.916 408.332 319.439 408.867L318.524 410.273C318.047 409.784 317.524 409.425 316.956 409.197C316.388 408.954 315.751 408.833 315.046 408.836C314.632 408.837 314.226 408.892 313.828 409.001C313.429 409.094 313.1 409.271 312.84 409.533C312.581 409.779 312.451 410.132 312.453 410.592C312.454 410.976 312.555 411.282 312.755 411.511C312.97 411.725 313.278 411.908 313.677 412.06C314.091 412.212 314.59 412.379 315.174 412.561C316.079 412.819 316.862 413.077 317.522 413.335C318.198 413.594 318.72 413.929 319.089 414.342C319.459 414.755 319.645 415.329 319.647 416.065C319.651 417.2 319.225 418.091 318.368 418.738C317.512 419.369 316.378 419.687 314.967 419.692ZM133.501 452.065L133.446 435.736L139.104 435.717C140.852 435.711 142.31 436.074 143.478 436.806C144.661 437.523 145.546 438.501 146.133 439.741C146.719 440.966 147.015 442.33 147.02 443.832C147.026 445.488 146.709 446.931 146.069 448.16C145.429 449.388 144.52 450.342 143.341 451.021C142.163 451.699 140.769 452.041 139.159 452.047L133.501 452.065ZM144.927 443.839C144.923 442.613 144.69 441.525 144.226 440.576C143.779 439.627 143.124 438.885 142.264 438.351C141.404 437.817 140.352 437.553 139.11 437.557L135.522 437.569L135.564 450.219L139.152 450.207C140.41 450.202 141.467 449.923 142.324 449.368C143.18 448.798 143.83 448.037 144.271 447.085C144.713 446.117 144.931 445.035 144.927 443.839ZM154.956 452.224C154.051 452.227 153.223 452.069 152.47 451.749C151.733 451.414 151.088 450.964 150.534 450.399C149.995 449.818 149.572 449.152 149.262 448.402C148.969 447.652 148.82 446.855 148.817 446.011C148.814 444.877 149.071 443.841 149.589 442.904C150.107 441.967 150.825 441.213 151.744 440.643C152.677 440.072 153.742 439.785 154.938 439.781C156.149 439.777 157.2 440.065 158.092 440.645C158.998 441.209 159.698 441.958 160.192 442.892C160.701 443.81 160.957 444.806 160.961 445.879C160.962 446.032 160.954 446.186 160.94 446.339C160.94 446.477 160.933 446.585 160.918 446.661L150.959 446.694C151.023 447.476 151.24 448.173 151.61 448.785C151.995 449.382 152.487 449.856 153.086 450.206C153.685 450.542 154.33 450.708 155.02 450.706C155.756 450.703 156.445 450.517 157.088 450.147C157.746 449.777 158.197 449.292 158.44 448.694L160.19 449.171C159.931 449.754 159.542 450.277 159.022 450.739C158.518 451.2 157.913 451.563 157.209 451.826C156.52 452.089 155.769 452.221 154.956 452.224ZM150.885 445.292L159.073 445.264C159.009 444.483 158.784 443.793 158.399 443.197C158.014 442.6 157.522 442.134 156.922 441.799C156.323 441.463 155.663 441.297 154.943 441.299C154.237 441.301 153.586 441.472 152.989 441.812C152.393 442.151 151.903 442.62 151.522 443.219C151.156 443.819 150.944 444.509 150.885 445.292ZM166.367 451.956L161.612 439.966L163.728 439.959L167.533 450.02L171.272 439.934L173.25 439.927L168.575 451.949L166.367 451.956ZM180.224 452.14C179.32 452.143 178.491 451.985 177.739 451.665C177.002 451.33 176.356 450.88 175.802 450.315C175.264 449.734 174.84 449.068 174.531 448.318C174.237 447.568 174.089 446.771 174.086 445.927C174.082 444.793 174.339 443.757 174.857 442.82C175.376 441.883 176.094 441.129 177.012 440.559C177.945 439.988 179.01 439.701 180.206 439.697C181.417 439.693 182.469 439.981 183.36 440.561C184.267 441.125 184.967 441.874 185.46 442.808C185.97 443.726 186.226 444.722 186.229 445.795C186.23 445.948 186.223 446.102 186.208 446.255C186.208 446.393 186.201 446.501 186.186 446.577L176.227 446.61C176.291 447.392 176.508 448.089 176.878 448.701C177.263 449.298 177.756 449.772 178.355 450.122C178.954 450.458 179.598 450.624 180.288 450.622C181.024 450.619 181.714 450.433 182.357 450.063C183.015 449.693 183.465 449.208 183.709 448.609L185.458 449.087C185.2 449.67 184.81 450.193 184.291 450.655C183.786 451.116 183.182 451.479 182.477 451.742C181.788 452.005 181.037 452.137 180.224 452.14ZM176.153 445.208L184.341 445.18C184.277 444.399 184.053 443.709 183.667 443.113C183.282 442.516 182.79 442.05 182.191 441.714C181.592 441.379 180.932 441.213 180.211 441.215C179.506 441.217 178.855 441.388 178.258 441.728C177.661 442.067 177.172 442.536 176.791 443.135C176.425 443.735 176.212 444.425 176.153 445.208ZM188.49 435.093L190.514 435.086L190.559 448.771C190.561 449.43 190.655 449.836 190.839 449.989C191.024 450.142 191.246 450.217 191.507 450.217C191.829 450.215 192.136 450.184 192.427 450.122C192.718 450.044 192.963 449.966 193.162 449.889L193.489 451.544C193.153 451.683 192.754 451.799 192.295 451.893C191.835 451.986 191.429 452.034 191.076 452.035C190.294 452.038 189.672 451.817 189.211 451.374C188.765 450.931 188.54 450.311 188.538 449.513L188.49 435.093ZM200.325 452.073C199.421 452.076 198.6 451.918 197.863 451.598C197.126 451.264 196.488 450.813 195.949 450.248C195.411 449.667 194.994 449.001 194.701 448.251C194.407 447.501 194.258 446.711 194.256 445.883C194.253 445.04 194.396 444.242 194.685 443.49C194.974 442.738 195.385 442.077 195.92 441.508C196.455 440.923 197.09 440.469 197.825 440.145C198.575 439.805 199.395 439.633 200.284 439.63C201.189 439.627 202.009 439.793 202.747 440.128C203.484 440.448 204.122 440.898 204.66 441.479C205.214 442.044 205.638 442.702 205.932 443.453C206.226 444.203 206.374 445 206.377 445.843C206.379 446.671 206.236 447.461 205.948 448.214C205.659 448.966 205.247 449.634 204.712 450.219C204.177 450.788 203.535 451.242 202.785 451.582C202.05 451.907 201.23 452.07 200.325 452.073ZM196.326 445.9C196.329 446.728 196.507 447.478 196.862 448.152C197.232 448.825 197.717 449.36 198.317 449.757C198.916 450.138 199.584 450.328 200.319 450.325C201.055 450.323 201.722 450.121 202.318 449.721C202.931 449.32 203.412 448.782 203.762 448.106C204.128 447.415 204.309 446.655 204.307 445.827C204.304 444.999 204.117 444.248 203.747 443.575C203.392 442.901 202.907 442.366 202.293 441.97C201.693 441.573 201.026 441.376 200.29 441.378C199.554 441.381 198.887 441.59 198.291 442.006C197.694 442.407 197.213 442.945 196.847 443.621C196.497 444.297 196.323 445.056 196.326 445.9ZM215.313 452.023C214.331 452.027 213.457 451.784 212.688 451.296C211.92 450.808 211.312 450.189 210.865 449.439L210.889 456.707L208.865 456.714L208.809 439.809L210.603 439.803L210.611 442.057C211.083 441.319 211.703 440.727 212.468 440.28C213.233 439.817 214.068 439.584 214.972 439.581C215.8 439.579 216.56 439.745 217.251 440.08C217.942 440.415 218.542 440.873 219.05 441.454C219.558 442.035 219.951 442.701 220.229 443.451C220.523 444.186 220.671 444.96 220.674 445.773C220.678 446.907 220.451 447.951 219.994 448.903C219.553 449.855 218.927 450.616 218.116 451.186C217.305 451.741 216.371 452.02 215.313 452.023ZM214.686 450.277C215.284 450.276 215.82 450.151 216.295 449.904C216.785 449.642 217.197 449.303 217.533 448.888C217.885 448.458 218.151 447.974 218.334 447.436C218.516 446.899 218.606 446.347 218.604 445.779C218.602 445.181 218.493 444.614 218.276 444.079C218.075 443.543 217.782 443.068 217.398 442.655C217.028 442.243 216.59 441.922 216.083 441.694C215.592 441.45 215.055 441.329 214.472 441.331C214.104 441.332 213.721 441.403 213.323 441.542C212.94 441.681 212.573 441.882 212.221 442.144C211.869 442.39 211.571 442.675 211.327 442.998C211.082 443.32 210.923 443.666 210.847 444.034L210.859 447.461C211.09 447.982 211.399 448.456 211.783 448.884C212.168 449.312 212.614 449.656 213.121 449.915C213.628 450.158 214.149 450.279 214.686 450.277ZM241.28 451.707L239.256 451.714L239.234 444.998C239.229 443.741 239.019 442.814 238.603 442.217C238.203 441.62 237.604 441.323 236.806 441.326C235.994 441.329 235.259 441.63 234.601 442.23C233.944 442.815 233.479 443.576 233.206 444.512L233.23 451.734L231.206 451.741L231.184 445.025C231.179 443.752 230.977 442.825 230.576 442.244C230.176 441.647 229.577 441.35 228.779 441.353C227.982 441.355 227.247 441.649 226.574 442.234C225.917 442.803 225.452 443.564 225.179 444.516L225.203 451.761L223.179 451.767L223.139 439.761L224.979 439.755L224.988 442.331C225.475 441.44 226.109 440.756 226.89 440.278C227.67 439.785 228.551 439.536 229.532 439.533C230.529 439.53 231.327 439.803 231.927 440.353C232.527 440.888 232.897 441.584 233.038 442.442C233.572 441.49 234.221 440.767 234.986 440.274C235.751 439.765 236.624 439.509 237.605 439.506C238.295 439.504 238.871 439.632 239.332 439.891C239.808 440.135 240.185 440.487 240.462 440.946C240.74 441.389 240.941 441.918 241.065 442.531C241.19 443.144 241.254 443.81 241.256 444.531L241.28 451.707ZM249.741 451.909C248.836 451.912 248.008 451.754 247.255 451.434C246.518 451.099 245.873 450.649 245.319 450.084C244.78 449.503 244.356 448.837 244.047 448.087C243.753 447.336 243.605 446.54 243.602 445.696C243.598 444.562 243.855 443.526 244.374 442.589C244.892 441.652 245.61 440.898 246.528 440.328C247.462 439.757 248.526 439.47 249.722 439.466C250.934 439.462 251.985 439.75 252.876 440.329C253.783 440.894 254.483 441.643 254.977 442.576C255.486 443.495 255.742 444.491 255.746 445.564C255.746 445.717 255.739 445.871 255.724 446.024C255.725 446.162 255.717 446.269 255.702 446.346L245.743 446.379C245.807 447.161 246.024 447.858 246.394 448.47C246.78 449.067 247.272 449.54 247.871 449.891C248.47 450.226 249.115 450.393 249.805 450.391C250.541 450.388 251.23 450.202 251.873 449.832C252.531 449.462 252.982 448.977 253.225 448.378L254.975 448.856C254.716 449.439 254.327 449.962 253.807 450.423C253.302 450.885 252.698 451.247 251.993 451.51C251.304 451.773 250.553 451.906 249.741 451.909ZM245.67 444.976L253.858 444.949C253.794 444.167 253.569 443.478 253.184 442.881C252.798 442.285 252.306 441.819 251.707 441.483C251.108 441.148 250.448 440.982 249.727 440.984C249.022 440.986 248.371 441.157 247.774 441.496C247.177 441.836 246.688 442.305 246.307 442.904C245.941 443.504 245.728 444.194 245.67 444.976ZM268.435 451.617L266.411 451.624L266.388 444.908C266.384 443.635 266.182 442.708 265.781 442.127C265.396 441.53 264.804 441.233 264.007 441.235C263.455 441.237 262.904 441.377 262.353 441.655C261.817 441.933 261.335 442.31 260.907 442.787C260.495 443.248 260.198 443.786 260.016 444.4L260.04 451.645L258.016 451.651L257.976 439.645L259.816 439.639L259.824 442.215C260.145 441.647 260.557 441.155 261.062 440.739C261.566 440.324 262.14 440 262.783 439.768C263.427 439.535 264.101 439.418 264.806 439.416C265.496 439.413 266.072 439.542 266.532 439.801C267.009 440.045 267.378 440.396 267.64 440.855C267.917 441.299 268.111 441.827 268.22 442.44C268.345 443.053 268.408 443.72 268.411 444.441L268.435 451.617ZM277.678 450.988C277.509 451.065 277.28 451.166 276.989 451.289C276.698 451.413 276.361 451.521 275.978 451.615C275.595 451.708 275.189 451.755 274.759 451.757C274.269 451.758 273.816 451.676 273.401 451.508C272.987 451.326 272.656 451.051 272.41 450.684C272.163 450.301 272.039 449.826 272.037 449.259L272.01 441.186L270.377 441.191L270.372 439.604L272.005 439.599L271.992 435.597L274.016 435.59L274.029 439.592L276.72 439.583L276.725 441.17L274.034 441.179L274.059 448.631C274.091 449.06 274.238 449.382 274.499 449.596C274.76 449.794 275.067 449.893 275.42 449.892C275.819 449.89 276.187 449.82 276.523 449.681C276.86 449.542 277.082 449.441 277.189 449.38L277.678 450.988ZM285.373 451.56L285.333 439.555L287.357 439.548L287.397 451.554L285.373 451.56ZM285.326 437.301L285.317 434.771L287.341 434.764L287.35 437.294L285.326 437.301ZM301.093 451.508L299.069 451.515L299.046 444.799C299.042 443.526 298.84 442.599 298.439 442.018C298.054 441.421 297.463 441.124 296.665 441.127C296.113 441.129 295.562 441.269 295.011 441.546C294.475 441.824 293.993 442.201 293.565 442.678C293.153 443.14 292.856 443.677 292.674 444.291L292.698 451.536L290.674 451.543L290.634 439.537L292.474 439.531L292.482 442.107C292.803 441.538 293.215 441.046 293.72 440.631C294.224 440.215 294.798 439.891 295.441 439.659C296.085 439.427 296.759 439.31 297.464 439.307C298.154 439.305 298.73 439.433 299.19 439.692C299.667 439.936 300.036 440.288 300.298 440.747C300.575 441.191 300.769 441.719 300.878 442.332C301.003 442.945 301.066 443.612 301.069 444.332L301.093 451.508ZM322.9 447.227C322.903 448.07 322.691 448.807 322.264 449.437C321.837 450.067 321.255 450.559 320.521 450.915C319.801 451.27 319.004 451.449 318.13 451.452L310.379 451.477L310.325 435.147L318.444 435.12C319.211 435.118 319.871 435.323 320.424 435.735C320.993 436.132 321.424 436.652 321.717 437.295C322.026 437.922 322.182 438.581 322.184 439.271C322.187 440.068 321.982 440.82 321.57 441.527C321.174 442.218 320.601 442.734 319.851 443.074C320.787 443.347 321.525 443.858 322.064 444.607C322.618 445.342 322.897 446.215 322.9 447.227ZM320.806 446.866C320.805 446.36 320.688 445.892 320.457 445.464C320.24 445.035 319.94 444.691 319.556 444.432C319.187 444.172 318.757 444.043 318.267 444.045L312.425 444.064L312.443 449.676L318.124 449.658C318.63 449.656 319.082 449.524 319.48 449.262C319.893 449 320.214 448.662 320.443 448.247C320.687 447.817 320.808 447.356 320.806 446.866ZM312.401 436.935L312.419 442.385L317.617 442.368C318.108 442.367 318.537 442.242 318.904 441.996C319.287 441.749 319.584 441.419 319.798 441.004C320.026 440.589 320.14 440.136 320.138 439.646C320.136 439.124 320.028 438.665 319.812 438.267C319.611 437.854 319.326 437.525 318.957 437.281C318.604 437.037 318.197 436.915 317.737 436.917L312.401 436.935ZM330.802 451.639C329.897 451.642 329.069 451.484 328.316 451.165C327.579 450.83 326.934 450.38 326.38 449.814C325.841 449.233 325.417 448.568 325.108 447.817C324.814 447.067 324.666 446.27 324.663 445.427C324.659 444.292 324.917 443.256 325.435 442.319C325.953 441.382 326.671 440.628 327.589 440.058C328.523 439.488 329.587 439.2 330.783 439.196C331.995 439.192 333.046 439.48 333.937 440.06C334.844 440.624 335.544 441.373 336.038 442.307C336.547 443.225 336.803 444.221 336.807 445.294C336.807 445.448 336.8 445.601 336.785 445.754C336.786 445.892 336.778 446 336.763 446.077L326.804 446.11C326.868 446.891 327.085 447.588 327.455 448.201C327.841 448.797 328.333 449.271 328.932 449.622C329.531 449.957 330.176 450.123 330.866 450.121C331.602 450.119 332.291 449.932 332.934 449.562C333.592 449.192 334.043 448.708 334.286 448.109L336.036 448.586C335.777 449.17 335.388 449.692 334.868 450.154C334.363 450.616 333.759 450.978 333.054 451.241C332.365 451.504 331.614 451.637 330.802 451.639ZM326.731 444.707L334.919 444.68C334.855 443.898 334.63 443.209 334.245 442.612C333.859 442.015 333.367 441.549 332.768 441.214C332.169 440.878 331.509 440.712 330.788 440.714C330.083 440.717 329.432 440.888 328.835 441.227C328.238 441.566 327.749 442.036 327.368 442.635C327.002 443.234 326.789 443.925 326.731 444.707ZM339.067 434.592L341.091 434.585L341.137 448.27C341.139 448.929 341.232 449.335 341.417 449.488C341.601 449.641 341.824 449.717 342.084 449.716C342.406 449.715 342.713 449.683 343.004 449.621C343.295 449.543 343.54 449.466 343.739 449.388L344.067 451.043C343.73 451.182 343.332 451.299 342.872 451.392C342.412 451.486 342.006 451.533 341.653 451.534C340.871 451.537 340.25 451.317 339.788 450.874C339.342 450.43 339.118 449.81 339.115 449.013L339.067 434.592ZM350.442 451.482C349.63 451.485 348.878 451.326 348.187 451.007C347.511 450.672 346.927 450.221 346.434 449.655C345.942 449.074 345.556 448.416 345.278 447.681C345.015 446.946 344.882 446.18 344.879 445.383C344.876 444.539 345.004 443.741 345.262 442.989C345.536 442.237 345.917 441.576 346.405 441.007C346.91 440.423 347.498 439.969 348.172 439.645C348.845 439.305 349.596 439.134 350.424 439.131C351.421 439.128 352.288 439.37 353.026 439.858C353.779 440.347 354.409 440.966 354.918 441.715L354.91 439.323L356.704 439.317L356.743 451.185C356.747 452.32 356.474 453.279 355.925 454.063C355.391 454.847 354.657 455.439 353.723 455.841C352.804 456.258 351.778 456.469 350.643 456.472C349.294 456.477 348.189 456.243 347.329 455.77C346.468 455.298 345.753 454.656 345.183 453.846L346.353 452.807C346.83 453.51 347.445 454.037 348.198 454.388C348.966 454.738 349.779 454.911 350.638 454.908C351.374 454.906 352.048 454.766 352.66 454.488C353.288 454.225 353.785 453.817 354.151 453.264C354.533 452.711 354.722 452.02 354.719 451.192L354.712 449.076C354.27 449.813 353.659 450.398 352.878 450.83C352.113 451.262 351.301 451.479 350.442 451.482ZM351.058 449.824C351.487 449.823 351.901 449.745 352.299 449.59C352.697 449.435 353.065 449.235 353.401 448.988C353.737 448.726 354.02 448.434 354.249 448.111C354.478 447.789 354.63 447.458 354.706 447.121L354.694 443.671C354.478 443.12 354.17 442.638 353.77 442.225C353.369 441.797 352.916 441.469 352.409 441.241C351.902 440.997 351.381 440.876 350.844 440.878C350.231 440.88 349.679 441.012 349.189 441.274C348.715 441.536 348.31 441.89 347.974 442.336C347.638 442.767 347.379 443.251 347.197 443.788C347.014 444.325 346.924 444.87 346.926 445.422C346.928 446.02 347.037 446.587 347.254 447.123C347.47 447.643 347.763 448.11 348.132 448.523C348.502 448.936 348.94 449.256 349.447 449.484C349.953 449.713 350.49 449.826 351.058 449.824ZM360.01 451.312L359.97 439.306L361.994 439.3L362.034 451.306L360.01 451.312ZM359.963 437.052L359.954 434.522L361.978 434.516L361.987 437.046L359.963 437.052ZM365.18 446.488L365.156 439.289L367.18 439.282L367.203 446.09C367.207 447.317 367.425 448.236 367.856 448.848C368.287 449.46 368.925 449.765 369.768 449.762C370.32 449.76 370.849 449.643 371.354 449.412C371.874 449.164 372.341 448.818 372.753 448.372C373.166 447.926 373.486 447.396 373.714 446.782L373.689 439.261L375.713 439.254L375.745 448.96C375.746 449.205 375.793 449.389 375.885 449.511C375.993 449.618 376.162 449.679 376.392 449.694L376.397 451.258C376.167 451.289 375.983 451.305 375.845 451.306C375.723 451.321 375.6 451.329 375.477 451.33C375.094 451.331 374.764 451.217 374.487 450.988C374.21 450.744 374.064 450.445 374.047 450.093L373.996 448.69C373.478 449.581 372.775 450.273 371.887 450.767C371.015 451.26 370.057 451.509 369.015 451.512C367.757 451.517 366.805 451.098 366.159 450.257C365.512 449.4 365.186 448.144 365.18 446.488ZM397.225 451.189L395.201 451.195L395.179 444.479C395.175 443.222 394.965 442.295 394.549 441.698C394.148 441.102 393.549 440.805 392.752 440.807C391.939 440.81 391.204 441.112 390.547 441.712C389.889 442.297 389.424 443.057 389.151 443.993L389.175 451.215L387.151 451.222L387.129 444.506C387.125 443.233 386.922 442.306 386.522 441.725C386.121 441.128 385.522 440.831 384.725 440.834C383.928 440.837 383.193 441.13 382.52 441.715C381.862 442.285 381.397 443.045 381.124 443.997L381.148 451.242L379.124 451.249L379.085 439.243L380.925 439.237L380.933 441.813C381.421 440.922 382.055 440.237 382.835 439.759C383.616 439.266 384.497 439.018 385.478 439.015C386.474 439.011 387.273 439.285 387.873 439.835C388.472 440.369 388.843 441.066 388.984 441.924C389.517 440.971 390.166 440.249 390.931 439.755C391.696 439.247 392.569 438.991 393.551 438.988C394.241 438.985 394.816 439.114 395.277 439.373C395.753 439.617 396.13 439.968 396.408 440.427C396.685 440.871 396.886 441.399 397.011 442.012C397.136 442.625 397.199 443.292 397.202 444.013L397.225 451.189Z" fill="#DCEEFF"/>
<path d="M226.336 104.307L230.312 104.323C230.303 106.455 228.585 108.215 226.454 108.282C224.323 108.349 222.424 106.607 222.36 104.425C222.36 104.387 222.36 104.353 222.359 104.315L226.336 104.302L226.336 104.307Z" fill="#CEE7FF" stroke="#256CB0" stroke-width="0.239715" stroke-miterlimit="10"/>
<path d="M263.887 101.119C263.786 100.064 263.191 99.3252 262.874 98.941C258.769 93.9674 256.798 92.5106 256.798 92.5106C251.962 88.9381 248.806 86.6029 243.682 84.111C241.956 83.2705 239.065 81.8808 235.102 80.6555C232.443 79.8358 229.97 79.3032 228.214 78.9143C222.773 77.7054 218.493 77.282 215.454 77.0236C198.178 75.5704 171.785 75.0936 167.657 75.0206C167.564 85.9698 167.472 96.919 167.38 107.868C178.562 107.927 189.747 107.985 200.929 108.043C200.963 106.726 200.9 105.602 200.93 104.285C212.567 104.453 224.49 104.123 236.123 104.296C236.908 105.545 237.504 107.105 238.289 108.355C243.987 108.348 249.681 108.337 255.379 108.33C255.751 107.908 256.118 107.486 256.49 107.064C257.275 107.048 260.563 106.897 262.581 104.454C263 103.947 264.038 102.69 263.887 101.119Z" fill="#CEE7FF" stroke="#256CB0" stroke-width="0.239715" stroke-miterlimit="10"/>
<path d="M218.375 104.283L222.351 104.269C222.358 106.401 220.654 108.174 218.523 108.257C216.393 108.341 214.48 106.613 214.4 104.432C214.4 104.394 214.399 104.36 214.398 104.322L218.374 104.279L218.375 104.283Z" fill="#CEE7FF" stroke="#256CB0" stroke-width="0.239715" stroke-miterlimit="10"/>
<path d="M210.406 104.349L214.382 104.369C214.372 106.501 212.653 108.259 210.522 108.325C208.391 108.39 206.492 106.647 206.431 104.465C206.43 104.427 206.43 104.393 206.43 104.355L210.406 104.345L210.406 104.349Z" fill="#CEE7FF" stroke="#256CB0" stroke-width="0.239715" stroke-miterlimit="10"/>
<mask id="mask3_351_961" style="mask-type:luminance" maskUnits="userSpaceOnUse" x="167" y="75" width="97" height="34">
<path d="M263.863 101.099C263.762 100.044 263.167 99.3047 262.851 98.9205C258.746 93.9469 256.775 92.4901 256.775 92.4901C251.939 88.9176 248.782 86.5824 243.659 84.0905C241.932 83.2499 239.042 81.8603 235.078 80.635C232.419 79.8153 229.946 79.2827 228.19 78.8938C222.75 77.6849 218.47 77.2615 215.431 77.0031C198.155 75.5499 171.761 75.0731 167.633 75.0001C167.541 85.9493 167.449 96.8985 167.357 107.848C178.538 107.906 189.724 107.964 200.905 108.023C200.939 106.706 200.969 105.389 200.999 104.072C212.637 104.24 224.274 104.408 235.907 104.581C236.691 105.831 237.48 107.084 238.265 108.334C243.963 108.327 249.658 108.317 255.356 108.31C255.727 107.888 256.095 107.466 256.466 107.044C257.251 107.027 260.54 106.876 262.558 104.433C262.976 103.927 264.015 102.669 263.863 101.099Z" fill="white"/>
</mask>
<g mask="url(#mask3_351_961)">
<path d="M203.356 83.8542L166.656 83.8428L166.655 87.5283L203.355 87.5397L203.356 83.8542Z" stroke="#256CB0" stroke-width="0.239715" stroke-miterlimit="10"/>
<path d="M224.074 81.1779L224.071 92.1313C224.071 92.6083 223.682 92.9965 223.201 92.9963L216.342 92.9942C215.861 92.9941 215.473 92.6056 215.473 92.1286L215.476 81.1752C215.476 80.694 215.865 80.3058 216.346 80.3059L223.205 80.3081C223.686 80.3082 224.075 80.6967 224.074 81.1779Z" stroke="#256CB0" stroke-width="0.239715" stroke-miterlimit="10"/>
<path d="M246.293 87.6531L225.265 87.6466L225.266 84.1094L239.191 84.1137C239.203 84.1433 239.212 84.1686 239.22 84.1897C239.625 84.3587 240.026 84.5276 240.436 84.7093C242.284 85.5203 244.052 86.3988 245.741 87.3364C245.846 87.3997 245.956 87.4546 246.066 87.5222C246.142 87.5644 246.217 87.6067 246.293 87.6531Z" stroke="#256CB0" stroke-width="0.239715" stroke-miterlimit="10"/>
<path d="M188.6 95.271L198.549 95.2741C199.143 95.2743 199.625 94.7925 199.625 94.1981L199.627 90.0995C199.627 89.505 199.145 89.023 198.551 89.0228L188.602 89.0197C188.007 89.0195 187.525 89.5013 187.525 90.0957L187.524 94.1943C187.524 94.7887 188.005 95.2708 188.6 95.271Z" stroke="#256CB0" stroke-width="0.239715" stroke-miterlimit="10"/>
<path d="M189.138 94.6766L198.002 94.6794C198.596 94.6795 199.078 94.1978 199.078 93.6033L199.079 90.7162C199.08 90.1217 198.598 89.6397 198.003 89.6395L189.139 89.6367C188.545 89.6365 188.063 90.1183 188.063 90.7127L188.062 93.5999C188.062 94.1944 188.543 94.6764 189.138 94.6766Z" stroke="#256CB0" stroke-width="0.239715" stroke-miterlimit="10"/>
<path d="M203.335 97.7316L155.828 97.7168L155.828 98.7256L203.335 98.7404L203.335 97.7316Z" stroke="#256CB0" stroke-width="0.239715" stroke-miterlimit="10"/>
<path d="M289.928 97.7594L225.25 97.7393L225.25 98.7481L289.928 98.7682L289.928 97.7594Z" stroke="#256CB0" stroke-width="0.239715" stroke-miterlimit="10"/>
<path d="M203.339 98.7508L156.938 98.7363L156.937 100.75L203.338 100.764L203.339 98.7508Z" stroke="#256CB0" stroke-width="0.239715" stroke-miterlimit="10"/>
<path d="M294.259 98.7647L225.25 98.7432L225.249 100.757L294.258 100.778L294.259 98.7647Z" stroke="#256CB0" stroke-width="0.239715" stroke-miterlimit="10"/>
<path d="M203.323 100.766L157.391 100.752L157.39 101.761L203.323 101.775L203.323 100.766Z" stroke="#256CB0" stroke-width="0.239715" stroke-miterlimit="10"/>
<path d="M291.507 100.788L225.25 100.768L225.25 101.776L291.506 101.797L291.507 100.788Z" stroke="#256CB0" stroke-width="0.239715" stroke-miterlimit="10"/>
<path d="M224.017 79.0089L215.554 79.0062C214.866 79.006 214.305 79.563 214.304 80.2553L214.298 101.909C214.297 102.601 214.859 103.158 215.547 103.159L224.01 103.161C224.698 103.162 225.259 102.605 225.259 101.912L225.266 80.2587C225.266 79.5664 224.705 79.0091 224.017 79.0089ZM215.486 81.1758C215.486 80.6946 215.874 80.3064 216.356 80.3066L223.215 80.3087C223.696 80.3088 224.084 80.6973 224.084 81.1785L224.081 92.1319C224.08 92.6089 223.692 92.9971 223.211 92.997L216.352 92.9948C215.871 92.9947 215.482 92.6062 215.482 92.1293L215.486 81.1758Z" stroke="#256CB0" stroke-width="0.239715" stroke-miterlimit="10"/>
<path d="M233.723 94.8073L239.924 94.8092C240.518 94.8094 241 94.3277 241 93.7332L241.002 89.6346C241.002 89.0402 240.52 88.5581 239.926 88.558L233.725 88.556C233.131 88.5558 232.648 89.0376 232.648 89.632L232.647 93.7306C232.647 94.3251 233.129 94.8071 233.723 94.8073Z" stroke="#256CB0" stroke-width="0.239715" stroke-miterlimit="10"/>
<path d="M234.099 94.2157L239.549 94.2174C240.143 94.2176 240.625 93.7359 240.625 93.1414L240.626 90.2543C240.626 89.6598 240.145 89.1778 239.55 89.1776L234.101 89.1759C233.506 89.1757 233.024 89.6574 233.024 90.2519L233.023 93.1391C233.023 93.7335 233.505 94.2156 234.099 94.2157Z" stroke="#256CB0" stroke-width="0.239715" stroke-miterlimit="10"/>
<path d="M213.052 78.9962L204.593 78.9936C203.901 78.9933 203.344 79.5503 203.343 80.2426L203.337 101.896C203.336 102.588 203.893 103.146 204.586 103.146L213.044 103.149C213.737 103.149 214.294 102.592 214.294 101.9L214.301 80.246C214.301 79.5538 213.744 78.9964 213.052 78.9962ZM213.115 92.1192C213.115 92.5962 212.727 92.9844 212.25 92.9843L205.391 92.9821C204.91 92.982 204.521 92.5935 204.522 92.1166L204.525 81.1631C204.525 80.6819 204.914 80.2937 205.395 80.2939L212.254 80.296C212.731 80.2962 213.119 80.6846 213.119 81.1658L213.115 92.1192Z" stroke="#256CB0" stroke-width="0.239715" stroke-miterlimit="10"/>
<path d="M213.109 81.1642L213.106 92.1176C213.106 92.5946 212.717 92.9828 212.24 92.9827L205.381 92.9805C204.9 92.9804 204.512 92.5919 204.512 92.115L204.515 81.1615C204.516 80.6803 204.904 80.2921 205.385 80.2923L212.244 80.2944C212.721 80.2946 213.109 80.683 213.109 81.1642Z" stroke="#256CB0" stroke-width="0.239715" stroke-miterlimit="10"/>
<path d="M188.951 83.1802L198.9 83.1833C199.495 83.1834 199.977 82.7017 199.977 82.1072L199.978 78.0087C199.978 77.4142 199.497 76.9322 198.902 76.932L188.953 76.9289C188.359 76.9287 187.877 77.4104 187.877 78.0049L187.875 82.1035C187.875 82.6979 188.357 83.18 188.951 83.1802Z" stroke="#256CB0" stroke-width="0.239715" stroke-miterlimit="10"/>
<path d="M189.497 82.5858L198.361 82.5885C198.956 82.5887 199.438 82.107 199.438 81.5125L199.439 78.6254C199.439 78.0309 198.957 77.5489 198.363 77.5487L189.499 77.5459C188.904 77.5457 188.422 78.0275 188.422 78.6219L188.421 81.5091C188.421 82.1035 188.903 82.5856 189.497 82.5858Z" stroke="#256CB0" stroke-width="0.239715" stroke-miterlimit="10"/>
<path d="M173.944 95.2612L183.892 95.2643C184.487 95.2645 184.969 94.7827 184.969 94.1883L184.97 90.0897C184.971 89.4953 184.489 89.0132 183.894 89.013L173.945 89.0099C173.351 89.0098 172.869 89.4915 172.869 90.086L172.868 94.1845C172.867 94.779 173.349 95.261 173.944 95.2612Z" stroke="#256CB0" stroke-width="0.239715" stroke-miterlimit="10"/>
<path d="M174.489 94.6668L183.353 94.6696C183.948 94.6698 184.43 94.188 184.43 93.5936L184.431 90.7064C184.431 90.112 183.949 89.6299 183.355 89.6297L174.491 89.627C173.896 89.6268 173.414 90.1085 173.414 90.703L173.413 93.5901C173.413 94.1846 173.895 94.6666 174.489 94.6668Z" stroke="#256CB0" stroke-width="0.239715" stroke-miterlimit="10"/>
<path d="M174.037 82.9497L183.986 82.9528C184.581 82.953 185.063 82.4712 185.063 81.8768L185.064 77.7782C185.064 77.1837 184.583 76.7017 183.988 76.7015L174.039 76.6984C173.445 76.6982 172.963 77.18 172.963 77.7744L172.961 81.873C172.961 82.4675 173.443 82.9495 174.037 82.9497Z" stroke="#256CB0" stroke-width="0.239715" stroke-miterlimit="10"/>
<path d="M174.583 82.3553L183.447 82.3581C184.042 82.3582 184.524 81.8765 184.524 81.282L184.525 78.3949C184.525 77.8004 184.043 77.3184 183.449 77.3182L174.585 77.3154C173.99 77.3153 173.508 77.797 173.508 78.3915L173.507 81.2786C173.507 81.8731 173.989 82.3551 174.583 82.3553Z" stroke="#256CB0" stroke-width="0.239715" stroke-miterlimit="10"/>
<path d="M254.94 91.4727C254.577 92.2619 253.656 92.4263 253.555 92.4473C251.314 90.754 248.896 89.1324 246.284 87.6585C246.208 87.612 246.132 87.5698 246.056 87.5276C245.946 87.46 245.837 87.4051 245.731 87.3417C244.043 86.4041 242.275 85.5256 240.426 84.7146C240.017 84.533 239.616 84.364 239.211 84.1951C239.202 84.174 239.194 84.1486 239.181 84.1191C239.181 84.1149 239.177 84.1106 239.177 84.1064C239.16 84.0515 239.143 83.9882 239.131 83.9165C239.08 83.7054 239.05 83.431 239.084 83.1145C239.173 82.4054 239.57 81.9496 239.718 81.7893C241.102 82.3849 242.554 83.0607 244.069 83.8336C245.014 84.3151 245.977 84.8303 246.96 85.3878C246.99 85.4047 247.019 85.4216 247.044 85.4385C248.112 86.0424 249.121 86.6548 250.087 87.2671C250.184 87.3305 250.277 87.3938 250.374 87.4529C252.096 88.5594 253.662 89.6657 255.075 90.7341C255.088 90.9198 255.071 91.1857 254.94 91.4727Z" stroke="#256CB0" stroke-width="0.239715" stroke-miterlimit="10"/>
</g>
<path d="M137.816 229.01L137.89 180.71L170.93 180.76L170.916 189.86L147.956 189.825L147.938 201.725L168.798 201.757L168.784 210.857L147.924 210.825L147.896 229.025L137.816 229.01ZM178.293 217.311L178.349 180.771L188.429 180.787L188.372 217.887C188.37 219.287 189.069 219.988 190.469 219.99L204.189 220.011C205.589 220.013 206.29 219.314 206.292 217.914L206.349 180.814L216.429 180.829L216.373 217.369C216.361 225.209 212.435 229.123 204.595 229.111L190.035 229.089C182.195 229.077 178.281 225.151 178.293 217.311ZM227.435 229.146L227.509 180.846L237.589 180.862L237.529 220.062L258.389 220.093L258.375 229.193L227.435 229.146ZM265.785 229.205L265.858 180.905L275.938 180.92L275.879 220.12L296.739 220.152L296.725 229.252L265.785 229.205Z" fill="#256CB0"/>
<path d="M135.564 294.366L135.572 288.906L157.272 288.939C158.672 288.941 159.373 288.243 159.375 286.843L159.383 281.803C159.385 280.449 158.803 279.678 157.636 279.49L143.991 276.669C138.392 275.541 135.598 271.78 135.608 265.386L135.614 261.466C135.626 253.626 139.552 249.712 147.392 249.724L163.422 249.749L168.106 253.396L168.098 258.856L147.798 258.825C146.398 258.823 145.697 259.522 145.695 260.922L145.688 265.472C145.686 266.778 146.268 267.549 147.434 267.784L161.08 270.535C166.678 271.664 169.473 275.425 169.463 281.818L169.456 286.298C169.444 294.138 165.518 298.052 157.678 298.04L140.248 298.013L135.564 294.366ZM178.81 298.072L178.884 249.772L202.404 249.808C210.244 249.82 214.158 253.746 214.146 261.586L214.132 270.966C214.12 278.806 210.194 282.72 202.354 282.708L188.914 282.688L188.89 298.088L178.81 298.072ZM188.928 273.588L201.948 273.607C203.348 273.61 204.049 272.911 204.051 271.511L204.067 261.011C204.069 259.611 203.37 258.91 201.97 258.907L188.95 258.888L188.928 273.588ZM223.449 298.14L223.523 249.84L256.563 249.891L256.549 258.991L233.589 258.956L233.574 268.756L254.434 268.787L254.42 277.887L233.56 277.856L233.543 289.056L256.503 289.091L256.489 298.191L223.449 298.14ZM265.695 298.205L265.769 249.905L298.809 249.955L298.795 259.055L275.835 259.02L275.82 268.82L296.68 268.852L296.666 277.952L275.806 277.92L275.789 289.12L298.749 289.155L298.735 298.255L265.695 298.205ZM307.941 298.269L308.015 249.969L326.355 249.997C339.515 250.017 346.085 256.607 346.065 269.767L346.051 278.587C346.031 291.747 339.441 298.317 326.281 298.297L307.941 298.269ZM318.035 289.184L326.855 289.198C332.922 289.207 335.96 286.178 335.969 280.112L335.987 268.212C335.996 262.145 332.967 259.107 326.901 259.098L318.081 259.084L318.035 289.184Z" fill="#DCEEFF"/>
<path d="M133.415 369.113L147.836 322.725L163.236 322.748L177.515 369.18L176.252 371.068L167.852 371.055L164.927 361.251L146.027 361.222L143.072 371.018L134.672 371.005L133.415 369.113ZM148.771 352.126L162.211 352.147L156.082 331.837L154.962 331.836L148.771 352.126ZM184.514 371.081L184.587 322.781L194.667 322.796L194.638 341.696L212.558 341.724L212.587 322.824L222.667 322.839L222.593 371.139L212.513 371.124L212.544 350.824L194.624 350.796L194.593 371.096L184.514 371.081ZM234.074 371.156L234.148 322.856L267.188 322.907L267.174 332.007L244.214 331.972L244.199 341.772L265.059 341.804L265.045 350.904L244.185 350.872L244.168 362.072L267.128 362.107L267.114 371.207L234.074 371.156ZM271.843 369.324L286.264 322.936L301.664 322.959L315.943 369.391L314.68 371.279L306.28 371.266L303.355 361.462L284.455 361.433L281.5 371.229L273.1 371.216L271.843 369.324ZM287.199 352.337L300.639 352.358L294.51 332.048L293.39 332.047L287.199 352.337ZM322.941 371.292L323.015 322.992L341.355 323.02C354.515 323.04 361.085 329.63 361.065 342.79L361.051 351.61C361.031 364.77 354.441 371.34 341.281 371.32L322.941 371.292ZM333.035 362.207L341.855 362.221C347.922 362.23 350.96 359.201 350.969 353.134L350.987 341.234C350.996 335.168 347.967 332.13 341.901 332.121L333.081 332.107L333.035 362.207Z" fill="#256CB0"/>
<rect x="458" y="430" width="119" height="17" fill="#5697D1"/>
<rect x="404" y="816" width="16" height="77" fill="#6BACEA"/>
<rect x="451" y="816" width="15" height="77" fill="#6BACEA"/>
<rect x="459.992" y="683" width="25" height="26" fill="#56A2E9"/>
</g>
<g clip-path="url(#clip1_351_961)">
<path d="M541.292 711.3H577.072V696H525.992C519.362 696 513.992 701.38 513.992 708.01V837.72C513.992 844.35 519.362 849.72 525.992 849.72H577.072V834.43H541.282C534.652 834.43 529.282 829.06 529.282 822.43V723.3C529.282 716.67 534.662 711.3 541.292 711.3Z" fill="#71B2ED"/>
</g>
<defs>
<clipPath id="clip0_351_961">
<rect width="1059.75" height="573.5" fill="white" transform="translate(664.938 51.3115) rotate(95.0715)"/>
</clipPath>
<clipPath id="clip1_351_961">
<rect width="63.08" height="153.72" fill="white" transform="translate(513.992 696)"/>
</clipPath>
</defs>
</svg>
