<svg width="353" height="1417" viewBox="0 0 353 1417" fill="none" xmlns="http://www.w3.org/2000/svg">
<path fill-rule="evenodd" clip-rule="evenodd" d="M9.5 70C4.2533 70 0 65.7467 0 60.5V9.5C0 4.2533 4.2533 0 9.5 0C14.7467 0 19 4.2533 19 9.5V51H342.5C342.871 51 343.237 51.0214 343.597 51.0627C348.556 51.4161 352.459 55.5605 352.439 60.6047L347.093 1407.02C347.072 1412.28 342.789 1416.53 337.526 1416.51C332.264 1416.49 328.015 1412.21 328.035 1406.94L333.344 70H10.5C10.3323 70 10.1656 69.9956 10 69.9871C9.83444 69.9956 9.66772 70 9.5 70Z" fill="#F0F0F0"/>
</svg>
