<svg width="115" height="101" viewBox="0 0 115 101" fill="none" xmlns="http://www.w3.org/2000/svg">
<path d="M54.1446 2.96651L1.53368 94.0989C0.0173355 96.7209 1.91277 100 4.94546 100H110.174C113.206 100 115.095 96.7209 113.585 94.0989L60.9618 2.96651C59.4455 0.344496 55.6609 0.344496 54.1446 2.96651Z" fill="#F6EFEF" stroke="#323232" stroke-width="1.09325" stroke-miterlimit="10"/>
<path d="M53.9766 8.52266L7.01048 91.4341C5.464 94.1634 7.41334 97.5701 10.5193 97.5701H104.451C107.564 97.5701 109.513 94.1634 107.96 91.4341L61.0007 8.52266C59.4477 5.78021 55.5295 5.78021 53.9766 8.52266Z" fill="#EB6D26" stroke="#323232" stroke-width="0.631811" stroke-miterlimit="10"/>
<circle cx="57.2418" cy="16.2418" r="2.24176" fill="white"/>
<circle cx="103.242" cy="92.2418" r="2.24176" fill="white"/>
<circle cx="12.2418" cy="92.2418" r="2.24176" fill="white"/>
<path d="M46.5654 73.7168C44.9929 80.3336 43.4163 86.9464 41.8438 93.5632C43.0487 93.7102 44.2577 93.8573 45.4626 94.0002L50.0208 74.6603C48.869 74.3458 47.7131 74.0313 46.5613 73.7168H46.5654Z" fill="#F6EFEF"/>
<path d="M66.2055 73.7168C67.778 80.3336 69.3546 86.9464 70.9271 93.5632C69.7222 93.7102 68.5132 93.8573 67.3083 94.0002L62.75 74.6603C63.9018 74.3458 65.0577 74.0313 66.2095 73.7168H66.2055Z" fill="#F6EFEF"/>
<path d="M64.614 79.3574H47.5859V82.4453H64.614V79.3574Z" fill="#F6EFEF"/>
<path d="M67 86H46V89H67V86Z" fill="#F6EFEF"/>
<path d="M66.6942 46.7842H57.9698C57.4126 46.7842 56.9609 47.2359 56.9609 47.793V58.4085C56.9609 58.9657 57.4126 59.4174 57.9698 59.4174H66.6942C67.2514 59.4174 67.7031 58.9657 67.7031 58.4085V47.793C67.7031 47.2359 67.2514 46.7842 66.6942 46.7842Z" fill="#F6EFEF"/>
<path d="M68.2359 39.0156H43.9742C41.7767 39.0156 40 40.7924 40 42.9898V70.9888C40 73.1821 41.7767 74.9629 43.9742 74.9629H68.2359C70.4292 74.9629 72.21 73.1862 72.21 70.9888V42.9898C72.21 40.7964 70.4333 39.0156 68.2359 39.0156ZM69.6082 59.9566C69.6082 60.6551 69.0446 61.2187 68.3461 61.2187H43.9864C43.288 61.2187 42.7243 60.6551 42.7243 59.9566V46.2451C42.7243 45.5467 43.288 44.983 43.9864 44.983H68.3461C69.0446 44.983 69.6082 45.5467 69.6082 46.2451V59.9566Z" fill="#F6EFEF"/>
<path d="M54.2255 46.7842H45.501C44.9439 46.7842 44.4922 47.2359 44.4922 47.793V58.4085C44.4922 58.9657 44.9439 59.4174 45.501 59.4174H54.2255C54.7826 59.4174 55.2343 58.9657 55.2343 58.4085V47.793C55.2343 47.2359 54.7826 46.7842 54.2255 46.7842Z" fill="#F6EFEF"/>
<path d="M45.9344 69.824C47.033 69.824 47.9236 68.9334 47.9236 67.8348C47.9236 66.7363 47.033 65.8457 45.9344 65.8457C44.8359 65.8457 43.9453 66.7363 43.9453 67.8348C43.9453 68.9334 44.8359 69.824 45.9344 69.824Z" fill="#EB6D26"/>
<path d="M65.7157 69.824C66.8143 69.824 67.7048 68.9334 67.7048 67.8348C67.7048 66.7363 66.8143 65.8457 65.7157 65.8457C64.6171 65.8457 63.7266 66.7363 63.7266 67.8348C63.7266 68.9334 64.6171 69.824 65.7157 69.824Z" fill="#EB6D26"/>
<path d="M65.4012 37H46.7515C46.3365 37 46 37.3365 46 37.7515V39.7652C46 40.1802 46.3365 40.5167 46.7515 40.5167H65.4012C65.8162 40.5167 66.1527 40.1802 66.1527 39.7652V37.7515C66.1527 37.3365 65.8162 37 65.4012 37Z" fill="#F6EFEF"/>
</svg>
