<svg width="812" height="297" viewBox="0 0 812 297" fill="none" xmlns="http://www.w3.org/2000/svg">
<path d="M333.286 260.157L298.218 260.292C298.292 279.092 313.437 294.617 332.23 295.213C351.023 295.81 367.778 280.454 368.342 261.214C368.345 260.879 368.348 260.581 368.352 260.246L333.286 260.12L333.286 260.157Z" fill="#CEE7FF" stroke="#256CB0" stroke-width="2.11398" stroke-miterlimit="10"/>
<path d="M2.12946 231.893C3.02283 222.587 8.27142 216.073 11.0632 212.685C47.2817 168.836 64.6652 155.994 64.6652 155.994C107.323 124.503 135.167 103.918 180.356 81.9562C195.58 74.5487 221.079 62.3022 256.031 51.5073C279.482 44.286 301.295 39.5958 316.78 36.1712C364.761 25.5253 402.506 21.8029 429.307 19.5323C581.663 6.76462 814.422 2.6328 850.827 2C851.608 98.5579 852.39 195.116 853.172 291.674C754.567 292.158 655.924 292.642 557.319 293.126C557.021 281.512 557.58 271.593 557.319 259.979C454.694 261.431 349.551 258.49 246.962 259.979C240.039 270.997 234.777 284.75 227.853 295.768C177.601 295.694 127.387 295.582 77.135 295.508C73.8593 291.785 70.6208 288.063 67.3452 284.341C60.4216 284.192 31.4244 282.852 13.6316 261.299C9.94647 256.833 0.789368 245.74 2.12946 231.893Z" fill="#CEE7FF" stroke="#256CB0" stroke-width="2.11398" stroke-miterlimit="10"/>
<path d="M403.46 260.062L368.392 259.93C368.322 278.729 383.348 294.369 402.136 295.109C420.924 295.849 437.796 280.621 438.506 261.386C438.512 261.051 438.518 260.753 438.523 260.418L403.46 260.025L403.46 260.062Z" fill="#CEE7FF" stroke="#256CB0" stroke-width="2.11398" stroke-miterlimit="10"/>
<path d="M473.747 260.542L438.679 260.701C438.766 279.501 453.922 295.015 472.716 295.598C491.509 296.182 508.253 280.814 508.804 261.573C508.807 261.238 508.809 260.94 508.812 260.605L473.747 260.505L473.747 260.542Z" fill="#CEE7FF" stroke="#256CB0" stroke-width="2.11398" stroke-miterlimit="10"/>
<mask id="mask0_501_240" style="mask-type:luminance" maskUnits="userSpaceOnUse" x="2" y="2" width="852" height="294">
<path d="M2.12946 231.893C3.02283 222.587 8.27142 216.073 11.0632 212.685C47.2817 168.836 64.665 155.994 64.665 155.994C107.323 124.503 135.167 103.918 180.356 81.9562C195.58 74.5487 221.078 62.3022 256.031 51.5073C279.482 44.286 301.295 39.5958 316.78 36.1712C364.761 25.5253 402.506 21.8029 429.307 19.5323C581.663 6.76462 814.422 2.6328 850.827 2C851.608 98.5579 852.39 195.116 853.172 291.674C754.567 292.158 655.924 292.642 557.319 293.126C557.021 281.512 556.761 269.898 556.5 258.284C453.875 259.736 351.249 261.188 248.661 262.677C241.738 273.695 234.777 284.75 227.853 295.768C177.601 295.694 127.387 295.582 77.1351 295.508C73.8594 291.785 70.6208 288.063 67.3452 284.341C60.4216 284.192 31.4245 282.852 13.6316 261.299C9.94647 256.833 0.789368 245.74 2.12946 231.893Z" fill="white"/>
</mask>
<g mask="url(#mask0_501_240)">
<path d="M536.001 80.0137L859.648 80.0137V112.515L536.001 112.515V80.0137Z" stroke="#256CB0" stroke-width="2.11398" stroke-miterlimit="10"/>
<path d="M353.23 56.17V152.765C353.23 156.971 356.655 160.396 360.898 160.396H421.387C425.63 160.396 429.055 156.971 429.055 152.765V56.17C429.055 51.9265 425.63 48.502 421.387 48.502L360.898 48.502C356.655 48.502 353.23 51.9265 353.23 56.17Z" stroke="#256CB0" stroke-width="2.11398" stroke-miterlimit="10"/>
<path d="M157.31 113.303L342.758 113.303V82.1094L219.957 82.1094C219.846 82.3699 219.771 82.5933 219.697 82.7794C216.123 84.2683 212.587 85.7573 208.976 87.3579C192.672 94.5048 177.076 102.247 162.186 110.511C161.256 111.069 160.288 111.553 159.32 112.149C158.65 112.521 157.98 112.893 157.31 113.303Z" stroke="#256CB0" stroke-width="2.11398" stroke-miterlimit="10"/>
<path d="M666.103 180.607H578.367C573.125 180.607 568.875 176.358 568.875 171.115V134.971C568.875 129.729 573.125 125.479 578.367 125.479H666.103C671.345 125.479 675.595 129.729 675.595 134.971V171.115C675.595 176.358 671.345 180.607 666.103 180.607Z" stroke="#256CB0" stroke-width="2.11398" stroke-miterlimit="10"/>
<path d="M661.24 175.271H583.07C577.828 175.271 573.578 171.022 573.578 165.779V140.319C573.578 135.076 577.828 130.827 583.07 130.827H661.24C666.482 130.827 670.732 135.076 670.732 140.319V165.779C670.732 171.022 666.482 175.271 661.24 175.271Z" stroke="#256CB0" stroke-width="2.11398" stroke-miterlimit="10"/>
<path d="M536.111 202.352L955.062 202.352V211.248L536.111 211.248V202.352Z" stroke="#256CB0" stroke-width="2.11398" stroke-miterlimit="10"/>
<path d="M-227.564 202.352L342.812 202.352V211.248L-227.564 211.248V202.352Z" stroke="#256CB0" stroke-width="2.11398" stroke-miterlimit="10"/>
<path d="M536.051 211.23L945.25 211.23V228.986L536.051 228.986V211.23Z" stroke="#256CB0" stroke-width="2.11398" stroke-miterlimit="10"/>
<path d="M-265.755 211.23L342.812 211.23V228.986L-265.755 228.986V211.23Z" stroke="#256CB0" stroke-width="2.11398" stroke-miterlimit="10"/>
<path d="M536.113 228.99L941.18 228.99V237.887L536.113 237.887V228.99Z" stroke="#256CB0" stroke-width="2.11398" stroke-miterlimit="10"/>
<path d="M-241.486 228.99L342.812 228.99V237.887L-241.486 237.887V228.99Z" stroke="#256CB0" stroke-width="2.11398" stroke-miterlimit="10"/>
<path d="M353.778 37.043L428.411 37.043C434.479 37.043 439.43 41.9565 439.43 48.0611V239.018C439.43 245.123 434.479 250.036 428.411 250.036H353.778C347.711 250.036 342.76 245.123 342.76 239.018V48.0611C342.76 41.9565 347.711 37.043 353.778 37.043ZM429.007 56.1759C429.007 51.9324 425.583 48.5078 421.339 48.5078L360.851 48.5078C356.607 48.5078 353.183 51.9324 353.183 56.1759V152.771C353.183 156.977 356.607 160.402 360.851 160.402H421.339C425.583 160.402 429.007 156.977 429.007 152.771V56.1759Z" stroke="#256CB0" stroke-width="2.11398" stroke-miterlimit="10"/>
<path d="M268.142 176.477H213.461C208.218 176.477 203.969 172.227 203.969 166.985V130.84C203.969 125.598 208.218 121.348 213.461 121.348H268.142C273.384 121.348 277.634 125.598 277.634 130.84V166.985C277.634 172.227 273.384 176.477 268.142 176.477Z" stroke="#256CB0" stroke-width="2.11398" stroke-miterlimit="10"/>
<path d="M264.845 171.113H216.789C211.547 171.113 207.297 166.864 207.297 161.621V136.16C207.297 130.918 211.547 126.668 216.789 126.668H264.845C270.087 126.668 274.337 130.918 274.337 136.16V161.621C274.337 166.864 270.087 171.113 264.845 171.113Z" stroke="#256CB0" stroke-width="2.11398" stroke-miterlimit="10"/>
<path d="M450.441 37.0273L525.037 37.0273C531.141 37.0273 536.055 41.9409 536.055 48.0455V239.002C536.055 245.107 531.141 250.021 525.037 250.021H450.441C444.336 250.021 439.422 245.107 439.422 239.002V48.0455C439.422 41.9409 444.336 37.0273 450.441 37.0273ZM449.845 152.755C449.845 156.962 453.27 160.386 457.476 160.386H517.964C522.208 160.386 525.632 156.962 525.632 152.755V56.1603C525.632 51.9168 522.208 48.4922 517.964 48.4922L457.476 48.4922C453.27 48.4922 449.845 51.9168 449.845 56.1603V152.755Z" stroke="#256CB0" stroke-width="2.11398" stroke-miterlimit="10"/>
<path d="M449.885 56.17V152.765C449.885 156.971 453.309 160.396 457.516 160.396H518.004C522.247 160.396 525.672 156.971 525.672 152.765V56.17C525.672 51.9265 522.247 48.502 518.004 48.502L457.516 48.502C453.309 48.502 449.885 51.9265 449.885 56.17Z" stroke="#256CB0" stroke-width="2.11398" stroke-miterlimit="10"/>
<path d="M662.939 73.9922L575.203 73.9922C569.961 73.9922 565.711 69.7425 565.711 64.5002V28.3561C565.711 23.1138 569.961 18.8641 575.203 18.8641L662.939 18.8641C668.181 18.8641 672.431 23.1138 672.431 28.3561V64.5002C672.431 69.7425 668.181 73.9922 662.939 73.9922Z" stroke="#256CB0" stroke-width="2.11398" stroke-miterlimit="10"/>
<path d="M658.193 68.6855H580.023C574.781 68.6855 570.531 64.4358 570.531 59.1935V33.7326C570.531 28.4903 574.781 24.2406 580.023 24.2406L658.193 24.2406C663.435 24.2406 667.685 28.4903 667.685 33.7326V59.1935C667.685 64.4358 663.435 68.6855 658.193 68.6855Z" stroke="#256CB0" stroke-width="2.11398" stroke-miterlimit="10"/>
<path d="M795.236 180.594H707.5C702.258 180.594 698.008 176.344 698.008 171.102V134.958C698.008 129.715 702.258 125.466 707.5 125.466H795.236C800.478 125.466 804.728 129.715 804.728 134.958V171.102C804.728 176.344 800.478 180.594 795.236 180.594Z" stroke="#256CB0" stroke-width="2.11398" stroke-miterlimit="10"/>
<path d="M790.49 175.287H712.32C707.078 175.287 702.828 171.037 702.828 165.795V140.334C702.828 135.092 707.078 130.842 712.32 130.842H790.49C795.732 130.842 799.982 135.092 799.982 140.334V165.795C799.982 171.037 795.732 175.287 790.49 175.287Z" stroke="#256CB0" stroke-width="2.11398" stroke-miterlimit="10"/>
<path d="M794.392 72.0527L706.656 72.0527C701.414 72.0527 697.164 67.803 697.164 62.5607V26.4166C697.164 21.1744 701.414 16.9246 706.656 16.9246L794.392 16.9246C799.634 16.9246 803.884 21.1744 803.884 26.4166V62.5607C803.884 67.803 799.634 72.0527 794.392 72.0527Z" stroke="#256CB0" stroke-width="2.11398" stroke-miterlimit="10"/>
<path d="M789.646 66.7461H711.476C706.234 66.7461 701.984 62.4964 701.984 57.2541V31.7932C701.984 26.5509 706.234 22.3012 711.476 22.3012L789.646 22.3012C794.888 22.3012 799.138 26.5509 799.138 31.7932V57.2541C799.138 62.4964 794.888 66.7461 789.646 66.7461Z" stroke="#256CB0" stroke-width="2.11398" stroke-miterlimit="10"/>
<path d="M80.9768 146.924C84.1781 153.885 92.2928 155.336 93.1862 155.523C112.952 140.596 134.281 126.302 157.322 113.311C157.992 112.902 158.662 112.529 159.332 112.157C160.3 111.562 161.268 111.078 162.199 110.519C177.088 102.256 192.685 94.5132 208.989 87.3662C212.599 85.7656 216.136 84.2767 219.709 82.7877C219.784 82.6016 219.858 82.3783 219.97 82.1177C219.97 82.0805 220.007 82.0433 220.007 82.006C220.156 81.5221 220.305 80.9638 220.416 80.331C220.863 78.4698 221.124 76.0503 220.826 73.2585C220.044 67.0049 216.545 62.9848 215.242 61.5703C203.033 66.8188 190.228 72.7746 176.865 79.5865C168.527 83.83 160.04 88.3713 151.367 93.2848C151.106 93.4337 150.845 93.5826 150.622 93.7315C141.205 99.0544 132.308 104.452 123.784 109.849C122.928 110.408 122.109 110.966 121.253 111.487C106.066 121.24 92.2556 130.992 79.7857 140.41C79.674 142.048 79.8229 144.393 80.9768 146.924Z" stroke="#256CB0" stroke-width="2.11398" stroke-miterlimit="10"/>
</g>
</svg>
