<svg width="799" height="297" viewBox="0 0 799 297" fill="none" xmlns="http://www.w3.org/2000/svg">
<path d="M465.886 260.159L500.953 260.294C500.88 279.094 485.735 294.618 466.942 295.215C448.149 295.812 431.394 280.456 430.83 261.216C430.827 260.881 430.824 260.583 430.82 260.248L465.885 260.122L465.886 260.159Z" fill="#CEE7FF" stroke="#256CB0" stroke-width="2.11398" stroke-miterlimit="10"/>
<path d="M797.042 231.895C796.149 222.589 790.9 216.075 788.109 212.687C751.89 168.838 734.507 155.996 734.507 155.996C691.849 124.505 664.005 103.92 618.816 81.9582C603.591 74.5507 578.093 62.3041 543.14 51.5093C519.69 44.2879 497.877 39.5978 482.392 36.1732C434.41 25.5272 396.666 21.8049 369.865 19.5343C217.509 6.76657 -15.2503 2.63475 -51.6549 2.00195C-52.4366 98.5599 -53.2183 195.118 -54 291.676C44.6052 292.16 143.248 292.644 241.853 293.127C242.151 281.514 241.592 271.595 241.853 259.981C344.478 261.433 449.621 258.492 552.21 259.981C559.133 270.999 564.395 284.752 571.319 295.77C621.57 295.696 671.785 295.584 722.037 295.51C725.313 291.787 728.551 288.065 731.827 284.343C738.75 284.194 767.747 282.854 785.54 261.301C789.225 256.834 798.383 245.742 797.042 231.895Z" fill="#CEE7FF" stroke="#256CB0" stroke-width="2.11398" stroke-miterlimit="10"/>
<path d="M395.712 260.062L430.78 259.93C430.85 278.729 415.824 294.369 397.036 295.109C378.248 295.849 361.376 280.621 360.665 261.386C360.66 261.051 360.654 260.753 360.648 260.418L395.712 260.025L395.712 260.062Z" fill="#CEE7FF" stroke="#256CB0" stroke-width="2.11398" stroke-miterlimit="10"/>
<path d="M325.425 260.544L360.492 260.703C360.406 279.503 345.25 295.017 326.456 295.6C307.663 296.184 290.918 280.816 290.368 261.575C290.365 261.24 290.362 260.942 290.359 260.607L325.425 260.507L325.425 260.544Z" fill="#CEE7FF" stroke="#256CB0" stroke-width="2.11398" stroke-miterlimit="10"/>
<mask id="mask0_501_204" style="mask-type:luminance" maskUnits="userSpaceOnUse" x="-54" y="2" width="852" height="294">
<path d="M797.042 231.893C796.149 222.587 790.9 216.073 788.109 212.685C751.89 168.836 734.507 155.994 734.507 155.994C691.849 124.503 664.005 103.918 618.816 81.9562C603.592 74.5487 578.093 62.3022 543.14 51.5073C519.69 44.286 497.877 39.5958 482.392 36.1712C434.41 25.5253 396.666 21.8029 369.865 19.5323C217.509 6.76462 -15.2503 2.6328 -51.6549 2C-52.4366 98.5579 -53.2183 195.116 -54 291.674C44.6052 292.158 143.248 292.642 241.853 293.126C242.151 281.512 242.411 269.898 242.672 258.284C345.297 259.736 447.923 261.188 550.511 262.677C557.434 273.695 564.395 284.75 571.319 295.768C621.57 295.694 671.785 295.582 722.037 295.508C725.312 291.785 728.551 288.063 731.827 284.341C738.75 284.192 767.747 282.852 785.54 261.299C789.225 256.833 798.383 245.74 797.042 231.893Z" fill="white"/>
</mask>
<g mask="url(#mask0_501_204)">
<path d="M263.171 80.0156L-60.4766 80.0156V112.517L263.171 112.517V80.0156Z" stroke="#256CB0" stroke-width="2.11398" stroke-miterlimit="10"/>
<path d="M445.942 56.172V152.767C445.942 156.973 442.517 160.398 438.274 160.398H377.785C373.542 160.398 370.117 156.973 370.117 152.767V56.172C370.117 51.9285 373.542 48.5039 377.785 48.5039L438.274 48.5039C442.517 48.5039 445.942 51.9285 445.942 56.172Z" stroke="#256CB0" stroke-width="2.11398" stroke-miterlimit="10"/>
<path d="M641.862 113.303L456.414 113.303V82.1094L579.215 82.1094C579.326 82.3699 579.401 82.5933 579.475 82.7794C583.049 84.2683 586.585 85.7573 590.196 87.3579C606.499 94.5048 622.096 102.247 636.986 110.511C637.916 111.069 638.884 111.553 639.852 112.149C640.522 112.521 641.192 112.893 641.862 113.303Z" stroke="#256CB0" stroke-width="2.11398" stroke-miterlimit="10"/>
<path d="M133.069 180.607H220.805C226.047 180.607 230.297 176.358 230.297 171.115V134.971C230.297 129.729 226.047 125.479 220.805 125.479H133.069C127.827 125.479 123.577 129.729 123.577 134.971V171.115C123.577 176.358 127.827 180.607 133.069 180.607Z" stroke="#256CB0" stroke-width="2.11398" stroke-miterlimit="10"/>
<path d="M137.932 175.273H216.102C221.344 175.273 225.594 171.024 225.594 165.781V140.32C225.594 135.078 221.344 130.828 216.102 130.828H137.932C132.69 130.828 128.44 135.078 128.44 140.32V165.781C128.44 171.024 132.69 175.273 137.932 175.273Z" stroke="#256CB0" stroke-width="2.11398" stroke-miterlimit="10"/>
<path d="M263.061 202.354L-155.891 202.354V211.25L263.061 211.25V202.354Z" stroke="#256CB0" stroke-width="2.11398" stroke-miterlimit="10"/>
<path d="M1026.74 202.354L456.359 202.354V211.25L1026.74 211.25V202.354Z" stroke="#256CB0" stroke-width="2.11398" stroke-miterlimit="10"/>
<path d="M263.121 211.232L-146.078 211.232V228.988L263.121 228.988V211.232Z" stroke="#256CB0" stroke-width="2.11398" stroke-miterlimit="10"/>
<path d="M1064.93 211.232L456.359 211.232V228.988L1064.93 228.988V211.232Z" stroke="#256CB0" stroke-width="2.11398" stroke-miterlimit="10"/>
<path d="M263.059 228.992L-142.008 228.992V237.889L263.059 237.889V228.992Z" stroke="#256CB0" stroke-width="2.11398" stroke-miterlimit="10"/>
<path d="M1040.66 228.992L456.359 228.992V237.889L1040.66 237.889V228.992Z" stroke="#256CB0" stroke-width="2.11398" stroke-miterlimit="10"/>
<path d="M445.394 37.043L370.76 37.043C364.693 37.043 359.742 41.9565 359.742 48.0611V239.018C359.742 245.123 364.693 250.036 370.76 250.036H445.394C451.461 250.036 456.412 245.123 456.412 239.018V48.0611C456.412 41.9565 451.461 37.043 445.394 37.043ZM370.165 56.1759C370.165 51.9324 373.589 48.5078 377.833 48.5078L438.321 48.5078C442.565 48.5078 445.989 51.9324 445.989 56.1759V152.771C445.989 156.977 442.565 160.402 438.321 160.402H377.833C373.589 160.402 370.165 156.977 370.165 152.771V56.1759Z" stroke="#256CB0" stroke-width="2.11398" stroke-miterlimit="10"/>
<path d="M531.03 176.477H585.711C590.953 176.477 595.203 172.227 595.203 166.985V130.84C595.203 125.598 590.953 121.348 585.711 121.348H531.03C525.787 121.348 521.538 125.598 521.538 130.84V166.985C521.538 172.227 525.787 176.477 531.03 176.477Z" stroke="#256CB0" stroke-width="2.11398" stroke-miterlimit="10"/>
<path d="M534.327 171.113H582.383C587.625 171.113 591.875 166.864 591.875 161.621V136.16C591.875 130.918 587.625 126.668 582.383 126.668H534.327C529.085 126.668 524.835 130.918 524.835 136.16V161.621C524.835 166.864 529.085 171.113 534.327 171.113Z" stroke="#256CB0" stroke-width="2.11398" stroke-miterlimit="10"/>
<path d="M348.731 37.0273L274.135 37.0273C268.031 37.0273 263.117 41.9409 263.117 48.0455V239.002C263.117 245.107 268.031 250.021 274.135 250.021H348.731C354.836 250.021 359.75 245.107 359.75 239.002V48.0455C359.75 41.9409 354.836 37.0273 348.731 37.0273ZM349.327 152.755C349.327 156.962 345.902 160.386 341.696 160.386H281.208C276.964 160.386 273.54 156.962 273.54 152.755V56.1603C273.54 51.9168 276.964 48.4922 281.208 48.4922L341.696 48.4922C345.902 48.4922 349.327 51.9168 349.327 56.1603V152.755Z" stroke="#256CB0" stroke-width="2.11398" stroke-miterlimit="10"/>
<path d="M349.287 56.172V152.767C349.287 156.973 345.863 160.398 341.656 160.398H281.168C276.925 160.398 273.5 156.973 273.5 152.767V56.172C273.5 51.9285 276.925 48.5039 281.168 48.5039L341.656 48.5039C345.863 48.5039 349.287 51.9285 349.287 56.172Z" stroke="#256CB0" stroke-width="2.11398" stroke-miterlimit="10"/>
<path d="M136.233 73.9941L223.969 73.9941C229.211 73.9941 233.461 69.7444 233.461 64.5021V28.358C233.461 23.1158 229.211 18.866 223.969 18.866L136.233 18.866C130.991 18.866 126.741 23.1158 126.741 28.358V64.5021C126.741 69.7444 130.991 73.9941 136.233 73.9941Z" stroke="#256CB0" stroke-width="2.11398" stroke-miterlimit="10"/>
<path d="M140.979 68.6875H219.149C224.391 68.6875 228.641 64.4378 228.641 59.1955V33.7346C228.641 28.4923 224.391 24.2426 219.149 24.2426L140.979 24.2426C135.737 24.2426 131.487 28.4923 131.487 33.7346V59.1955C131.487 64.4378 135.737 68.6875 140.979 68.6875Z" stroke="#256CB0" stroke-width="2.11398" stroke-miterlimit="10"/>
<path d="M3.93613 180.594H91.672C96.9143 180.594 101.164 176.344 101.164 171.102V134.958C101.164 129.715 96.9143 125.466 91.672 125.466H3.93613C-1.30616 125.466 -5.55589 129.715 -5.55589 134.958V171.102C-5.55589 176.344 -1.30616 180.594 3.93613 180.594Z" stroke="#256CB0" stroke-width="2.11398" stroke-miterlimit="10"/>
<path d="M8.68226 175.287H86.8517C92.094 175.287 96.3438 171.037 96.3438 165.795V140.334C96.3438 135.092 92.094 130.842 86.8517 130.842H8.68226C3.43997 130.842 -0.809761 135.092 -0.809761 140.334V165.795C-0.809761 171.037 3.43997 175.287 8.68226 175.287Z" stroke="#256CB0" stroke-width="2.11398" stroke-miterlimit="10"/>
<path d="M4.77988 72.0527L92.5158 72.0527C97.7581 72.0527 102.008 67.803 102.008 62.5607V26.4166C102.008 21.1744 97.7581 16.9246 92.5158 16.9246L4.77988 16.9246C-0.46241 16.9246 -4.71214 21.1744 -4.71214 26.4166V62.5607C-4.71214 67.803 -0.46241 72.0527 4.77988 72.0527Z" stroke="#256CB0" stroke-width="2.11398" stroke-miterlimit="10"/>
<path d="M9.52601 66.7461H87.6955C92.9378 66.7461 97.1875 62.4964 97.1875 57.2541V31.7932C97.1875 26.5509 92.9378 22.3012 87.6955 22.3012L9.52601 22.3012C4.28372 22.3012 0.033989 26.5509 0.033989 31.7932V57.2541C0.033989 62.4964 4.28372 66.7461 9.52601 66.7461Z" stroke="#256CB0" stroke-width="2.11398" stroke-miterlimit="10"/>
<path d="M718.195 146.924C714.994 153.885 706.879 155.336 705.986 155.523C686.22 140.596 664.891 126.302 641.849 113.311C641.179 112.902 640.509 112.529 639.839 112.157C638.872 111.562 637.904 111.078 636.973 110.519C622.084 102.256 606.487 94.5132 590.183 87.3662C586.573 85.7656 583.036 84.2767 579.463 82.7877C579.388 82.6016 579.314 82.3783 579.202 82.1177C579.202 82.0805 579.165 82.0433 579.165 82.006C579.016 81.5221 578.867 80.9638 578.756 80.331C578.309 78.4698 578.048 76.0503 578.346 73.2585C579.128 67.0049 582.627 62.9848 583.93 61.5703C596.139 66.8188 608.944 72.7746 622.307 79.5865C630.645 83.83 639.132 88.3713 647.805 93.2848C648.066 93.4337 648.326 93.5826 648.55 93.7315C657.967 99.0544 666.864 104.452 675.388 109.849C676.244 110.408 677.063 110.966 677.919 111.487C693.106 121.24 706.916 130.992 719.386 140.41C719.498 142.048 719.349 144.393 718.195 146.924Z" stroke="#256CB0" stroke-width="2.11398" stroke-miterlimit="10"/>
</g>
</svg>
