<svg width="61" height="53" viewBox="0 0 61 53" fill="none" xmlns="http://www.w3.org/2000/svg">
<path d="M28.787 1.46288L1.09342 49.4336C0.29524 50.8138 1.29297 52.5399 2.88933 52.5399H58.2799C59.8762 52.5399 60.8706 50.8138 60.0758 49.4336L32.3755 1.46288C31.5773 0.0826868 29.5852 0.0826868 28.787 1.46288Z" fill="#F6EFEF" stroke="#323232" stroke-width="0.725167" stroke-miterlimit="10"/>
<path d="M28.6949 4.38738L3.97266 48.0308C3.15861 49.4674 4.18472 51.2607 5.81964 51.2607H55.2642C56.9025 51.2607 57.9286 49.4674 57.1112 48.0308L32.3923 4.38738C31.5749 2.94379 29.5124 2.94379 28.6949 4.38738Z" fill="#EB6D26" stroke="#323232" stroke-width="0.419088" stroke-miterlimit="10"/>
<circle cx="30.4222" cy="8.45347" r="1.18003" fill="white"/>
<circle cx="54.641" cy="48.4593" r="1.18003" fill="white"/>
<circle cx="6.73472" cy="48.4593" r="1.18003" fill="white"/>
<path d="M48.3723 46.646C47.3382 46.6892 46.304 46.7307 45.2699 46.7739C44.4017 44.8396 43.535 42.907 42.6667 40.9726L42.3603 40.1429C42.2206 39.8347 42.015 39.3755 41.7682 38.8169C40.8138 36.6486 40.3608 35.4807 39.8371 34.2571C39.4055 33.2474 38.7642 31.8219 37.8833 30.1147C37.7106 29.7285 37.5379 29.3406 37.3652 28.9544C37.1678 28.5118 36.9704 28.0709 36.7731 27.6283C36.6497 27.3515 36.5263 27.0763 36.403 26.7995C36.255 26.468 36.1069 26.1365 35.9589 25.805L35.7369 25.3077L35.2928 24.3132C35.2434 24.2021 35.1941 24.0927 35.1448 23.9817C35.0461 23.7612 34.9474 23.5391 34.8487 23.3186C34.7993 23.2076 34.75 23.0982 34.7007 22.9871C34.6267 22.8214 34.5526 22.6556 34.4786 22.4899C34.4293 22.3788 34.3799 22.2694 34.3306 22.1583C34.2812 22.0473 34.2319 21.9379 34.1826 21.8268C34.1332 21.7158 34.0839 21.6064 34.0345 21.4953C34.0099 21.4406 33.9852 21.3843 33.9605 21.3296C33.9112 21.2185 33.8619 21.1091 33.8125 20.998L34.048 20.9947C34.1101 21.1055 34.1722 21.2148 34.2343 21.3256C34.2653 21.3802 34.2948 21.4365 34.3258 21.4911L34.512 21.8221C34.5741 21.933 34.6346 22.0422 34.6967 22.1531C34.7587 22.264 34.8208 22.3732 34.8829 22.4841L35.1606 22.9805C35.2211 23.0914 35.2832 23.2006 35.3453 23.3115C35.4678 23.5316 35.592 23.7534 35.7161 23.9735C35.7766 24.0844 35.8387 24.1936 35.9008 24.3045C36.0854 24.6354 36.2716 24.9664 36.4562 25.2974C36.5494 25.4629 36.6409 25.6284 36.734 25.7939C36.9186 26.1249 37.1048 26.4558 37.2895 26.7868C37.4447 27.0632 37.5983 27.3379 37.7535 27.6142C38.0002 28.0561 38.2469 28.4963 38.4936 28.9382C38.7092 29.3238 38.9265 29.711 39.1422 30.0966L39.1549 30.0964C39.5847 30.8693 40.0144 31.6405 40.4458 32.4133C40.7529 32.9644 41.0601 33.5172 41.3673 34.0683C41.5585 34.4125 41.7513 34.7584 41.9425 35.1027C41.9981 35.202 42.0536 35.3013 42.1092 35.4006L43.2562 37.461C43.7481 38.3431 44.2399 39.2268 44.7317 40.1089C45.9458 42.2885 47.1582 44.4664 48.3723 46.646Z" fill="#F6EFF0"/>
<path d="M11.5962 45.6741C12.6247 45.7994 13.6532 45.9215 14.6818 46.0468C15.6819 44.1858 16.6804 42.3281 17.6804 40.4671L18.043 39.6645C18.2027 39.3686 18.4415 38.9264 18.7251 38.3885C19.8286 36.3025 20.3615 35.1721 20.9671 33.994C21.4673 33.021 22.2069 31.6508 23.2039 30.0166C23.4023 29.6451 23.6023 29.2719 23.8007 28.9004C24.0286 28.4751 24.2565 28.0497 24.4828 27.6244C24.6255 27.3588 24.7665 27.0932 24.9092 26.8276C25.0797 26.5082 25.2502 26.1905 25.4208 25.8711L25.6765 25.392L26.1881 24.4354C26.2455 24.3278 26.3013 24.2236 26.3586 24.116C26.4718 23.9042 26.5866 23.6907 26.6997 23.4789C26.7571 23.3713 26.8129 23.2671 26.8702 23.1595C26.9555 22.9998 27.0408 22.8401 27.126 22.6804C27.1834 22.5728 27.2392 22.4685 27.2965 22.361C27.3539 22.2534 27.4097 22.1491 27.4671 22.0416C27.5244 21.934 27.5802 21.8297 27.6376 21.7222C27.6655 21.67 27.6949 21.6146 27.7229 21.5625C27.7802 21.4549 27.836 21.3506 27.8934 21.243L27.6591 21.2214C27.5889 21.3275 27.5204 21.4302 27.4503 21.5363C27.416 21.5885 27.3817 21.6424 27.3475 21.6946L27.1387 22.0096C27.0686 22.1157 27.0016 22.2201 26.9315 22.3245C26.8614 22.4306 26.7928 22.5333 26.7227 22.6394L26.4111 23.1127C26.3426 23.2188 26.274 23.3232 26.2039 23.4276C26.0668 23.6381 25.9266 23.8486 25.7879 24.0591C25.7194 24.1652 25.6509 24.2696 25.5807 24.3741C25.3735 24.689 25.1648 25.0056 24.9576 25.3205C24.8532 25.4788 24.7504 25.6355 24.646 25.7938C24.4388 26.1087 24.23 26.4253 24.0228 26.7402C23.8483 27.003 23.677 27.2657 23.5024 27.5284C23.2251 27.9494 22.9494 28.3688 22.6721 28.7898C22.4306 29.1569 22.186 29.5258 21.9445 29.8946L21.9318 29.8948C21.4489 30.6307 20.9675 31.3649 20.483 32.1026C20.1388 32.628 19.7929 33.1551 19.4487 33.6805C19.2337 34.0089 19.0172 34.339 18.8038 34.6673C18.7415 34.7616 18.6792 34.8559 18.6169 34.9519L17.3302 36.9155C16.7787 37.7558 16.2273 38.5995 15.6742 39.4399C14.3127 41.518 12.9512 43.5944 11.5897 45.6708L11.5962 45.6741Z" fill="#F6EFF0"/>
<path d="M41.9883 40.3148L18.0227 40.6588C18.4858 39.763 18.9473 38.8656 19.4104 37.9698L40.8438 37.6621C41.2258 38.5458 41.6063 39.4311 41.9883 40.3148Z" fill="#F6EFF0"/>
<path d="M39.3795 34.2622L21.188 34.5233C21.4777 33.9637 21.7657 33.4023 22.0553 32.8427L38.6648 32.6043C38.9019 33.1564 39.1407 33.7101 39.3795 34.2622Z" fill="#F6EFF0"/>
<path d="M36.2303 26.9711C36.3489 27.248 36.4691 27.5232 36.5877 27.8L24.5667 27.9726C24.7107 27.6919 24.8563 27.4129 25.0003 27.1323L36.2303 26.9711Z" fill="#F6EFF0"/>
<path d="M37.1602 29.1246C37.3265 29.5109 37.4944 29.8988 37.6608 30.2851L23.2668 30.4917C23.4697 30.1001 23.671 29.7069 23.8739 29.3153L37.1602 29.1246Z" fill="#F6EFF0"/>
<path d="M35.5964 25.4765C35.6688 25.6423 35.7396 25.8081 35.8105 25.9739L25.5306 26.1214L25.7908 25.6173L35.5964 25.4765Z" fill="#F6EFF0"/>
<path d="M35.1665 24.4838L26.3095 24.6109C26.3668 24.4983 26.4257 24.3874 26.4829 24.2748L35.0232 24.1522C35.071 24.2633 35.1187 24.3727 35.1665 24.4838Z" fill="#F6EFF0"/>
<path d="M34.5903 23.156C34.638 23.2671 34.6858 23.3765 34.7319 23.4877L26.8251 23.6011C26.8824 23.4886 26.9413 23.3776 26.9986 23.265L34.5903 23.156Z" fill="#F6EFF0"/>
<path d="M34.229 22.3276C34.2767 22.4386 34.3245 22.5481 34.3706 22.6592L27.2548 22.7613C27.3121 22.6487 27.371 22.5378 27.4283 22.4252L34.229 22.3276Z" fill="#F6EFF0"/>
<path d="M33.9471 21.6648C33.9948 21.7759 34.0426 21.8853 34.0903 21.9964L27.6064 22.0894C27.6636 21.9768 27.7225 21.8659 27.7798 21.7533L33.9471 21.6648Z" fill="#F6EFF0"/>
<path d="M33.7306 21.1677C33.7784 21.2788 33.8261 21.3882 33.8739 21.4993L27.8642 21.5855C27.9214 21.4729 27.9803 21.362 28.0376 21.2494L33.7306 21.1677Z" fill="#F6EFF0"/>
</svg>
