<svg width="51" height="52" viewBox="0 0 51 52" fill="none" xmlns="http://www.w3.org/2000/svg">
<path d="M0.514995 15.3304L15.0905 0.309917H35.6865L50.2619 15.3304V36.5738L35.6865 51.5943H15.0905L0.514995 36.5738V15.3304Z" fill="#F6EFEF" stroke="#55504D" stroke-width="0.608115"/>
<path d="M2.67167 16.2473L15.9721 2.54081H34.7924L48.1032 16.2474V35.6485L34.7924 49.3657H15.9721L2.67167 35.6485V16.2473Z" fill="#256CB0" stroke="#55504D" stroke-width="0.202705"/>
<ellipse cx="16.5469" cy="4.56258" rx="0.960974" ry="0.990315" fill="white"/>
<ellipse cx="33.4688" cy="4.56258" rx="0.960974" ry="0.990315" fill="white"/>
<ellipse cx="16.9297" cy="46.9473" rx="0.960974" ry="0.990315" fill="white"/>
<ellipse cx="33.4688" cy="46.9473" rx="0.960974" ry="0.990315" fill="white"/>
<path d="M20.4231 30.125C19.6031 33.6808 18.781 37.2345 17.9609 40.7904C18.5893 40.8694 19.2197 40.9484 19.8481 41.0252L22.2251 30.632C21.6244 30.463 21.0217 30.294 20.421 30.125H20.4231Z" fill="#F6EFEF"/>
<path d="M30.6691 30.125C31.4891 33.6808 32.3113 37.2345 33.1313 40.7904C32.503 40.8694 31.8725 40.9484 31.2442 41.0252L28.8672 30.632C29.4678 30.463 30.0706 30.294 30.6712 30.125H30.6691Z" fill="#F6EFEF"/>
<path d="M29.8328 33.1523H20.9531V34.8117H29.8328V33.1523Z" fill="#F6EFEF"/>
<path d="M31.0838 36.7246H20.1328V38.3368H31.0838V36.7246Z" fill="#F6EFEF"/>
<path d="M30.9272 15.6523H26.3777C26.0871 15.6523 25.8516 15.8951 25.8516 16.1945V21.8992C25.8516 22.1986 26.0871 22.4414 26.3777 22.4414H30.9272C31.2178 22.4414 31.4533 22.1986 31.4533 21.8992V16.1945C31.4533 15.8951 31.2178 15.6523 30.9272 15.6523Z" fill="#F6EFEF"/>
<path d="M31.7321 11.4746H19.0802C17.9343 11.4746 17.0078 12.4294 17.0078 13.6103V28.6568C17.0078 29.8355 17.9343 30.7925 19.0802 30.7925H31.7321C32.8758 30.7925 33.8045 29.8377 33.8045 28.6568V13.6103C33.8045 12.4316 32.878 11.4746 31.7321 11.4746ZM32.4477 22.7282C32.4477 23.1036 32.1538 23.4065 31.7896 23.4065H19.0866C18.7224 23.4065 18.4285 23.1036 18.4285 22.7282V15.3597C18.4285 14.9844 18.7224 14.6815 19.0866 14.6815H31.7896C32.1538 14.6815 32.4477 14.9844 32.4477 15.3597V22.7282Z" fill="#F6EFEF"/>
<path d="M24.4272 15.6523H19.8777C19.5871 15.6523 19.3516 15.8951 19.3516 16.1945V21.8992C19.3516 22.1986 19.5871 22.4414 19.8777 22.4414H24.4272C24.7178 22.4414 24.9533 22.1986 24.9533 21.8992V16.1945C24.9533 15.8951 24.7178 15.6523 24.4272 15.6523Z" fill="#F6EFEF"/>
<path d="M20.092 28.0305C20.6648 28.0305 21.1292 27.5519 21.1292 26.9615C21.1292 26.3712 20.6648 25.8926 20.092 25.8926C19.5191 25.8926 19.0547 26.3712 19.0547 26.9615C19.0547 27.5519 19.5191 28.0305 20.092 28.0305Z" fill="#256CB0"/>
<path d="M30.4123 28.0305C30.9852 28.0305 31.4496 27.5519 31.4496 26.9615C31.4496 26.3712 30.9852 25.8926 30.4123 25.8926C29.8394 25.8926 29.375 26.3712 29.375 26.9615C29.375 27.5519 29.8394 28.0305 30.4123 28.0305Z" fill="#256CB0"/>
<path d="M30.25 10.3926H20.5247C20.3083 10.3926 20.1328 10.5734 20.1328 10.7965V11.8786C20.1328 12.1016 20.3083 12.2824 20.5247 12.2824H30.25C30.4665 12.2824 30.6419 12.1016 30.6419 11.8786V10.7965C30.6419 10.5734 30.4665 10.3926 30.25 10.3926Z" fill="#F6EFEF"/>
</svg>
