<svg width="61" height="61" viewBox="0 0 61 61" fill="none" xmlns="http://www.w3.org/2000/svg">
<path d="M0.609123 18.009L18.009 0.609123H42.6069L60.0068 18.009V42.6069L42.6069 60.0068H18.009L0.609123 42.6069V18.009Z" fill="#F6EFEF" stroke="#55504D" stroke-width="1.21825"/>
<path d="M3.03898 19.0089L19.0011 3.04679H41.5915L57.5661 19.009V41.5993L41.5915 57.5739H19.0012L3.03898 41.5993V19.0089Z" fill="#EF9F29" stroke="#55504D" stroke-width="0.406082"/>
<circle cx="19.6646" cy="5.32086" r="1.15679" fill="white"/>
<circle cx="40.024" cy="5.32086" r="1.15679" fill="white"/>
<circle cx="20.1334" cy="54.8326" r="1.15679" fill="white"/>
<circle cx="40.024" cy="54.8326" r="1.15679" fill="white"/>
<g clip-path="url(#clip0_325_265)">
<path d="M43.7035 20.7337C43.4091 21.2984 42.5594 21.4344 41.9433 21.5336C40.972 21.6904 40.1656 21.5128 39.7031 21.3736C38.423 24.1464 37.1429 26.9208 35.8627 29.6935C36.258 30.1367 39.0054 33.3095 38.103 36.8935C37.9605 37.4599 37.5989 38.895 36.3428 39.7734C34.9634 40.7382 33.3249 40.4566 31.2223 40.0934C29.8525 39.8566 28.7212 39.4822 27.7627 39.087C26.7818 41.1286 25.8025 43.1702 24.8216 45.2134C23.8615 46.0662 22.9014 46.9205 21.9414 47.7733C22.0486 46.4405 22.1542 45.1062 22.2614 43.7734C23.2279 41.807 24.1928 39.8406 25.1593 37.8743C23.7815 37.1895 22.703 36.5639 21.6213 35.4535C20.7108 34.5207 18.5458 32.2967 19.1411 30.0935C19.4963 28.7768 20.7012 27.988 21.3813 27.5336C22.623 26.7032 23.9976 26.4328 24.9016 26.2536C25.0329 26.228 25.5929 26.1656 26.3466 26.012C26.6506 25.9512 26.8986 25.8936 27.0619 25.8536L31.8623 17.6937C31.4719 17.4249 30.339 16.5673 30.1022 15.1337C30.035 14.7273 29.9389 14.1449 30.2622 13.6937C30.8238 12.9081 32.2544 13.0777 33.3025 13.2137C34.5858 13.3801 35.7011 13.7513 37.3029 14.4937C39.8375 15.6681 41.5753 16.4985 42.9034 18.3337C43.3259 18.9161 44.0875 19.9961 43.7035 20.7337Z" fill="#F6EFEF"/>
</g>
<defs>
<clipPath id="clip0_325_265">
<rect width="24.7688" height="34.6764" fill="white" transform="translate(19.0391 13.0977)"/>
</clipPath>
</defs>
</svg>
